G04 (created by PCBNEW-RS274X (2011-07-14 BZR 3049)-stable) date Fri 15 Jul 2011 10:43:33 AM CEST*
G01*
G70*
G90*
%MOIN*%
G04 Gerber Fmt 3.4, Leading zero omitted, Abs format*
%FSLAX34Y34*%
G04 APERTURE LIST*
%ADD10C,0.006000*%
%ADD11C,0.012000*%
%ADD12C,0.015000*%
G04 APERTURE END LIST*
G54D10*
G54D11*
X21910Y-60844D02*
X21624Y-60844D01*
X21624Y-60044D01*
X22081Y-60615D02*
X22367Y-60615D01*
X22024Y-60844D02*
X22224Y-60044D01*
X22424Y-60844D01*
X22738Y-60044D02*
X22852Y-60044D01*
X22910Y-60082D01*
X22967Y-60158D01*
X22995Y-60310D01*
X22995Y-60577D01*
X22967Y-60730D01*
X22910Y-60806D01*
X22852Y-60844D01*
X22738Y-60844D01*
X22681Y-60806D01*
X22624Y-60730D01*
X22595Y-60577D01*
X22595Y-60310D01*
X22624Y-60158D01*
X22681Y-60082D01*
X22738Y-60044D01*
X23224Y-60806D02*
X23310Y-60844D01*
X23453Y-60844D01*
X23510Y-60806D01*
X23539Y-60768D01*
X23567Y-60691D01*
X23567Y-60615D01*
X23539Y-60539D01*
X23510Y-60501D01*
X23453Y-60463D01*
X23339Y-60425D01*
X23281Y-60387D01*
X23253Y-60349D01*
X23224Y-60272D01*
X23224Y-60196D01*
X23253Y-60120D01*
X23281Y-60082D01*
X23339Y-60044D01*
X23481Y-60044D01*
X23567Y-60082D01*
X24481Y-60425D02*
X24567Y-60463D01*
X24595Y-60501D01*
X24624Y-60577D01*
X24624Y-60691D01*
X24595Y-60768D01*
X24567Y-60806D01*
X24509Y-60844D01*
X24281Y-60844D01*
X24281Y-60044D01*
X24481Y-60044D01*
X24538Y-60082D01*
X24567Y-60120D01*
X24595Y-60196D01*
X24595Y-60272D01*
X24567Y-60349D01*
X24538Y-60387D01*
X24481Y-60425D01*
X24281Y-60425D01*
X24967Y-60844D02*
X24909Y-60806D01*
X24881Y-60768D01*
X24852Y-60691D01*
X24852Y-60463D01*
X24881Y-60387D01*
X24909Y-60349D01*
X24967Y-60310D01*
X25052Y-60310D01*
X25109Y-60349D01*
X25138Y-60387D01*
X25167Y-60463D01*
X25167Y-60691D01*
X25138Y-60768D01*
X25109Y-60806D01*
X25052Y-60844D01*
X24967Y-60844D01*
X25681Y-60844D02*
X25681Y-60425D01*
X25652Y-60349D01*
X25595Y-60310D01*
X25481Y-60310D01*
X25424Y-60349D01*
X25681Y-60806D02*
X25624Y-60844D01*
X25481Y-60844D01*
X25424Y-60806D01*
X25395Y-60730D01*
X25395Y-60653D01*
X25424Y-60577D01*
X25481Y-60539D01*
X25624Y-60539D01*
X25681Y-60501D01*
X25967Y-60844D02*
X25967Y-60310D01*
X25967Y-60463D02*
X25995Y-60387D01*
X26024Y-60349D01*
X26081Y-60310D01*
X26138Y-60310D01*
X26595Y-60844D02*
X26595Y-60044D01*
X26595Y-60806D02*
X26538Y-60844D01*
X26424Y-60844D01*
X26366Y-60806D01*
X26338Y-60768D01*
X26309Y-60691D01*
X26309Y-60463D01*
X26338Y-60387D01*
X26366Y-60349D01*
X26424Y-60310D01*
X26538Y-60310D01*
X26595Y-60349D01*
X27281Y-60310D02*
X27424Y-60844D01*
X27566Y-60310D01*
X27909Y-60044D02*
X27966Y-60044D01*
X28023Y-60082D01*
X28052Y-60120D01*
X28081Y-60196D01*
X28109Y-60349D01*
X28109Y-60539D01*
X28081Y-60691D01*
X28052Y-60768D01*
X28023Y-60806D01*
X27966Y-60844D01*
X27909Y-60844D01*
X27852Y-60806D01*
X27823Y-60768D01*
X27795Y-60691D01*
X27766Y-60539D01*
X27766Y-60349D01*
X27795Y-60196D01*
X27823Y-60120D01*
X27852Y-60082D01*
X27909Y-60044D01*
X28366Y-60768D02*
X28394Y-60806D01*
X28366Y-60844D01*
X28337Y-60806D01*
X28366Y-60768D01*
X28366Y-60844D01*
X28966Y-60844D02*
X28623Y-60844D01*
X28795Y-60844D02*
X28795Y-60044D01*
X28738Y-60158D01*
X28680Y-60234D01*
X28623Y-60272D01*
X21650Y-62104D02*
X21650Y-61304D01*
X21907Y-62104D02*
X21907Y-61685D01*
X21878Y-61609D01*
X21821Y-61570D01*
X21736Y-61570D01*
X21678Y-61609D01*
X21650Y-61647D01*
X22107Y-61570D02*
X22336Y-61570D01*
X22193Y-61304D02*
X22193Y-61990D01*
X22221Y-62066D01*
X22279Y-62104D01*
X22336Y-62104D01*
X22450Y-61570D02*
X22679Y-61570D01*
X22536Y-61304D02*
X22536Y-61990D01*
X22564Y-62066D01*
X22622Y-62104D01*
X22679Y-62104D01*
X22879Y-61570D02*
X22879Y-62370D01*
X22879Y-61609D02*
X22936Y-61570D01*
X23050Y-61570D01*
X23107Y-61609D01*
X23136Y-61647D01*
X23165Y-61723D01*
X23165Y-61951D01*
X23136Y-62028D01*
X23107Y-62066D01*
X23050Y-62104D01*
X22936Y-62104D01*
X22879Y-62066D01*
X23422Y-62028D02*
X23450Y-62066D01*
X23422Y-62104D01*
X23393Y-62066D01*
X23422Y-62028D01*
X23422Y-62104D01*
X23422Y-61609D02*
X23450Y-61647D01*
X23422Y-61685D01*
X23393Y-61647D01*
X23422Y-61609D01*
X23422Y-61685D01*
X24136Y-61266D02*
X23622Y-62294D01*
X24765Y-61266D02*
X24251Y-62294D01*
X24909Y-61570D02*
X25023Y-62104D01*
X25137Y-61723D01*
X25252Y-62104D01*
X25366Y-61570D01*
X25538Y-61570D02*
X25652Y-62104D01*
X25766Y-61723D01*
X25881Y-62104D01*
X25995Y-61570D01*
X26167Y-61570D02*
X26281Y-62104D01*
X26395Y-61723D01*
X26510Y-62104D01*
X26624Y-61570D01*
X26853Y-62028D02*
X26881Y-62066D01*
X26853Y-62104D01*
X26824Y-62066D01*
X26853Y-62028D01*
X26853Y-62104D01*
X27225Y-62104D02*
X27167Y-62066D01*
X27139Y-61990D01*
X27139Y-61304D01*
X27710Y-62104D02*
X27710Y-61685D01*
X27681Y-61609D01*
X27624Y-61570D01*
X27510Y-61570D01*
X27453Y-61609D01*
X27710Y-62066D02*
X27653Y-62104D01*
X27510Y-62104D01*
X27453Y-62066D01*
X27424Y-61990D01*
X27424Y-61913D01*
X27453Y-61837D01*
X27510Y-61799D01*
X27653Y-61799D01*
X27710Y-61761D01*
X28082Y-62104D02*
X28024Y-62066D01*
X27996Y-62028D01*
X27967Y-61951D01*
X27967Y-61723D01*
X27996Y-61647D01*
X28024Y-61609D01*
X28082Y-61570D01*
X28167Y-61570D01*
X28224Y-61609D01*
X28253Y-61647D01*
X28282Y-61723D01*
X28282Y-61951D01*
X28253Y-62028D01*
X28224Y-62066D01*
X28167Y-62104D01*
X28082Y-62104D01*
X28510Y-62066D02*
X28567Y-62104D01*
X28682Y-62104D01*
X28739Y-62066D01*
X28767Y-61990D01*
X28767Y-61951D01*
X28739Y-61875D01*
X28682Y-61837D01*
X28596Y-61837D01*
X28539Y-61799D01*
X28510Y-61723D01*
X28510Y-61685D01*
X28539Y-61609D01*
X28596Y-61570D01*
X28682Y-61570D01*
X28739Y-61609D01*
X29111Y-62104D02*
X29053Y-62066D01*
X29025Y-61990D01*
X29025Y-61304D01*
X29596Y-62104D02*
X29596Y-61685D01*
X29567Y-61609D01*
X29510Y-61570D01*
X29396Y-61570D01*
X29339Y-61609D01*
X29596Y-62066D02*
X29539Y-62104D01*
X29396Y-62104D01*
X29339Y-62066D01*
X29310Y-61990D01*
X29310Y-61913D01*
X29339Y-61837D01*
X29396Y-61799D01*
X29539Y-61799D01*
X29596Y-61761D01*
X29853Y-62066D02*
X29910Y-62104D01*
X30025Y-62104D01*
X30082Y-62066D01*
X30110Y-61990D01*
X30110Y-61951D01*
X30082Y-61875D01*
X30025Y-61837D01*
X29939Y-61837D01*
X29882Y-61799D01*
X29853Y-61723D01*
X29853Y-61685D01*
X29882Y-61609D01*
X29939Y-61570D01*
X30025Y-61570D01*
X30082Y-61609D01*
X30596Y-62066D02*
X30539Y-62104D01*
X30425Y-62104D01*
X30368Y-62066D01*
X30339Y-61990D01*
X30339Y-61685D01*
X30368Y-61609D01*
X30425Y-61570D01*
X30539Y-61570D01*
X30596Y-61609D01*
X30625Y-61685D01*
X30625Y-61761D01*
X30339Y-61837D01*
X30882Y-62104D02*
X30882Y-61570D01*
X30882Y-61723D02*
X30910Y-61647D01*
X30939Y-61609D01*
X30996Y-61570D01*
X31053Y-61570D01*
X31253Y-62028D02*
X31281Y-62066D01*
X31253Y-62104D01*
X31224Y-62066D01*
X31253Y-62028D01*
X31253Y-62104D01*
X31625Y-62104D02*
X31567Y-62066D01*
X31539Y-62028D01*
X31510Y-61951D01*
X31510Y-61723D01*
X31539Y-61647D01*
X31567Y-61609D01*
X31625Y-61570D01*
X31710Y-61570D01*
X31767Y-61609D01*
X31796Y-61647D01*
X31825Y-61723D01*
X31825Y-61951D01*
X31796Y-62028D01*
X31767Y-62066D01*
X31710Y-62104D01*
X31625Y-62104D01*
X32082Y-62104D02*
X32082Y-61570D01*
X32082Y-61723D02*
X32110Y-61647D01*
X32139Y-61609D01*
X32196Y-61570D01*
X32253Y-61570D01*
X32710Y-61570D02*
X32710Y-62218D01*
X32681Y-62294D01*
X32653Y-62332D01*
X32596Y-62370D01*
X32510Y-62370D01*
X32453Y-62332D01*
X32710Y-62066D02*
X32653Y-62104D01*
X32539Y-62104D01*
X32481Y-62066D01*
X32453Y-62028D01*
X32424Y-61951D01*
X32424Y-61723D01*
X32453Y-61647D01*
X32481Y-61609D01*
X32539Y-61570D01*
X32653Y-61570D01*
X32710Y-61609D01*
X64315Y-37573D02*
X64315Y-37230D01*
X64315Y-37402D02*
X65115Y-37402D01*
X65001Y-37345D01*
X64925Y-37287D01*
X64887Y-37230D01*
X65115Y-37773D02*
X65115Y-38144D01*
X64810Y-37944D01*
X64810Y-38030D01*
X64772Y-38087D01*
X64734Y-38116D01*
X64658Y-38144D01*
X64468Y-38144D01*
X64391Y-38116D01*
X64353Y-38087D01*
X64315Y-38030D01*
X64315Y-37858D01*
X64353Y-37801D01*
X64391Y-37773D01*
X65039Y-38372D02*
X65077Y-38401D01*
X65115Y-38458D01*
X65115Y-38601D01*
X65077Y-38658D01*
X65039Y-38687D01*
X64963Y-38715D01*
X64887Y-38715D01*
X64772Y-38687D01*
X64315Y-38344D01*
X64315Y-38715D01*
X64391Y-38972D02*
X64353Y-39000D01*
X64315Y-38972D01*
X64353Y-38943D01*
X64391Y-38972D01*
X64315Y-38972D01*
X65115Y-39372D02*
X65115Y-39429D01*
X65077Y-39486D01*
X65039Y-39515D01*
X64963Y-39544D01*
X64810Y-39572D01*
X64620Y-39572D01*
X64468Y-39544D01*
X64391Y-39515D01*
X64353Y-39486D01*
X64315Y-39429D01*
X64315Y-39372D01*
X64353Y-39315D01*
X64391Y-39286D01*
X64468Y-39258D01*
X64620Y-39229D01*
X64810Y-39229D01*
X64963Y-39258D01*
X65039Y-39286D01*
X65077Y-39315D01*
X65115Y-39372D01*
X64772Y-39915D02*
X64810Y-39857D01*
X64849Y-39829D01*
X64925Y-39800D01*
X64963Y-39800D01*
X65039Y-39829D01*
X65077Y-39857D01*
X65115Y-39915D01*
X65115Y-40029D01*
X65077Y-40086D01*
X65039Y-40115D01*
X64963Y-40143D01*
X64925Y-40143D01*
X64849Y-40115D01*
X64810Y-40086D01*
X64772Y-40029D01*
X64772Y-39915D01*
X64734Y-39857D01*
X64696Y-39829D01*
X64620Y-39800D01*
X64468Y-39800D01*
X64391Y-39829D01*
X64353Y-39857D01*
X64315Y-39915D01*
X64315Y-40029D01*
X64353Y-40086D01*
X64391Y-40115D01*
X64468Y-40143D01*
X64620Y-40143D01*
X64696Y-40115D01*
X64734Y-40086D01*
X64772Y-40029D01*
X65115Y-40514D02*
X65115Y-40571D01*
X65077Y-40628D01*
X65039Y-40657D01*
X64963Y-40686D01*
X64810Y-40714D01*
X64620Y-40714D01*
X64468Y-40686D01*
X64391Y-40657D01*
X64353Y-40628D01*
X64315Y-40571D01*
X64315Y-40514D01*
X64353Y-40457D01*
X64391Y-40428D01*
X64468Y-40400D01*
X64620Y-40371D01*
X64810Y-40371D01*
X64963Y-40400D01*
X65039Y-40428D01*
X65077Y-40457D01*
X65115Y-40514D01*
X64315Y-41428D02*
X64849Y-41428D01*
X64772Y-41428D02*
X64810Y-41456D01*
X64849Y-41514D01*
X64849Y-41599D01*
X64810Y-41656D01*
X64734Y-41685D01*
X64315Y-41685D01*
X64734Y-41685D02*
X64810Y-41714D01*
X64849Y-41771D01*
X64849Y-41856D01*
X64810Y-41914D01*
X64734Y-41942D01*
X64315Y-41942D01*
X64315Y-42228D02*
X64849Y-42228D01*
X64772Y-42228D02*
X64810Y-42256D01*
X64849Y-42314D01*
X64849Y-42399D01*
X64810Y-42456D01*
X64734Y-42485D01*
X64315Y-42485D01*
X64734Y-42485D02*
X64810Y-42514D01*
X64849Y-42571D01*
X64849Y-42656D01*
X64810Y-42714D01*
X64734Y-42742D01*
X64315Y-42742D01*
X63999Y-14000D02*
X63999Y-66000D01*
X57250Y-14000D02*
X65279Y-14000D01*
X57250Y-66000D02*
X65279Y-66000D01*
X63999Y-66000D02*
X63769Y-65557D01*
X63999Y-66000D02*
X64229Y-65557D01*
X63999Y-14000D02*
X63769Y-14443D01*
X63999Y-14000D02*
X64229Y-14443D01*
X32073Y-06684D02*
X31730Y-06684D01*
X31902Y-06684D02*
X31902Y-05884D01*
X31845Y-05998D01*
X31787Y-06074D01*
X31730Y-06112D01*
X32644Y-06684D02*
X32301Y-06684D01*
X32473Y-06684D02*
X32473Y-05884D01*
X32416Y-05998D01*
X32358Y-06074D01*
X32301Y-06112D01*
X33158Y-06150D02*
X33158Y-06684D01*
X33015Y-05846D02*
X32872Y-06417D01*
X33244Y-06417D01*
X33472Y-06608D02*
X33500Y-06646D01*
X33472Y-06684D01*
X33443Y-06646D01*
X33472Y-06608D01*
X33472Y-06684D01*
X33701Y-05884D02*
X34072Y-05884D01*
X33872Y-06189D01*
X33958Y-06189D01*
X34015Y-06227D01*
X34044Y-06265D01*
X34072Y-06341D01*
X34072Y-06531D01*
X34044Y-06608D01*
X34015Y-06646D01*
X33958Y-06684D01*
X33786Y-06684D01*
X33729Y-06646D01*
X33701Y-06608D01*
X34443Y-05884D02*
X34500Y-05884D01*
X34557Y-05922D01*
X34586Y-05960D01*
X34615Y-06036D01*
X34643Y-06189D01*
X34643Y-06379D01*
X34615Y-06531D01*
X34586Y-06608D01*
X34557Y-06646D01*
X34500Y-06684D01*
X34443Y-06684D01*
X34386Y-06646D01*
X34357Y-06608D01*
X34329Y-06531D01*
X34300Y-06379D01*
X34300Y-06189D01*
X34329Y-06036D01*
X34357Y-05960D01*
X34386Y-05922D01*
X34443Y-05884D01*
X35014Y-05884D02*
X35071Y-05884D01*
X35128Y-05922D01*
X35157Y-05960D01*
X35186Y-06036D01*
X35214Y-06189D01*
X35214Y-06379D01*
X35186Y-06531D01*
X35157Y-06608D01*
X35128Y-06646D01*
X35071Y-06684D01*
X35014Y-06684D01*
X34957Y-06646D01*
X34928Y-06608D01*
X34900Y-06531D01*
X34871Y-06379D01*
X34871Y-06189D01*
X34900Y-06036D01*
X34928Y-05960D01*
X34957Y-05922D01*
X35014Y-05884D01*
X35928Y-06684D02*
X35928Y-06150D01*
X35928Y-06227D02*
X35956Y-06189D01*
X36014Y-06150D01*
X36099Y-06150D01*
X36156Y-06189D01*
X36185Y-06265D01*
X36185Y-06684D01*
X36185Y-06265D02*
X36214Y-06189D01*
X36271Y-06150D01*
X36356Y-06150D01*
X36414Y-06189D01*
X36442Y-06265D01*
X36442Y-06684D01*
X36728Y-06684D02*
X36728Y-06150D01*
X36728Y-06227D02*
X36756Y-06189D01*
X36814Y-06150D01*
X36899Y-06150D01*
X36956Y-06189D01*
X36985Y-06265D01*
X36985Y-06684D01*
X36985Y-06265D02*
X37014Y-06189D01*
X37071Y-06150D01*
X37156Y-06150D01*
X37214Y-06189D01*
X37242Y-06265D01*
X37242Y-06684D01*
X57000Y-07000D02*
X12000Y-07000D01*
X57000Y-13750D02*
X57000Y-05720D01*
X12000Y-13750D02*
X12000Y-05720D01*
X12000Y-07000D02*
X12443Y-06770D01*
X12000Y-07000D02*
X12443Y-07230D01*
X57000Y-07000D02*
X56557Y-06770D01*
X57000Y-07000D02*
X56557Y-07230D01*
G54D12*
X12008Y-66043D02*
X12008Y-13976D01*
X57087Y-66043D02*
X12008Y-66043D01*
X57087Y-13976D02*
X57087Y-66043D01*
X56988Y-13976D02*
X57087Y-13976D01*
X12008Y-13976D02*
X56988Y-13976D01*
M02*
