G04 (created by PCBNEW-RS274X (2012-02-06 BZR 3180)-stable) date Sun 03 Jun 2012 09:51:07 PM CEST*
G01*
G70*
G90*
%MOIN*%
G04 Gerber Fmt 3.4, Leading zero omitted, Abs format*
%FSLAX34Y34*%
G04 APERTURE LIST*
%ADD10C,0.006000*%
%ADD11C,0.012000*%
%ADD12C,0.015000*%
%ADD13C,0.009900*%
%ADD14C,0.010200*%
%ADD15C,0.008100*%
%ADD16C,0.005000*%
%ADD17C,0.007500*%
%ADD18C,0.007000*%
%ADD19C,0.010000*%
%ADD20C,0.003900*%
%ADD21C,0.008000*%
%ADD22C,0.003500*%
%ADD23C,0.007900*%
%ADD24C,0.010700*%
G04 APERTURE END LIST*
G54D10*
G54D11*
X24986Y-59424D02*
X25186Y-60224D01*
X25386Y-59424D01*
X25557Y-59995D02*
X25843Y-59995D01*
X25500Y-60224D02*
X25700Y-59424D01*
X25900Y-60224D01*
X26071Y-59995D02*
X26357Y-59995D01*
X26014Y-60224D02*
X26214Y-59424D01*
X26414Y-60224D01*
X25900Y-58324D02*
X26100Y-59124D01*
X26300Y-58324D01*
X26500Y-59124D02*
X26500Y-58324D01*
X26728Y-58324D01*
X26786Y-58362D01*
X26814Y-58400D01*
X26843Y-58476D01*
X26843Y-58590D01*
X26814Y-58667D01*
X26786Y-58705D01*
X26728Y-58743D01*
X26500Y-58743D01*
X27100Y-59124D02*
X27100Y-58324D01*
X27328Y-58324D01*
X27386Y-58362D01*
X27414Y-58400D01*
X27443Y-58476D01*
X27443Y-58590D01*
X27414Y-58667D01*
X27386Y-58705D01*
X27328Y-58743D01*
X27100Y-58743D01*
X24829Y-57819D02*
X25286Y-57819D01*
X25057Y-58124D02*
X25057Y-57514D01*
X25858Y-57324D02*
X25572Y-57324D01*
X25543Y-57705D01*
X25572Y-57667D01*
X25629Y-57629D01*
X25772Y-57629D01*
X25829Y-57667D01*
X25858Y-57705D01*
X25886Y-57781D01*
X25886Y-57971D01*
X25858Y-58048D01*
X25829Y-58086D01*
X25772Y-58124D01*
X25629Y-58124D01*
X25572Y-58086D01*
X25543Y-58048D01*
X26057Y-57324D02*
X26257Y-58124D01*
X26457Y-57324D01*
X22385Y-60324D02*
X22585Y-61124D01*
X22785Y-60324D01*
X22985Y-60705D02*
X23185Y-60705D01*
X23271Y-61124D02*
X22985Y-61124D01*
X22985Y-60324D01*
X23271Y-60324D01*
X23528Y-60590D02*
X23528Y-61124D01*
X23528Y-60667D02*
X23556Y-60629D01*
X23614Y-60590D01*
X23699Y-60590D01*
X23756Y-60629D01*
X23785Y-60705D01*
X23785Y-61124D01*
X24328Y-61124D02*
X24328Y-60324D01*
X24328Y-61086D02*
X24271Y-61124D01*
X24157Y-61124D01*
X24099Y-61086D01*
X24071Y-61048D01*
X24042Y-60971D01*
X24042Y-60743D01*
X24071Y-60667D01*
X24099Y-60629D01*
X24157Y-60590D01*
X24271Y-60590D01*
X24328Y-60629D01*
X24585Y-61086D02*
X24642Y-61124D01*
X24757Y-61124D01*
X24814Y-61086D01*
X24842Y-61010D01*
X24842Y-60971D01*
X24814Y-60895D01*
X24757Y-60857D01*
X24671Y-60857D01*
X24614Y-60819D01*
X24585Y-60743D01*
X24585Y-60705D01*
X24614Y-60629D01*
X24671Y-60590D01*
X24757Y-60590D01*
X24814Y-60629D01*
X25014Y-60590D02*
X25243Y-60590D01*
X25100Y-60324D02*
X25100Y-61010D01*
X25128Y-61086D01*
X25186Y-61124D01*
X25243Y-61124D01*
X25529Y-61124D02*
X25471Y-61086D01*
X25443Y-61048D01*
X25414Y-60971D01*
X25414Y-60743D01*
X25443Y-60667D01*
X25471Y-60629D01*
X25529Y-60590D01*
X25614Y-60590D01*
X25671Y-60629D01*
X25700Y-60667D01*
X25729Y-60743D01*
X25729Y-60971D01*
X25700Y-61048D01*
X25671Y-61086D01*
X25614Y-61124D01*
X25529Y-61124D01*
X25986Y-60590D02*
X25986Y-61390D01*
X25986Y-60629D02*
X26043Y-60590D01*
X26157Y-60590D01*
X26214Y-60629D01*
X26243Y-60667D01*
X26272Y-60743D01*
X26272Y-60971D01*
X26243Y-61048D01*
X26214Y-61086D01*
X26157Y-61124D01*
X26043Y-61124D01*
X25986Y-61086D01*
X26500Y-61086D02*
X26557Y-61124D01*
X26672Y-61124D01*
X26729Y-61086D01*
X26757Y-61010D01*
X26757Y-60971D01*
X26729Y-60895D01*
X26672Y-60857D01*
X26586Y-60857D01*
X26529Y-60819D01*
X26500Y-60743D01*
X26500Y-60705D01*
X26529Y-60629D01*
X26586Y-60590D01*
X26672Y-60590D01*
X26729Y-60629D01*
X45272Y-65019D02*
X45729Y-65019D01*
X45500Y-65324D02*
X45500Y-64714D01*
X23929Y-27024D02*
X23643Y-27024D01*
X23614Y-27405D01*
X23643Y-27367D01*
X23700Y-27329D01*
X23843Y-27329D01*
X23900Y-27367D01*
X23929Y-27405D01*
X23957Y-27481D01*
X23957Y-27671D01*
X23929Y-27748D01*
X23900Y-27786D01*
X23843Y-27824D01*
X23700Y-27824D01*
X23643Y-27786D01*
X23614Y-27748D01*
X24128Y-27024D02*
X24328Y-27824D01*
X24528Y-27024D01*
X23307Y-25024D02*
X23507Y-25824D01*
X23707Y-25024D01*
X24250Y-25748D02*
X24221Y-25786D01*
X24135Y-25824D01*
X24078Y-25824D01*
X23993Y-25786D01*
X23935Y-25710D01*
X23907Y-25633D01*
X23878Y-25481D01*
X23878Y-25367D01*
X23907Y-25214D01*
X23935Y-25138D01*
X23993Y-25062D01*
X24078Y-25024D01*
X24135Y-25024D01*
X24221Y-25062D01*
X24250Y-25100D01*
X24507Y-25824D02*
X24507Y-25024D01*
X24735Y-25024D01*
X24793Y-25062D01*
X24821Y-25100D01*
X24850Y-25176D01*
X24850Y-25290D01*
X24821Y-25367D01*
X24793Y-25405D01*
X24735Y-25443D01*
X24507Y-25443D01*
X25107Y-25024D02*
X25107Y-25671D01*
X25135Y-25748D01*
X25164Y-25786D01*
X25221Y-25824D01*
X25335Y-25824D01*
X25393Y-25786D01*
X25421Y-25748D01*
X25450Y-25671D01*
X25450Y-25024D01*
X23143Y-26748D02*
X23171Y-26786D01*
X23143Y-26824D01*
X23114Y-26786D01*
X23143Y-26748D01*
X23143Y-26824D01*
X23143Y-26329D02*
X23171Y-26367D01*
X23143Y-26405D01*
X23114Y-26367D01*
X23143Y-26329D01*
X23143Y-26405D01*
X23343Y-26024D02*
X23543Y-26824D01*
X23743Y-26024D01*
X23914Y-26786D02*
X24000Y-26824D01*
X24143Y-26824D01*
X24200Y-26786D01*
X24229Y-26748D01*
X24257Y-26671D01*
X24257Y-26595D01*
X24229Y-26519D01*
X24200Y-26481D01*
X24143Y-26443D01*
X24029Y-26405D01*
X23971Y-26367D01*
X23943Y-26329D01*
X23914Y-26252D01*
X23914Y-26176D01*
X23943Y-26100D01*
X23971Y-26062D01*
X24029Y-26024D01*
X24171Y-26024D01*
X24257Y-26062D01*
X24742Y-26786D02*
X24685Y-26824D01*
X24571Y-26824D01*
X24514Y-26786D01*
X24485Y-26710D01*
X24485Y-26405D01*
X24514Y-26329D01*
X24571Y-26290D01*
X24685Y-26290D01*
X24742Y-26329D01*
X24771Y-26405D01*
X24771Y-26481D01*
X24485Y-26557D01*
X25028Y-26290D02*
X25028Y-26824D01*
X25028Y-26367D02*
X25056Y-26329D01*
X25114Y-26290D01*
X25199Y-26290D01*
X25256Y-26329D01*
X25285Y-26405D01*
X25285Y-26824D01*
X25542Y-26786D02*
X25599Y-26824D01*
X25714Y-26824D01*
X25771Y-26786D01*
X25799Y-26710D01*
X25799Y-26671D01*
X25771Y-26595D01*
X25714Y-26557D01*
X25628Y-26557D01*
X25571Y-26519D01*
X25542Y-26443D01*
X25542Y-26405D01*
X25571Y-26329D01*
X25628Y-26290D01*
X25714Y-26290D01*
X25771Y-26329D01*
X26143Y-26824D02*
X26085Y-26786D01*
X26057Y-26748D01*
X26028Y-26671D01*
X26028Y-26443D01*
X26057Y-26367D01*
X26085Y-26329D01*
X26143Y-26290D01*
X26228Y-26290D01*
X26285Y-26329D01*
X26314Y-26367D01*
X26343Y-26443D01*
X26343Y-26671D01*
X26314Y-26748D01*
X26285Y-26786D01*
X26228Y-26824D01*
X26143Y-26824D01*
X26600Y-26824D02*
X26600Y-26290D01*
X26600Y-26443D02*
X26628Y-26367D01*
X26657Y-26329D01*
X26714Y-26290D01*
X26771Y-26290D01*
X26942Y-26786D02*
X26999Y-26824D01*
X27114Y-26824D01*
X27171Y-26786D01*
X27199Y-26710D01*
X27199Y-26671D01*
X27171Y-26595D01*
X27114Y-26557D01*
X27028Y-26557D01*
X26971Y-26519D01*
X26942Y-26443D01*
X26942Y-26405D01*
X26971Y-26329D01*
X27028Y-26290D01*
X27114Y-26290D01*
X27171Y-26329D01*
X24926Y-35929D02*
X24926Y-35643D01*
X25726Y-35643D01*
X25155Y-36100D02*
X25155Y-36386D01*
X24926Y-36043D02*
X25726Y-36243D01*
X24926Y-36443D01*
X24964Y-36614D02*
X24926Y-36700D01*
X24926Y-36843D01*
X24964Y-36900D01*
X25002Y-36929D01*
X25079Y-36957D01*
X25155Y-36957D01*
X25231Y-36929D01*
X25269Y-36900D01*
X25307Y-36843D01*
X25345Y-36729D01*
X25383Y-36671D01*
X25421Y-36643D01*
X25498Y-36614D01*
X25574Y-36614D01*
X25650Y-36643D01*
X25688Y-36671D01*
X25726Y-36729D01*
X25726Y-36871D01*
X25688Y-36957D01*
X25345Y-37671D02*
X25345Y-37871D01*
X24926Y-37957D02*
X24926Y-37671D01*
X25726Y-37671D01*
X25726Y-37957D01*
X24926Y-38214D02*
X25726Y-38214D01*
X24926Y-38557D01*
X25726Y-38557D01*
X25155Y-38814D02*
X25155Y-39100D01*
X24926Y-38757D02*
X25726Y-38957D01*
X24926Y-39157D01*
X23176Y-35929D02*
X23176Y-35643D01*
X23976Y-35643D01*
X23405Y-36100D02*
X23405Y-36386D01*
X23176Y-36043D02*
X23976Y-36243D01*
X23176Y-36443D01*
X23214Y-36614D02*
X23176Y-36700D01*
X23176Y-36843D01*
X23214Y-36900D01*
X23252Y-36929D01*
X23329Y-36957D01*
X23405Y-36957D01*
X23481Y-36929D01*
X23519Y-36900D01*
X23557Y-36843D01*
X23595Y-36729D01*
X23633Y-36671D01*
X23671Y-36643D01*
X23748Y-36614D01*
X23824Y-36614D01*
X23900Y-36643D01*
X23938Y-36671D01*
X23976Y-36729D01*
X23976Y-36871D01*
X23938Y-36957D01*
X23976Y-37785D02*
X23976Y-37899D01*
X23938Y-37957D01*
X23862Y-38014D01*
X23710Y-38042D01*
X23443Y-38042D01*
X23290Y-38014D01*
X23214Y-37957D01*
X23176Y-37899D01*
X23176Y-37785D01*
X23214Y-37728D01*
X23290Y-37671D01*
X23443Y-37642D01*
X23710Y-37642D01*
X23862Y-37671D01*
X23938Y-37728D01*
X23976Y-37785D01*
X23176Y-38300D02*
X23976Y-38300D01*
X23176Y-38643D01*
X23976Y-38643D01*
X19879Y-34274D02*
X19993Y-34274D01*
X20051Y-34312D01*
X20108Y-34388D01*
X20136Y-34540D01*
X20136Y-34807D01*
X20108Y-34960D01*
X20051Y-35036D01*
X19993Y-35074D01*
X19879Y-35074D01*
X19822Y-35036D01*
X19765Y-34960D01*
X19736Y-34807D01*
X19736Y-34540D01*
X19765Y-34388D01*
X19822Y-34312D01*
X19879Y-34274D01*
X20708Y-35074D02*
X20365Y-35074D01*
X20537Y-35074D02*
X20537Y-34274D01*
X20480Y-34388D01*
X20422Y-34464D01*
X20365Y-34502D01*
X20936Y-35036D02*
X21022Y-35074D01*
X21165Y-35074D01*
X21222Y-35036D01*
X21251Y-34998D01*
X21279Y-34921D01*
X21279Y-34845D01*
X21251Y-34769D01*
X21222Y-34731D01*
X21165Y-34693D01*
X21051Y-34655D01*
X20993Y-34617D01*
X20965Y-34579D01*
X20936Y-34502D01*
X20936Y-34426D01*
X20965Y-34350D01*
X20993Y-34312D01*
X21051Y-34274D01*
X21193Y-34274D01*
X21279Y-34312D01*
X21879Y-35074D02*
X21679Y-34693D01*
X21536Y-35074D02*
X21536Y-34274D01*
X21764Y-34274D01*
X21822Y-34312D01*
X21850Y-34350D01*
X21879Y-34426D01*
X21879Y-34540D01*
X21850Y-34617D01*
X21822Y-34655D01*
X21764Y-34693D01*
X21536Y-34693D01*
X22479Y-34998D02*
X22450Y-35036D01*
X22364Y-35074D01*
X22307Y-35074D01*
X22222Y-35036D01*
X22164Y-34960D01*
X22136Y-34883D01*
X22107Y-34731D01*
X22107Y-34617D01*
X22136Y-34464D01*
X22164Y-34388D01*
X22222Y-34312D01*
X22307Y-34274D01*
X22364Y-34274D01*
X22450Y-34312D01*
X22479Y-34350D01*
X22736Y-34998D02*
X22764Y-35036D01*
X22736Y-35074D01*
X22707Y-35036D01*
X22736Y-34998D01*
X22736Y-35074D01*
X22736Y-34579D02*
X22764Y-34617D01*
X22736Y-34655D01*
X22707Y-34617D01*
X22736Y-34579D01*
X22736Y-34655D01*
X20929Y-31074D02*
X20643Y-31074D01*
X20643Y-30274D01*
X21100Y-30845D02*
X21386Y-30845D01*
X21043Y-31074D02*
X21243Y-30274D01*
X21443Y-31074D01*
X21614Y-31036D02*
X21700Y-31074D01*
X21843Y-31074D01*
X21900Y-31036D01*
X21929Y-30998D01*
X21957Y-30921D01*
X21957Y-30845D01*
X21929Y-30769D01*
X21900Y-30731D01*
X21843Y-30693D01*
X21729Y-30655D01*
X21671Y-30617D01*
X21643Y-30579D01*
X21614Y-30502D01*
X21614Y-30426D01*
X21643Y-30350D01*
X21671Y-30312D01*
X21729Y-30274D01*
X21871Y-30274D01*
X21957Y-30312D01*
X22671Y-31074D02*
X22671Y-30274D01*
X22899Y-30274D01*
X22957Y-30312D01*
X22985Y-30350D01*
X23014Y-30426D01*
X23014Y-30540D01*
X22985Y-30617D01*
X22957Y-30655D01*
X22899Y-30693D01*
X22671Y-30693D01*
X23214Y-30274D02*
X23357Y-31074D01*
X23471Y-30502D01*
X23585Y-31074D01*
X23728Y-30274D01*
X23957Y-31074D02*
X23957Y-30274D01*
X24157Y-30845D01*
X24357Y-30274D01*
X24357Y-31074D01*
X21500Y-29274D02*
X21614Y-29274D01*
X21672Y-29312D01*
X21729Y-29388D01*
X21757Y-29540D01*
X21757Y-29807D01*
X21729Y-29960D01*
X21672Y-30036D01*
X21614Y-30074D01*
X21500Y-30074D01*
X21443Y-30036D01*
X21386Y-29960D01*
X21357Y-29807D01*
X21357Y-29540D01*
X21386Y-29388D01*
X21443Y-29312D01*
X21500Y-29274D01*
X21986Y-29350D02*
X22015Y-29312D01*
X22072Y-29274D01*
X22215Y-29274D01*
X22272Y-29312D01*
X22301Y-29350D01*
X22329Y-29426D01*
X22329Y-29502D01*
X22301Y-29617D01*
X21958Y-30074D01*
X22329Y-30074D01*
X22557Y-30036D02*
X22643Y-30074D01*
X22786Y-30074D01*
X22843Y-30036D01*
X22872Y-29998D01*
X22900Y-29921D01*
X22900Y-29845D01*
X22872Y-29769D01*
X22843Y-29731D01*
X22786Y-29693D01*
X22672Y-29655D01*
X22614Y-29617D01*
X22586Y-29579D01*
X22557Y-29502D01*
X22557Y-29426D01*
X22586Y-29350D01*
X22614Y-29312D01*
X22672Y-29274D01*
X22814Y-29274D01*
X22900Y-29312D01*
X23500Y-30074D02*
X23300Y-29693D01*
X23157Y-30074D02*
X23157Y-29274D01*
X23385Y-29274D01*
X23443Y-29312D01*
X23471Y-29350D01*
X23500Y-29426D01*
X23500Y-29540D01*
X23471Y-29617D01*
X23443Y-29655D01*
X23385Y-29693D01*
X23157Y-29693D01*
X24100Y-29998D02*
X24071Y-30036D01*
X23985Y-30074D01*
X23928Y-30074D01*
X23843Y-30036D01*
X23785Y-29960D01*
X23757Y-29883D01*
X23728Y-29731D01*
X23728Y-29617D01*
X23757Y-29464D01*
X23785Y-29388D01*
X23843Y-29312D01*
X23928Y-29274D01*
X23985Y-29274D01*
X24071Y-29312D01*
X24100Y-29350D01*
X24357Y-29998D02*
X24385Y-30036D01*
X24357Y-30074D01*
X24328Y-30036D01*
X24357Y-29998D01*
X24357Y-30074D01*
X24357Y-29579D02*
X24385Y-29617D01*
X24357Y-29655D01*
X24328Y-29617D01*
X24357Y-29579D01*
X24357Y-29655D01*
X20757Y-28655D02*
X20957Y-28655D01*
X21043Y-29074D02*
X20757Y-29074D01*
X20757Y-28274D01*
X21043Y-28274D01*
X21243Y-28274D02*
X21643Y-29074D01*
X21643Y-28274D02*
X21243Y-29074D01*
X21871Y-29074D02*
X21871Y-28274D01*
X21871Y-28655D02*
X22214Y-28655D01*
X22214Y-29074D02*
X22214Y-28274D01*
X22957Y-28655D02*
X23157Y-28655D01*
X23243Y-29074D02*
X22957Y-29074D01*
X22957Y-28274D01*
X23243Y-28274D01*
X23500Y-29074D02*
X23500Y-28274D01*
X23843Y-29074D01*
X23843Y-28274D01*
X24100Y-28845D02*
X24386Y-28845D01*
X24043Y-29074D02*
X24243Y-28274D01*
X24443Y-29074D01*
X50143Y-64774D02*
X50257Y-64774D01*
X50315Y-64812D01*
X50372Y-64888D01*
X50400Y-65040D01*
X50400Y-65307D01*
X50372Y-65460D01*
X50315Y-65536D01*
X50257Y-65574D01*
X50143Y-65574D01*
X50086Y-65536D01*
X50029Y-65460D01*
X50000Y-65307D01*
X50000Y-65040D01*
X50029Y-64888D01*
X50086Y-64812D01*
X50143Y-64774D01*
X50658Y-65574D02*
X50658Y-64774D01*
X51001Y-65574D02*
X50744Y-65117D01*
X51001Y-64774D02*
X50658Y-65231D01*
X15476Y-30657D02*
X15476Y-30771D01*
X15438Y-30829D01*
X15362Y-30886D01*
X15210Y-30914D01*
X14943Y-30914D01*
X14790Y-30886D01*
X14714Y-30829D01*
X14676Y-30771D01*
X14676Y-30657D01*
X14714Y-30600D01*
X14790Y-30543D01*
X14943Y-30514D01*
X15210Y-30514D01*
X15362Y-30543D01*
X15438Y-30600D01*
X15476Y-30657D01*
X15400Y-31143D02*
X15438Y-31172D01*
X15476Y-31229D01*
X15476Y-31372D01*
X15438Y-31429D01*
X15400Y-31458D01*
X15324Y-31486D01*
X15248Y-31486D01*
X15133Y-31458D01*
X14676Y-31115D01*
X14676Y-31486D01*
X15476Y-28657D02*
X15476Y-28771D01*
X15438Y-28829D01*
X15362Y-28886D01*
X15210Y-28914D01*
X14943Y-28914D01*
X14790Y-28886D01*
X14714Y-28829D01*
X14676Y-28771D01*
X14676Y-28657D01*
X14714Y-28600D01*
X14790Y-28543D01*
X14943Y-28514D01*
X15210Y-28514D01*
X15362Y-28543D01*
X15438Y-28600D01*
X15476Y-28657D01*
X14676Y-29486D02*
X14676Y-29143D01*
X14676Y-29315D02*
X15476Y-29315D01*
X15362Y-29258D01*
X15286Y-29200D01*
X15248Y-29143D01*
G54D12*
X56750Y-25500D02*
X56750Y-24500D01*
X55500Y-25500D02*
X56750Y-25500D01*
X55500Y-34500D02*
X56750Y-34500D01*
X55500Y-54500D02*
X56750Y-54500D01*
X56750Y-55500D02*
X56750Y-54500D01*
X55500Y-55500D02*
X56750Y-55500D01*
X56750Y-44500D02*
X56500Y-44500D01*
X56750Y-45500D02*
X56750Y-44500D01*
X55500Y-45500D02*
X56750Y-45500D01*
X56750Y-35500D02*
X55500Y-35500D01*
X56750Y-34500D02*
X56750Y-35500D01*
X55500Y-52500D02*
X56750Y-52500D01*
X56750Y-50500D02*
X56750Y-54500D01*
X55500Y-50500D02*
X56750Y-50500D01*
X55500Y-42500D02*
X56750Y-42500D01*
X56750Y-44500D02*
X55500Y-44500D01*
X56750Y-40500D02*
X56750Y-44500D01*
X55500Y-40500D02*
X56750Y-40500D01*
X56750Y-32500D02*
X56750Y-32750D01*
X55500Y-32500D02*
X56750Y-32500D01*
X56750Y-30500D02*
X56750Y-34500D01*
X55500Y-30500D02*
X56750Y-30500D01*
X56750Y-20500D02*
X56750Y-20750D01*
X55500Y-20500D02*
X56750Y-20500D01*
X56750Y-24500D02*
X56750Y-20750D01*
X55500Y-24500D02*
X56750Y-24500D01*
X55500Y-22500D02*
X56750Y-22500D01*
G54D11*
X14905Y-19464D02*
X14905Y-19750D01*
X14676Y-19407D02*
X15476Y-19607D01*
X14676Y-19807D01*
X14676Y-20007D02*
X15476Y-20007D01*
X14905Y-23543D02*
X14905Y-23829D01*
X14676Y-23486D02*
X15476Y-23686D01*
X14676Y-23886D01*
X15476Y-24200D02*
X15476Y-24314D01*
X15438Y-24372D01*
X15362Y-24429D01*
X15210Y-24457D01*
X14943Y-24457D01*
X14790Y-24429D01*
X14714Y-24372D01*
X14676Y-24314D01*
X14676Y-24200D01*
X14714Y-24143D01*
X14790Y-24086D01*
X14943Y-24057D01*
X15210Y-24057D01*
X15362Y-24086D01*
X15438Y-24143D01*
X15476Y-24200D01*
G54D13*
X13009Y-19728D02*
X13009Y-19271D01*
X12991Y-24308D02*
X12991Y-24765D01*
X12841Y-24536D02*
X13141Y-24536D01*
X13235Y-24994D02*
X13235Y-25365D01*
X13084Y-25165D01*
X13084Y-25251D01*
X13066Y-25308D01*
X13047Y-25337D01*
X13009Y-25365D01*
X12916Y-25365D01*
X12878Y-25337D01*
X12859Y-25308D01*
X12841Y-25251D01*
X12841Y-25079D01*
X12859Y-25022D01*
X12878Y-24994D01*
X12878Y-25622D02*
X12859Y-25650D01*
X12841Y-25622D01*
X12859Y-25593D01*
X12878Y-25622D01*
X12841Y-25622D01*
X13235Y-25851D02*
X13235Y-26222D01*
X13084Y-26022D01*
X13084Y-26108D01*
X13066Y-26165D01*
X13047Y-26194D01*
X13009Y-26222D01*
X12916Y-26222D01*
X12878Y-26194D01*
X12859Y-26165D01*
X12841Y-26108D01*
X12841Y-25936D01*
X12859Y-25879D01*
X12878Y-25851D01*
G54D11*
X13019Y-27728D02*
X13019Y-27271D01*
X13019Y-35228D02*
X13019Y-34771D01*
X30944Y-20024D02*
X30658Y-20024D01*
X30629Y-20405D01*
X30658Y-20367D01*
X30715Y-20329D01*
X30858Y-20329D01*
X30915Y-20367D01*
X30944Y-20405D01*
X30972Y-20481D01*
X30972Y-20671D01*
X30944Y-20748D01*
X30915Y-20786D01*
X30858Y-20824D01*
X30715Y-20824D01*
X30658Y-20786D01*
X30629Y-20748D01*
X31143Y-20024D02*
X31343Y-20824D01*
X31543Y-20024D01*
X32314Y-20024D02*
X32428Y-20024D01*
X32486Y-20062D01*
X32543Y-20138D01*
X32571Y-20290D01*
X32571Y-20557D01*
X32543Y-20710D01*
X32486Y-20786D01*
X32428Y-20824D01*
X32314Y-20824D01*
X32257Y-20786D01*
X32200Y-20710D01*
X32171Y-20557D01*
X32171Y-20290D01*
X32200Y-20138D01*
X32257Y-20062D01*
X32314Y-20024D01*
X32829Y-20824D02*
X32829Y-20024D01*
X33172Y-20824D02*
X32915Y-20367D01*
X33172Y-20024D02*
X32829Y-20481D01*
X38643Y-22905D02*
X38843Y-22905D01*
X38929Y-23324D02*
X38643Y-23324D01*
X38643Y-22524D01*
X38929Y-22524D01*
X39186Y-22790D02*
X39186Y-23324D01*
X39186Y-22867D02*
X39214Y-22829D01*
X39272Y-22790D01*
X39357Y-22790D01*
X39414Y-22829D01*
X39443Y-22905D01*
X39443Y-23324D01*
X39986Y-23324D02*
X39986Y-22905D01*
X39957Y-22829D01*
X39900Y-22790D01*
X39786Y-22790D01*
X39729Y-22829D01*
X39986Y-23286D02*
X39929Y-23324D01*
X39786Y-23324D01*
X39729Y-23286D01*
X39700Y-23210D01*
X39700Y-23133D01*
X39729Y-23057D01*
X39786Y-23019D01*
X39929Y-23019D01*
X39986Y-22981D01*
X40272Y-23324D02*
X40272Y-22524D01*
X40272Y-22829D02*
X40329Y-22790D01*
X40443Y-22790D01*
X40500Y-22829D01*
X40529Y-22867D01*
X40558Y-22943D01*
X40558Y-23171D01*
X40529Y-23248D01*
X40500Y-23286D01*
X40443Y-23324D01*
X40329Y-23324D01*
X40272Y-23286D01*
X40901Y-23324D02*
X40843Y-23286D01*
X40815Y-23210D01*
X40815Y-22524D01*
X41357Y-23286D02*
X41300Y-23324D01*
X41186Y-23324D01*
X41129Y-23286D01*
X41100Y-23210D01*
X41100Y-22905D01*
X41129Y-22829D01*
X41186Y-22790D01*
X41300Y-22790D01*
X41357Y-22829D01*
X41386Y-22905D01*
X41386Y-22981D01*
X41100Y-23057D01*
X16772Y-15269D02*
X17229Y-15269D01*
X17000Y-15574D02*
X17000Y-14964D01*
X14772Y-38786D02*
X14858Y-38824D01*
X15001Y-38824D01*
X15058Y-38786D01*
X15087Y-38748D01*
X15115Y-38671D01*
X15115Y-38595D01*
X15087Y-38519D01*
X15058Y-38481D01*
X15001Y-38443D01*
X14887Y-38405D01*
X14829Y-38367D01*
X14801Y-38329D01*
X14772Y-38252D01*
X14772Y-38176D01*
X14801Y-38100D01*
X14829Y-38062D01*
X14887Y-38024D01*
X15029Y-38024D01*
X15115Y-38062D01*
X15372Y-38824D02*
X15372Y-38024D01*
X15515Y-38024D01*
X15600Y-38062D01*
X15658Y-38138D01*
X15686Y-38214D01*
X15715Y-38367D01*
X15715Y-38481D01*
X15686Y-38633D01*
X15658Y-38710D01*
X15600Y-38786D01*
X15515Y-38824D01*
X15372Y-38824D01*
X15943Y-38595D02*
X16229Y-38595D01*
X15886Y-38824D02*
X16086Y-38024D01*
X16286Y-38824D01*
X14786Y-37536D02*
X14872Y-37574D01*
X15015Y-37574D01*
X15072Y-37536D01*
X15101Y-37498D01*
X15129Y-37421D01*
X15129Y-37345D01*
X15101Y-37269D01*
X15072Y-37231D01*
X15015Y-37193D01*
X14901Y-37155D01*
X14843Y-37117D01*
X14815Y-37079D01*
X14786Y-37002D01*
X14786Y-36926D01*
X14815Y-36850D01*
X14843Y-36812D01*
X14901Y-36774D01*
X15043Y-36774D01*
X15129Y-36812D01*
X15729Y-37498D02*
X15700Y-37536D01*
X15614Y-37574D01*
X15557Y-37574D01*
X15472Y-37536D01*
X15414Y-37460D01*
X15386Y-37383D01*
X15357Y-37231D01*
X15357Y-37117D01*
X15386Y-36964D01*
X15414Y-36888D01*
X15472Y-36812D01*
X15557Y-36774D01*
X15614Y-36774D01*
X15700Y-36812D01*
X15729Y-36850D01*
X16272Y-37574D02*
X15986Y-37574D01*
X15986Y-36774D01*
G54D12*
X40000Y-64000D02*
X40000Y-60000D01*
X32000Y-64000D02*
X32000Y-60000D01*
G54D11*
X32729Y-60824D02*
X32671Y-60786D01*
X32643Y-60710D01*
X32643Y-60024D01*
X33214Y-60824D02*
X33214Y-60405D01*
X33185Y-60329D01*
X33128Y-60290D01*
X33014Y-60290D01*
X32957Y-60329D01*
X33214Y-60786D02*
X33157Y-60824D01*
X33014Y-60824D01*
X32957Y-60786D01*
X32928Y-60710D01*
X32928Y-60633D01*
X32957Y-60557D01*
X33014Y-60519D01*
X33157Y-60519D01*
X33214Y-60481D01*
X33471Y-60786D02*
X33528Y-60824D01*
X33643Y-60824D01*
X33700Y-60786D01*
X33728Y-60710D01*
X33728Y-60671D01*
X33700Y-60595D01*
X33643Y-60557D01*
X33557Y-60557D01*
X33500Y-60519D01*
X33471Y-60443D01*
X33471Y-60405D01*
X33500Y-60329D01*
X33557Y-60290D01*
X33643Y-60290D01*
X33700Y-60329D01*
X34214Y-60786D02*
X34157Y-60824D01*
X34043Y-60824D01*
X33986Y-60786D01*
X33957Y-60710D01*
X33957Y-60405D01*
X33986Y-60329D01*
X34043Y-60290D01*
X34157Y-60290D01*
X34214Y-60329D01*
X34243Y-60405D01*
X34243Y-60481D01*
X33957Y-60557D01*
X34500Y-60824D02*
X34500Y-60290D01*
X34500Y-60443D02*
X34528Y-60367D01*
X34557Y-60329D01*
X34614Y-60290D01*
X34671Y-60290D01*
X38372Y-62905D02*
X38572Y-62905D01*
X38658Y-63324D02*
X38372Y-63324D01*
X38372Y-62524D01*
X38658Y-62524D01*
X41686Y-63248D02*
X41657Y-63286D01*
X41571Y-63324D01*
X41514Y-63324D01*
X41429Y-63286D01*
X41371Y-63210D01*
X41343Y-63133D01*
X41314Y-62981D01*
X41314Y-62867D01*
X41343Y-62714D01*
X41371Y-62638D01*
X41429Y-62562D01*
X41514Y-62524D01*
X41571Y-62524D01*
X41657Y-62562D01*
X41686Y-62600D01*
X40372Y-62905D02*
X40572Y-62905D01*
X40658Y-63324D02*
X40372Y-63324D01*
X40372Y-62524D01*
X40658Y-62524D01*
X39686Y-63248D02*
X39657Y-63286D01*
X39571Y-63324D01*
X39514Y-63324D01*
X39429Y-63286D01*
X39371Y-63210D01*
X39343Y-63133D01*
X39314Y-62981D01*
X39314Y-62867D01*
X39343Y-62714D01*
X39371Y-62638D01*
X39429Y-62562D01*
X39514Y-62524D01*
X39571Y-62524D01*
X39657Y-62562D01*
X39686Y-62600D01*
X30372Y-62905D02*
X30572Y-62905D01*
X30658Y-63324D02*
X30372Y-63324D01*
X30372Y-62524D01*
X30658Y-62524D01*
X33686Y-63248D02*
X33657Y-63286D01*
X33571Y-63324D01*
X33514Y-63324D01*
X33429Y-63286D01*
X33371Y-63210D01*
X33343Y-63133D01*
X33314Y-62981D01*
X33314Y-62867D01*
X33343Y-62714D01*
X33371Y-62638D01*
X33429Y-62562D01*
X33514Y-62524D01*
X33571Y-62524D01*
X33657Y-62562D01*
X33686Y-62600D01*
X32372Y-62905D02*
X32572Y-62905D01*
X32658Y-63324D02*
X32372Y-63324D01*
X32372Y-62524D01*
X32658Y-62524D01*
X31686Y-63248D02*
X31657Y-63286D01*
X31571Y-63324D01*
X31514Y-63324D01*
X31429Y-63286D01*
X31371Y-63210D01*
X31343Y-63133D01*
X31314Y-62981D01*
X31314Y-62867D01*
X31343Y-62714D01*
X31371Y-62638D01*
X31429Y-62562D01*
X31514Y-62524D01*
X31571Y-62524D01*
X31657Y-62562D01*
X31686Y-62600D01*
G54D13*
X12991Y-39986D02*
X12991Y-40443D01*
X12841Y-40214D02*
X13141Y-40214D01*
X13235Y-41015D02*
X13235Y-40729D01*
X13047Y-40700D01*
X13066Y-40729D01*
X13084Y-40786D01*
X13084Y-40929D01*
X13066Y-40986D01*
X13047Y-41015D01*
X13009Y-41043D01*
X12916Y-41043D01*
X12878Y-41015D01*
X12859Y-40986D01*
X12841Y-40929D01*
X12841Y-40786D01*
X12859Y-40729D01*
X12878Y-40700D01*
G54D14*
X43871Y-62758D02*
X44071Y-63164D01*
X44271Y-62758D01*
X44814Y-63126D02*
X44785Y-63145D01*
X44699Y-63164D01*
X44642Y-63164D01*
X44557Y-63145D01*
X44499Y-63106D01*
X44471Y-63068D01*
X44442Y-62990D01*
X44442Y-62932D01*
X44471Y-62855D01*
X44499Y-62816D01*
X44557Y-62778D01*
X44642Y-62758D01*
X44699Y-62758D01*
X44785Y-62778D01*
X44814Y-62797D01*
X45071Y-63164D02*
X45071Y-62758D01*
X45299Y-62758D01*
X45357Y-62778D01*
X45385Y-62797D01*
X45414Y-62836D01*
X45414Y-62894D01*
X45385Y-62932D01*
X45357Y-62952D01*
X45299Y-62971D01*
X45071Y-62971D01*
X45671Y-62758D02*
X45671Y-63087D01*
X45699Y-63126D01*
X45728Y-63145D01*
X45785Y-63164D01*
X45899Y-63164D01*
X45957Y-63145D01*
X45985Y-63126D01*
X46014Y-63087D01*
X46014Y-62758D01*
X47071Y-62778D02*
X47014Y-62758D01*
X46928Y-62758D01*
X46843Y-62778D01*
X46785Y-62816D01*
X46757Y-62855D01*
X46728Y-62932D01*
X46728Y-62990D01*
X46757Y-63068D01*
X46785Y-63106D01*
X46843Y-63145D01*
X46928Y-63164D01*
X46985Y-63164D01*
X47071Y-63145D01*
X47100Y-63126D01*
X47100Y-62990D01*
X46985Y-62990D01*
X47357Y-63164D02*
X47357Y-62758D01*
X47700Y-63164D01*
X47700Y-62758D01*
X47986Y-63164D02*
X47986Y-62758D01*
X48129Y-62758D01*
X48214Y-62778D01*
X48272Y-62816D01*
X48300Y-62855D01*
X48329Y-62932D01*
X48329Y-62990D01*
X48300Y-63068D01*
X48272Y-63106D01*
X48214Y-63145D01*
X48129Y-63164D01*
X47986Y-63164D01*
X48957Y-62758D02*
X49157Y-63164D01*
X49357Y-62758D01*
X49557Y-63164D02*
X49557Y-62758D01*
X49757Y-63048D01*
X49957Y-62758D01*
X49957Y-63164D01*
X50357Y-62758D02*
X50471Y-62758D01*
X50529Y-62778D01*
X50586Y-62816D01*
X50614Y-62894D01*
X50614Y-63029D01*
X50586Y-63106D01*
X50529Y-63145D01*
X50471Y-63164D01*
X50357Y-63164D01*
X50300Y-63145D01*
X50243Y-63106D01*
X50214Y-63029D01*
X50214Y-62894D01*
X50243Y-62816D01*
X50300Y-62778D01*
X50357Y-62758D01*
X50786Y-62758D02*
X51129Y-62758D01*
X50958Y-63164D02*
X50958Y-62758D01*
G54D11*
X56405Y-53457D02*
X56443Y-53371D01*
X56481Y-53343D01*
X56557Y-53314D01*
X56671Y-53314D01*
X56748Y-53343D01*
X56786Y-53371D01*
X56824Y-53429D01*
X56824Y-53657D01*
X56024Y-53657D01*
X56024Y-53457D01*
X56062Y-53400D01*
X56100Y-53371D01*
X56176Y-53343D01*
X56252Y-53343D01*
X56329Y-53371D01*
X56367Y-53400D01*
X56405Y-53457D01*
X56405Y-53657D01*
X56595Y-51643D02*
X56595Y-51357D01*
X56824Y-51700D02*
X56024Y-51500D01*
X56824Y-51300D01*
X56405Y-43457D02*
X56443Y-43371D01*
X56481Y-43343D01*
X56557Y-43314D01*
X56671Y-43314D01*
X56748Y-43343D01*
X56786Y-43371D01*
X56824Y-43429D01*
X56824Y-43657D01*
X56024Y-43657D01*
X56024Y-43457D01*
X56062Y-43400D01*
X56100Y-43371D01*
X56176Y-43343D01*
X56252Y-43343D01*
X56329Y-43371D01*
X56367Y-43400D01*
X56405Y-43457D01*
X56405Y-43657D01*
X56595Y-41643D02*
X56595Y-41357D01*
X56824Y-41700D02*
X56024Y-41500D01*
X56824Y-41300D01*
X56405Y-33457D02*
X56443Y-33371D01*
X56481Y-33343D01*
X56557Y-33314D01*
X56671Y-33314D01*
X56748Y-33343D01*
X56786Y-33371D01*
X56824Y-33429D01*
X56824Y-33657D01*
X56024Y-33657D01*
X56024Y-33457D01*
X56062Y-33400D01*
X56100Y-33371D01*
X56176Y-33343D01*
X56252Y-33343D01*
X56329Y-33371D01*
X56367Y-33400D01*
X56405Y-33457D01*
X56405Y-33657D01*
X56595Y-31643D02*
X56595Y-31357D01*
X56824Y-31700D02*
X56024Y-31500D01*
X56824Y-31300D01*
X56405Y-23457D02*
X56443Y-23371D01*
X56481Y-23343D01*
X56557Y-23314D01*
X56671Y-23314D01*
X56748Y-23343D01*
X56786Y-23371D01*
X56824Y-23429D01*
X56824Y-23657D01*
X56024Y-23657D01*
X56024Y-23457D01*
X56062Y-23400D01*
X56100Y-23371D01*
X56176Y-23343D01*
X56252Y-23343D01*
X56329Y-23371D01*
X56367Y-23400D01*
X56405Y-23457D01*
X56405Y-23657D01*
X56595Y-21643D02*
X56595Y-21357D01*
X56824Y-21700D02*
X56024Y-21500D01*
X56824Y-21300D01*
X55905Y-56628D02*
X55905Y-56428D01*
X56324Y-56342D02*
X56324Y-56628D01*
X55524Y-56628D01*
X55524Y-56342D01*
X56019Y-51228D02*
X56019Y-50771D01*
X56324Y-51000D02*
X55714Y-51000D01*
G54D13*
X55953Y-52128D02*
X55953Y-51928D01*
X56159Y-51842D02*
X56159Y-52128D01*
X55765Y-52128D01*
X55765Y-51842D01*
X56141Y-53171D02*
X56159Y-53085D01*
X56159Y-52942D01*
X56141Y-52885D01*
X56122Y-52856D01*
X56084Y-52828D01*
X56047Y-52828D01*
X56009Y-52856D01*
X55991Y-52885D01*
X55972Y-52942D01*
X55953Y-53056D01*
X55934Y-53114D01*
X55916Y-53142D01*
X55878Y-53171D01*
X55841Y-53171D01*
X55803Y-53142D01*
X55784Y-53114D01*
X55765Y-53056D01*
X55765Y-52914D01*
X55784Y-52828D01*
X56159Y-54157D02*
X55765Y-54157D01*
X55765Y-54014D01*
X55784Y-53929D01*
X55822Y-53871D01*
X55859Y-53843D01*
X55934Y-53814D01*
X55991Y-53814D01*
X56066Y-53843D01*
X56103Y-53871D01*
X56141Y-53929D01*
X56159Y-54014D01*
X56159Y-54157D01*
X55784Y-54843D02*
X55765Y-54900D01*
X55765Y-54986D01*
X55784Y-55071D01*
X55822Y-55129D01*
X55859Y-55157D01*
X55934Y-55186D01*
X55991Y-55186D01*
X56066Y-55157D01*
X56103Y-55129D01*
X56141Y-55071D01*
X56159Y-54986D01*
X56159Y-54929D01*
X56141Y-54843D01*
X56122Y-54814D01*
X55991Y-54814D01*
X55991Y-54929D01*
X55784Y-44843D02*
X55765Y-44900D01*
X55765Y-44986D01*
X55784Y-45071D01*
X55822Y-45129D01*
X55859Y-45157D01*
X55934Y-45186D01*
X55991Y-45186D01*
X56066Y-45157D01*
X56103Y-45129D01*
X56141Y-45071D01*
X56159Y-44986D01*
X56159Y-44929D01*
X56141Y-44843D01*
X56122Y-44814D01*
X55991Y-44814D01*
X55991Y-44929D01*
X56159Y-44157D02*
X55765Y-44157D01*
X55765Y-44014D01*
X55784Y-43929D01*
X55822Y-43871D01*
X55859Y-43843D01*
X55934Y-43814D01*
X55991Y-43814D01*
X56066Y-43843D01*
X56103Y-43871D01*
X56141Y-43929D01*
X56159Y-44014D01*
X56159Y-44157D01*
X56141Y-43171D02*
X56159Y-43085D01*
X56159Y-42942D01*
X56141Y-42885D01*
X56122Y-42856D01*
X56084Y-42828D01*
X56047Y-42828D01*
X56009Y-42856D01*
X55991Y-42885D01*
X55972Y-42942D01*
X55953Y-43056D01*
X55934Y-43114D01*
X55916Y-43142D01*
X55878Y-43171D01*
X55841Y-43171D01*
X55803Y-43142D01*
X55784Y-43114D01*
X55765Y-43056D01*
X55765Y-42914D01*
X55784Y-42828D01*
X55953Y-42128D02*
X55953Y-41928D01*
X56159Y-41842D02*
X56159Y-42128D01*
X55765Y-42128D01*
X55765Y-41842D01*
X56009Y-41228D02*
X56009Y-40771D01*
X56159Y-41000D02*
X55859Y-41000D01*
G54D11*
X55524Y-46699D02*
X56324Y-46299D01*
X55524Y-46299D02*
X56324Y-46699D01*
X55943Y-36500D02*
X56324Y-36500D01*
X55524Y-36700D02*
X55943Y-36500D01*
X55524Y-36300D01*
G54D13*
X56009Y-31228D02*
X56009Y-30771D01*
X56159Y-31000D02*
X55859Y-31000D01*
X55953Y-32128D02*
X55953Y-31928D01*
X56159Y-31842D02*
X56159Y-32128D01*
X55765Y-32128D01*
X55765Y-31842D01*
X56141Y-33171D02*
X56159Y-33085D01*
X56159Y-32942D01*
X56141Y-32885D01*
X56122Y-32856D01*
X56084Y-32828D01*
X56047Y-32828D01*
X56009Y-32856D01*
X55991Y-32885D01*
X55972Y-32942D01*
X55953Y-33056D01*
X55934Y-33114D01*
X55916Y-33142D01*
X55878Y-33171D01*
X55841Y-33171D01*
X55803Y-33142D01*
X55784Y-33114D01*
X55765Y-33056D01*
X55765Y-32914D01*
X55784Y-32828D01*
X56159Y-34157D02*
X55765Y-34157D01*
X55765Y-34014D01*
X55784Y-33929D01*
X55822Y-33871D01*
X55859Y-33843D01*
X55934Y-33814D01*
X55991Y-33814D01*
X56066Y-33843D01*
X56103Y-33871D01*
X56141Y-33929D01*
X56159Y-34014D01*
X56159Y-34157D01*
X55784Y-34843D02*
X55765Y-34900D01*
X55765Y-34986D01*
X55784Y-35071D01*
X55822Y-35129D01*
X55859Y-35157D01*
X55934Y-35186D01*
X55991Y-35186D01*
X56066Y-35157D01*
X56103Y-35129D01*
X56141Y-35071D01*
X56159Y-34986D01*
X56159Y-34929D01*
X56141Y-34843D01*
X56122Y-34814D01*
X55991Y-34814D01*
X55991Y-34929D01*
X55784Y-24843D02*
X55765Y-24900D01*
X55765Y-24986D01*
X55784Y-25071D01*
X55822Y-25129D01*
X55859Y-25157D01*
X55934Y-25186D01*
X55991Y-25186D01*
X56066Y-25157D01*
X56103Y-25129D01*
X56141Y-25071D01*
X56159Y-24986D01*
X56159Y-24929D01*
X56141Y-24843D01*
X56122Y-24814D01*
X55991Y-24814D01*
X55991Y-24929D01*
X56159Y-24157D02*
X55765Y-24157D01*
X55765Y-24014D01*
X55784Y-23929D01*
X55822Y-23871D01*
X55859Y-23843D01*
X55934Y-23814D01*
X55991Y-23814D01*
X56066Y-23843D01*
X56103Y-23871D01*
X56141Y-23929D01*
X56159Y-24014D01*
X56159Y-24157D01*
X56141Y-23171D02*
X56159Y-23085D01*
X56159Y-22942D01*
X56141Y-22885D01*
X56122Y-22856D01*
X56084Y-22828D01*
X56047Y-22828D01*
X56009Y-22856D01*
X55991Y-22885D01*
X55972Y-22942D01*
X55953Y-23056D01*
X55934Y-23114D01*
X55916Y-23142D01*
X55878Y-23171D01*
X55841Y-23171D01*
X55803Y-23142D01*
X55784Y-23114D01*
X55765Y-23056D01*
X55765Y-22914D01*
X55784Y-22828D01*
X55953Y-22128D02*
X55953Y-21928D01*
X56159Y-21842D02*
X56159Y-22128D01*
X55765Y-22128D01*
X55765Y-21842D01*
G54D14*
X56010Y-21228D02*
X56010Y-20771D01*
X56164Y-21000D02*
X55855Y-21000D01*
G54D11*
X55524Y-26699D02*
X55524Y-26299D01*
X56324Y-26699D01*
X56324Y-26299D01*
X50736Y-14502D02*
X50765Y-14464D01*
X50851Y-14426D01*
X50908Y-14426D01*
X50993Y-14464D01*
X51051Y-14540D01*
X51079Y-14617D01*
X51108Y-14769D01*
X51108Y-14883D01*
X51079Y-15036D01*
X51051Y-15112D01*
X50993Y-15188D01*
X50908Y-15226D01*
X50851Y-15226D01*
X50765Y-15188D01*
X50736Y-15150D01*
X50508Y-14655D02*
X50222Y-14655D01*
X50565Y-14426D02*
X50365Y-15226D01*
X50165Y-14426D01*
X49965Y-14426D02*
X49965Y-15226D01*
X49622Y-14426D01*
X49622Y-15226D01*
X48593Y-14426D02*
X48879Y-14426D01*
X48879Y-15226D01*
X47965Y-15264D02*
X48479Y-14236D01*
X47764Y-14426D02*
X47764Y-15226D01*
X47764Y-14845D02*
X47421Y-14845D01*
X47421Y-14426D02*
X47421Y-15226D01*
G54D13*
X46728Y-14991D02*
X46271Y-14991D01*
X41764Y-14991D02*
X41307Y-14991D01*
X41536Y-14841D02*
X41536Y-15141D01*
X40735Y-15235D02*
X41021Y-15235D01*
X41050Y-15047D01*
X41021Y-15066D01*
X40964Y-15084D01*
X40821Y-15084D01*
X40764Y-15066D01*
X40735Y-15047D01*
X40707Y-15009D01*
X40707Y-14916D01*
X40735Y-14878D01*
X40764Y-14859D01*
X40821Y-14841D01*
X40964Y-14841D01*
X41021Y-14859D01*
X41050Y-14878D01*
X12991Y-32265D02*
X12991Y-32722D01*
X12841Y-32493D02*
X13141Y-32493D01*
X13235Y-32922D02*
X12841Y-33122D01*
X13235Y-33322D01*
G54D11*
X20100Y-15231D02*
X19643Y-15231D01*
G54D15*
X18872Y-14742D02*
X18672Y-14336D01*
X18472Y-14742D01*
X18272Y-14336D02*
X18272Y-14742D01*
X17986Y-14336D02*
X17986Y-14742D01*
X17643Y-14336D01*
X17643Y-14742D01*
G54D11*
X46272Y-65019D02*
X46729Y-65019D01*
X49272Y-65019D02*
X49729Y-65019D01*
X49500Y-65324D02*
X49500Y-64714D01*
X29024Y-57229D02*
X29024Y-57115D01*
X29062Y-57057D01*
X29138Y-57000D01*
X29290Y-56972D01*
X29557Y-56972D01*
X29710Y-57000D01*
X29786Y-57057D01*
X29824Y-57115D01*
X29824Y-57229D01*
X29786Y-57286D01*
X29710Y-57343D01*
X29557Y-57372D01*
X29290Y-57372D01*
X29138Y-57343D01*
X29062Y-57286D01*
X29024Y-57229D01*
X29824Y-56714D02*
X29024Y-56714D01*
X29024Y-56486D01*
X29062Y-56428D01*
X29100Y-56400D01*
X29176Y-56371D01*
X29290Y-56371D01*
X29367Y-56400D01*
X29405Y-56428D01*
X29443Y-56486D01*
X29443Y-56714D01*
X29024Y-56200D02*
X29024Y-55857D01*
X29824Y-56028D02*
X29024Y-56028D01*
X29024Y-55543D02*
X29024Y-55429D01*
X29062Y-55371D01*
X29138Y-55314D01*
X29290Y-55286D01*
X29557Y-55286D01*
X29710Y-55314D01*
X29786Y-55371D01*
X29824Y-55429D01*
X29824Y-55543D01*
X29786Y-55600D01*
X29710Y-55657D01*
X29557Y-55686D01*
X29290Y-55686D01*
X29138Y-55657D01*
X29062Y-55600D01*
X29024Y-55543D01*
X29519Y-55028D02*
X29519Y-54571D01*
X29824Y-54285D02*
X29024Y-54285D01*
X29824Y-53999D02*
X29024Y-53999D01*
X29824Y-53656D01*
X29024Y-53656D01*
X33621Y-56274D02*
X33735Y-56274D01*
X33793Y-56312D01*
X33850Y-56388D01*
X33878Y-56540D01*
X33878Y-56807D01*
X33850Y-56960D01*
X33793Y-57036D01*
X33735Y-57074D01*
X33621Y-57074D01*
X33564Y-57036D01*
X33507Y-56960D01*
X33478Y-56807D01*
X33478Y-56540D01*
X33507Y-56388D01*
X33564Y-56312D01*
X33621Y-56274D01*
X34136Y-57074D02*
X34136Y-56274D01*
X34364Y-56274D01*
X34422Y-56312D01*
X34450Y-56350D01*
X34479Y-56426D01*
X34479Y-56540D01*
X34450Y-56617D01*
X34422Y-56655D01*
X34364Y-56693D01*
X34136Y-56693D01*
X34650Y-56274D02*
X34993Y-56274D01*
X34822Y-57074D02*
X34822Y-56274D01*
X35307Y-56274D02*
X35421Y-56274D01*
X35479Y-56312D01*
X35536Y-56388D01*
X35564Y-56540D01*
X35564Y-56807D01*
X35536Y-56960D01*
X35479Y-57036D01*
X35421Y-57074D01*
X35307Y-57074D01*
X35250Y-57036D01*
X35193Y-56960D01*
X35164Y-56807D01*
X35164Y-56540D01*
X35193Y-56388D01*
X35250Y-56312D01*
X35307Y-56274D01*
X35822Y-56769D02*
X36279Y-56769D01*
X36679Y-56274D02*
X36793Y-56274D01*
X36851Y-56312D01*
X36908Y-56388D01*
X36936Y-56540D01*
X36936Y-56807D01*
X36908Y-56960D01*
X36851Y-57036D01*
X36793Y-57074D01*
X36679Y-57074D01*
X36622Y-57036D01*
X36565Y-56960D01*
X36536Y-56807D01*
X36536Y-56540D01*
X36565Y-56388D01*
X36622Y-56312D01*
X36679Y-56274D01*
X37194Y-56274D02*
X37194Y-56921D01*
X37222Y-56998D01*
X37251Y-57036D01*
X37308Y-57074D01*
X37422Y-57074D01*
X37480Y-57036D01*
X37508Y-56998D01*
X37537Y-56921D01*
X37537Y-56274D01*
X37737Y-56274D02*
X38080Y-56274D01*
X37909Y-57074D02*
X37909Y-56274D01*
X32354Y-29724D02*
X32354Y-28924D01*
X32554Y-29495D01*
X32754Y-28924D01*
X32754Y-29724D01*
X33240Y-29305D02*
X33326Y-29343D01*
X33354Y-29381D01*
X33383Y-29457D01*
X33383Y-29571D01*
X33354Y-29648D01*
X33326Y-29686D01*
X33268Y-29724D01*
X33040Y-29724D01*
X33040Y-28924D01*
X33240Y-28924D01*
X33297Y-28962D01*
X33326Y-29000D01*
X33354Y-29076D01*
X33354Y-29152D01*
X33326Y-29229D01*
X33297Y-29267D01*
X33240Y-29305D01*
X33040Y-29305D01*
X33640Y-29305D02*
X33840Y-29305D01*
X33926Y-29724D02*
X33640Y-29724D01*
X33640Y-28924D01*
X33926Y-28924D01*
X34183Y-29724D02*
X34183Y-28924D01*
X34326Y-28924D01*
X34411Y-28962D01*
X34469Y-29038D01*
X34497Y-29114D01*
X34526Y-29267D01*
X34526Y-29381D01*
X34497Y-29533D01*
X34469Y-29610D01*
X34411Y-29686D01*
X34326Y-29724D01*
X34183Y-29724D01*
X44272Y-53855D02*
X44472Y-53855D01*
X44558Y-54274D02*
X44272Y-54274D01*
X44272Y-53474D01*
X44558Y-53474D01*
X44758Y-54274D02*
X45072Y-53740D01*
X44758Y-53740D02*
X45072Y-54274D01*
X45215Y-53740D02*
X45444Y-53740D01*
X45301Y-53474D02*
X45301Y-54160D01*
X45329Y-54236D01*
X45387Y-54274D01*
X45444Y-54274D01*
X45644Y-54274D02*
X45644Y-53740D01*
X45644Y-53893D02*
X45672Y-53817D01*
X45701Y-53779D01*
X45758Y-53740D01*
X45815Y-53740D01*
X45501Y-24524D02*
X45901Y-24524D01*
X45501Y-25324D01*
X45901Y-25324D01*
X43050Y-32243D02*
X43050Y-32624D01*
X42850Y-31824D02*
X43050Y-32243D01*
X43250Y-31824D01*
X42951Y-42074D02*
X43351Y-42874D01*
X43351Y-42074D02*
X42951Y-42874D01*
X48136Y-49205D02*
X48336Y-49205D01*
X48422Y-49624D02*
X48136Y-49624D01*
X48136Y-48824D01*
X48422Y-48824D01*
X48622Y-49624D02*
X48936Y-49090D01*
X48622Y-49090D02*
X48936Y-49624D01*
X49079Y-49090D02*
X49308Y-49090D01*
X49165Y-48824D02*
X49165Y-49510D01*
X49193Y-49586D01*
X49251Y-49624D01*
X49308Y-49624D01*
X49508Y-49624D02*
X49508Y-49090D01*
X49508Y-49243D02*
X49536Y-49167D01*
X49565Y-49129D01*
X49622Y-49090D01*
X49679Y-49090D01*
X50136Y-49090D02*
X50136Y-49624D01*
X49879Y-49090D02*
X49879Y-49510D01*
X49907Y-49586D01*
X49965Y-49624D01*
X50050Y-49624D01*
X50107Y-49586D01*
X50136Y-49548D01*
X50679Y-49624D02*
X50679Y-48824D01*
X50679Y-49586D02*
X50622Y-49624D01*
X50508Y-49624D01*
X50450Y-49586D01*
X50422Y-49548D01*
X50393Y-49471D01*
X50393Y-49243D01*
X50422Y-49167D01*
X50450Y-49129D01*
X50508Y-49090D01*
X50622Y-49090D01*
X50679Y-49129D01*
X51193Y-49586D02*
X51136Y-49624D01*
X51022Y-49624D01*
X50965Y-49586D01*
X50936Y-49510D01*
X50936Y-49205D01*
X50965Y-49129D01*
X51022Y-49090D01*
X51136Y-49090D01*
X51193Y-49129D01*
X51222Y-49205D01*
X51222Y-49281D01*
X50936Y-49357D01*
X51479Y-49624D02*
X51479Y-49090D01*
X51479Y-49243D02*
X51507Y-49167D01*
X51536Y-49129D01*
X51593Y-49090D01*
X51650Y-49090D01*
X48486Y-22424D02*
X48886Y-22424D01*
X48486Y-23224D01*
X48886Y-23224D01*
X49542Y-22995D02*
X49828Y-22995D01*
X49485Y-23224D02*
X49685Y-22424D01*
X49885Y-23224D01*
X50028Y-23224D02*
X50342Y-22690D01*
X50028Y-22690D02*
X50342Y-23224D01*
X50571Y-23224D02*
X50571Y-22690D01*
X50571Y-22424D02*
X50542Y-22462D01*
X50571Y-22500D01*
X50599Y-22462D01*
X50571Y-22424D01*
X50571Y-22500D01*
X50828Y-23186D02*
X50885Y-23224D01*
X51000Y-23224D01*
X51057Y-23186D01*
X51085Y-23110D01*
X51085Y-23071D01*
X51057Y-22995D01*
X51000Y-22957D01*
X50914Y-22957D01*
X50857Y-22919D01*
X50828Y-22843D01*
X50828Y-22805D01*
X50857Y-22729D01*
X50914Y-22690D01*
X51000Y-22690D01*
X51057Y-22729D01*
X48472Y-42074D02*
X48872Y-42874D01*
X48872Y-42074D02*
X48472Y-42874D01*
X49814Y-42874D02*
X49814Y-42455D01*
X49785Y-42379D01*
X49728Y-42340D01*
X49614Y-42340D01*
X49557Y-42379D01*
X49814Y-42836D02*
X49757Y-42874D01*
X49614Y-42874D01*
X49557Y-42836D01*
X49528Y-42760D01*
X49528Y-42683D01*
X49557Y-42607D01*
X49614Y-42569D01*
X49757Y-42569D01*
X49814Y-42531D01*
X50043Y-42874D02*
X50357Y-42340D01*
X50043Y-42340D02*
X50357Y-42874D01*
X50586Y-42874D02*
X50586Y-42340D01*
X50586Y-42074D02*
X50557Y-42112D01*
X50586Y-42150D01*
X50614Y-42112D01*
X50586Y-42074D01*
X50586Y-42150D01*
X50843Y-42836D02*
X50900Y-42874D01*
X51015Y-42874D01*
X51072Y-42836D01*
X51100Y-42760D01*
X51100Y-42721D01*
X51072Y-42645D01*
X51015Y-42607D01*
X50929Y-42607D01*
X50872Y-42569D01*
X50843Y-42493D01*
X50843Y-42455D01*
X50872Y-42379D01*
X50929Y-42340D01*
X51015Y-42340D01*
X51072Y-42379D01*
X48771Y-32793D02*
X48771Y-33174D01*
X48571Y-32374D02*
X48771Y-32793D01*
X48971Y-32374D01*
X49885Y-33174D02*
X49885Y-32755D01*
X49856Y-32679D01*
X49799Y-32640D01*
X49685Y-32640D01*
X49628Y-32679D01*
X49885Y-33136D02*
X49828Y-33174D01*
X49685Y-33174D01*
X49628Y-33136D01*
X49599Y-33060D01*
X49599Y-32983D01*
X49628Y-32907D01*
X49685Y-32869D01*
X49828Y-32869D01*
X49885Y-32831D01*
X50114Y-33174D02*
X50428Y-32640D01*
X50114Y-32640D02*
X50428Y-33174D01*
X50657Y-33174D02*
X50657Y-32640D01*
X50657Y-32374D02*
X50628Y-32412D01*
X50657Y-32450D01*
X50685Y-32412D01*
X50657Y-32374D01*
X50657Y-32450D01*
X50914Y-33136D02*
X50971Y-33174D01*
X51086Y-33174D01*
X51143Y-33136D01*
X51171Y-33060D01*
X51171Y-33021D01*
X51143Y-32945D01*
X51086Y-32907D01*
X51000Y-32907D01*
X50943Y-32869D01*
X50914Y-32793D01*
X50914Y-32755D01*
X50943Y-32679D01*
X51000Y-32640D01*
X51086Y-32640D01*
X51143Y-32679D01*
X40871Y-60786D02*
X40814Y-60824D01*
X40700Y-60824D01*
X40643Y-60786D01*
X40614Y-60710D01*
X40614Y-60405D01*
X40643Y-60329D01*
X40700Y-60290D01*
X40814Y-60290D01*
X40871Y-60329D01*
X40900Y-60405D01*
X40900Y-60481D01*
X40614Y-60557D01*
X41100Y-60824D02*
X41414Y-60290D01*
X41100Y-60290D02*
X41414Y-60824D01*
X41643Y-60824D02*
X41643Y-60024D01*
X41900Y-60824D02*
X41900Y-60405D01*
X41871Y-60329D01*
X41814Y-60290D01*
X41729Y-60290D01*
X41671Y-60329D01*
X41643Y-60367D01*
X42443Y-60824D02*
X42443Y-60405D01*
X42414Y-60329D01*
X42357Y-60290D01*
X42243Y-60290D01*
X42186Y-60329D01*
X42443Y-60786D02*
X42386Y-60824D01*
X42243Y-60824D01*
X42186Y-60786D01*
X42157Y-60710D01*
X42157Y-60633D01*
X42186Y-60557D01*
X42243Y-60519D01*
X42386Y-60519D01*
X42443Y-60481D01*
X42986Y-60290D02*
X42986Y-60824D01*
X42729Y-60290D02*
X42729Y-60710D01*
X42757Y-60786D01*
X42815Y-60824D01*
X42900Y-60824D01*
X42957Y-60786D01*
X42986Y-60748D01*
X43243Y-60786D02*
X43300Y-60824D01*
X43415Y-60824D01*
X43472Y-60786D01*
X43500Y-60710D01*
X43500Y-60671D01*
X43472Y-60595D01*
X43415Y-60557D01*
X43329Y-60557D01*
X43272Y-60519D01*
X43243Y-60443D01*
X43243Y-60405D01*
X43272Y-60329D01*
X43329Y-60290D01*
X43415Y-60290D01*
X43472Y-60329D01*
X43672Y-60290D02*
X43901Y-60290D01*
X43758Y-60024D02*
X43758Y-60710D01*
X43786Y-60786D01*
X43844Y-60824D01*
X43901Y-60824D01*
X40871Y-61786D02*
X40814Y-61824D01*
X40700Y-61824D01*
X40643Y-61786D01*
X40614Y-61710D01*
X40614Y-61405D01*
X40643Y-61329D01*
X40700Y-61290D01*
X40814Y-61290D01*
X40871Y-61329D01*
X40900Y-61405D01*
X40900Y-61481D01*
X40614Y-61557D01*
X41157Y-61290D02*
X41157Y-61824D01*
X41157Y-61367D02*
X41185Y-61329D01*
X41243Y-61290D01*
X41328Y-61290D01*
X41385Y-61329D01*
X41414Y-61405D01*
X41414Y-61824D01*
X41957Y-61824D02*
X41957Y-61405D01*
X41928Y-61329D01*
X41871Y-61290D01*
X41757Y-61290D01*
X41700Y-61329D01*
X41957Y-61786D02*
X41900Y-61824D01*
X41757Y-61824D01*
X41700Y-61786D01*
X41671Y-61710D01*
X41671Y-61633D01*
X41700Y-61557D01*
X41757Y-61519D01*
X41900Y-61519D01*
X41957Y-61481D01*
X42243Y-61824D02*
X42243Y-61024D01*
X42243Y-61329D02*
X42300Y-61290D01*
X42414Y-61290D01*
X42471Y-61329D01*
X42500Y-61367D01*
X42529Y-61443D01*
X42529Y-61671D01*
X42500Y-61748D01*
X42471Y-61786D01*
X42414Y-61824D01*
X42300Y-61824D01*
X42243Y-61786D01*
X42872Y-61824D02*
X42814Y-61786D01*
X42786Y-61710D01*
X42786Y-61024D01*
X43328Y-61786D02*
X43271Y-61824D01*
X43157Y-61824D01*
X43100Y-61786D01*
X43071Y-61710D01*
X43071Y-61405D01*
X43100Y-61329D01*
X43157Y-61290D01*
X43271Y-61290D01*
X43328Y-61329D01*
X43357Y-61405D01*
X43357Y-61481D01*
X43071Y-61557D01*
X37501Y-60824D02*
X37443Y-60786D01*
X37415Y-60710D01*
X37415Y-60024D01*
X37986Y-60824D02*
X37986Y-60405D01*
X37957Y-60329D01*
X37900Y-60290D01*
X37786Y-60290D01*
X37729Y-60329D01*
X37986Y-60786D02*
X37929Y-60824D01*
X37786Y-60824D01*
X37729Y-60786D01*
X37700Y-60710D01*
X37700Y-60633D01*
X37729Y-60557D01*
X37786Y-60519D01*
X37929Y-60519D01*
X37986Y-60481D01*
X38243Y-60786D02*
X38300Y-60824D01*
X38415Y-60824D01*
X38472Y-60786D01*
X38500Y-60710D01*
X38500Y-60671D01*
X38472Y-60595D01*
X38415Y-60557D01*
X38329Y-60557D01*
X38272Y-60519D01*
X38243Y-60443D01*
X38243Y-60405D01*
X38272Y-60329D01*
X38329Y-60290D01*
X38415Y-60290D01*
X38472Y-60329D01*
X38986Y-60786D02*
X38929Y-60824D01*
X38815Y-60824D01*
X38758Y-60786D01*
X38729Y-60710D01*
X38729Y-60405D01*
X38758Y-60329D01*
X38815Y-60290D01*
X38929Y-60290D01*
X38986Y-60329D01*
X39015Y-60405D01*
X39015Y-60481D01*
X38729Y-60557D01*
X39272Y-60824D02*
X39272Y-60290D01*
X39272Y-60443D02*
X39300Y-60367D01*
X39329Y-60329D01*
X39386Y-60290D01*
X39443Y-60290D01*
X36900Y-61786D02*
X36843Y-61824D01*
X36729Y-61824D01*
X36672Y-61786D01*
X36643Y-61710D01*
X36643Y-61405D01*
X36672Y-61329D01*
X36729Y-61290D01*
X36843Y-61290D01*
X36900Y-61329D01*
X36929Y-61405D01*
X36929Y-61481D01*
X36643Y-61557D01*
X37186Y-61290D02*
X37186Y-61824D01*
X37186Y-61367D02*
X37214Y-61329D01*
X37272Y-61290D01*
X37357Y-61290D01*
X37414Y-61329D01*
X37443Y-61405D01*
X37443Y-61824D01*
X37986Y-61824D02*
X37986Y-61405D01*
X37957Y-61329D01*
X37900Y-61290D01*
X37786Y-61290D01*
X37729Y-61329D01*
X37986Y-61786D02*
X37929Y-61824D01*
X37786Y-61824D01*
X37729Y-61786D01*
X37700Y-61710D01*
X37700Y-61633D01*
X37729Y-61557D01*
X37786Y-61519D01*
X37929Y-61519D01*
X37986Y-61481D01*
X38272Y-61824D02*
X38272Y-61024D01*
X38272Y-61329D02*
X38329Y-61290D01*
X38443Y-61290D01*
X38500Y-61329D01*
X38529Y-61367D01*
X38558Y-61443D01*
X38558Y-61671D01*
X38529Y-61748D01*
X38500Y-61786D01*
X38443Y-61824D01*
X38329Y-61824D01*
X38272Y-61786D01*
X38901Y-61824D02*
X38843Y-61786D01*
X38815Y-61710D01*
X38815Y-61024D01*
X39357Y-61786D02*
X39300Y-61824D01*
X39186Y-61824D01*
X39129Y-61786D01*
X39100Y-61710D01*
X39100Y-61405D01*
X39129Y-61329D01*
X39186Y-61290D01*
X39300Y-61290D01*
X39357Y-61329D01*
X39386Y-61405D01*
X39386Y-61481D01*
X39100Y-61557D01*
X29501Y-60824D02*
X29443Y-60786D01*
X29415Y-60710D01*
X29415Y-60024D01*
X29986Y-60824D02*
X29986Y-60405D01*
X29957Y-60329D01*
X29900Y-60290D01*
X29786Y-60290D01*
X29729Y-60329D01*
X29986Y-60786D02*
X29929Y-60824D01*
X29786Y-60824D01*
X29729Y-60786D01*
X29700Y-60710D01*
X29700Y-60633D01*
X29729Y-60557D01*
X29786Y-60519D01*
X29929Y-60519D01*
X29986Y-60481D01*
X30243Y-60786D02*
X30300Y-60824D01*
X30415Y-60824D01*
X30472Y-60786D01*
X30500Y-60710D01*
X30500Y-60671D01*
X30472Y-60595D01*
X30415Y-60557D01*
X30329Y-60557D01*
X30272Y-60519D01*
X30243Y-60443D01*
X30243Y-60405D01*
X30272Y-60329D01*
X30329Y-60290D01*
X30415Y-60290D01*
X30472Y-60329D01*
X30986Y-60786D02*
X30929Y-60824D01*
X30815Y-60824D01*
X30758Y-60786D01*
X30729Y-60710D01*
X30729Y-60405D01*
X30758Y-60329D01*
X30815Y-60290D01*
X30929Y-60290D01*
X30986Y-60329D01*
X31015Y-60405D01*
X31015Y-60481D01*
X30729Y-60557D01*
X31272Y-60824D02*
X31272Y-60290D01*
X31272Y-60443D02*
X31300Y-60367D01*
X31329Y-60329D01*
X31386Y-60290D01*
X31443Y-60290D01*
X30643Y-61824D02*
X30585Y-61786D01*
X30557Y-61748D01*
X30528Y-61671D01*
X30528Y-61443D01*
X30557Y-61367D01*
X30585Y-61329D01*
X30643Y-61290D01*
X30728Y-61290D01*
X30785Y-61329D01*
X30814Y-61367D01*
X30843Y-61443D01*
X30843Y-61671D01*
X30814Y-61748D01*
X30785Y-61786D01*
X30728Y-61824D01*
X30643Y-61824D01*
X31100Y-61290D02*
X31100Y-61824D01*
X31100Y-61367D02*
X31128Y-61329D01*
X31186Y-61290D01*
X31271Y-61290D01*
X31328Y-61329D01*
X31357Y-61405D01*
X31357Y-61824D01*
X32643Y-61290D02*
X32643Y-62090D01*
X32643Y-61329D02*
X32700Y-61290D01*
X32814Y-61290D01*
X32871Y-61329D01*
X32900Y-61367D01*
X32929Y-61443D01*
X32929Y-61671D01*
X32900Y-61748D01*
X32871Y-61786D01*
X32814Y-61824D01*
X32700Y-61824D01*
X32643Y-61786D01*
X33129Y-61290D02*
X33243Y-61824D01*
X33357Y-61443D01*
X33472Y-61824D01*
X33586Y-61290D01*
X33815Y-61824D02*
X33815Y-61290D01*
X33815Y-61367D02*
X33843Y-61329D01*
X33901Y-61290D01*
X33986Y-61290D01*
X34043Y-61329D01*
X34072Y-61405D01*
X34072Y-61824D01*
X34072Y-61405D02*
X34101Y-61329D01*
X34158Y-61290D01*
X34243Y-61290D01*
X34301Y-61329D01*
X34329Y-61405D01*
X34329Y-61824D01*
X15457Y-55562D02*
X15400Y-55524D01*
X15314Y-55524D01*
X15229Y-55562D01*
X15171Y-55638D01*
X15143Y-55714D01*
X15114Y-55867D01*
X15114Y-55981D01*
X15143Y-56133D01*
X15171Y-56210D01*
X15229Y-56286D01*
X15314Y-56324D01*
X15371Y-56324D01*
X15457Y-56286D01*
X15486Y-56248D01*
X15486Y-55981D01*
X15371Y-55981D01*
X15743Y-56324D02*
X15743Y-55524D01*
X16086Y-56324D01*
X16086Y-55524D01*
X16372Y-56324D02*
X16372Y-55524D01*
X16515Y-55524D01*
X16600Y-55562D01*
X16658Y-55638D01*
X16686Y-55714D01*
X16715Y-55867D01*
X16715Y-55981D01*
X16686Y-56133D01*
X16658Y-56210D01*
X16600Y-56286D01*
X16515Y-56324D01*
X16372Y-56324D01*
X15086Y-56764D02*
X15486Y-56764D01*
X15086Y-57564D01*
X15486Y-57564D01*
X15714Y-57259D02*
X16171Y-57259D01*
X15086Y-58004D02*
X15486Y-58004D01*
X15086Y-58804D01*
X15486Y-58804D01*
X15714Y-58499D02*
X16171Y-58499D01*
X15942Y-58804D02*
X15942Y-58194D01*
X15057Y-59244D02*
X15257Y-60044D01*
X15457Y-59244D01*
X15657Y-59625D02*
X15857Y-59625D01*
X15943Y-60044D02*
X15657Y-60044D01*
X15657Y-59244D01*
X15943Y-59244D01*
X16200Y-59510D02*
X16200Y-60044D01*
X16200Y-59587D02*
X16228Y-59549D01*
X16286Y-59510D01*
X16371Y-59510D01*
X16428Y-59549D01*
X16457Y-59625D01*
X16457Y-60044D01*
X17000Y-60044D02*
X17000Y-59244D01*
X17000Y-60006D02*
X16943Y-60044D01*
X16829Y-60044D01*
X16771Y-60006D01*
X16743Y-59968D01*
X16714Y-59891D01*
X16714Y-59663D01*
X16743Y-59587D01*
X16771Y-59549D01*
X16829Y-59510D01*
X16943Y-59510D01*
X17000Y-59549D01*
X17257Y-60006D02*
X17314Y-60044D01*
X17429Y-60044D01*
X17486Y-60006D01*
X17514Y-59930D01*
X17514Y-59891D01*
X17486Y-59815D01*
X17429Y-59777D01*
X17343Y-59777D01*
X17286Y-59739D01*
X17257Y-59663D01*
X17257Y-59625D01*
X17286Y-59549D01*
X17343Y-59510D01*
X17429Y-59510D01*
X17486Y-59549D01*
X17686Y-59510D02*
X17915Y-59510D01*
X17772Y-59244D02*
X17772Y-59930D01*
X17800Y-60006D01*
X17858Y-60044D01*
X17915Y-60044D01*
X18201Y-60044D02*
X18143Y-60006D01*
X18115Y-59968D01*
X18086Y-59891D01*
X18086Y-59663D01*
X18115Y-59587D01*
X18143Y-59549D01*
X18201Y-59510D01*
X18286Y-59510D01*
X18343Y-59549D01*
X18372Y-59587D01*
X18401Y-59663D01*
X18401Y-59891D01*
X18372Y-59968D01*
X18343Y-60006D01*
X18286Y-60044D01*
X18201Y-60044D01*
X18658Y-59510D02*
X18658Y-60310D01*
X18658Y-59549D02*
X18715Y-59510D01*
X18829Y-59510D01*
X18886Y-59549D01*
X18915Y-59587D01*
X18944Y-59663D01*
X18944Y-59891D01*
X18915Y-59968D01*
X18886Y-60006D01*
X18829Y-60044D01*
X18715Y-60044D01*
X18658Y-60006D01*
X19172Y-60006D02*
X19229Y-60044D01*
X19344Y-60044D01*
X19401Y-60006D01*
X19429Y-59930D01*
X19429Y-59891D01*
X19401Y-59815D01*
X19344Y-59777D01*
X19258Y-59777D01*
X19201Y-59739D01*
X19172Y-59663D01*
X19172Y-59625D01*
X19201Y-59549D01*
X19258Y-59510D01*
X19344Y-59510D01*
X19401Y-59549D01*
X17562Y-62543D02*
X17524Y-62600D01*
X17524Y-62686D01*
X17562Y-62771D01*
X17638Y-62829D01*
X17714Y-62857D01*
X17867Y-62886D01*
X17981Y-62886D01*
X18133Y-62857D01*
X18210Y-62829D01*
X18286Y-62771D01*
X18324Y-62686D01*
X18324Y-62629D01*
X18286Y-62543D01*
X18248Y-62514D01*
X17981Y-62514D01*
X17981Y-62629D01*
X18324Y-62257D02*
X17524Y-62257D01*
X18324Y-61914D01*
X17524Y-61914D01*
X18324Y-61628D02*
X17524Y-61628D01*
X17524Y-61485D01*
X17562Y-61400D01*
X17638Y-61342D01*
X17714Y-61314D01*
X17867Y-61285D01*
X17981Y-61285D01*
X18133Y-61314D01*
X18210Y-61342D01*
X18286Y-61400D01*
X18324Y-61485D01*
X18324Y-61628D01*
X19183Y-62743D02*
X19564Y-62743D01*
X18764Y-62943D02*
X19183Y-62743D01*
X18764Y-62543D01*
X19564Y-62343D02*
X18764Y-62343D01*
X19564Y-62086D02*
X19145Y-62086D01*
X19069Y-62115D01*
X19030Y-62172D01*
X19030Y-62257D01*
X19069Y-62315D01*
X19107Y-62343D01*
X19564Y-61714D02*
X19526Y-61772D01*
X19488Y-61800D01*
X19411Y-61829D01*
X19183Y-61829D01*
X19107Y-61800D01*
X19069Y-61772D01*
X19030Y-61714D01*
X19030Y-61629D01*
X19069Y-61572D01*
X19107Y-61543D01*
X19183Y-61514D01*
X19411Y-61514D01*
X19488Y-61543D01*
X19526Y-61572D01*
X19564Y-61629D01*
X19564Y-61714D01*
X19564Y-61257D02*
X19030Y-61257D01*
X19107Y-61257D02*
X19069Y-61229D01*
X19030Y-61171D01*
X19030Y-61086D01*
X19069Y-61029D01*
X19145Y-61000D01*
X19564Y-61000D01*
X19145Y-61000D02*
X19069Y-60971D01*
X19030Y-60914D01*
X19030Y-60829D01*
X19069Y-60771D01*
X19145Y-60743D01*
X19564Y-60743D01*
X19526Y-60229D02*
X19564Y-60286D01*
X19564Y-60400D01*
X19526Y-60457D01*
X19450Y-60486D01*
X19145Y-60486D01*
X19069Y-60457D01*
X19030Y-60400D01*
X19030Y-60286D01*
X19069Y-60229D01*
X19145Y-60200D01*
X19221Y-60200D01*
X19297Y-60486D01*
X20004Y-62914D02*
X20804Y-62514D01*
X20004Y-62514D02*
X20804Y-62914D01*
X20804Y-62286D02*
X20004Y-62286D01*
X20804Y-62029D02*
X20385Y-62029D01*
X20309Y-62058D01*
X20270Y-62115D01*
X20270Y-62200D01*
X20309Y-62258D01*
X20347Y-62286D01*
X20804Y-61657D02*
X20766Y-61715D01*
X20728Y-61743D01*
X20651Y-61772D01*
X20423Y-61772D01*
X20347Y-61743D01*
X20309Y-61715D01*
X20270Y-61657D01*
X20270Y-61572D01*
X20309Y-61515D01*
X20347Y-61486D01*
X20423Y-61457D01*
X20651Y-61457D01*
X20728Y-61486D01*
X20766Y-61515D01*
X20804Y-61572D01*
X20804Y-61657D01*
X20804Y-61200D02*
X20270Y-61200D01*
X20347Y-61200D02*
X20309Y-61172D01*
X20270Y-61114D01*
X20270Y-61029D01*
X20309Y-60972D01*
X20385Y-60943D01*
X20804Y-60943D01*
X20385Y-60943D02*
X20309Y-60914D01*
X20270Y-60857D01*
X20270Y-60772D01*
X20309Y-60714D01*
X20385Y-60686D01*
X20804Y-60686D01*
X20766Y-60172D02*
X20804Y-60229D01*
X20804Y-60343D01*
X20766Y-60400D01*
X20690Y-60429D01*
X20385Y-60429D01*
X20309Y-60400D01*
X20270Y-60343D01*
X20270Y-60229D01*
X20309Y-60172D01*
X20385Y-60143D01*
X20461Y-60143D01*
X20537Y-60429D01*
X21244Y-62943D02*
X22044Y-62743D01*
X21244Y-62543D01*
X21625Y-62343D02*
X21625Y-62143D01*
X22044Y-62057D02*
X22044Y-62343D01*
X21244Y-62343D01*
X21244Y-62057D01*
X21510Y-61800D02*
X22044Y-61800D01*
X21587Y-61800D02*
X21549Y-61772D01*
X21510Y-61714D01*
X21510Y-61629D01*
X21549Y-61572D01*
X21625Y-61543D01*
X22044Y-61543D01*
X22044Y-61000D02*
X21244Y-61000D01*
X22006Y-61000D02*
X22044Y-61057D01*
X22044Y-61171D01*
X22006Y-61229D01*
X21968Y-61257D01*
X21891Y-61286D01*
X21663Y-61286D01*
X21587Y-61257D01*
X21549Y-61229D01*
X21510Y-61171D01*
X21510Y-61057D01*
X21549Y-61000D01*
X22006Y-60743D02*
X22044Y-60686D01*
X22044Y-60571D01*
X22006Y-60514D01*
X21930Y-60486D01*
X21891Y-60486D01*
X21815Y-60514D01*
X21777Y-60571D01*
X21777Y-60657D01*
X21739Y-60714D01*
X21663Y-60743D01*
X21625Y-60743D01*
X21549Y-60714D01*
X21510Y-60657D01*
X21510Y-60571D01*
X21549Y-60514D01*
X21510Y-60314D02*
X21510Y-60085D01*
X21244Y-60228D02*
X21930Y-60228D01*
X22006Y-60200D01*
X22044Y-60142D01*
X22044Y-60085D01*
X22044Y-59799D02*
X22006Y-59857D01*
X21968Y-59885D01*
X21891Y-59914D01*
X21663Y-59914D01*
X21587Y-59885D01*
X21549Y-59857D01*
X21510Y-59799D01*
X21510Y-59714D01*
X21549Y-59657D01*
X21587Y-59628D01*
X21663Y-59599D01*
X21891Y-59599D01*
X21968Y-59628D01*
X22006Y-59657D01*
X22044Y-59714D01*
X22044Y-59799D01*
X21510Y-59342D02*
X22310Y-59342D01*
X21549Y-59342D02*
X21510Y-59285D01*
X21510Y-59171D01*
X21549Y-59114D01*
X21587Y-59085D01*
X21663Y-59056D01*
X21891Y-59056D01*
X21968Y-59085D01*
X22006Y-59114D01*
X22044Y-59171D01*
X22044Y-59285D01*
X22006Y-59342D01*
X22006Y-58828D02*
X22044Y-58771D01*
X22044Y-58656D01*
X22006Y-58599D01*
X21930Y-58571D01*
X21891Y-58571D01*
X21815Y-58599D01*
X21777Y-58656D01*
X21777Y-58742D01*
X21739Y-58799D01*
X21663Y-58828D01*
X21625Y-58828D01*
X21549Y-58799D01*
X21510Y-58742D01*
X21510Y-58656D01*
X21549Y-58599D01*
X40965Y-19548D02*
X40936Y-19586D01*
X40850Y-19624D01*
X40793Y-19624D01*
X40708Y-19586D01*
X40650Y-19510D01*
X40622Y-19433D01*
X40593Y-19281D01*
X40593Y-19167D01*
X40622Y-19014D01*
X40650Y-18938D01*
X40708Y-18862D01*
X40793Y-18824D01*
X40850Y-18824D01*
X40936Y-18862D01*
X40965Y-18900D01*
X41193Y-19395D02*
X41479Y-19395D01*
X41136Y-19624D02*
X41336Y-18824D01*
X41536Y-19624D01*
X41736Y-19624D02*
X41736Y-18824D01*
X42079Y-19624D01*
X42079Y-18824D01*
X42565Y-19205D02*
X42651Y-19243D01*
X42679Y-19281D01*
X42708Y-19357D01*
X42708Y-19471D01*
X42679Y-19548D01*
X42651Y-19586D01*
X42593Y-19624D01*
X42365Y-19624D01*
X42365Y-18824D01*
X42565Y-18824D01*
X42622Y-18862D01*
X42651Y-18900D01*
X42679Y-18976D01*
X42679Y-19052D01*
X42651Y-19129D01*
X42622Y-19167D01*
X42565Y-19205D01*
X42365Y-19205D01*
X42965Y-18824D02*
X42965Y-19471D01*
X42993Y-19548D01*
X43022Y-19586D01*
X43079Y-19624D01*
X43193Y-19624D01*
X43251Y-19586D01*
X43279Y-19548D01*
X43308Y-19471D01*
X43308Y-18824D01*
X43565Y-19586D02*
X43651Y-19624D01*
X43794Y-19624D01*
X43851Y-19586D01*
X43880Y-19548D01*
X43908Y-19471D01*
X43908Y-19395D01*
X43880Y-19319D01*
X43851Y-19281D01*
X43794Y-19243D01*
X43680Y-19205D01*
X43622Y-19167D01*
X43594Y-19129D01*
X43565Y-19052D01*
X43565Y-18976D01*
X43594Y-18900D01*
X43622Y-18862D01*
X43680Y-18824D01*
X43822Y-18824D01*
X43908Y-18862D01*
X29630Y-24824D02*
X29344Y-24824D01*
X29344Y-24024D01*
X29801Y-24595D02*
X30087Y-24595D01*
X29744Y-24824D02*
X29944Y-24024D01*
X30144Y-24824D01*
X30458Y-24024D02*
X30572Y-24024D01*
X30630Y-24062D01*
X30687Y-24138D01*
X30715Y-24290D01*
X30715Y-24557D01*
X30687Y-24710D01*
X30630Y-24786D01*
X30572Y-24824D01*
X30458Y-24824D01*
X30401Y-24786D01*
X30344Y-24710D01*
X30315Y-24557D01*
X30315Y-24290D01*
X30344Y-24138D01*
X30401Y-24062D01*
X30458Y-24024D01*
X30944Y-24786D02*
X31030Y-24824D01*
X31173Y-24824D01*
X31230Y-24786D01*
X31259Y-24748D01*
X31287Y-24671D01*
X31287Y-24595D01*
X31259Y-24519D01*
X31230Y-24481D01*
X31173Y-24443D01*
X31059Y-24405D01*
X31001Y-24367D01*
X30973Y-24329D01*
X30944Y-24252D01*
X30944Y-24176D01*
X30973Y-24100D01*
X31001Y-24062D01*
X31059Y-24024D01*
X31201Y-24024D01*
X31287Y-24062D01*
X32201Y-24405D02*
X32287Y-24443D01*
X32315Y-24481D01*
X32344Y-24557D01*
X32344Y-24671D01*
X32315Y-24748D01*
X32287Y-24786D01*
X32229Y-24824D01*
X32001Y-24824D01*
X32001Y-24024D01*
X32201Y-24024D01*
X32258Y-24062D01*
X32287Y-24100D01*
X32315Y-24176D01*
X32315Y-24252D01*
X32287Y-24329D01*
X32258Y-24367D01*
X32201Y-24405D01*
X32001Y-24405D01*
X32687Y-24824D02*
X32629Y-24786D01*
X32601Y-24748D01*
X32572Y-24671D01*
X32572Y-24443D01*
X32601Y-24367D01*
X32629Y-24329D01*
X32687Y-24290D01*
X32772Y-24290D01*
X32829Y-24329D01*
X32858Y-24367D01*
X32887Y-24443D01*
X32887Y-24671D01*
X32858Y-24748D01*
X32829Y-24786D01*
X32772Y-24824D01*
X32687Y-24824D01*
X33401Y-24824D02*
X33401Y-24405D01*
X33372Y-24329D01*
X33315Y-24290D01*
X33201Y-24290D01*
X33144Y-24329D01*
X33401Y-24786D02*
X33344Y-24824D01*
X33201Y-24824D01*
X33144Y-24786D01*
X33115Y-24710D01*
X33115Y-24633D01*
X33144Y-24557D01*
X33201Y-24519D01*
X33344Y-24519D01*
X33401Y-24481D01*
X33687Y-24824D02*
X33687Y-24290D01*
X33687Y-24443D02*
X33715Y-24367D01*
X33744Y-24329D01*
X33801Y-24290D01*
X33858Y-24290D01*
X34315Y-24824D02*
X34315Y-24024D01*
X34315Y-24786D02*
X34258Y-24824D01*
X34144Y-24824D01*
X34086Y-24786D01*
X34058Y-24748D01*
X34029Y-24671D01*
X34029Y-24443D01*
X34058Y-24367D01*
X34086Y-24329D01*
X34144Y-24290D01*
X34258Y-24290D01*
X34315Y-24329D01*
X35001Y-24290D02*
X35144Y-24824D01*
X35286Y-24290D01*
X35629Y-24024D02*
X35686Y-24024D01*
X35743Y-24062D01*
X35772Y-24100D01*
X35801Y-24176D01*
X35829Y-24329D01*
X35829Y-24519D01*
X35801Y-24671D01*
X35772Y-24748D01*
X35743Y-24786D01*
X35686Y-24824D01*
X35629Y-24824D01*
X35572Y-24786D01*
X35543Y-24748D01*
X35515Y-24671D01*
X35486Y-24519D01*
X35486Y-24329D01*
X35515Y-24176D01*
X35543Y-24100D01*
X35572Y-24062D01*
X35629Y-24024D01*
X36086Y-24748D02*
X36114Y-24786D01*
X36086Y-24824D01*
X36057Y-24786D01*
X36086Y-24748D01*
X36086Y-24824D01*
X36315Y-24024D02*
X36686Y-24024D01*
X36486Y-24329D01*
X36572Y-24329D01*
X36629Y-24367D01*
X36658Y-24405D01*
X36686Y-24481D01*
X36686Y-24671D01*
X36658Y-24748D01*
X36629Y-24786D01*
X36572Y-24824D01*
X36400Y-24824D01*
X36343Y-24786D01*
X36315Y-24748D01*
X27970Y-25824D02*
X27970Y-25024D01*
X28227Y-25824D02*
X28227Y-25405D01*
X28198Y-25329D01*
X28141Y-25290D01*
X28056Y-25290D01*
X27998Y-25329D01*
X27970Y-25367D01*
X28427Y-25290D02*
X28656Y-25290D01*
X28513Y-25024D02*
X28513Y-25710D01*
X28541Y-25786D01*
X28599Y-25824D01*
X28656Y-25824D01*
X28770Y-25290D02*
X28999Y-25290D01*
X28856Y-25024D02*
X28856Y-25710D01*
X28884Y-25786D01*
X28942Y-25824D01*
X28999Y-25824D01*
X29199Y-25290D02*
X29199Y-26090D01*
X29199Y-25329D02*
X29256Y-25290D01*
X29370Y-25290D01*
X29427Y-25329D01*
X29456Y-25367D01*
X29485Y-25443D01*
X29485Y-25671D01*
X29456Y-25748D01*
X29427Y-25786D01*
X29370Y-25824D01*
X29256Y-25824D01*
X29199Y-25786D01*
X29742Y-25748D02*
X29770Y-25786D01*
X29742Y-25824D01*
X29713Y-25786D01*
X29742Y-25748D01*
X29742Y-25824D01*
X29742Y-25329D02*
X29770Y-25367D01*
X29742Y-25405D01*
X29713Y-25367D01*
X29742Y-25329D01*
X29742Y-25405D01*
X30456Y-24986D02*
X29942Y-26014D01*
X31085Y-24986D02*
X30571Y-26014D01*
X31229Y-25290D02*
X31343Y-25824D01*
X31457Y-25443D01*
X31572Y-25824D01*
X31686Y-25290D01*
X31858Y-25290D02*
X31972Y-25824D01*
X32086Y-25443D01*
X32201Y-25824D01*
X32315Y-25290D01*
X32487Y-25290D02*
X32601Y-25824D01*
X32715Y-25443D01*
X32830Y-25824D01*
X32944Y-25290D01*
X33173Y-25748D02*
X33201Y-25786D01*
X33173Y-25824D01*
X33144Y-25786D01*
X33173Y-25748D01*
X33173Y-25824D01*
X33545Y-25824D02*
X33487Y-25786D01*
X33459Y-25710D01*
X33459Y-25024D01*
X34030Y-25824D02*
X34030Y-25405D01*
X34001Y-25329D01*
X33944Y-25290D01*
X33830Y-25290D01*
X33773Y-25329D01*
X34030Y-25786D02*
X33973Y-25824D01*
X33830Y-25824D01*
X33773Y-25786D01*
X33744Y-25710D01*
X33744Y-25633D01*
X33773Y-25557D01*
X33830Y-25519D01*
X33973Y-25519D01*
X34030Y-25481D01*
X34402Y-25824D02*
X34344Y-25786D01*
X34316Y-25748D01*
X34287Y-25671D01*
X34287Y-25443D01*
X34316Y-25367D01*
X34344Y-25329D01*
X34402Y-25290D01*
X34487Y-25290D01*
X34544Y-25329D01*
X34573Y-25367D01*
X34602Y-25443D01*
X34602Y-25671D01*
X34573Y-25748D01*
X34544Y-25786D01*
X34487Y-25824D01*
X34402Y-25824D01*
X34830Y-25786D02*
X34887Y-25824D01*
X35002Y-25824D01*
X35059Y-25786D01*
X35087Y-25710D01*
X35087Y-25671D01*
X35059Y-25595D01*
X35002Y-25557D01*
X34916Y-25557D01*
X34859Y-25519D01*
X34830Y-25443D01*
X34830Y-25405D01*
X34859Y-25329D01*
X34916Y-25290D01*
X35002Y-25290D01*
X35059Y-25329D01*
X35431Y-25824D02*
X35373Y-25786D01*
X35345Y-25710D01*
X35345Y-25024D01*
X35916Y-25824D02*
X35916Y-25405D01*
X35887Y-25329D01*
X35830Y-25290D01*
X35716Y-25290D01*
X35659Y-25329D01*
X35916Y-25786D02*
X35859Y-25824D01*
X35716Y-25824D01*
X35659Y-25786D01*
X35630Y-25710D01*
X35630Y-25633D01*
X35659Y-25557D01*
X35716Y-25519D01*
X35859Y-25519D01*
X35916Y-25481D01*
X36173Y-25786D02*
X36230Y-25824D01*
X36345Y-25824D01*
X36402Y-25786D01*
X36430Y-25710D01*
X36430Y-25671D01*
X36402Y-25595D01*
X36345Y-25557D01*
X36259Y-25557D01*
X36202Y-25519D01*
X36173Y-25443D01*
X36173Y-25405D01*
X36202Y-25329D01*
X36259Y-25290D01*
X36345Y-25290D01*
X36402Y-25329D01*
X36916Y-25786D02*
X36859Y-25824D01*
X36745Y-25824D01*
X36688Y-25786D01*
X36659Y-25710D01*
X36659Y-25405D01*
X36688Y-25329D01*
X36745Y-25290D01*
X36859Y-25290D01*
X36916Y-25329D01*
X36945Y-25405D01*
X36945Y-25481D01*
X36659Y-25557D01*
X37202Y-25824D02*
X37202Y-25290D01*
X37202Y-25443D02*
X37230Y-25367D01*
X37259Y-25329D01*
X37316Y-25290D01*
X37373Y-25290D01*
X37573Y-25748D02*
X37601Y-25786D01*
X37573Y-25824D01*
X37544Y-25786D01*
X37573Y-25748D01*
X37573Y-25824D01*
X37945Y-25824D02*
X37887Y-25786D01*
X37859Y-25748D01*
X37830Y-25671D01*
X37830Y-25443D01*
X37859Y-25367D01*
X37887Y-25329D01*
X37945Y-25290D01*
X38030Y-25290D01*
X38087Y-25329D01*
X38116Y-25367D01*
X38145Y-25443D01*
X38145Y-25671D01*
X38116Y-25748D01*
X38087Y-25786D01*
X38030Y-25824D01*
X37945Y-25824D01*
X38402Y-25824D02*
X38402Y-25290D01*
X38402Y-25443D02*
X38430Y-25367D01*
X38459Y-25329D01*
X38516Y-25290D01*
X38573Y-25290D01*
X39030Y-25290D02*
X39030Y-25938D01*
X39001Y-26014D01*
X38973Y-26052D01*
X38916Y-26090D01*
X38830Y-26090D01*
X38773Y-26052D01*
X39030Y-25786D02*
X38973Y-25824D01*
X38859Y-25824D01*
X38801Y-25786D01*
X38773Y-25748D01*
X38744Y-25671D01*
X38744Y-25443D01*
X38773Y-25367D01*
X38801Y-25329D01*
X38859Y-25290D01*
X38973Y-25290D01*
X39030Y-25329D01*
G54D16*
X50000Y-64500D02*
X49000Y-64500D01*
X46000Y-64500D02*
X45000Y-64500D01*
X49000Y-65500D02*
X46000Y-65500D01*
X50000Y-63500D02*
X45000Y-63500D01*
X46000Y-64500D02*
X46000Y-65500D01*
X49000Y-65500D02*
X49000Y-64500D01*
X45000Y-64500D02*
X45000Y-63500D01*
X50000Y-64500D02*
X50000Y-63500D01*
X49500Y-63500D02*
X49750Y-63000D01*
X49750Y-63000D02*
X49250Y-63000D01*
X49250Y-63000D02*
X49500Y-63500D01*
G54D10*
X40000Y-18500D02*
X40500Y-18500D01*
X40500Y-18500D02*
X40500Y-19500D01*
X40500Y-19500D02*
X40000Y-19500D01*
X40000Y-18000D02*
X44000Y-18000D01*
X44000Y-18000D02*
X44000Y-20000D01*
X44000Y-20000D02*
X40000Y-20000D01*
X40000Y-20000D02*
X40000Y-18000D01*
X15575Y-16000D02*
X15545Y-16305D01*
X15456Y-16600D01*
X15311Y-16871D01*
X15117Y-17109D01*
X14880Y-17305D01*
X14610Y-17451D01*
X14316Y-17542D01*
X14010Y-17574D01*
X13705Y-17547D01*
X13410Y-17460D01*
X13138Y-17317D01*
X12899Y-17125D01*
X12701Y-16889D01*
X12553Y-16620D01*
X12460Y-16327D01*
X12426Y-16021D01*
X12451Y-15716D01*
X12536Y-15421D01*
X12677Y-15147D01*
X12868Y-14906D01*
X13102Y-14707D01*
X13370Y-14557D01*
X13662Y-14462D01*
X13968Y-14426D01*
X14273Y-14449D01*
X14569Y-14532D01*
X14843Y-14671D01*
X15086Y-14860D01*
X15287Y-15093D01*
X15438Y-15360D01*
X15535Y-15652D01*
X15574Y-15957D01*
X15575Y-16000D01*
X55575Y-16000D02*
X55545Y-16305D01*
X55456Y-16600D01*
X55311Y-16871D01*
X55117Y-17109D01*
X54880Y-17305D01*
X54610Y-17451D01*
X54316Y-17542D01*
X54010Y-17574D01*
X53705Y-17547D01*
X53410Y-17460D01*
X53138Y-17317D01*
X52899Y-17125D01*
X52701Y-16889D01*
X52553Y-16620D01*
X52460Y-16327D01*
X52426Y-16021D01*
X52451Y-15716D01*
X52536Y-15421D01*
X52677Y-15147D01*
X52868Y-14906D01*
X53102Y-14707D01*
X53370Y-14557D01*
X53662Y-14462D01*
X53968Y-14426D01*
X54273Y-14449D01*
X54569Y-14532D01*
X54843Y-14671D01*
X55086Y-14860D01*
X55287Y-15093D01*
X55438Y-15360D01*
X55535Y-15652D01*
X55574Y-15957D01*
X55575Y-16000D01*
X15575Y-64000D02*
X15545Y-64305D01*
X15456Y-64600D01*
X15311Y-64871D01*
X15117Y-65109D01*
X14880Y-65305D01*
X14610Y-65451D01*
X14316Y-65542D01*
X14010Y-65574D01*
X13705Y-65547D01*
X13410Y-65460D01*
X13138Y-65317D01*
X12899Y-65125D01*
X12701Y-64889D01*
X12553Y-64620D01*
X12460Y-64327D01*
X12426Y-64021D01*
X12451Y-63716D01*
X12536Y-63421D01*
X12677Y-63147D01*
X12868Y-62906D01*
X13102Y-62707D01*
X13370Y-62557D01*
X13662Y-62462D01*
X13968Y-62426D01*
X14273Y-62449D01*
X14569Y-62532D01*
X14843Y-62671D01*
X15086Y-62860D01*
X15287Y-63093D01*
X15438Y-63360D01*
X15535Y-63652D01*
X15574Y-63957D01*
X15575Y-64000D01*
X56575Y-64000D02*
X56545Y-64305D01*
X56456Y-64600D01*
X56311Y-64871D01*
X56117Y-65109D01*
X55880Y-65305D01*
X55610Y-65451D01*
X55316Y-65542D01*
X55010Y-65574D01*
X54705Y-65547D01*
X54410Y-65460D01*
X54138Y-65317D01*
X53899Y-65125D01*
X53701Y-64889D01*
X53553Y-64620D01*
X53460Y-64327D01*
X53426Y-64021D01*
X53451Y-63716D01*
X53536Y-63421D01*
X53677Y-63147D01*
X53868Y-62906D01*
X54102Y-62707D01*
X54370Y-62557D01*
X54662Y-62462D01*
X54968Y-62426D01*
X55273Y-62449D01*
X55569Y-62532D01*
X55843Y-62671D01*
X56086Y-62860D01*
X56287Y-63093D01*
X56438Y-63360D01*
X56535Y-63652D01*
X56574Y-63957D01*
X56575Y-64000D01*
X26250Y-57000D02*
X25850Y-57000D01*
X25850Y-57000D02*
X25850Y-57400D01*
X25850Y-57400D02*
X22650Y-57400D01*
X22650Y-57400D02*
X22650Y-56600D01*
X22650Y-56600D02*
X25850Y-56600D01*
X25850Y-56600D02*
X25850Y-57000D01*
X22250Y-57000D02*
X22650Y-57000D01*
X41000Y-54000D02*
X41000Y-53600D01*
X41000Y-53600D02*
X40600Y-53600D01*
X40600Y-53600D02*
X40600Y-50400D01*
X40600Y-50400D02*
X41400Y-50400D01*
X41400Y-50400D02*
X41400Y-53600D01*
X41400Y-53600D02*
X41000Y-53600D01*
X41000Y-50000D02*
X41000Y-50400D01*
X40000Y-54000D02*
X40000Y-53600D01*
X40000Y-53600D02*
X39600Y-53600D01*
X39600Y-53600D02*
X39600Y-50400D01*
X39600Y-50400D02*
X40400Y-50400D01*
X40400Y-50400D02*
X40400Y-53600D01*
X40400Y-53600D02*
X40000Y-53600D01*
X40000Y-50000D02*
X40000Y-50400D01*
X23850Y-22250D02*
X24250Y-22250D01*
X24250Y-22250D02*
X24250Y-21850D01*
X24250Y-21850D02*
X27450Y-21850D01*
X27450Y-21850D02*
X27450Y-22650D01*
X27450Y-22650D02*
X24250Y-22650D01*
X24250Y-22650D02*
X24250Y-22250D01*
X27850Y-22250D02*
X27450Y-22250D01*
X26250Y-56000D02*
X25850Y-56000D01*
X25850Y-56000D02*
X25850Y-56400D01*
X25850Y-56400D02*
X22650Y-56400D01*
X22650Y-56400D02*
X22650Y-55600D01*
X22650Y-55600D02*
X25850Y-55600D01*
X25850Y-55600D02*
X25850Y-56000D01*
X22250Y-56000D02*
X22650Y-56000D01*
X37000Y-54000D02*
X37000Y-53600D01*
X37000Y-53600D02*
X36600Y-53600D01*
X36600Y-53600D02*
X36600Y-50400D01*
X36600Y-50400D02*
X37400Y-50400D01*
X37400Y-50400D02*
X37400Y-53600D01*
X37400Y-53600D02*
X37000Y-53600D01*
X37000Y-50000D02*
X37000Y-50400D01*
X45500Y-44500D02*
X45500Y-44900D01*
X45500Y-44900D02*
X45900Y-44900D01*
X45900Y-44900D02*
X45900Y-48100D01*
X45900Y-48100D02*
X45100Y-48100D01*
X45100Y-48100D02*
X45100Y-44900D01*
X45100Y-44900D02*
X45500Y-44900D01*
X45500Y-48500D02*
X45500Y-48100D01*
X35000Y-54000D02*
X35000Y-53600D01*
X35000Y-53600D02*
X34600Y-53600D01*
X34600Y-53600D02*
X34600Y-50400D01*
X34600Y-50400D02*
X35400Y-50400D01*
X35400Y-50400D02*
X35400Y-53600D01*
X35400Y-53600D02*
X35000Y-53600D01*
X35000Y-50000D02*
X35000Y-50400D01*
X33000Y-54000D02*
X33000Y-53600D01*
X33000Y-53600D02*
X32600Y-53600D01*
X32600Y-53600D02*
X32600Y-50400D01*
X32600Y-50400D02*
X33400Y-50400D01*
X33400Y-50400D02*
X33400Y-53600D01*
X33400Y-53600D02*
X33000Y-53600D01*
X33000Y-50000D02*
X33000Y-50400D01*
X42500Y-48500D02*
X42500Y-48100D01*
X42500Y-48100D02*
X42100Y-48100D01*
X42100Y-48100D02*
X42100Y-44900D01*
X42100Y-44900D02*
X42900Y-44900D01*
X42900Y-44900D02*
X42900Y-48100D01*
X42900Y-48100D02*
X42500Y-48100D01*
X42500Y-44500D02*
X42500Y-44900D01*
X34000Y-54000D02*
X34000Y-53600D01*
X34000Y-53600D02*
X33600Y-53600D01*
X33600Y-53600D02*
X33600Y-50400D01*
X33600Y-50400D02*
X34400Y-50400D01*
X34400Y-50400D02*
X34400Y-53600D01*
X34400Y-53600D02*
X34000Y-53600D01*
X34000Y-50000D02*
X34000Y-50400D01*
X38000Y-54000D02*
X38000Y-53600D01*
X38000Y-53600D02*
X37600Y-53600D01*
X37600Y-53600D02*
X37600Y-50400D01*
X37600Y-50400D02*
X38400Y-50400D01*
X38400Y-50400D02*
X38400Y-53600D01*
X38400Y-53600D02*
X38000Y-53600D01*
X38000Y-50000D02*
X38000Y-50400D01*
X26500Y-33500D02*
X26100Y-33500D01*
X26100Y-33500D02*
X26100Y-33900D01*
X26100Y-33900D02*
X22900Y-33900D01*
X22900Y-33900D02*
X22900Y-33100D01*
X22900Y-33100D02*
X26100Y-33100D01*
X26100Y-33100D02*
X26100Y-33500D01*
X22500Y-33500D02*
X22900Y-33500D01*
X43500Y-48500D02*
X43500Y-48100D01*
X43500Y-48100D02*
X43100Y-48100D01*
X43100Y-48100D02*
X43100Y-44900D01*
X43100Y-44900D02*
X43900Y-44900D01*
X43900Y-44900D02*
X43900Y-48100D01*
X43900Y-48100D02*
X43500Y-48100D01*
X43500Y-44500D02*
X43500Y-44900D01*
X26500Y-32500D02*
X26100Y-32500D01*
X26100Y-32500D02*
X26100Y-32900D01*
X26100Y-32900D02*
X22900Y-32900D01*
X22900Y-32900D02*
X22900Y-32100D01*
X22900Y-32100D02*
X26100Y-32100D01*
X26100Y-32100D02*
X26100Y-32500D01*
X22500Y-32500D02*
X22900Y-32500D01*
X44500Y-44500D02*
X44500Y-44900D01*
X44500Y-44900D02*
X44900Y-44900D01*
X44900Y-44900D02*
X44900Y-48100D01*
X44900Y-48100D02*
X44100Y-48100D01*
X44100Y-48100D02*
X44100Y-44900D01*
X44100Y-44900D02*
X44500Y-44900D01*
X44500Y-48500D02*
X44500Y-48100D01*
X43500Y-38500D02*
X43500Y-38100D01*
X43500Y-38100D02*
X43100Y-38100D01*
X43100Y-38100D02*
X43100Y-34900D01*
X43100Y-34900D02*
X43900Y-34900D01*
X43900Y-34900D02*
X43900Y-38100D01*
X43900Y-38100D02*
X43500Y-38100D01*
X43500Y-34500D02*
X43500Y-34900D01*
X17000Y-25250D02*
X17000Y-24850D01*
X17000Y-24850D02*
X16600Y-24850D01*
X16600Y-24850D02*
X16600Y-21650D01*
X16600Y-21650D02*
X17400Y-21650D01*
X17400Y-21650D02*
X17400Y-24850D01*
X17400Y-24850D02*
X17000Y-24850D01*
X17000Y-21250D02*
X17000Y-21650D01*
X44500Y-34500D02*
X44500Y-34900D01*
X44500Y-34900D02*
X44900Y-34900D01*
X44900Y-34900D02*
X44900Y-38100D01*
X44900Y-38100D02*
X44100Y-38100D01*
X44100Y-38100D02*
X44100Y-34900D01*
X44100Y-34900D02*
X44500Y-34900D01*
X44500Y-38500D02*
X44500Y-38100D01*
X36000Y-50000D02*
X36000Y-50400D01*
X36000Y-50400D02*
X36400Y-50400D01*
X36400Y-50400D02*
X36400Y-53600D01*
X36400Y-53600D02*
X35600Y-53600D01*
X35600Y-53600D02*
X35600Y-50400D01*
X35600Y-50400D02*
X36000Y-50400D01*
X36000Y-54000D02*
X36000Y-53600D01*
X43500Y-28500D02*
X43500Y-28100D01*
X43500Y-28100D02*
X43100Y-28100D01*
X43100Y-28100D02*
X43100Y-24900D01*
X43100Y-24900D02*
X43900Y-24900D01*
X43900Y-24900D02*
X43900Y-28100D01*
X43900Y-28100D02*
X43500Y-28100D01*
X43500Y-24500D02*
X43500Y-24900D01*
X26500Y-37500D02*
X26100Y-37500D01*
X26100Y-37500D02*
X26100Y-37900D01*
X26100Y-37900D02*
X22900Y-37900D01*
X22900Y-37900D02*
X22900Y-37100D01*
X22900Y-37100D02*
X26100Y-37100D01*
X26100Y-37100D02*
X26100Y-37500D01*
X22500Y-37500D02*
X22900Y-37500D01*
X26500Y-36500D02*
X26100Y-36500D01*
X26100Y-36500D02*
X26100Y-36900D01*
X26100Y-36900D02*
X22900Y-36900D01*
X22900Y-36900D02*
X22900Y-36100D01*
X22900Y-36100D02*
X26100Y-36100D01*
X26100Y-36100D02*
X26100Y-36500D01*
X22500Y-36500D02*
X22900Y-36500D01*
X44500Y-24500D02*
X44500Y-24900D01*
X44500Y-24900D02*
X44900Y-24900D01*
X44900Y-24900D02*
X44900Y-28100D01*
X44900Y-28100D02*
X44100Y-28100D01*
X44100Y-28100D02*
X44100Y-24900D01*
X44100Y-24900D02*
X44500Y-24900D01*
X44500Y-28500D02*
X44500Y-28100D01*
X52000Y-63000D02*
X52000Y-62600D01*
X52000Y-62600D02*
X51600Y-62600D01*
X51600Y-62600D02*
X51600Y-59400D01*
X51600Y-59400D02*
X52400Y-59400D01*
X52400Y-59400D02*
X52400Y-62600D01*
X52400Y-62600D02*
X52000Y-62600D01*
X52000Y-59000D02*
X52000Y-59400D01*
X42500Y-24500D02*
X42500Y-24900D01*
X42500Y-24900D02*
X42900Y-24900D01*
X42900Y-24900D02*
X42900Y-28100D01*
X42900Y-28100D02*
X42100Y-28100D01*
X42100Y-28100D02*
X42100Y-24900D01*
X42100Y-24900D02*
X42500Y-24900D01*
X42500Y-28500D02*
X42500Y-28100D01*
X21400Y-18850D02*
X21400Y-18450D01*
X21400Y-18450D02*
X21000Y-18450D01*
X21000Y-18450D02*
X21000Y-15250D01*
X21000Y-15250D02*
X21800Y-15250D01*
X21800Y-15250D02*
X21800Y-18450D01*
X21800Y-18450D02*
X21400Y-18450D01*
X21400Y-14850D02*
X21400Y-15250D01*
X28900Y-18850D02*
X28900Y-18450D01*
X28900Y-18450D02*
X28500Y-18450D01*
X28500Y-18450D02*
X28500Y-15250D01*
X28500Y-15250D02*
X29300Y-15250D01*
X29300Y-15250D02*
X29300Y-18450D01*
X29300Y-18450D02*
X28900Y-18450D01*
X28900Y-14850D02*
X28900Y-15250D01*
X48750Y-17500D02*
X48350Y-17500D01*
X48350Y-17500D02*
X48350Y-17900D01*
X48350Y-17900D02*
X45150Y-17900D01*
X45150Y-17900D02*
X45150Y-17100D01*
X45150Y-17100D02*
X48350Y-17100D01*
X48350Y-17100D02*
X48350Y-17500D01*
X44750Y-17500D02*
X45150Y-17500D01*
X39000Y-54000D02*
X39000Y-53600D01*
X39000Y-53600D02*
X38600Y-53600D01*
X38600Y-53600D02*
X38600Y-50400D01*
X38600Y-50400D02*
X39400Y-50400D01*
X39400Y-50400D02*
X39400Y-53600D01*
X39400Y-53600D02*
X39000Y-53600D01*
X39000Y-50000D02*
X39000Y-50400D01*
X26250Y-54000D02*
X25850Y-54000D01*
X25850Y-54000D02*
X25850Y-54400D01*
X25850Y-54400D02*
X22650Y-54400D01*
X22650Y-54400D02*
X22650Y-53600D01*
X22650Y-53600D02*
X25850Y-53600D01*
X25850Y-53600D02*
X25850Y-54000D01*
X22250Y-54000D02*
X22650Y-54000D01*
X26250Y-55000D02*
X25850Y-55000D01*
X25850Y-55000D02*
X25850Y-55400D01*
X25850Y-55400D02*
X22650Y-55400D01*
X22650Y-55400D02*
X22650Y-54600D01*
X22650Y-54600D02*
X25850Y-54600D01*
X25850Y-54600D02*
X25850Y-55000D01*
X22250Y-55000D02*
X22650Y-55000D01*
G54D17*
X20400Y-19300D02*
X16400Y-19300D01*
X20300Y-18600D02*
X16500Y-18600D01*
G54D12*
X20400Y-19600D02*
X20300Y-17900D01*
X20300Y-17900D02*
X16500Y-17900D01*
X16500Y-17900D02*
X16400Y-19600D01*
X20400Y-19600D02*
X16400Y-19600D01*
G54D16*
X13500Y-20050D02*
X13500Y-18550D01*
X13500Y-25550D02*
X13500Y-24050D01*
X13500Y-20050D02*
X12500Y-20050D01*
X12500Y-20050D02*
X12500Y-24050D01*
X12500Y-24050D02*
X13500Y-24050D01*
X14500Y-25550D02*
X14500Y-18550D01*
X13500Y-18550D02*
X14500Y-18550D01*
X13500Y-25550D02*
X14500Y-25550D01*
G54D10*
X14500Y-25050D02*
X15000Y-25300D01*
X15000Y-25300D02*
X15000Y-24800D01*
X15000Y-24800D02*
X14500Y-25050D01*
G54D16*
X46750Y-29000D02*
X52750Y-29000D01*
X52750Y-29000D02*
X52750Y-37000D01*
X52750Y-37000D02*
X46750Y-37000D01*
X46750Y-37000D02*
X46750Y-29000D01*
X46750Y-39000D02*
X52750Y-39000D01*
X52750Y-39000D02*
X52750Y-47000D01*
X52750Y-47000D02*
X46750Y-47000D01*
X46750Y-47000D02*
X46750Y-39000D01*
X46000Y-15500D02*
X47500Y-15500D01*
X40500Y-15500D02*
X42000Y-15500D01*
X46000Y-15500D02*
X46000Y-14500D01*
X46000Y-14500D02*
X42000Y-14500D01*
X42000Y-14500D02*
X42000Y-15500D01*
X40500Y-16500D02*
X47500Y-16500D01*
X47500Y-15500D02*
X47500Y-16500D01*
X40500Y-15500D02*
X40500Y-16500D01*
G54D10*
X41000Y-16500D02*
X40750Y-17000D01*
X40750Y-17000D02*
X41250Y-17000D01*
X41250Y-17000D02*
X41000Y-16500D01*
X42000Y-57250D02*
X42000Y-57250D01*
X42000Y-57250D02*
X41500Y-57250D01*
X41500Y-57250D02*
X41500Y-56250D01*
X41500Y-56250D02*
X42000Y-56250D01*
X42000Y-57750D02*
X33000Y-57750D01*
X33000Y-57750D02*
X33000Y-55750D01*
X33000Y-55750D02*
X42000Y-55750D01*
X42000Y-55750D02*
X42000Y-57750D01*
X30000Y-49000D02*
X30000Y-49000D01*
X30000Y-49000D02*
X30000Y-49500D01*
X30000Y-49500D02*
X29000Y-49500D01*
X29000Y-49500D02*
X29000Y-49000D01*
X30500Y-49000D02*
X30500Y-58000D01*
X30500Y-58000D02*
X28500Y-58000D01*
X28500Y-58000D02*
X28500Y-49000D01*
X28500Y-49000D02*
X30500Y-49000D01*
G54D16*
X16900Y-16900D02*
X19900Y-16900D01*
X19900Y-16900D02*
X19900Y-15900D01*
X19900Y-15900D02*
X19400Y-15900D01*
X19400Y-15900D02*
X19400Y-14900D01*
X19400Y-14900D02*
X17400Y-14900D01*
X17400Y-14900D02*
X17400Y-15900D01*
X17400Y-15900D02*
X16900Y-15900D01*
X16900Y-15900D02*
X16900Y-16900D01*
G54D10*
X17400Y-16900D02*
X17150Y-17400D01*
X17150Y-17400D02*
X17650Y-17400D01*
X17650Y-17400D02*
X17400Y-16900D01*
G54D16*
X13500Y-28000D02*
X13500Y-26500D01*
X13500Y-33500D02*
X13500Y-32000D01*
X13500Y-28000D02*
X12500Y-28000D01*
X12500Y-28000D02*
X12500Y-32000D01*
X12500Y-32000D02*
X13500Y-32000D01*
X14500Y-33500D02*
X14500Y-26500D01*
X13500Y-26500D02*
X14500Y-26500D01*
X13500Y-33500D02*
X14500Y-33500D01*
G54D10*
X14500Y-33000D02*
X15000Y-33250D01*
X15000Y-33250D02*
X15000Y-32750D01*
X15000Y-32750D02*
X14500Y-33000D01*
G54D16*
X13750Y-55750D02*
X13750Y-54250D01*
X13750Y-61250D02*
X13750Y-59750D01*
X13750Y-55750D02*
X12750Y-55750D01*
X12750Y-55750D02*
X12750Y-59750D01*
X12750Y-59750D02*
X13750Y-59750D01*
X14750Y-61250D02*
X14750Y-54250D01*
X13750Y-54250D02*
X14750Y-54250D01*
X13750Y-61250D02*
X14750Y-61250D01*
G54D10*
X14750Y-60750D02*
X15250Y-61000D01*
X15250Y-61000D02*
X15250Y-60500D01*
X15250Y-60500D02*
X14750Y-60750D01*
G54D16*
X18000Y-64500D02*
X16500Y-64500D01*
X23500Y-64500D02*
X22000Y-64500D01*
X18000Y-64500D02*
X18000Y-65500D01*
X18000Y-65500D02*
X22000Y-65500D01*
X22000Y-65500D02*
X22000Y-64500D01*
X23500Y-63500D02*
X16500Y-63500D01*
X16500Y-64500D02*
X16500Y-63500D01*
X23500Y-64500D02*
X23500Y-63500D01*
G54D10*
X23000Y-63500D02*
X23250Y-63000D01*
X23250Y-63000D02*
X22750Y-63000D01*
X22750Y-63000D02*
X23000Y-63500D01*
G54D16*
X38000Y-64500D02*
X36500Y-64500D01*
X43500Y-64500D02*
X42000Y-64500D01*
X38000Y-64500D02*
X38000Y-65500D01*
X38000Y-65500D02*
X42000Y-65500D01*
X42000Y-65500D02*
X42000Y-64500D01*
X43500Y-63500D02*
X36500Y-63500D01*
X36500Y-64500D02*
X36500Y-63500D01*
X43500Y-64500D02*
X43500Y-63500D01*
G54D10*
X43000Y-63500D02*
X43250Y-63000D01*
X43250Y-63000D02*
X42750Y-63000D01*
X42750Y-63000D02*
X43000Y-63500D01*
G54D16*
X13500Y-35750D02*
X13500Y-34250D01*
X13500Y-41250D02*
X13500Y-39750D01*
X13500Y-35750D02*
X12500Y-35750D01*
X12500Y-35750D02*
X12500Y-39750D01*
X12500Y-39750D02*
X13500Y-39750D01*
X14500Y-41250D02*
X14500Y-34250D01*
X13500Y-34250D02*
X14500Y-34250D01*
X13500Y-41250D02*
X14500Y-41250D01*
G54D10*
X14500Y-40750D02*
X15000Y-41000D01*
X15000Y-41000D02*
X15000Y-40500D01*
X15000Y-40500D02*
X14500Y-40750D01*
G54D16*
X30000Y-64500D02*
X28500Y-64500D01*
X35500Y-64500D02*
X34000Y-64500D01*
X30000Y-64500D02*
X30000Y-65500D01*
X30000Y-65500D02*
X34000Y-65500D01*
X34000Y-65500D02*
X34000Y-64500D01*
X35500Y-63500D02*
X28500Y-63500D01*
X28500Y-64500D02*
X28500Y-63500D01*
X35500Y-64500D02*
X35500Y-63500D01*
G54D10*
X35000Y-63500D02*
X35250Y-63000D01*
X35250Y-63000D02*
X34750Y-63000D01*
X34750Y-63000D02*
X35000Y-63500D01*
G54D16*
X54500Y-57500D02*
X54500Y-55500D01*
X54500Y-55500D02*
X55500Y-55500D01*
X55500Y-55500D02*
X55500Y-50500D01*
X55500Y-50500D02*
X54500Y-50500D01*
X54500Y-50500D02*
X54500Y-48500D01*
X53500Y-55500D02*
X53500Y-57500D01*
X53500Y-48500D02*
X53500Y-55500D01*
X54500Y-57500D02*
X53500Y-57500D01*
X54500Y-48500D02*
X53500Y-48500D01*
G54D10*
X53500Y-49000D02*
X53000Y-48750D01*
X53000Y-48750D02*
X53000Y-49250D01*
X53000Y-49250D02*
X53500Y-49000D01*
G54D16*
X54500Y-47500D02*
X54500Y-45500D01*
X54500Y-45500D02*
X55500Y-45500D01*
X55500Y-45500D02*
X55500Y-40500D01*
X55500Y-40500D02*
X54500Y-40500D01*
X54500Y-40500D02*
X54500Y-38500D01*
X53500Y-45500D02*
X53500Y-47500D01*
X53500Y-38500D02*
X53500Y-45500D01*
X54500Y-47500D02*
X53500Y-47500D01*
X54500Y-38500D02*
X53500Y-38500D01*
G54D10*
X53500Y-39000D02*
X53000Y-38750D01*
X53000Y-38750D02*
X53000Y-39250D01*
X53000Y-39250D02*
X53500Y-39000D01*
G54D16*
X54500Y-27500D02*
X54500Y-25500D01*
X54500Y-25500D02*
X55500Y-25500D01*
X55500Y-25500D02*
X55500Y-20500D01*
X55500Y-20500D02*
X54500Y-20500D01*
X54500Y-20500D02*
X54500Y-18500D01*
X53500Y-25500D02*
X53500Y-27500D01*
X53500Y-18500D02*
X53500Y-25500D01*
X54500Y-27500D02*
X53500Y-27500D01*
X54500Y-18500D02*
X53500Y-18500D01*
G54D10*
X53500Y-19000D02*
X53000Y-18750D01*
X53000Y-18750D02*
X53000Y-19250D01*
X53000Y-19250D02*
X53500Y-19000D01*
G54D16*
X54500Y-37500D02*
X54500Y-35500D01*
X54500Y-35500D02*
X55500Y-35500D01*
X55500Y-35500D02*
X55500Y-30500D01*
X55500Y-30500D02*
X54500Y-30500D01*
X54500Y-30500D02*
X54500Y-28500D01*
X53500Y-35500D02*
X53500Y-37500D01*
X53500Y-28500D02*
X53500Y-35500D01*
X54500Y-37500D02*
X53500Y-37500D01*
X54500Y-28500D02*
X53500Y-28500D01*
G54D10*
X53500Y-29000D02*
X53000Y-28750D01*
X53000Y-28750D02*
X53000Y-29250D01*
X53000Y-29250D02*
X53500Y-29000D01*
G54D12*
X28500Y-48500D02*
X38500Y-48500D01*
X28500Y-27500D02*
X38500Y-27500D01*
X38500Y-27500D02*
X38500Y-48500D01*
X28500Y-48500D02*
X28500Y-27500D01*
G54D16*
X46700Y-19000D02*
X52700Y-19000D01*
X52700Y-19000D02*
X52700Y-27000D01*
X52700Y-27000D02*
X46700Y-27000D01*
X46700Y-27000D02*
X46700Y-19000D01*
X46750Y-49000D02*
X52750Y-49000D01*
X52750Y-49000D02*
X52750Y-57000D01*
X52750Y-57000D02*
X46750Y-57000D01*
X46750Y-57000D02*
X46750Y-49000D01*
G54D10*
X23000Y-27500D02*
X23500Y-27750D01*
X23500Y-27750D02*
X23500Y-27250D01*
X23500Y-27250D02*
X23000Y-27500D01*
X23000Y-28000D02*
X22000Y-28000D01*
X22000Y-28000D02*
X22000Y-25000D01*
X22000Y-25000D02*
X23000Y-25000D01*
X23000Y-25000D02*
X23000Y-28000D01*
X22000Y-27000D02*
X23000Y-27000D01*
G54D18*
X21900Y-13350D02*
X28300Y-13350D01*
X28300Y-20850D02*
X28300Y-12200D01*
X21900Y-20850D02*
X21900Y-12200D01*
X21900Y-20850D02*
X28300Y-20850D01*
X28300Y-12200D02*
X21900Y-12200D01*
G54D12*
X54000Y-61500D02*
X54000Y-58500D01*
X54000Y-58500D02*
X53000Y-58500D01*
X54000Y-61500D02*
X53000Y-61500D01*
X53000Y-58500D02*
X53000Y-61500D01*
X15100Y-20300D02*
X15100Y-23300D01*
X15100Y-23300D02*
X16100Y-23300D01*
X15100Y-20300D02*
X16100Y-20300D01*
X16100Y-23300D02*
X16100Y-20300D01*
X28900Y-19900D02*
X28900Y-22900D01*
X28900Y-22900D02*
X29900Y-22900D01*
X28900Y-19900D02*
X29900Y-19900D01*
X29900Y-22900D02*
X29900Y-19900D01*
X17900Y-21700D02*
X20900Y-21700D01*
X20900Y-21700D02*
X20900Y-20700D01*
X17900Y-21700D02*
X17900Y-20700D01*
X20900Y-20700D02*
X17900Y-20700D01*
X17900Y-23100D02*
X20900Y-23100D01*
X20900Y-23100D02*
X20900Y-22100D01*
X17900Y-23100D02*
X17900Y-22100D01*
X20900Y-22100D02*
X17900Y-22100D01*
G54D19*
X43000Y-22280D02*
X42000Y-22280D01*
G54D10*
X42116Y-23360D02*
X42158Y-23392D01*
X42202Y-23420D01*
X42249Y-23444D01*
X42297Y-23464D01*
X42347Y-23480D01*
X42398Y-23491D01*
X42450Y-23497D01*
X42500Y-23500D01*
X42500Y-23499D02*
X42552Y-23496D01*
X42604Y-23489D01*
X42655Y-23478D01*
X42704Y-23462D01*
X42753Y-23442D01*
X42799Y-23418D01*
X42843Y-23390D01*
X42885Y-23358D01*
X42897Y-23347D01*
X42500Y-22301D02*
X42448Y-22304D01*
X42396Y-22311D01*
X42345Y-22322D01*
X42296Y-22338D01*
X42247Y-22358D01*
X42201Y-22382D01*
X42157Y-22410D01*
X42115Y-22442D01*
X42111Y-22446D01*
X42884Y-22440D02*
X42842Y-22408D01*
X42798Y-22380D01*
X42751Y-22356D01*
X42703Y-22336D01*
X42653Y-22320D01*
X42602Y-22309D01*
X42550Y-22303D01*
X42500Y-22300D01*
X42151Y-22413D02*
X42110Y-22445D01*
X42072Y-22481D01*
X42037Y-22520D01*
X42005Y-22562D01*
X41978Y-22606D01*
X41954Y-22653D01*
X41935Y-22701D01*
X41919Y-22751D01*
X41909Y-22803D01*
X41902Y-22854D01*
X41900Y-22900D01*
X41900Y-22900D02*
X41903Y-22952D01*
X41910Y-23004D01*
X41921Y-23055D01*
X41937Y-23105D01*
X41957Y-23153D01*
X41981Y-23199D01*
X42009Y-23244D01*
X42041Y-23285D01*
X42076Y-23324D01*
X42115Y-23359D01*
X42140Y-23379D01*
X43099Y-22900D02*
X43096Y-22848D01*
X43089Y-22796D01*
X43078Y-22745D01*
X43062Y-22696D01*
X43042Y-22647D01*
X43018Y-22601D01*
X42990Y-22557D01*
X42958Y-22515D01*
X42923Y-22477D01*
X42885Y-22442D01*
X42867Y-22428D01*
X42868Y-23373D02*
X42908Y-23339D01*
X42945Y-23302D01*
X42978Y-23261D01*
X43008Y-23218D01*
X43034Y-23173D01*
X43055Y-23125D01*
X43073Y-23076D01*
X43086Y-23025D01*
X43095Y-22974D01*
X43099Y-22921D01*
X43100Y-22900D01*
X42250Y-22900D02*
X42251Y-22921D01*
X42254Y-22943D01*
X42259Y-22964D01*
X42266Y-22985D01*
X42274Y-23005D01*
X42284Y-23024D01*
X42296Y-23043D01*
X42309Y-23060D01*
X42324Y-23076D01*
X42340Y-23091D01*
X42357Y-23104D01*
X42376Y-23116D01*
X42395Y-23126D01*
X42415Y-23134D01*
X42436Y-23141D01*
X42457Y-23146D01*
X42479Y-23149D01*
X42500Y-23150D01*
X42100Y-22900D02*
X42102Y-22934D01*
X42107Y-22969D01*
X42114Y-23003D01*
X42125Y-23036D01*
X42138Y-23069D01*
X42154Y-23099D01*
X42173Y-23129D01*
X42194Y-23157D01*
X42218Y-23182D01*
X42243Y-23206D01*
X42271Y-23227D01*
X42301Y-23246D01*
X42331Y-23262D01*
X42364Y-23275D01*
X42397Y-23286D01*
X42431Y-23293D01*
X42466Y-23298D01*
X42500Y-23300D01*
X42750Y-22900D02*
X42749Y-22879D01*
X42746Y-22857D01*
X42741Y-22836D01*
X42734Y-22815D01*
X42726Y-22795D01*
X42716Y-22776D01*
X42704Y-22757D01*
X42691Y-22740D01*
X42676Y-22724D01*
X42660Y-22709D01*
X42643Y-22696D01*
X42625Y-22684D01*
X42605Y-22674D01*
X42585Y-22666D01*
X42564Y-22659D01*
X42543Y-22654D01*
X42521Y-22651D01*
X42500Y-22650D01*
X42900Y-22900D02*
X42898Y-22866D01*
X42893Y-22831D01*
X42886Y-22797D01*
X42875Y-22764D01*
X42862Y-22731D01*
X42846Y-22701D01*
X42827Y-22671D01*
X42806Y-22643D01*
X42782Y-22618D01*
X42757Y-22594D01*
X42729Y-22573D01*
X42700Y-22554D01*
X42669Y-22538D01*
X42636Y-22525D01*
X42603Y-22514D01*
X42569Y-22507D01*
X42534Y-22502D01*
X42500Y-22500D01*
G54D19*
X41987Y-22287D02*
X41936Y-22334D01*
X41889Y-22385D01*
X41846Y-22440D01*
X41808Y-22499D01*
X41776Y-22561D01*
X41749Y-22626D01*
X41728Y-22692D01*
X41713Y-22760D01*
X41704Y-22829D01*
X41701Y-22899D01*
X41700Y-22900D01*
X41701Y-22900D02*
X41705Y-22969D01*
X41714Y-23038D01*
X41729Y-23106D01*
X41750Y-23173D01*
X41776Y-23237D01*
X41809Y-23299D01*
X41846Y-23358D01*
X41888Y-23413D01*
X41936Y-23464D01*
X41987Y-23512D01*
X42042Y-23554D01*
X42101Y-23591D01*
X42124Y-23604D01*
X43297Y-22899D02*
X43294Y-22830D01*
X43285Y-22761D01*
X43270Y-22693D01*
X43249Y-22626D01*
X43222Y-22562D01*
X43190Y-22500D01*
X43152Y-22442D01*
X43110Y-22386D01*
X43063Y-22335D01*
X43015Y-22291D01*
X42897Y-23594D02*
X42956Y-23556D01*
X43012Y-23514D01*
X43063Y-23467D01*
X43111Y-23416D01*
X43153Y-23361D01*
X43191Y-23302D01*
X43223Y-23240D01*
X43250Y-23176D01*
X43272Y-23109D01*
X43287Y-23041D01*
X43296Y-22972D01*
X43299Y-22902D01*
X43300Y-22900D01*
X42121Y-23604D02*
X42184Y-23634D01*
X42249Y-23659D01*
X42316Y-23678D01*
X42385Y-23691D01*
X42454Y-23698D01*
X42500Y-23700D01*
X42500Y-23699D02*
X42569Y-23695D01*
X42638Y-23686D01*
X42706Y-23671D01*
X42773Y-23650D01*
X42837Y-23624D01*
X42899Y-23591D01*
X42918Y-23580D01*
X31800Y-21380D02*
X30800Y-21380D01*
G54D10*
X30916Y-22460D02*
X30958Y-22492D01*
X31002Y-22520D01*
X31049Y-22544D01*
X31097Y-22564D01*
X31147Y-22580D01*
X31198Y-22591D01*
X31250Y-22597D01*
X31300Y-22600D01*
X31300Y-22599D02*
X31352Y-22596D01*
X31404Y-22589D01*
X31455Y-22578D01*
X31504Y-22562D01*
X31553Y-22542D01*
X31599Y-22518D01*
X31643Y-22490D01*
X31685Y-22458D01*
X31697Y-22447D01*
X31300Y-21401D02*
X31248Y-21404D01*
X31196Y-21411D01*
X31145Y-21422D01*
X31096Y-21438D01*
X31047Y-21458D01*
X31001Y-21482D01*
X30957Y-21510D01*
X30915Y-21542D01*
X30911Y-21546D01*
X31684Y-21540D02*
X31642Y-21508D01*
X31598Y-21480D01*
X31551Y-21456D01*
X31503Y-21436D01*
X31453Y-21420D01*
X31402Y-21409D01*
X31350Y-21403D01*
X31300Y-21400D01*
X30951Y-21513D02*
X30910Y-21545D01*
X30872Y-21581D01*
X30837Y-21620D01*
X30805Y-21662D01*
X30778Y-21706D01*
X30754Y-21753D01*
X30735Y-21801D01*
X30719Y-21851D01*
X30709Y-21903D01*
X30702Y-21954D01*
X30700Y-22000D01*
X30700Y-22000D02*
X30703Y-22052D01*
X30710Y-22104D01*
X30721Y-22155D01*
X30737Y-22205D01*
X30757Y-22253D01*
X30781Y-22299D01*
X30809Y-22344D01*
X30841Y-22385D01*
X30876Y-22424D01*
X30915Y-22459D01*
X30940Y-22479D01*
X31899Y-22000D02*
X31896Y-21948D01*
X31889Y-21896D01*
X31878Y-21845D01*
X31862Y-21796D01*
X31842Y-21747D01*
X31818Y-21701D01*
X31790Y-21657D01*
X31758Y-21615D01*
X31723Y-21577D01*
X31685Y-21542D01*
X31667Y-21528D01*
X31668Y-22473D02*
X31708Y-22439D01*
X31745Y-22402D01*
X31778Y-22361D01*
X31808Y-22318D01*
X31834Y-22273D01*
X31855Y-22225D01*
X31873Y-22176D01*
X31886Y-22125D01*
X31895Y-22074D01*
X31899Y-22021D01*
X31900Y-22000D01*
X31050Y-22000D02*
X31051Y-22021D01*
X31054Y-22043D01*
X31059Y-22064D01*
X31066Y-22085D01*
X31074Y-22105D01*
X31084Y-22124D01*
X31096Y-22143D01*
X31109Y-22160D01*
X31124Y-22176D01*
X31140Y-22191D01*
X31157Y-22204D01*
X31176Y-22216D01*
X31195Y-22226D01*
X31215Y-22234D01*
X31236Y-22241D01*
X31257Y-22246D01*
X31279Y-22249D01*
X31300Y-22250D01*
X30900Y-22000D02*
X30902Y-22034D01*
X30907Y-22069D01*
X30914Y-22103D01*
X30925Y-22136D01*
X30938Y-22169D01*
X30954Y-22199D01*
X30973Y-22229D01*
X30994Y-22257D01*
X31018Y-22282D01*
X31043Y-22306D01*
X31071Y-22327D01*
X31101Y-22346D01*
X31131Y-22362D01*
X31164Y-22375D01*
X31197Y-22386D01*
X31231Y-22393D01*
X31266Y-22398D01*
X31300Y-22400D01*
X31550Y-22000D02*
X31549Y-21979D01*
X31546Y-21957D01*
X31541Y-21936D01*
X31534Y-21915D01*
X31526Y-21895D01*
X31516Y-21876D01*
X31504Y-21857D01*
X31491Y-21840D01*
X31476Y-21824D01*
X31460Y-21809D01*
X31443Y-21796D01*
X31425Y-21784D01*
X31405Y-21774D01*
X31385Y-21766D01*
X31364Y-21759D01*
X31343Y-21754D01*
X31321Y-21751D01*
X31300Y-21750D01*
X31700Y-22000D02*
X31698Y-21966D01*
X31693Y-21931D01*
X31686Y-21897D01*
X31675Y-21864D01*
X31662Y-21831D01*
X31646Y-21801D01*
X31627Y-21771D01*
X31606Y-21743D01*
X31582Y-21718D01*
X31557Y-21694D01*
X31529Y-21673D01*
X31500Y-21654D01*
X31469Y-21638D01*
X31436Y-21625D01*
X31403Y-21614D01*
X31369Y-21607D01*
X31334Y-21602D01*
X31300Y-21600D01*
G54D19*
X30787Y-21387D02*
X30736Y-21434D01*
X30689Y-21485D01*
X30646Y-21540D01*
X30608Y-21599D01*
X30576Y-21661D01*
X30549Y-21726D01*
X30528Y-21792D01*
X30513Y-21860D01*
X30504Y-21929D01*
X30501Y-21999D01*
X30500Y-22000D01*
X30501Y-22000D02*
X30505Y-22069D01*
X30514Y-22138D01*
X30529Y-22206D01*
X30550Y-22273D01*
X30576Y-22337D01*
X30609Y-22399D01*
X30646Y-22458D01*
X30688Y-22513D01*
X30736Y-22564D01*
X30787Y-22612D01*
X30842Y-22654D01*
X30901Y-22691D01*
X30924Y-22704D01*
X32097Y-21999D02*
X32094Y-21930D01*
X32085Y-21861D01*
X32070Y-21793D01*
X32049Y-21726D01*
X32022Y-21662D01*
X31990Y-21600D01*
X31952Y-21542D01*
X31910Y-21486D01*
X31863Y-21435D01*
X31815Y-21391D01*
X31697Y-22694D02*
X31756Y-22656D01*
X31812Y-22614D01*
X31863Y-22567D01*
X31911Y-22516D01*
X31953Y-22461D01*
X31991Y-22402D01*
X32023Y-22340D01*
X32050Y-22276D01*
X32072Y-22209D01*
X32087Y-22141D01*
X32096Y-22072D01*
X32099Y-22002D01*
X32100Y-22000D01*
X30921Y-22704D02*
X30984Y-22734D01*
X31049Y-22759D01*
X31116Y-22778D01*
X31185Y-22791D01*
X31254Y-22798D01*
X31300Y-22800D01*
X31300Y-22799D02*
X31369Y-22795D01*
X31438Y-22786D01*
X31506Y-22771D01*
X31573Y-22750D01*
X31637Y-22724D01*
X31699Y-22691D01*
X31718Y-22680D01*
G54D12*
X50969Y-59984D02*
X50931Y-60366D01*
X50820Y-60734D01*
X50640Y-61073D01*
X50397Y-61371D01*
X50101Y-61616D01*
X49763Y-61799D01*
X49395Y-61912D01*
X49013Y-61952D01*
X48632Y-61918D01*
X48263Y-61809D01*
X47922Y-61631D01*
X47623Y-61390D01*
X47376Y-61096D01*
X47191Y-60759D01*
X47075Y-60393D01*
X47032Y-60011D01*
X47064Y-59629D01*
X47170Y-59260D01*
X47345Y-58918D01*
X47584Y-58617D01*
X47877Y-58368D01*
X48212Y-58180D01*
X48578Y-58061D01*
X48959Y-58016D01*
X49341Y-58045D01*
X49712Y-58149D01*
X50055Y-58322D01*
X50357Y-58559D01*
X50608Y-58850D01*
X50798Y-59184D01*
X50920Y-59548D01*
X50968Y-59930D01*
X50969Y-59984D01*
X21559Y-25500D02*
X21521Y-25882D01*
X21410Y-26250D01*
X21230Y-26589D01*
X20987Y-26887D01*
X20691Y-27132D01*
X20353Y-27315D01*
X19985Y-27428D01*
X19603Y-27468D01*
X19222Y-27434D01*
X18853Y-27325D01*
X18512Y-27147D01*
X18213Y-26906D01*
X17966Y-26612D01*
X17781Y-26275D01*
X17665Y-25909D01*
X17622Y-25527D01*
X17654Y-25145D01*
X17760Y-24776D01*
X17935Y-24434D01*
X18174Y-24133D01*
X18467Y-23884D01*
X18802Y-23696D01*
X19168Y-23577D01*
X19549Y-23532D01*
X19931Y-23561D01*
X20302Y-23665D01*
X20645Y-23838D01*
X20947Y-24075D01*
X21198Y-24366D01*
X21388Y-24700D01*
X21510Y-25064D01*
X21558Y-25446D01*
X21559Y-25500D01*
G54D17*
X16950Y-32000D02*
X16950Y-36000D01*
X16250Y-32100D02*
X16250Y-35900D01*
G54D12*
X17250Y-32000D02*
X15550Y-32100D01*
X15550Y-32100D02*
X15550Y-35900D01*
X15550Y-35900D02*
X17250Y-36000D01*
X17250Y-32000D02*
X17250Y-36000D01*
G54D17*
X16950Y-26750D02*
X16950Y-30750D01*
X16250Y-26850D02*
X16250Y-30650D01*
G54D12*
X17250Y-26750D02*
X15550Y-26850D01*
X15550Y-26850D02*
X15550Y-30650D01*
X15550Y-30650D02*
X17250Y-30750D01*
X17250Y-26750D02*
X17250Y-30750D01*
G54D10*
X46000Y-61500D02*
X45000Y-61500D01*
X45000Y-61000D02*
X44500Y-60750D01*
X44500Y-60750D02*
X44500Y-61250D01*
X44500Y-61250D02*
X45000Y-61000D01*
X45000Y-60500D02*
X46000Y-60500D01*
X46000Y-60500D02*
X46000Y-62500D01*
X46000Y-62500D02*
X45000Y-62500D01*
X45000Y-62500D02*
X45000Y-60500D01*
X23500Y-35300D02*
X23250Y-35800D01*
X23250Y-35800D02*
X23750Y-35800D01*
X23750Y-35800D02*
X23500Y-35300D01*
X23000Y-35300D02*
X23000Y-34300D01*
X23000Y-34300D02*
X26000Y-34300D01*
X26000Y-34300D02*
X26000Y-35300D01*
X26000Y-35300D02*
X23000Y-35300D01*
X24000Y-34300D02*
X24000Y-35300D01*
X25600Y-30600D02*
X26100Y-30850D01*
X26100Y-30850D02*
X26100Y-30350D01*
X26100Y-30350D02*
X25600Y-30600D01*
X25600Y-31100D02*
X24600Y-31100D01*
X24600Y-31100D02*
X24600Y-28100D01*
X24600Y-28100D02*
X25600Y-28100D01*
X25600Y-28100D02*
X25600Y-31100D01*
X24600Y-30100D02*
X25600Y-30100D01*
G54D12*
X12250Y-44750D02*
X15750Y-44750D01*
X15750Y-44750D02*
X15750Y-50750D01*
X15750Y-50750D02*
X12250Y-50750D01*
X23750Y-42250D02*
X12250Y-42250D01*
X12250Y-42250D02*
X12250Y-53250D01*
X12250Y-53250D02*
X23750Y-53250D01*
X23750Y-53250D02*
X23750Y-42250D01*
G54D16*
X36185Y-17605D02*
X36185Y-12100D01*
X31015Y-17605D02*
X31015Y-12100D01*
X36150Y-12100D02*
X31050Y-12100D01*
X36160Y-17610D02*
X31040Y-17610D01*
X31600Y-15150D02*
X31850Y-12650D01*
X31850Y-12650D02*
X33100Y-12650D01*
X33100Y-12650D02*
X33350Y-15150D01*
X35600Y-15150D02*
X35350Y-12650D01*
X35350Y-12650D02*
X34100Y-12650D01*
X34100Y-12650D02*
X33850Y-15150D01*
G54D19*
X51500Y-65220D02*
X52500Y-65220D01*
G54D10*
X52384Y-64140D02*
X52342Y-64108D01*
X52298Y-64080D01*
X52251Y-64056D01*
X52203Y-64036D01*
X52153Y-64020D01*
X52102Y-64009D01*
X52050Y-64003D01*
X52000Y-64000D01*
X52000Y-64001D02*
X51948Y-64004D01*
X51896Y-64011D01*
X51845Y-64022D01*
X51796Y-64038D01*
X51747Y-64058D01*
X51701Y-64082D01*
X51657Y-64110D01*
X51615Y-64142D01*
X51603Y-64153D01*
X52000Y-65199D02*
X52052Y-65196D01*
X52104Y-65189D01*
X52155Y-65178D01*
X52204Y-65162D01*
X52253Y-65142D01*
X52299Y-65118D01*
X52343Y-65090D01*
X52385Y-65058D01*
X52389Y-65054D01*
X51616Y-65060D02*
X51658Y-65092D01*
X51702Y-65120D01*
X51749Y-65144D01*
X51797Y-65164D01*
X51847Y-65180D01*
X51898Y-65191D01*
X51950Y-65197D01*
X52000Y-65200D01*
X52349Y-65087D02*
X52390Y-65055D01*
X52428Y-65019D01*
X52463Y-64980D01*
X52495Y-64938D01*
X52522Y-64894D01*
X52546Y-64847D01*
X52565Y-64799D01*
X52581Y-64749D01*
X52591Y-64697D01*
X52598Y-64646D01*
X52600Y-64600D01*
X52600Y-64600D02*
X52597Y-64548D01*
X52590Y-64496D01*
X52579Y-64445D01*
X52563Y-64395D01*
X52543Y-64347D01*
X52519Y-64301D01*
X52491Y-64256D01*
X52459Y-64215D01*
X52424Y-64176D01*
X52385Y-64141D01*
X52360Y-64121D01*
X51401Y-64600D02*
X51404Y-64652D01*
X51411Y-64704D01*
X51422Y-64755D01*
X51438Y-64804D01*
X51458Y-64853D01*
X51482Y-64899D01*
X51510Y-64943D01*
X51542Y-64985D01*
X51577Y-65023D01*
X51615Y-65058D01*
X51633Y-65072D01*
X51632Y-64127D02*
X51592Y-64161D01*
X51555Y-64198D01*
X51522Y-64239D01*
X51492Y-64282D01*
X51466Y-64327D01*
X51445Y-64375D01*
X51427Y-64424D01*
X51414Y-64475D01*
X51405Y-64526D01*
X51401Y-64579D01*
X51400Y-64600D01*
X52250Y-64600D02*
X52249Y-64579D01*
X52246Y-64557D01*
X52241Y-64536D01*
X52234Y-64515D01*
X52226Y-64495D01*
X52216Y-64476D01*
X52204Y-64457D01*
X52191Y-64440D01*
X52176Y-64424D01*
X52160Y-64409D01*
X52143Y-64396D01*
X52125Y-64384D01*
X52105Y-64374D01*
X52085Y-64366D01*
X52064Y-64359D01*
X52043Y-64354D01*
X52021Y-64351D01*
X52000Y-64350D01*
X52400Y-64600D02*
X52398Y-64566D01*
X52393Y-64531D01*
X52386Y-64497D01*
X52375Y-64464D01*
X52362Y-64431D01*
X52346Y-64401D01*
X52327Y-64371D01*
X52306Y-64343D01*
X52282Y-64318D01*
X52257Y-64294D01*
X52229Y-64273D01*
X52200Y-64254D01*
X52169Y-64238D01*
X52136Y-64225D01*
X52103Y-64214D01*
X52069Y-64207D01*
X52034Y-64202D01*
X52000Y-64200D01*
X51750Y-64600D02*
X51751Y-64621D01*
X51754Y-64643D01*
X51759Y-64664D01*
X51766Y-64685D01*
X51774Y-64705D01*
X51784Y-64724D01*
X51796Y-64743D01*
X51809Y-64760D01*
X51824Y-64776D01*
X51840Y-64791D01*
X51857Y-64804D01*
X51876Y-64816D01*
X51895Y-64826D01*
X51915Y-64834D01*
X51936Y-64841D01*
X51957Y-64846D01*
X51979Y-64849D01*
X52000Y-64850D01*
X51600Y-64600D02*
X51602Y-64634D01*
X51607Y-64669D01*
X51614Y-64703D01*
X51625Y-64736D01*
X51638Y-64769D01*
X51654Y-64799D01*
X51673Y-64829D01*
X51694Y-64857D01*
X51718Y-64882D01*
X51743Y-64906D01*
X51771Y-64927D01*
X51801Y-64946D01*
X51831Y-64962D01*
X51864Y-64975D01*
X51897Y-64986D01*
X51931Y-64993D01*
X51966Y-64998D01*
X52000Y-65000D01*
G54D19*
X52513Y-65213D02*
X52564Y-65166D01*
X52611Y-65115D01*
X52654Y-65060D01*
X52692Y-65001D01*
X52724Y-64939D01*
X52751Y-64874D01*
X52772Y-64808D01*
X52787Y-64740D01*
X52796Y-64671D01*
X52799Y-64601D01*
X52800Y-64600D01*
X52799Y-64600D02*
X52795Y-64531D01*
X52786Y-64462D01*
X52771Y-64394D01*
X52750Y-64327D01*
X52724Y-64263D01*
X52691Y-64201D01*
X52654Y-64142D01*
X52612Y-64087D01*
X52564Y-64036D01*
X52513Y-63988D01*
X52458Y-63946D01*
X52399Y-63909D01*
X52376Y-63896D01*
X51203Y-64601D02*
X51206Y-64670D01*
X51215Y-64739D01*
X51230Y-64807D01*
X51251Y-64874D01*
X51278Y-64938D01*
X51310Y-65000D01*
X51348Y-65058D01*
X51390Y-65114D01*
X51437Y-65165D01*
X51485Y-65209D01*
X51603Y-63906D02*
X51544Y-63944D01*
X51488Y-63986D01*
X51437Y-64033D01*
X51389Y-64084D01*
X51347Y-64139D01*
X51309Y-64198D01*
X51277Y-64260D01*
X51250Y-64324D01*
X51228Y-64391D01*
X51213Y-64459D01*
X51204Y-64528D01*
X51201Y-64598D01*
X51200Y-64600D01*
X52379Y-63896D02*
X52316Y-63866D01*
X52251Y-63841D01*
X52184Y-63822D01*
X52115Y-63809D01*
X52046Y-63802D01*
X52000Y-63800D01*
X52000Y-63801D02*
X51931Y-63805D01*
X51862Y-63814D01*
X51794Y-63829D01*
X51727Y-63850D01*
X51663Y-63876D01*
X51601Y-63909D01*
X51582Y-63920D01*
G54D11*
X19520Y-33300D02*
X19520Y-32900D01*
X19520Y-32900D02*
X19120Y-32900D01*
X19120Y-32900D02*
X19120Y-29700D01*
X19120Y-29700D02*
X19920Y-29700D01*
X19920Y-29700D02*
X19920Y-32900D01*
X19920Y-32900D02*
X19520Y-32900D01*
X19320Y-32900D02*
X19120Y-32700D01*
X19520Y-29300D02*
X19520Y-29700D01*
X18315Y-33900D02*
X18315Y-33500D01*
X18315Y-33500D02*
X17915Y-33500D01*
X17915Y-33500D02*
X17915Y-30300D01*
X17915Y-30300D02*
X18715Y-30300D01*
X18715Y-30300D02*
X18715Y-33500D01*
X18715Y-33500D02*
X18315Y-33500D01*
X18115Y-33500D02*
X17915Y-33300D01*
X18315Y-29900D02*
X18315Y-30300D01*
G54D12*
X23655Y-58265D02*
X23655Y-59265D01*
X24655Y-59265D02*
X24655Y-58265D01*
X25655Y-58265D02*
X25655Y-59265D01*
X23655Y-58265D02*
X23655Y-57265D01*
X23655Y-57265D02*
X24655Y-57265D01*
X24655Y-57265D02*
X24655Y-58265D01*
X23655Y-59265D02*
X23655Y-60265D01*
X23655Y-60265D02*
X24655Y-60265D01*
X24655Y-60265D02*
X24655Y-59265D01*
X23655Y-59265D02*
X25655Y-59265D01*
X23655Y-58265D02*
X25655Y-58265D01*
G54D11*
X23655Y-58265D02*
X23655Y-58265D01*
X23655Y-58265D02*
X23655Y-58265D01*
G54D12*
X50650Y-56300D02*
X48650Y-56300D01*
X48650Y-56300D02*
X48650Y-49800D01*
X48650Y-49800D02*
X50650Y-49800D01*
X50650Y-49800D02*
X50650Y-56300D01*
G54D20*
X49919Y-64915D02*
X49919Y-65197D01*
X49901Y-65253D01*
X49863Y-65291D01*
X49807Y-65309D01*
X49769Y-65309D01*
X50294Y-64915D02*
X50107Y-64915D01*
X50088Y-65103D01*
X50107Y-65084D01*
X50144Y-65066D01*
X50238Y-65066D01*
X50276Y-65084D01*
X50294Y-65103D01*
X50313Y-65141D01*
X50313Y-65234D01*
X50294Y-65272D01*
X50276Y-65291D01*
X50238Y-65309D01*
X50144Y-65309D01*
X50107Y-65291D01*
X50088Y-65272D01*
X41700Y-18165D02*
X41700Y-18484D01*
X41719Y-18522D01*
X41737Y-18541D01*
X41775Y-18559D01*
X41850Y-18559D01*
X41887Y-18541D01*
X41906Y-18522D01*
X41925Y-18484D01*
X41925Y-18165D01*
X42319Y-18559D02*
X42094Y-18559D01*
X42207Y-18559D02*
X42207Y-18165D01*
X42169Y-18222D01*
X42132Y-18259D01*
X42094Y-18278D01*
X13700Y-16159D02*
X13700Y-15765D01*
X13700Y-15953D02*
X13925Y-15953D01*
X13925Y-16159D02*
X13925Y-15765D01*
X14319Y-16159D02*
X14094Y-16159D01*
X14207Y-16159D02*
X14207Y-15765D01*
X14169Y-15822D01*
X14132Y-15859D01*
X14094Y-15878D01*
X13700Y-64159D02*
X13700Y-63765D01*
X13700Y-63953D02*
X13925Y-63953D01*
X13925Y-64159D02*
X13925Y-63765D01*
X14075Y-63765D02*
X14319Y-63765D01*
X14188Y-63916D01*
X14244Y-63916D01*
X14282Y-63934D01*
X14300Y-63953D01*
X14319Y-63991D01*
X14319Y-64084D01*
X14300Y-64122D01*
X14282Y-64141D01*
X14244Y-64159D01*
X14132Y-64159D01*
X14094Y-64141D01*
X14075Y-64122D01*
X54700Y-64159D02*
X54700Y-63765D01*
X54700Y-63953D02*
X54925Y-63953D01*
X54925Y-64159D02*
X54925Y-63765D01*
X55282Y-63897D02*
X55282Y-64159D01*
X55188Y-63747D02*
X55094Y-64028D01*
X55338Y-64028D01*
X23997Y-57159D02*
X23866Y-56972D01*
X23772Y-57159D02*
X23772Y-56765D01*
X23922Y-56765D01*
X23959Y-56784D01*
X23978Y-56803D01*
X23997Y-56841D01*
X23997Y-56897D01*
X23978Y-56934D01*
X23959Y-56953D01*
X23922Y-56972D01*
X23772Y-56972D01*
X24147Y-56803D02*
X24166Y-56784D01*
X24203Y-56765D01*
X24297Y-56765D01*
X24335Y-56784D01*
X24353Y-56803D01*
X24372Y-56841D01*
X24372Y-56878D01*
X24353Y-56934D01*
X24128Y-57159D01*
X24372Y-57159D01*
X24503Y-56765D02*
X24766Y-56765D01*
X24597Y-57159D01*
X41159Y-52253D02*
X40972Y-52384D01*
X41159Y-52478D02*
X40765Y-52478D01*
X40765Y-52328D01*
X40784Y-52291D01*
X40803Y-52272D01*
X40841Y-52253D01*
X40897Y-52253D01*
X40934Y-52272D01*
X40953Y-52291D01*
X40972Y-52328D01*
X40972Y-52478D01*
X40803Y-52103D02*
X40784Y-52084D01*
X40765Y-52047D01*
X40765Y-51953D01*
X40784Y-51915D01*
X40803Y-51897D01*
X40841Y-51878D01*
X40878Y-51878D01*
X40934Y-51897D01*
X41159Y-52122D01*
X41159Y-51878D01*
X40934Y-51653D02*
X40916Y-51690D01*
X40897Y-51709D01*
X40859Y-51728D01*
X40841Y-51728D01*
X40803Y-51709D01*
X40784Y-51690D01*
X40765Y-51653D01*
X40765Y-51578D01*
X40784Y-51540D01*
X40803Y-51522D01*
X40841Y-51503D01*
X40859Y-51503D01*
X40897Y-51522D01*
X40916Y-51540D01*
X40934Y-51578D01*
X40934Y-51653D01*
X40953Y-51690D01*
X40972Y-51709D01*
X41009Y-51728D01*
X41084Y-51728D01*
X41122Y-51709D01*
X41141Y-51690D01*
X41159Y-51653D01*
X41159Y-51578D01*
X41141Y-51540D01*
X41122Y-51522D01*
X41084Y-51503D01*
X41009Y-51503D01*
X40972Y-51522D01*
X40953Y-51540D01*
X40934Y-51578D01*
X40159Y-52253D02*
X39972Y-52384D01*
X40159Y-52478D02*
X39765Y-52478D01*
X39765Y-52328D01*
X39784Y-52291D01*
X39803Y-52272D01*
X39841Y-52253D01*
X39897Y-52253D01*
X39934Y-52272D01*
X39953Y-52291D01*
X39972Y-52328D01*
X39972Y-52478D01*
X39803Y-52103D02*
X39784Y-52084D01*
X39765Y-52047D01*
X39765Y-51953D01*
X39784Y-51915D01*
X39803Y-51897D01*
X39841Y-51878D01*
X39878Y-51878D01*
X39934Y-51897D01*
X40159Y-52122D01*
X40159Y-51878D01*
X40159Y-51690D02*
X40159Y-51615D01*
X40141Y-51578D01*
X40122Y-51559D01*
X40066Y-51522D01*
X39991Y-51503D01*
X39841Y-51503D01*
X39803Y-51522D01*
X39784Y-51540D01*
X39765Y-51578D01*
X39765Y-51653D01*
X39784Y-51690D01*
X39803Y-51709D01*
X39841Y-51728D01*
X39934Y-51728D01*
X39972Y-51709D01*
X39991Y-51690D01*
X40009Y-51653D01*
X40009Y-51578D01*
X39991Y-51540D01*
X39972Y-51522D01*
X39934Y-51503D01*
X25597Y-22409D02*
X25466Y-22222D01*
X25372Y-22409D02*
X25372Y-22015D01*
X25522Y-22015D01*
X25559Y-22034D01*
X25578Y-22053D01*
X25597Y-22091D01*
X25597Y-22147D01*
X25578Y-22184D01*
X25559Y-22203D01*
X25522Y-22222D01*
X25372Y-22222D01*
X25728Y-22015D02*
X25972Y-22015D01*
X25841Y-22166D01*
X25897Y-22166D01*
X25935Y-22184D01*
X25953Y-22203D01*
X25972Y-22241D01*
X25972Y-22334D01*
X25953Y-22372D01*
X25935Y-22391D01*
X25897Y-22409D01*
X25785Y-22409D01*
X25747Y-22391D01*
X25728Y-22372D01*
X26216Y-22015D02*
X26253Y-22015D01*
X26291Y-22034D01*
X26310Y-22053D01*
X26328Y-22091D01*
X26347Y-22166D01*
X26347Y-22259D01*
X26328Y-22334D01*
X26310Y-22372D01*
X26291Y-22391D01*
X26253Y-22409D01*
X26216Y-22409D01*
X26178Y-22391D01*
X26160Y-22372D01*
X26141Y-22334D01*
X26122Y-22259D01*
X26122Y-22166D01*
X26141Y-22091D01*
X26160Y-22053D01*
X26178Y-22034D01*
X26216Y-22015D01*
X23997Y-56159D02*
X23866Y-55972D01*
X23772Y-56159D02*
X23772Y-55765D01*
X23922Y-55765D01*
X23959Y-55784D01*
X23978Y-55803D01*
X23997Y-55841D01*
X23997Y-55897D01*
X23978Y-55934D01*
X23959Y-55953D01*
X23922Y-55972D01*
X23772Y-55972D01*
X24147Y-55803D02*
X24166Y-55784D01*
X24203Y-55765D01*
X24297Y-55765D01*
X24335Y-55784D01*
X24353Y-55803D01*
X24372Y-55841D01*
X24372Y-55878D01*
X24353Y-55934D01*
X24128Y-56159D01*
X24372Y-56159D01*
X24710Y-55765D02*
X24635Y-55765D01*
X24597Y-55784D01*
X24578Y-55803D01*
X24541Y-55859D01*
X24522Y-55934D01*
X24522Y-56084D01*
X24541Y-56122D01*
X24560Y-56141D01*
X24597Y-56159D01*
X24672Y-56159D01*
X24710Y-56141D01*
X24728Y-56122D01*
X24747Y-56084D01*
X24747Y-55991D01*
X24728Y-55953D01*
X24710Y-55934D01*
X24672Y-55916D01*
X24597Y-55916D01*
X24560Y-55934D01*
X24541Y-55953D01*
X24522Y-55991D01*
X37159Y-52253D02*
X36972Y-52384D01*
X37159Y-52478D02*
X36765Y-52478D01*
X36765Y-52328D01*
X36784Y-52291D01*
X36803Y-52272D01*
X36841Y-52253D01*
X36897Y-52253D01*
X36934Y-52272D01*
X36953Y-52291D01*
X36972Y-52328D01*
X36972Y-52478D01*
X36765Y-52122D02*
X36765Y-51878D01*
X36916Y-52009D01*
X36916Y-51953D01*
X36934Y-51915D01*
X36953Y-51897D01*
X36991Y-51878D01*
X37084Y-51878D01*
X37122Y-51897D01*
X37141Y-51915D01*
X37159Y-51953D01*
X37159Y-52065D01*
X37141Y-52103D01*
X37122Y-52122D01*
X37159Y-51503D02*
X37159Y-51728D01*
X37159Y-51615D02*
X36765Y-51615D01*
X36822Y-51653D01*
X36859Y-51690D01*
X36878Y-51728D01*
X45659Y-46753D02*
X45472Y-46884D01*
X45659Y-46978D02*
X45265Y-46978D01*
X45265Y-46828D01*
X45284Y-46791D01*
X45303Y-46772D01*
X45341Y-46753D01*
X45397Y-46753D01*
X45434Y-46772D01*
X45453Y-46791D01*
X45472Y-46828D01*
X45472Y-46978D01*
X45303Y-46603D02*
X45284Y-46584D01*
X45265Y-46547D01*
X45265Y-46453D01*
X45284Y-46415D01*
X45303Y-46397D01*
X45341Y-46378D01*
X45378Y-46378D01*
X45434Y-46397D01*
X45659Y-46622D01*
X45659Y-46378D01*
X45265Y-46022D02*
X45265Y-46209D01*
X45453Y-46228D01*
X45434Y-46209D01*
X45416Y-46172D01*
X45416Y-46078D01*
X45434Y-46040D01*
X45453Y-46022D01*
X45491Y-46003D01*
X45584Y-46003D01*
X45622Y-46022D01*
X45641Y-46040D01*
X45659Y-46078D01*
X45659Y-46172D01*
X45641Y-46209D01*
X45622Y-46228D01*
X35159Y-52253D02*
X34972Y-52384D01*
X35159Y-52478D02*
X34765Y-52478D01*
X34765Y-52328D01*
X34784Y-52291D01*
X34803Y-52272D01*
X34841Y-52253D01*
X34897Y-52253D01*
X34934Y-52272D01*
X34953Y-52291D01*
X34972Y-52328D01*
X34972Y-52478D01*
X34765Y-52122D02*
X34765Y-51878D01*
X34916Y-52009D01*
X34916Y-51953D01*
X34934Y-51915D01*
X34953Y-51897D01*
X34991Y-51878D01*
X35084Y-51878D01*
X35122Y-51897D01*
X35141Y-51915D01*
X35159Y-51953D01*
X35159Y-52065D01*
X35141Y-52103D01*
X35122Y-52122D01*
X34803Y-51728D02*
X34784Y-51709D01*
X34765Y-51672D01*
X34765Y-51578D01*
X34784Y-51540D01*
X34803Y-51522D01*
X34841Y-51503D01*
X34878Y-51503D01*
X34934Y-51522D01*
X35159Y-51747D01*
X35159Y-51503D01*
X33159Y-52253D02*
X32972Y-52384D01*
X33159Y-52478D02*
X32765Y-52478D01*
X32765Y-52328D01*
X32784Y-52291D01*
X32803Y-52272D01*
X32841Y-52253D01*
X32897Y-52253D01*
X32934Y-52272D01*
X32953Y-52291D01*
X32972Y-52328D01*
X32972Y-52478D01*
X32803Y-52103D02*
X32784Y-52084D01*
X32765Y-52047D01*
X32765Y-51953D01*
X32784Y-51915D01*
X32803Y-51897D01*
X32841Y-51878D01*
X32878Y-51878D01*
X32934Y-51897D01*
X33159Y-52122D01*
X33159Y-51878D01*
X33159Y-51503D02*
X33159Y-51728D01*
X33159Y-51615D02*
X32765Y-51615D01*
X32822Y-51653D01*
X32859Y-51690D01*
X32878Y-51728D01*
X42659Y-46753D02*
X42472Y-46884D01*
X42659Y-46978D02*
X42265Y-46978D01*
X42265Y-46828D01*
X42284Y-46791D01*
X42303Y-46772D01*
X42341Y-46753D01*
X42397Y-46753D01*
X42434Y-46772D01*
X42453Y-46791D01*
X42472Y-46828D01*
X42472Y-46978D01*
X42303Y-46603D02*
X42284Y-46584D01*
X42265Y-46547D01*
X42265Y-46453D01*
X42284Y-46415D01*
X42303Y-46397D01*
X42341Y-46378D01*
X42378Y-46378D01*
X42434Y-46397D01*
X42659Y-46622D01*
X42659Y-46378D01*
X42265Y-46134D02*
X42265Y-46097D01*
X42284Y-46059D01*
X42303Y-46040D01*
X42341Y-46022D01*
X42416Y-46003D01*
X42509Y-46003D01*
X42584Y-46022D01*
X42622Y-46040D01*
X42641Y-46059D01*
X42659Y-46097D01*
X42659Y-46134D01*
X42641Y-46172D01*
X42622Y-46190D01*
X42584Y-46209D01*
X42509Y-46228D01*
X42416Y-46228D01*
X42341Y-46209D01*
X42303Y-46190D01*
X42284Y-46172D01*
X42265Y-46134D01*
X34159Y-52253D02*
X33972Y-52384D01*
X34159Y-52478D02*
X33765Y-52478D01*
X33765Y-52328D01*
X33784Y-52291D01*
X33803Y-52272D01*
X33841Y-52253D01*
X33897Y-52253D01*
X33934Y-52272D01*
X33953Y-52291D01*
X33972Y-52328D01*
X33972Y-52478D01*
X34159Y-51878D02*
X34159Y-52103D01*
X34159Y-51990D02*
X33765Y-51990D01*
X33822Y-52028D01*
X33859Y-52065D01*
X33878Y-52103D01*
X34159Y-51690D02*
X34159Y-51615D01*
X34141Y-51578D01*
X34122Y-51559D01*
X34066Y-51522D01*
X33991Y-51503D01*
X33841Y-51503D01*
X33803Y-51522D01*
X33784Y-51540D01*
X33765Y-51578D01*
X33765Y-51653D01*
X33784Y-51690D01*
X33803Y-51709D01*
X33841Y-51728D01*
X33934Y-51728D01*
X33972Y-51709D01*
X33991Y-51690D01*
X34009Y-51653D01*
X34009Y-51578D01*
X33991Y-51540D01*
X33972Y-51522D01*
X33934Y-51503D01*
X38159Y-52253D02*
X37972Y-52384D01*
X38159Y-52478D02*
X37765Y-52478D01*
X37765Y-52328D01*
X37784Y-52291D01*
X37803Y-52272D01*
X37841Y-52253D01*
X37897Y-52253D01*
X37934Y-52272D01*
X37953Y-52291D01*
X37972Y-52328D01*
X37972Y-52478D01*
X38159Y-51878D02*
X38159Y-52103D01*
X38159Y-51990D02*
X37765Y-51990D01*
X37822Y-52028D01*
X37859Y-52065D01*
X37878Y-52103D01*
X37934Y-51653D02*
X37916Y-51690D01*
X37897Y-51709D01*
X37859Y-51728D01*
X37841Y-51728D01*
X37803Y-51709D01*
X37784Y-51690D01*
X37765Y-51653D01*
X37765Y-51578D01*
X37784Y-51540D01*
X37803Y-51522D01*
X37841Y-51503D01*
X37859Y-51503D01*
X37897Y-51522D01*
X37916Y-51540D01*
X37934Y-51578D01*
X37934Y-51653D01*
X37953Y-51690D01*
X37972Y-51709D01*
X38009Y-51728D01*
X38084Y-51728D01*
X38122Y-51709D01*
X38141Y-51690D01*
X38159Y-51653D01*
X38159Y-51578D01*
X38141Y-51540D01*
X38122Y-51522D01*
X38084Y-51503D01*
X38009Y-51503D01*
X37972Y-51522D01*
X37953Y-51540D01*
X37934Y-51578D01*
X24247Y-33659D02*
X24116Y-33472D01*
X24022Y-33659D02*
X24022Y-33265D01*
X24172Y-33265D01*
X24209Y-33284D01*
X24228Y-33303D01*
X24247Y-33341D01*
X24247Y-33397D01*
X24228Y-33434D01*
X24209Y-33453D01*
X24172Y-33472D01*
X24022Y-33472D01*
X24622Y-33659D02*
X24397Y-33659D01*
X24510Y-33659D02*
X24510Y-33265D01*
X24472Y-33322D01*
X24435Y-33359D01*
X24397Y-33378D01*
X24753Y-33265D02*
X25016Y-33265D01*
X24847Y-33659D01*
X43659Y-46753D02*
X43472Y-46884D01*
X43659Y-46978D02*
X43265Y-46978D01*
X43265Y-46828D01*
X43284Y-46791D01*
X43303Y-46772D01*
X43341Y-46753D01*
X43397Y-46753D01*
X43434Y-46772D01*
X43453Y-46791D01*
X43472Y-46828D01*
X43472Y-46978D01*
X43659Y-46378D02*
X43659Y-46603D01*
X43659Y-46490D02*
X43265Y-46490D01*
X43322Y-46528D01*
X43359Y-46565D01*
X43378Y-46603D01*
X43265Y-46040D02*
X43265Y-46115D01*
X43284Y-46153D01*
X43303Y-46172D01*
X43359Y-46209D01*
X43434Y-46228D01*
X43584Y-46228D01*
X43622Y-46209D01*
X43641Y-46190D01*
X43659Y-46153D01*
X43659Y-46078D01*
X43641Y-46040D01*
X43622Y-46022D01*
X43584Y-46003D01*
X43491Y-46003D01*
X43453Y-46022D01*
X43434Y-46040D01*
X43416Y-46078D01*
X43416Y-46153D01*
X43434Y-46190D01*
X43453Y-46209D01*
X43491Y-46228D01*
X24247Y-32659D02*
X24116Y-32472D01*
X24022Y-32659D02*
X24022Y-32265D01*
X24172Y-32265D01*
X24209Y-32284D01*
X24228Y-32303D01*
X24247Y-32341D01*
X24247Y-32397D01*
X24228Y-32434D01*
X24209Y-32453D01*
X24172Y-32472D01*
X24022Y-32472D01*
X24622Y-32659D02*
X24397Y-32659D01*
X24510Y-32659D02*
X24510Y-32265D01*
X24472Y-32322D01*
X24435Y-32359D01*
X24397Y-32378D01*
X24978Y-32265D02*
X24791Y-32265D01*
X24772Y-32453D01*
X24791Y-32434D01*
X24828Y-32416D01*
X24922Y-32416D01*
X24960Y-32434D01*
X24978Y-32453D01*
X24997Y-32491D01*
X24997Y-32584D01*
X24978Y-32622D01*
X24960Y-32641D01*
X24922Y-32659D01*
X24828Y-32659D01*
X24791Y-32641D01*
X24772Y-32622D01*
X44659Y-46753D02*
X44472Y-46884D01*
X44659Y-46978D02*
X44265Y-46978D01*
X44265Y-46828D01*
X44284Y-46791D01*
X44303Y-46772D01*
X44341Y-46753D01*
X44397Y-46753D01*
X44434Y-46772D01*
X44453Y-46791D01*
X44472Y-46828D01*
X44472Y-46978D01*
X44659Y-46378D02*
X44659Y-46603D01*
X44659Y-46490D02*
X44265Y-46490D01*
X44322Y-46528D01*
X44359Y-46565D01*
X44378Y-46603D01*
X44397Y-46040D02*
X44659Y-46040D01*
X44247Y-46134D02*
X44528Y-46228D01*
X44528Y-45984D01*
X43659Y-36753D02*
X43472Y-36884D01*
X43659Y-36978D02*
X43265Y-36978D01*
X43265Y-36828D01*
X43284Y-36791D01*
X43303Y-36772D01*
X43341Y-36753D01*
X43397Y-36753D01*
X43434Y-36772D01*
X43453Y-36791D01*
X43472Y-36828D01*
X43472Y-36978D01*
X43659Y-36378D02*
X43659Y-36603D01*
X43659Y-36490D02*
X43265Y-36490D01*
X43322Y-36528D01*
X43359Y-36565D01*
X43378Y-36603D01*
X43265Y-36247D02*
X43265Y-36003D01*
X43416Y-36134D01*
X43416Y-36078D01*
X43434Y-36040D01*
X43453Y-36022D01*
X43491Y-36003D01*
X43584Y-36003D01*
X43622Y-36022D01*
X43641Y-36040D01*
X43659Y-36078D01*
X43659Y-36190D01*
X43641Y-36228D01*
X43622Y-36247D01*
X17159Y-23503D02*
X16972Y-23634D01*
X17159Y-23728D02*
X16765Y-23728D01*
X16765Y-23578D01*
X16784Y-23541D01*
X16803Y-23522D01*
X16841Y-23503D01*
X16897Y-23503D01*
X16934Y-23522D01*
X16953Y-23541D01*
X16972Y-23578D01*
X16972Y-23728D01*
X17159Y-23128D02*
X17159Y-23353D01*
X17159Y-23240D02*
X16765Y-23240D01*
X16822Y-23278D01*
X16859Y-23315D01*
X16878Y-23353D01*
X16803Y-22978D02*
X16784Y-22959D01*
X16765Y-22922D01*
X16765Y-22828D01*
X16784Y-22790D01*
X16803Y-22772D01*
X16841Y-22753D01*
X16878Y-22753D01*
X16934Y-22772D01*
X17159Y-22997D01*
X17159Y-22753D01*
X44659Y-36753D02*
X44472Y-36884D01*
X44659Y-36978D02*
X44265Y-36978D01*
X44265Y-36828D01*
X44284Y-36791D01*
X44303Y-36772D01*
X44341Y-36753D01*
X44397Y-36753D01*
X44434Y-36772D01*
X44453Y-36791D01*
X44472Y-36828D01*
X44472Y-36978D01*
X44659Y-36378D02*
X44659Y-36603D01*
X44659Y-36490D02*
X44265Y-36490D01*
X44322Y-36528D01*
X44359Y-36565D01*
X44378Y-36603D01*
X44659Y-36003D02*
X44659Y-36228D01*
X44659Y-36115D02*
X44265Y-36115D01*
X44322Y-36153D01*
X44359Y-36190D01*
X44378Y-36228D01*
X36159Y-52253D02*
X35972Y-52384D01*
X36159Y-52478D02*
X35765Y-52478D01*
X35765Y-52328D01*
X35784Y-52291D01*
X35803Y-52272D01*
X35841Y-52253D01*
X35897Y-52253D01*
X35934Y-52272D01*
X35953Y-52291D01*
X35972Y-52328D01*
X35972Y-52478D01*
X36159Y-51878D02*
X36159Y-52103D01*
X36159Y-51990D02*
X35765Y-51990D01*
X35822Y-52028D01*
X35859Y-52065D01*
X35878Y-52103D01*
X35765Y-51634D02*
X35765Y-51597D01*
X35784Y-51559D01*
X35803Y-51540D01*
X35841Y-51522D01*
X35916Y-51503D01*
X36009Y-51503D01*
X36084Y-51522D01*
X36122Y-51540D01*
X36141Y-51559D01*
X36159Y-51597D01*
X36159Y-51634D01*
X36141Y-51672D01*
X36122Y-51690D01*
X36084Y-51709D01*
X36009Y-51728D01*
X35916Y-51728D01*
X35841Y-51709D01*
X35803Y-51690D01*
X35784Y-51672D01*
X35765Y-51634D01*
X43659Y-26565D02*
X43472Y-26696D01*
X43659Y-26790D02*
X43265Y-26790D01*
X43265Y-26640D01*
X43284Y-26603D01*
X43303Y-26584D01*
X43341Y-26565D01*
X43397Y-26565D01*
X43434Y-26584D01*
X43453Y-26603D01*
X43472Y-26640D01*
X43472Y-26790D01*
X43659Y-26377D02*
X43659Y-26302D01*
X43641Y-26265D01*
X43622Y-26246D01*
X43566Y-26209D01*
X43491Y-26190D01*
X43341Y-26190D01*
X43303Y-26209D01*
X43284Y-26227D01*
X43265Y-26265D01*
X43265Y-26340D01*
X43284Y-26377D01*
X43303Y-26396D01*
X43341Y-26415D01*
X43434Y-26415D01*
X43472Y-26396D01*
X43491Y-26377D01*
X43509Y-26340D01*
X43509Y-26265D01*
X43491Y-26227D01*
X43472Y-26209D01*
X43434Y-26190D01*
X24435Y-37659D02*
X24304Y-37472D01*
X24210Y-37659D02*
X24210Y-37265D01*
X24360Y-37265D01*
X24397Y-37284D01*
X24416Y-37303D01*
X24435Y-37341D01*
X24435Y-37397D01*
X24416Y-37434D01*
X24397Y-37453D01*
X24360Y-37472D01*
X24210Y-37472D01*
X24660Y-37434D02*
X24623Y-37416D01*
X24604Y-37397D01*
X24585Y-37359D01*
X24585Y-37341D01*
X24604Y-37303D01*
X24623Y-37284D01*
X24660Y-37265D01*
X24735Y-37265D01*
X24773Y-37284D01*
X24791Y-37303D01*
X24810Y-37341D01*
X24810Y-37359D01*
X24791Y-37397D01*
X24773Y-37416D01*
X24735Y-37434D01*
X24660Y-37434D01*
X24623Y-37453D01*
X24604Y-37472D01*
X24585Y-37509D01*
X24585Y-37584D01*
X24604Y-37622D01*
X24623Y-37641D01*
X24660Y-37659D01*
X24735Y-37659D01*
X24773Y-37641D01*
X24791Y-37622D01*
X24810Y-37584D01*
X24810Y-37509D01*
X24791Y-37472D01*
X24773Y-37453D01*
X24735Y-37434D01*
X24435Y-36659D02*
X24304Y-36472D01*
X24210Y-36659D02*
X24210Y-36265D01*
X24360Y-36265D01*
X24397Y-36284D01*
X24416Y-36303D01*
X24435Y-36341D01*
X24435Y-36397D01*
X24416Y-36434D01*
X24397Y-36453D01*
X24360Y-36472D01*
X24210Y-36472D01*
X24566Y-36265D02*
X24829Y-36265D01*
X24660Y-36659D01*
X44659Y-26565D02*
X44472Y-26696D01*
X44659Y-26790D02*
X44265Y-26790D01*
X44265Y-26640D01*
X44284Y-26603D01*
X44303Y-26584D01*
X44341Y-26565D01*
X44397Y-26565D01*
X44434Y-26584D01*
X44453Y-26603D01*
X44472Y-26640D01*
X44472Y-26790D01*
X44265Y-26227D02*
X44265Y-26302D01*
X44284Y-26340D01*
X44303Y-26359D01*
X44359Y-26396D01*
X44434Y-26415D01*
X44584Y-26415D01*
X44622Y-26396D01*
X44641Y-26377D01*
X44659Y-26340D01*
X44659Y-26265D01*
X44641Y-26227D01*
X44622Y-26209D01*
X44584Y-26190D01*
X44491Y-26190D01*
X44453Y-26209D01*
X44434Y-26227D01*
X44416Y-26265D01*
X44416Y-26340D01*
X44434Y-26377D01*
X44453Y-26396D01*
X44491Y-26415D01*
X53159Y-62315D02*
X52972Y-62446D01*
X53159Y-62540D02*
X52765Y-62540D01*
X52765Y-62390D01*
X52784Y-62353D01*
X52803Y-62334D01*
X52841Y-62315D01*
X52897Y-62315D01*
X52934Y-62334D01*
X52953Y-62353D01*
X52972Y-62390D01*
X52972Y-62540D01*
X52765Y-61959D02*
X52765Y-62146D01*
X52953Y-62165D01*
X52934Y-62146D01*
X52916Y-62109D01*
X52916Y-62015D01*
X52934Y-61977D01*
X52953Y-61959D01*
X52991Y-61940D01*
X53084Y-61940D01*
X53122Y-61959D01*
X53141Y-61977D01*
X53159Y-62015D01*
X53159Y-62109D01*
X53141Y-62146D01*
X53122Y-62165D01*
X42659Y-26565D02*
X42472Y-26696D01*
X42659Y-26790D02*
X42265Y-26790D01*
X42265Y-26640D01*
X42284Y-26603D01*
X42303Y-26584D01*
X42341Y-26565D01*
X42397Y-26565D01*
X42434Y-26584D01*
X42453Y-26603D01*
X42472Y-26640D01*
X42472Y-26790D01*
X42397Y-26227D02*
X42659Y-26227D01*
X42247Y-26321D02*
X42528Y-26415D01*
X42528Y-26171D01*
X21559Y-16915D02*
X21372Y-17046D01*
X21559Y-17140D02*
X21165Y-17140D01*
X21165Y-16990D01*
X21184Y-16953D01*
X21203Y-16934D01*
X21241Y-16915D01*
X21297Y-16915D01*
X21334Y-16934D01*
X21353Y-16953D01*
X21372Y-16990D01*
X21372Y-17140D01*
X21165Y-16784D02*
X21165Y-16540D01*
X21316Y-16671D01*
X21316Y-16615D01*
X21334Y-16577D01*
X21353Y-16559D01*
X21391Y-16540D01*
X21484Y-16540D01*
X21522Y-16559D01*
X21541Y-16577D01*
X21559Y-16615D01*
X21559Y-16727D01*
X21541Y-16765D01*
X21522Y-16784D01*
X29059Y-16915D02*
X28872Y-17046D01*
X29059Y-17140D02*
X28665Y-17140D01*
X28665Y-16990D01*
X28684Y-16953D01*
X28703Y-16934D01*
X28741Y-16915D01*
X28797Y-16915D01*
X28834Y-16934D01*
X28853Y-16953D01*
X28872Y-16990D01*
X28872Y-17140D01*
X28703Y-16765D02*
X28684Y-16746D01*
X28665Y-16709D01*
X28665Y-16615D01*
X28684Y-16577D01*
X28703Y-16559D01*
X28741Y-16540D01*
X28778Y-16540D01*
X28834Y-16559D01*
X29059Y-16784D01*
X29059Y-16540D01*
X47185Y-17659D02*
X47054Y-17472D01*
X46960Y-17659D02*
X46960Y-17265D01*
X47110Y-17265D01*
X47147Y-17284D01*
X47166Y-17303D01*
X47185Y-17341D01*
X47185Y-17397D01*
X47166Y-17434D01*
X47147Y-17453D01*
X47110Y-17472D01*
X46960Y-17472D01*
X47560Y-17659D02*
X47335Y-17659D01*
X47448Y-17659D02*
X47448Y-17265D01*
X47410Y-17322D01*
X47373Y-17359D01*
X47335Y-17378D01*
X39159Y-52253D02*
X38972Y-52384D01*
X39159Y-52478D02*
X38765Y-52478D01*
X38765Y-52328D01*
X38784Y-52291D01*
X38803Y-52272D01*
X38841Y-52253D01*
X38897Y-52253D01*
X38934Y-52272D01*
X38953Y-52291D01*
X38972Y-52328D01*
X38972Y-52478D01*
X38803Y-52103D02*
X38784Y-52084D01*
X38765Y-52047D01*
X38765Y-51953D01*
X38784Y-51915D01*
X38803Y-51897D01*
X38841Y-51878D01*
X38878Y-51878D01*
X38934Y-51897D01*
X39159Y-52122D01*
X39159Y-51878D01*
X38803Y-51728D02*
X38784Y-51709D01*
X38765Y-51672D01*
X38765Y-51578D01*
X38784Y-51540D01*
X38803Y-51522D01*
X38841Y-51503D01*
X38878Y-51503D01*
X38934Y-51522D01*
X39159Y-51747D01*
X39159Y-51503D01*
X24247Y-54159D02*
X24116Y-53972D01*
X24022Y-54159D02*
X24022Y-53765D01*
X24172Y-53765D01*
X24209Y-53784D01*
X24228Y-53803D01*
X24247Y-53841D01*
X24247Y-53897D01*
X24228Y-53934D01*
X24209Y-53953D01*
X24172Y-53972D01*
X24022Y-53972D01*
X24397Y-53803D02*
X24416Y-53784D01*
X24453Y-53765D01*
X24547Y-53765D01*
X24585Y-53784D01*
X24603Y-53803D01*
X24622Y-53841D01*
X24622Y-53878D01*
X24603Y-53934D01*
X24378Y-54159D01*
X24622Y-54159D01*
X24753Y-53765D02*
X24997Y-53765D01*
X24866Y-53916D01*
X24922Y-53916D01*
X24960Y-53934D01*
X24978Y-53953D01*
X24997Y-53991D01*
X24997Y-54084D01*
X24978Y-54122D01*
X24960Y-54141D01*
X24922Y-54159D01*
X24810Y-54159D01*
X24772Y-54141D01*
X24753Y-54122D01*
X23747Y-55159D02*
X23616Y-54972D01*
X23522Y-55159D02*
X23522Y-54765D01*
X23672Y-54765D01*
X23709Y-54784D01*
X23728Y-54803D01*
X23747Y-54841D01*
X23747Y-54897D01*
X23728Y-54934D01*
X23709Y-54953D01*
X23672Y-54972D01*
X23522Y-54972D01*
X23897Y-54803D02*
X23916Y-54784D01*
X23953Y-54765D01*
X24047Y-54765D01*
X24085Y-54784D01*
X24103Y-54803D01*
X24122Y-54841D01*
X24122Y-54878D01*
X24103Y-54934D01*
X23878Y-55159D01*
X24122Y-55159D01*
X24460Y-54897D02*
X24460Y-55159D01*
X24366Y-54747D02*
X24272Y-55028D01*
X24516Y-55028D01*
G54D21*
X18095Y-16743D02*
X18095Y-17229D01*
X18114Y-17286D01*
X18133Y-17314D01*
X18171Y-17343D01*
X18248Y-17343D01*
X18286Y-17314D01*
X18305Y-17286D01*
X18324Y-17229D01*
X18324Y-16743D01*
X18476Y-16743D02*
X18724Y-16743D01*
X18590Y-16971D01*
X18648Y-16971D01*
X18686Y-17000D01*
X18705Y-17029D01*
X18724Y-17086D01*
X18724Y-17229D01*
X18705Y-17286D01*
X18686Y-17314D01*
X18648Y-17343D01*
X18533Y-17343D01*
X18495Y-17314D01*
X18476Y-17286D01*
X17695Y-19743D02*
X17962Y-19743D01*
X17790Y-20343D01*
X18171Y-20000D02*
X18133Y-19971D01*
X18114Y-19943D01*
X18095Y-19886D01*
X18095Y-19857D01*
X18114Y-19800D01*
X18133Y-19771D01*
X18171Y-19743D01*
X18248Y-19743D01*
X18286Y-19771D01*
X18305Y-19800D01*
X18324Y-19857D01*
X18324Y-19886D01*
X18305Y-19943D01*
X18286Y-19971D01*
X18248Y-20000D01*
X18171Y-20000D01*
X18133Y-20029D01*
X18114Y-20057D01*
X18095Y-20114D01*
X18095Y-20229D01*
X18114Y-20286D01*
X18133Y-20314D01*
X18171Y-20343D01*
X18248Y-20343D01*
X18286Y-20314D01*
X18305Y-20286D01*
X18324Y-20229D01*
X18324Y-20114D01*
X18305Y-20057D01*
X18286Y-20029D01*
X18248Y-20000D01*
X18571Y-19743D02*
X18610Y-19743D01*
X18648Y-19771D01*
X18667Y-19800D01*
X18686Y-19857D01*
X18705Y-19971D01*
X18705Y-20114D01*
X18686Y-20229D01*
X18667Y-20286D01*
X18648Y-20314D01*
X18610Y-20343D01*
X18571Y-20343D01*
X18533Y-20314D01*
X18514Y-20286D01*
X18495Y-20229D01*
X18476Y-20114D01*
X18476Y-19971D01*
X18495Y-19857D01*
X18514Y-19800D01*
X18533Y-19771D01*
X18571Y-19743D01*
X19067Y-19743D02*
X18876Y-19743D01*
X18857Y-20029D01*
X18876Y-20000D01*
X18914Y-19971D01*
X19010Y-19971D01*
X19048Y-20000D01*
X19067Y-20029D01*
X19086Y-20086D01*
X19086Y-20229D01*
X19067Y-20286D01*
X19048Y-20314D01*
X19010Y-20343D01*
X18914Y-20343D01*
X18876Y-20314D01*
X18857Y-20286D01*
G54D20*
X12681Y-18765D02*
X12681Y-19047D01*
X12663Y-19103D01*
X12625Y-19141D01*
X12569Y-19159D01*
X12531Y-19159D01*
X13075Y-19159D02*
X12850Y-19159D01*
X12963Y-19159D02*
X12963Y-18765D01*
X12925Y-18822D01*
X12888Y-18859D01*
X12850Y-18878D01*
X13413Y-18897D02*
X13413Y-19159D01*
X13319Y-18747D02*
X13225Y-19028D01*
X13469Y-19028D01*
G54D11*
X45365Y-29193D02*
X45365Y-29621D01*
X45337Y-29707D01*
X45280Y-29764D01*
X45194Y-29793D01*
X45137Y-29793D01*
X45965Y-29793D02*
X45622Y-29793D01*
X45794Y-29793D02*
X45794Y-29193D01*
X45737Y-29279D01*
X45679Y-29336D01*
X45622Y-29364D01*
X46165Y-29193D02*
X46565Y-29193D01*
X46308Y-29793D01*
X47022Y-37743D02*
X47022Y-37143D01*
X47250Y-37143D01*
X47308Y-37171D01*
X47336Y-37200D01*
X47365Y-37257D01*
X47365Y-37343D01*
X47336Y-37400D01*
X47308Y-37429D01*
X47250Y-37457D01*
X47022Y-37457D01*
X47736Y-37143D02*
X47850Y-37143D01*
X47908Y-37171D01*
X47965Y-37229D01*
X47993Y-37343D01*
X47993Y-37543D01*
X47965Y-37657D01*
X47908Y-37714D01*
X47850Y-37743D01*
X47736Y-37743D01*
X47679Y-37714D01*
X47622Y-37657D01*
X47593Y-37543D01*
X47593Y-37343D01*
X47622Y-37229D01*
X47679Y-37171D01*
X47736Y-37143D01*
X48537Y-37743D02*
X48251Y-37743D01*
X48251Y-37143D01*
X48851Y-37143D02*
X48965Y-37143D01*
X49023Y-37171D01*
X49080Y-37229D01*
X49108Y-37343D01*
X49108Y-37543D01*
X49080Y-37657D01*
X49023Y-37714D01*
X48965Y-37743D01*
X48851Y-37743D01*
X48794Y-37714D01*
X48737Y-37657D01*
X48708Y-37543D01*
X48708Y-37343D01*
X48737Y-37229D01*
X48794Y-37171D01*
X48851Y-37143D01*
X49652Y-37743D02*
X49366Y-37743D01*
X49366Y-37143D01*
X49852Y-37143D02*
X49852Y-37629D01*
X49880Y-37686D01*
X49909Y-37714D01*
X49966Y-37743D01*
X50080Y-37743D01*
X50138Y-37714D01*
X50166Y-37686D01*
X50195Y-37629D01*
X50195Y-37143D01*
X50795Y-37743D02*
X50452Y-37743D01*
X50624Y-37743D02*
X50624Y-37143D01*
X50567Y-37229D01*
X50509Y-37286D01*
X50452Y-37314D01*
X51023Y-37200D02*
X51052Y-37171D01*
X51109Y-37143D01*
X51252Y-37143D01*
X51309Y-37171D01*
X51338Y-37200D01*
X51366Y-37257D01*
X51366Y-37314D01*
X51338Y-37400D01*
X50995Y-37743D01*
X51366Y-37743D01*
X51737Y-37143D02*
X51794Y-37143D01*
X51851Y-37171D01*
X51880Y-37200D01*
X51909Y-37257D01*
X51937Y-37371D01*
X51937Y-37514D01*
X51909Y-37629D01*
X51880Y-37686D01*
X51851Y-37714D01*
X51794Y-37743D01*
X51737Y-37743D01*
X51680Y-37714D01*
X51651Y-37686D01*
X51623Y-37629D01*
X51594Y-37514D01*
X51594Y-37371D01*
X51623Y-37257D01*
X51651Y-37200D01*
X51680Y-37171D01*
X51737Y-37143D01*
X52508Y-37743D02*
X52165Y-37743D01*
X52337Y-37743D02*
X52337Y-37143D01*
X52280Y-37229D01*
X52222Y-37286D01*
X52165Y-37314D01*
X45365Y-39143D02*
X45365Y-39571D01*
X45337Y-39657D01*
X45280Y-39714D01*
X45194Y-39743D01*
X45137Y-39743D01*
X45622Y-39200D02*
X45651Y-39171D01*
X45708Y-39143D01*
X45851Y-39143D01*
X45908Y-39171D01*
X45937Y-39200D01*
X45965Y-39257D01*
X45965Y-39314D01*
X45937Y-39400D01*
X45594Y-39743D01*
X45965Y-39743D01*
X46165Y-39143D02*
X46536Y-39143D01*
X46336Y-39371D01*
X46422Y-39371D01*
X46479Y-39400D01*
X46508Y-39429D01*
X46536Y-39486D01*
X46536Y-39629D01*
X46508Y-39686D01*
X46479Y-39714D01*
X46422Y-39743D01*
X46250Y-39743D01*
X46193Y-39714D01*
X46165Y-39686D01*
X47022Y-47743D02*
X47022Y-47143D01*
X47250Y-47143D01*
X47308Y-47171D01*
X47336Y-47200D01*
X47365Y-47257D01*
X47365Y-47343D01*
X47336Y-47400D01*
X47308Y-47429D01*
X47250Y-47457D01*
X47022Y-47457D01*
X47736Y-47143D02*
X47850Y-47143D01*
X47908Y-47171D01*
X47965Y-47229D01*
X47993Y-47343D01*
X47993Y-47543D01*
X47965Y-47657D01*
X47908Y-47714D01*
X47850Y-47743D01*
X47736Y-47743D01*
X47679Y-47714D01*
X47622Y-47657D01*
X47593Y-47543D01*
X47593Y-47343D01*
X47622Y-47229D01*
X47679Y-47171D01*
X47736Y-47143D01*
X48537Y-47743D02*
X48251Y-47743D01*
X48251Y-47143D01*
X48851Y-47143D02*
X48965Y-47143D01*
X49023Y-47171D01*
X49080Y-47229D01*
X49108Y-47343D01*
X49108Y-47543D01*
X49080Y-47657D01*
X49023Y-47714D01*
X48965Y-47743D01*
X48851Y-47743D01*
X48794Y-47714D01*
X48737Y-47657D01*
X48708Y-47543D01*
X48708Y-47343D01*
X48737Y-47229D01*
X48794Y-47171D01*
X48851Y-47143D01*
X49652Y-47743D02*
X49366Y-47743D01*
X49366Y-47143D01*
X49852Y-47143D02*
X49852Y-47629D01*
X49880Y-47686D01*
X49909Y-47714D01*
X49966Y-47743D01*
X50080Y-47743D01*
X50138Y-47714D01*
X50166Y-47686D01*
X50195Y-47629D01*
X50195Y-47143D01*
X50795Y-47743D02*
X50452Y-47743D01*
X50624Y-47743D02*
X50624Y-47143D01*
X50567Y-47229D01*
X50509Y-47286D01*
X50452Y-47314D01*
X51023Y-47200D02*
X51052Y-47171D01*
X51109Y-47143D01*
X51252Y-47143D01*
X51309Y-47171D01*
X51338Y-47200D01*
X51366Y-47257D01*
X51366Y-47314D01*
X51338Y-47400D01*
X50995Y-47743D01*
X51366Y-47743D01*
X51737Y-47143D02*
X51794Y-47143D01*
X51851Y-47171D01*
X51880Y-47200D01*
X51909Y-47257D01*
X51937Y-47371D01*
X51937Y-47514D01*
X51909Y-47629D01*
X51880Y-47686D01*
X51851Y-47714D01*
X51794Y-47743D01*
X51737Y-47743D01*
X51680Y-47714D01*
X51651Y-47686D01*
X51623Y-47629D01*
X51594Y-47514D01*
X51594Y-47371D01*
X51623Y-47257D01*
X51651Y-47200D01*
X51680Y-47171D01*
X51737Y-47143D01*
X52508Y-47743D02*
X52165Y-47743D01*
X52337Y-47743D02*
X52337Y-47143D01*
X52280Y-47229D01*
X52222Y-47286D01*
X52165Y-47314D01*
G54D20*
X47765Y-16131D02*
X48047Y-16131D01*
X48103Y-16149D01*
X48141Y-16187D01*
X48159Y-16243D01*
X48159Y-16281D01*
X47803Y-15962D02*
X47784Y-15943D01*
X47765Y-15906D01*
X47765Y-15812D01*
X47784Y-15774D01*
X47803Y-15756D01*
X47841Y-15737D01*
X47878Y-15737D01*
X47934Y-15756D01*
X48159Y-15981D01*
X48159Y-15737D01*
X37116Y-56909D02*
X37116Y-56515D01*
X37529Y-56872D02*
X37510Y-56891D01*
X37454Y-56909D01*
X37416Y-56909D01*
X37360Y-56891D01*
X37323Y-56853D01*
X37304Y-56816D01*
X37285Y-56741D01*
X37285Y-56684D01*
X37304Y-56609D01*
X37323Y-56572D01*
X37360Y-56534D01*
X37416Y-56515D01*
X37454Y-56515D01*
X37510Y-56534D01*
X37529Y-56553D01*
X37679Y-56553D02*
X37698Y-56534D01*
X37735Y-56515D01*
X37829Y-56515D01*
X37867Y-56534D01*
X37885Y-56553D01*
X37904Y-56591D01*
X37904Y-56628D01*
X37885Y-56684D01*
X37660Y-56909D01*
X37904Y-56909D01*
X29659Y-53884D02*
X29265Y-53884D01*
X29622Y-53471D02*
X29641Y-53490D01*
X29659Y-53546D01*
X29659Y-53584D01*
X29641Y-53640D01*
X29603Y-53677D01*
X29566Y-53696D01*
X29491Y-53715D01*
X29434Y-53715D01*
X29359Y-53696D01*
X29322Y-53677D01*
X29284Y-53640D01*
X29265Y-53584D01*
X29265Y-53546D01*
X29284Y-53490D01*
X29303Y-53471D01*
X29659Y-53096D02*
X29659Y-53321D01*
X29659Y-53208D02*
X29265Y-53208D01*
X29322Y-53246D01*
X29359Y-53283D01*
X29378Y-53321D01*
X15681Y-16265D02*
X15681Y-16547D01*
X15663Y-16603D01*
X15625Y-16641D01*
X15569Y-16659D01*
X15531Y-16659D01*
X15831Y-16265D02*
X16075Y-16265D01*
X15944Y-16416D01*
X16000Y-16416D01*
X16038Y-16434D01*
X16056Y-16453D01*
X16075Y-16491D01*
X16075Y-16584D01*
X16056Y-16622D01*
X16038Y-16641D01*
X16000Y-16659D01*
X15888Y-16659D01*
X15850Y-16641D01*
X15831Y-16622D01*
X16300Y-16434D02*
X16263Y-16416D01*
X16244Y-16397D01*
X16225Y-16359D01*
X16225Y-16341D01*
X16244Y-16303D01*
X16263Y-16284D01*
X16300Y-16265D01*
X16375Y-16265D01*
X16413Y-16284D01*
X16431Y-16303D01*
X16450Y-16341D01*
X16450Y-16359D01*
X16431Y-16397D01*
X16413Y-16416D01*
X16375Y-16434D01*
X16300Y-16434D01*
X16263Y-16453D01*
X16244Y-16472D01*
X16225Y-16509D01*
X16225Y-16584D01*
X16244Y-16622D01*
X16263Y-16641D01*
X16300Y-16659D01*
X16375Y-16659D01*
X16413Y-16641D01*
X16431Y-16622D01*
X16450Y-16584D01*
X16450Y-16509D01*
X16431Y-16472D01*
X16413Y-16453D01*
X16375Y-16434D01*
X12681Y-26765D02*
X12681Y-27047D01*
X12663Y-27103D01*
X12625Y-27141D01*
X12569Y-27159D01*
X12531Y-27159D01*
X12850Y-26803D02*
X12869Y-26784D01*
X12906Y-26765D01*
X13000Y-26765D01*
X13038Y-26784D01*
X13056Y-26803D01*
X13075Y-26841D01*
X13075Y-26878D01*
X13056Y-26934D01*
X12831Y-27159D01*
X13075Y-27159D01*
X13206Y-26765D02*
X13469Y-26765D01*
X13300Y-27159D01*
X12865Y-60919D02*
X13147Y-60919D01*
X13203Y-60937D01*
X13241Y-60975D01*
X13259Y-61031D01*
X13259Y-61069D01*
X12903Y-60750D02*
X12884Y-60731D01*
X12865Y-60694D01*
X12865Y-60600D01*
X12884Y-60562D01*
X12903Y-60544D01*
X12941Y-60525D01*
X12978Y-60525D01*
X13034Y-60544D01*
X13259Y-60769D01*
X13259Y-60525D01*
X13259Y-60337D02*
X13259Y-60262D01*
X13241Y-60225D01*
X13222Y-60206D01*
X13166Y-60169D01*
X13091Y-60150D01*
X12941Y-60150D01*
X12903Y-60169D01*
X12884Y-60187D01*
X12865Y-60225D01*
X12865Y-60300D01*
X12884Y-60337D01*
X12903Y-60356D01*
X12941Y-60375D01*
X13034Y-60375D01*
X13072Y-60356D01*
X13091Y-60337D01*
X13109Y-60300D01*
X13109Y-60225D01*
X13091Y-60187D01*
X13072Y-60169D01*
X13034Y-60150D01*
X16681Y-64765D02*
X16681Y-65047D01*
X16663Y-65103D01*
X16625Y-65141D01*
X16569Y-65159D01*
X16531Y-65159D01*
X16831Y-64765D02*
X17075Y-64765D01*
X16944Y-64916D01*
X17000Y-64916D01*
X17038Y-64934D01*
X17056Y-64953D01*
X17075Y-64991D01*
X17075Y-65084D01*
X17056Y-65122D01*
X17038Y-65141D01*
X17000Y-65159D01*
X16888Y-65159D01*
X16850Y-65141D01*
X16831Y-65122D01*
X17413Y-64897D02*
X17413Y-65159D01*
X17319Y-64747D02*
X17225Y-65028D01*
X17469Y-65028D01*
X36681Y-64765D02*
X36681Y-65047D01*
X36663Y-65103D01*
X36625Y-65141D01*
X36569Y-65159D01*
X36531Y-65159D01*
X36831Y-64765D02*
X37075Y-64765D01*
X36944Y-64916D01*
X37000Y-64916D01*
X37038Y-64934D01*
X37056Y-64953D01*
X37075Y-64991D01*
X37075Y-65084D01*
X37056Y-65122D01*
X37038Y-65141D01*
X37000Y-65159D01*
X36888Y-65159D01*
X36850Y-65141D01*
X36831Y-65122D01*
X37206Y-64765D02*
X37469Y-64765D01*
X37300Y-65159D01*
X12681Y-33765D02*
X12681Y-34047D01*
X12663Y-34103D01*
X12625Y-34141D01*
X12569Y-34159D01*
X12531Y-34159D01*
X13075Y-34159D02*
X12850Y-34159D01*
X12963Y-34159D02*
X12963Y-33765D01*
X12925Y-33822D01*
X12888Y-33859D01*
X12850Y-33878D01*
X13319Y-33765D02*
X13356Y-33765D01*
X13394Y-33784D01*
X13413Y-33803D01*
X13431Y-33841D01*
X13450Y-33916D01*
X13450Y-34009D01*
X13431Y-34084D01*
X13413Y-34122D01*
X13394Y-34141D01*
X13356Y-34159D01*
X13319Y-34159D01*
X13281Y-34141D01*
X13263Y-34122D01*
X13244Y-34084D01*
X13225Y-34009D01*
X13225Y-33916D01*
X13244Y-33841D01*
X13263Y-33803D01*
X13281Y-33784D01*
X13319Y-33765D01*
X28681Y-64765D02*
X28681Y-65047D01*
X28663Y-65103D01*
X28625Y-65141D01*
X28569Y-65159D01*
X28531Y-65159D01*
X28831Y-64765D02*
X29075Y-64765D01*
X28944Y-64916D01*
X29000Y-64916D01*
X29038Y-64934D01*
X29056Y-64953D01*
X29075Y-64991D01*
X29075Y-65084D01*
X29056Y-65122D01*
X29038Y-65141D01*
X29000Y-65159D01*
X28888Y-65159D01*
X28850Y-65141D01*
X28831Y-65122D01*
X29263Y-65159D02*
X29338Y-65159D01*
X29375Y-65141D01*
X29394Y-65122D01*
X29431Y-65066D01*
X29450Y-64991D01*
X29450Y-64841D01*
X29431Y-64803D01*
X29413Y-64784D01*
X29375Y-64765D01*
X29300Y-64765D01*
X29263Y-64784D01*
X29244Y-64803D01*
X29225Y-64841D01*
X29225Y-64934D01*
X29244Y-64972D01*
X29263Y-64991D01*
X29300Y-65009D01*
X29375Y-65009D01*
X29413Y-64991D01*
X29431Y-64972D01*
X29450Y-64934D01*
X54765Y-49969D02*
X55047Y-49969D01*
X55103Y-49987D01*
X55141Y-50025D01*
X55159Y-50081D01*
X55159Y-50119D01*
X54765Y-49819D02*
X54765Y-49575D01*
X54916Y-49706D01*
X54916Y-49650D01*
X54934Y-49612D01*
X54953Y-49594D01*
X54991Y-49575D01*
X55084Y-49575D01*
X55122Y-49594D01*
X55141Y-49612D01*
X55159Y-49650D01*
X55159Y-49762D01*
X55141Y-49800D01*
X55122Y-49819D01*
X54765Y-49444D02*
X54765Y-49200D01*
X54916Y-49331D01*
X54916Y-49275D01*
X54934Y-49237D01*
X54953Y-49219D01*
X54991Y-49200D01*
X55084Y-49200D01*
X55122Y-49219D01*
X55141Y-49237D01*
X55159Y-49275D01*
X55159Y-49387D01*
X55141Y-49425D01*
X55122Y-49444D01*
X54815Y-40119D02*
X55097Y-40119D01*
X55153Y-40137D01*
X55191Y-40175D01*
X55209Y-40231D01*
X55209Y-40269D01*
X54853Y-39950D02*
X54834Y-39931D01*
X54815Y-39894D01*
X54815Y-39800D01*
X54834Y-39762D01*
X54853Y-39744D01*
X54891Y-39725D01*
X54928Y-39725D01*
X54984Y-39744D01*
X55209Y-39969D01*
X55209Y-39725D01*
X54947Y-39387D02*
X55209Y-39387D01*
X54797Y-39481D02*
X55078Y-39575D01*
X55078Y-39331D01*
X54815Y-20031D02*
X55097Y-20031D01*
X55153Y-20049D01*
X55191Y-20087D01*
X55209Y-20143D01*
X55209Y-20181D01*
X55209Y-19824D02*
X55209Y-19749D01*
X55191Y-19712D01*
X55172Y-19693D01*
X55116Y-19656D01*
X55041Y-19637D01*
X54891Y-19637D01*
X54853Y-19656D01*
X54834Y-19674D01*
X54815Y-19712D01*
X54815Y-19787D01*
X54834Y-19824D01*
X54853Y-19843D01*
X54891Y-19862D01*
X54984Y-19862D01*
X55022Y-19843D01*
X55041Y-19824D01*
X55059Y-19787D01*
X55059Y-19712D01*
X55041Y-19674D01*
X55022Y-19656D01*
X54984Y-19637D01*
X54815Y-30269D02*
X55097Y-30269D01*
X55153Y-30287D01*
X55191Y-30325D01*
X55209Y-30381D01*
X55209Y-30419D01*
X55209Y-29875D02*
X55209Y-30100D01*
X55209Y-29987D02*
X54815Y-29987D01*
X54872Y-30025D01*
X54909Y-30062D01*
X54928Y-30100D01*
X54984Y-29650D02*
X54966Y-29687D01*
X54947Y-29706D01*
X54909Y-29725D01*
X54891Y-29725D01*
X54853Y-29706D01*
X54834Y-29687D01*
X54815Y-29650D01*
X54815Y-29575D01*
X54834Y-29537D01*
X54853Y-29519D01*
X54891Y-29500D01*
X54909Y-29500D01*
X54947Y-29519D01*
X54966Y-29537D01*
X54984Y-29575D01*
X54984Y-29650D01*
X55003Y-29687D01*
X55022Y-29706D01*
X55059Y-29725D01*
X55134Y-29725D01*
X55172Y-29706D01*
X55191Y-29687D01*
X55209Y-29650D01*
X55209Y-29575D01*
X55191Y-29537D01*
X55172Y-29519D01*
X55134Y-29500D01*
X55059Y-29500D01*
X55022Y-29519D01*
X55003Y-29537D01*
X54984Y-29575D01*
G54D11*
X33515Y-26643D02*
X33515Y-27071D01*
X33487Y-27157D01*
X33430Y-27214D01*
X33344Y-27243D01*
X33287Y-27243D01*
X34115Y-27243D02*
X33772Y-27243D01*
X33944Y-27243D02*
X33944Y-26643D01*
X33887Y-26729D01*
X33829Y-26786D01*
X33772Y-26814D01*
X34686Y-27243D02*
X34343Y-27243D01*
X34515Y-27243D02*
X34515Y-26643D01*
X34458Y-26729D01*
X34400Y-26786D01*
X34343Y-26814D01*
X31800Y-49743D02*
X31800Y-49143D01*
X32000Y-49571D01*
X32200Y-49143D01*
X32200Y-49743D01*
X32686Y-49429D02*
X32772Y-49457D01*
X32800Y-49486D01*
X32829Y-49543D01*
X32829Y-49629D01*
X32800Y-49686D01*
X32772Y-49714D01*
X32714Y-49743D01*
X32486Y-49743D01*
X32486Y-49143D01*
X32686Y-49143D01*
X32743Y-49171D01*
X32772Y-49200D01*
X32800Y-49257D01*
X32800Y-49314D01*
X32772Y-49371D01*
X32743Y-49400D01*
X32686Y-49429D01*
X32486Y-49429D01*
X33086Y-49429D02*
X33286Y-49429D01*
X33372Y-49743D02*
X33086Y-49743D01*
X33086Y-49143D01*
X33372Y-49143D01*
X33629Y-49743D02*
X33629Y-49143D01*
X33772Y-49143D01*
X33857Y-49171D01*
X33915Y-49229D01*
X33943Y-49286D01*
X33972Y-49400D01*
X33972Y-49486D01*
X33943Y-49600D01*
X33915Y-49657D01*
X33857Y-49714D01*
X33772Y-49743D01*
X33629Y-49743D01*
X34086Y-49800D02*
X34543Y-49800D01*
X34686Y-49743D02*
X34686Y-49143D01*
X35029Y-49743D01*
X35029Y-49143D01*
X35258Y-49143D02*
X35658Y-49743D01*
X35658Y-49143D02*
X35258Y-49743D01*
X35886Y-49743D02*
X35886Y-49143D01*
X36114Y-49143D01*
X36172Y-49171D01*
X36200Y-49200D01*
X36229Y-49257D01*
X36229Y-49343D01*
X36200Y-49400D01*
X36172Y-49429D01*
X36114Y-49457D01*
X35886Y-49457D01*
X45850Y-19193D02*
X45850Y-19621D01*
X45822Y-19707D01*
X45765Y-19764D01*
X45679Y-19793D01*
X45622Y-19793D01*
X46222Y-19450D02*
X46164Y-19421D01*
X46136Y-19393D01*
X46107Y-19336D01*
X46107Y-19307D01*
X46136Y-19250D01*
X46164Y-19221D01*
X46222Y-19193D01*
X46336Y-19193D01*
X46393Y-19221D01*
X46422Y-19250D01*
X46450Y-19307D01*
X46450Y-19336D01*
X46422Y-19393D01*
X46393Y-19421D01*
X46336Y-19450D01*
X46222Y-19450D01*
X46164Y-19479D01*
X46136Y-19507D01*
X46107Y-19564D01*
X46107Y-19679D01*
X46136Y-19736D01*
X46164Y-19764D01*
X46222Y-19793D01*
X46336Y-19793D01*
X46393Y-19764D01*
X46422Y-19736D01*
X46450Y-19679D01*
X46450Y-19564D01*
X46422Y-19507D01*
X46393Y-19479D01*
X46336Y-19450D01*
X46972Y-27743D02*
X46972Y-27143D01*
X47200Y-27143D01*
X47258Y-27171D01*
X47286Y-27200D01*
X47315Y-27257D01*
X47315Y-27343D01*
X47286Y-27400D01*
X47258Y-27429D01*
X47200Y-27457D01*
X46972Y-27457D01*
X47686Y-27143D02*
X47800Y-27143D01*
X47858Y-27171D01*
X47915Y-27229D01*
X47943Y-27343D01*
X47943Y-27543D01*
X47915Y-27657D01*
X47858Y-27714D01*
X47800Y-27743D01*
X47686Y-27743D01*
X47629Y-27714D01*
X47572Y-27657D01*
X47543Y-27543D01*
X47543Y-27343D01*
X47572Y-27229D01*
X47629Y-27171D01*
X47686Y-27143D01*
X48487Y-27743D02*
X48201Y-27743D01*
X48201Y-27143D01*
X48801Y-27143D02*
X48915Y-27143D01*
X48973Y-27171D01*
X49030Y-27229D01*
X49058Y-27343D01*
X49058Y-27543D01*
X49030Y-27657D01*
X48973Y-27714D01*
X48915Y-27743D01*
X48801Y-27743D01*
X48744Y-27714D01*
X48687Y-27657D01*
X48658Y-27543D01*
X48658Y-27343D01*
X48687Y-27229D01*
X48744Y-27171D01*
X48801Y-27143D01*
X49602Y-27743D02*
X49316Y-27743D01*
X49316Y-27143D01*
X49802Y-27143D02*
X49802Y-27629D01*
X49830Y-27686D01*
X49859Y-27714D01*
X49916Y-27743D01*
X50030Y-27743D01*
X50088Y-27714D01*
X50116Y-27686D01*
X50145Y-27629D01*
X50145Y-27143D01*
X50745Y-27743D02*
X50402Y-27743D01*
X50574Y-27743D02*
X50574Y-27143D01*
X50517Y-27229D01*
X50459Y-27286D01*
X50402Y-27314D01*
X50973Y-27200D02*
X51002Y-27171D01*
X51059Y-27143D01*
X51202Y-27143D01*
X51259Y-27171D01*
X51288Y-27200D01*
X51316Y-27257D01*
X51316Y-27314D01*
X51288Y-27400D01*
X50945Y-27743D01*
X51316Y-27743D01*
X51687Y-27143D02*
X51744Y-27143D01*
X51801Y-27171D01*
X51830Y-27200D01*
X51859Y-27257D01*
X51887Y-27371D01*
X51887Y-27514D01*
X51859Y-27629D01*
X51830Y-27686D01*
X51801Y-27714D01*
X51744Y-27743D01*
X51687Y-27743D01*
X51630Y-27714D01*
X51601Y-27686D01*
X51573Y-27629D01*
X51544Y-27514D01*
X51544Y-27371D01*
X51573Y-27257D01*
X51601Y-27200D01*
X51630Y-27171D01*
X51687Y-27143D01*
X52458Y-27743D02*
X52115Y-27743D01*
X52287Y-27743D02*
X52287Y-27143D01*
X52230Y-27229D01*
X52172Y-27286D01*
X52115Y-27314D01*
X45415Y-49093D02*
X45415Y-49521D01*
X45387Y-49607D01*
X45330Y-49664D01*
X45244Y-49693D01*
X45187Y-49693D01*
X45644Y-49093D02*
X46015Y-49093D01*
X45815Y-49321D01*
X45901Y-49321D01*
X45958Y-49350D01*
X45987Y-49379D01*
X46015Y-49436D01*
X46015Y-49579D01*
X45987Y-49636D01*
X45958Y-49664D01*
X45901Y-49693D01*
X45729Y-49693D01*
X45672Y-49664D01*
X45644Y-49636D01*
X46243Y-49150D02*
X46272Y-49121D01*
X46329Y-49093D01*
X46472Y-49093D01*
X46529Y-49121D01*
X46558Y-49150D01*
X46586Y-49207D01*
X46586Y-49264D01*
X46558Y-49350D01*
X46215Y-49693D01*
X46586Y-49693D01*
X47022Y-57743D02*
X47022Y-57143D01*
X47250Y-57143D01*
X47308Y-57171D01*
X47336Y-57200D01*
X47365Y-57257D01*
X47365Y-57343D01*
X47336Y-57400D01*
X47308Y-57429D01*
X47250Y-57457D01*
X47022Y-57457D01*
X47736Y-57143D02*
X47850Y-57143D01*
X47908Y-57171D01*
X47965Y-57229D01*
X47993Y-57343D01*
X47993Y-57543D01*
X47965Y-57657D01*
X47908Y-57714D01*
X47850Y-57743D01*
X47736Y-57743D01*
X47679Y-57714D01*
X47622Y-57657D01*
X47593Y-57543D01*
X47593Y-57343D01*
X47622Y-57229D01*
X47679Y-57171D01*
X47736Y-57143D01*
X48537Y-57743D02*
X48251Y-57743D01*
X48251Y-57143D01*
X48851Y-57143D02*
X48965Y-57143D01*
X49023Y-57171D01*
X49080Y-57229D01*
X49108Y-57343D01*
X49108Y-57543D01*
X49080Y-57657D01*
X49023Y-57714D01*
X48965Y-57743D01*
X48851Y-57743D01*
X48794Y-57714D01*
X48737Y-57657D01*
X48708Y-57543D01*
X48708Y-57343D01*
X48737Y-57229D01*
X48794Y-57171D01*
X48851Y-57143D01*
X49652Y-57743D02*
X49366Y-57743D01*
X49366Y-57143D01*
X49852Y-57143D02*
X49852Y-57629D01*
X49880Y-57686D01*
X49909Y-57714D01*
X49966Y-57743D01*
X50080Y-57743D01*
X50138Y-57714D01*
X50166Y-57686D01*
X50195Y-57629D01*
X50195Y-57143D01*
X50795Y-57743D02*
X50452Y-57743D01*
X50624Y-57743D02*
X50624Y-57143D01*
X50567Y-57229D01*
X50509Y-57286D01*
X50452Y-57314D01*
X51023Y-57200D02*
X51052Y-57171D01*
X51109Y-57143D01*
X51252Y-57143D01*
X51309Y-57171D01*
X51338Y-57200D01*
X51366Y-57257D01*
X51366Y-57314D01*
X51338Y-57400D01*
X50995Y-57743D01*
X51366Y-57743D01*
X51737Y-57143D02*
X51794Y-57143D01*
X51851Y-57171D01*
X51880Y-57200D01*
X51909Y-57257D01*
X51937Y-57371D01*
X51937Y-57514D01*
X51909Y-57629D01*
X51880Y-57686D01*
X51851Y-57714D01*
X51794Y-57743D01*
X51737Y-57743D01*
X51680Y-57714D01*
X51651Y-57686D01*
X51623Y-57629D01*
X51594Y-57514D01*
X51594Y-57371D01*
X51623Y-57257D01*
X51651Y-57200D01*
X51680Y-57171D01*
X51737Y-57143D01*
X52508Y-57743D02*
X52165Y-57743D01*
X52337Y-57743D02*
X52337Y-57143D01*
X52280Y-57229D01*
X52222Y-57286D01*
X52165Y-57314D01*
G54D20*
X22265Y-26819D02*
X22547Y-26819D01*
X22603Y-26837D01*
X22641Y-26875D01*
X22659Y-26931D01*
X22659Y-26969D01*
X22303Y-26650D02*
X22284Y-26631D01*
X22265Y-26594D01*
X22265Y-26500D01*
X22284Y-26462D01*
X22303Y-26444D01*
X22341Y-26425D01*
X22378Y-26425D01*
X22434Y-26444D01*
X22659Y-26669D01*
X22659Y-26425D01*
X22434Y-26200D02*
X22416Y-26237D01*
X22397Y-26256D01*
X22359Y-26275D01*
X22341Y-26275D01*
X22303Y-26256D01*
X22284Y-26237D01*
X22265Y-26200D01*
X22265Y-26125D01*
X22284Y-26087D01*
X22303Y-26069D01*
X22341Y-26050D01*
X22359Y-26050D01*
X22397Y-26069D01*
X22416Y-26087D01*
X22434Y-26125D01*
X22434Y-26200D01*
X22453Y-26237D01*
X22472Y-26256D01*
X22509Y-26275D01*
X22584Y-26275D01*
X22622Y-26256D01*
X22641Y-26237D01*
X22659Y-26200D01*
X22659Y-26125D01*
X22641Y-26087D01*
X22622Y-26069D01*
X22584Y-26050D01*
X22509Y-26050D01*
X22472Y-26069D01*
X22453Y-26087D01*
X22434Y-26125D01*
G54D18*
X25007Y-14710D02*
X25007Y-14938D01*
X24993Y-14984D01*
X24967Y-15014D01*
X24927Y-15030D01*
X24900Y-15030D01*
X25260Y-14816D02*
X25260Y-15030D01*
X25193Y-14694D02*
X25126Y-14923D01*
X25300Y-14923D01*
X24241Y-15830D02*
X24241Y-15510D01*
X24334Y-15738D01*
X24427Y-15510D01*
X24427Y-15830D01*
X24547Y-15738D02*
X24681Y-15738D01*
X24521Y-15830D02*
X24614Y-15510D01*
X24707Y-15830D01*
X24947Y-15525D02*
X24921Y-15510D01*
X24881Y-15510D01*
X24841Y-15525D01*
X24814Y-15555D01*
X24801Y-15586D01*
X24787Y-15647D01*
X24787Y-15692D01*
X24801Y-15753D01*
X24814Y-15784D01*
X24841Y-15814D01*
X24881Y-15830D01*
X24907Y-15830D01*
X24947Y-15814D01*
X24961Y-15799D01*
X24961Y-15692D01*
X24907Y-15692D01*
X25161Y-15510D02*
X25161Y-15738D01*
X25147Y-15784D01*
X25121Y-15814D01*
X25081Y-15830D01*
X25054Y-15830D01*
X25280Y-15738D02*
X25414Y-15738D01*
X25254Y-15830D02*
X25347Y-15510D01*
X25440Y-15830D01*
X25694Y-15799D02*
X25680Y-15814D01*
X25640Y-15830D01*
X25614Y-15830D01*
X25574Y-15814D01*
X25547Y-15784D01*
X25534Y-15753D01*
X25520Y-15692D01*
X25520Y-15647D01*
X25534Y-15586D01*
X25547Y-15555D01*
X25574Y-15525D01*
X25614Y-15510D01*
X25640Y-15510D01*
X25680Y-15525D01*
X25694Y-15540D01*
X25814Y-15830D02*
X25814Y-15510D01*
X25974Y-15830D02*
X25854Y-15647D01*
X25974Y-15510D02*
X25814Y-15692D01*
G54D21*
X54524Y-60166D02*
X54543Y-60185D01*
X54562Y-60242D01*
X54562Y-60280D01*
X54543Y-60338D01*
X54505Y-60376D01*
X54467Y-60395D01*
X54390Y-60414D01*
X54333Y-60414D01*
X54257Y-60395D01*
X54219Y-60376D01*
X54181Y-60338D01*
X54162Y-60280D01*
X54162Y-60242D01*
X54181Y-60185D01*
X54200Y-60166D01*
X54162Y-60033D02*
X54162Y-59785D01*
X54314Y-59919D01*
X54314Y-59861D01*
X54333Y-59823D01*
X54352Y-59804D01*
X54390Y-59785D01*
X54486Y-59785D01*
X54524Y-59804D01*
X54543Y-59823D01*
X54562Y-59861D01*
X54562Y-59976D01*
X54543Y-60014D01*
X54524Y-60033D01*
X14824Y-21766D02*
X14843Y-21785D01*
X14862Y-21842D01*
X14862Y-21880D01*
X14843Y-21938D01*
X14805Y-21976D01*
X14767Y-21995D01*
X14690Y-22014D01*
X14633Y-22014D01*
X14557Y-21995D01*
X14519Y-21976D01*
X14481Y-21938D01*
X14462Y-21880D01*
X14462Y-21842D01*
X14481Y-21785D01*
X14500Y-21766D01*
X14462Y-21404D02*
X14462Y-21595D01*
X14652Y-21614D01*
X14633Y-21595D01*
X14614Y-21557D01*
X14614Y-21461D01*
X14633Y-21423D01*
X14652Y-21404D01*
X14690Y-21385D01*
X14786Y-21385D01*
X14824Y-21404D01*
X14843Y-21423D01*
X14862Y-21461D01*
X14862Y-21557D01*
X14843Y-21595D01*
X14824Y-21614D01*
X30424Y-22566D02*
X30443Y-22585D01*
X30462Y-22642D01*
X30462Y-22680D01*
X30443Y-22738D01*
X30405Y-22776D01*
X30367Y-22795D01*
X30290Y-22814D01*
X30233Y-22814D01*
X30157Y-22795D01*
X30119Y-22776D01*
X30081Y-22738D01*
X30062Y-22680D01*
X30062Y-22642D01*
X30081Y-22585D01*
X30100Y-22566D01*
X30462Y-22185D02*
X30462Y-22414D01*
X30462Y-22300D02*
X30062Y-22300D01*
X30119Y-22338D01*
X30157Y-22376D01*
X30176Y-22414D01*
X30462Y-21319D02*
X30462Y-21548D01*
X30462Y-21434D02*
X30062Y-21434D01*
X30119Y-21472D01*
X30157Y-21510D01*
X30176Y-21548D01*
X30062Y-21072D02*
X30062Y-21033D01*
X30081Y-20995D01*
X30100Y-20976D01*
X30138Y-20957D01*
X30214Y-20938D01*
X30310Y-20938D01*
X30386Y-20957D01*
X30424Y-20976D01*
X30443Y-20995D01*
X30462Y-21033D01*
X30462Y-21072D01*
X30443Y-21110D01*
X30424Y-21129D01*
X30386Y-21148D01*
X30310Y-21167D01*
X30214Y-21167D01*
X30138Y-21148D01*
X30100Y-21129D01*
X30081Y-21110D01*
X30062Y-21072D01*
X30062Y-20691D02*
X30062Y-20652D01*
X30081Y-20614D01*
X30100Y-20595D01*
X30138Y-20576D01*
X30214Y-20557D01*
X30310Y-20557D01*
X30386Y-20576D01*
X30424Y-20595D01*
X30443Y-20614D01*
X30462Y-20652D01*
X30462Y-20691D01*
X30443Y-20729D01*
X30424Y-20748D01*
X30386Y-20767D01*
X30310Y-20786D01*
X30214Y-20786D01*
X30138Y-20767D01*
X30100Y-20748D01*
X30081Y-20729D01*
X30062Y-20691D01*
X30195Y-20386D02*
X30462Y-20386D01*
X30233Y-20386D02*
X30214Y-20367D01*
X30195Y-20329D01*
X30195Y-20271D01*
X30214Y-20233D01*
X30252Y-20214D01*
X30462Y-20214D01*
X30252Y-19890D02*
X30252Y-20024D01*
X30462Y-20024D02*
X30062Y-20024D01*
X30062Y-19833D01*
X18834Y-22074D02*
X18815Y-22093D01*
X18758Y-22112D01*
X18720Y-22112D01*
X18662Y-22093D01*
X18624Y-22055D01*
X18605Y-22017D01*
X18586Y-21940D01*
X18586Y-21883D01*
X18605Y-21807D01*
X18624Y-21769D01*
X18662Y-21731D01*
X18720Y-21712D01*
X18758Y-21712D01*
X18815Y-21731D01*
X18834Y-21750D01*
X18967Y-21712D02*
X19234Y-21712D01*
X19062Y-22112D01*
X19643Y-21800D02*
X19662Y-21781D01*
X19700Y-21762D01*
X19796Y-21762D01*
X19834Y-21781D01*
X19853Y-21800D01*
X19872Y-21838D01*
X19872Y-21876D01*
X19853Y-21933D01*
X19624Y-22162D01*
X19872Y-22162D01*
X20024Y-21800D02*
X20043Y-21781D01*
X20081Y-21762D01*
X20177Y-21762D01*
X20215Y-21781D01*
X20234Y-21800D01*
X20253Y-21838D01*
X20253Y-21876D01*
X20234Y-21933D01*
X20005Y-22162D01*
X20253Y-22162D01*
X20424Y-21895D02*
X20424Y-22162D01*
X20424Y-21933D02*
X20443Y-21914D01*
X20481Y-21895D01*
X20539Y-21895D01*
X20577Y-21914D01*
X20596Y-21952D01*
X20596Y-22162D01*
X20920Y-21952D02*
X20786Y-21952D01*
X20786Y-22162D02*
X20786Y-21762D01*
X20977Y-21762D01*
X18584Y-23724D02*
X18565Y-23743D01*
X18508Y-23762D01*
X18470Y-23762D01*
X18412Y-23743D01*
X18374Y-23705D01*
X18355Y-23667D01*
X18336Y-23590D01*
X18336Y-23533D01*
X18355Y-23457D01*
X18374Y-23419D01*
X18412Y-23381D01*
X18470Y-23362D01*
X18508Y-23362D01*
X18565Y-23381D01*
X18584Y-23400D01*
X18812Y-23533D02*
X18774Y-23514D01*
X18755Y-23495D01*
X18736Y-23457D01*
X18736Y-23438D01*
X18755Y-23400D01*
X18774Y-23381D01*
X18812Y-23362D01*
X18889Y-23362D01*
X18927Y-23381D01*
X18946Y-23400D01*
X18965Y-23438D01*
X18965Y-23457D01*
X18946Y-23495D01*
X18927Y-23514D01*
X18889Y-23533D01*
X18812Y-23533D01*
X18774Y-23552D01*
X18755Y-23571D01*
X18736Y-23610D01*
X18736Y-23686D01*
X18755Y-23724D01*
X18774Y-23743D01*
X18812Y-23762D01*
X18889Y-23762D01*
X18927Y-23743D01*
X18946Y-23724D01*
X18965Y-23686D01*
X18965Y-23610D01*
X18946Y-23571D01*
X18927Y-23552D01*
X18889Y-23533D01*
X19731Y-23712D02*
X19502Y-23712D01*
X19616Y-23712D02*
X19616Y-23312D01*
X19578Y-23369D01*
X19540Y-23407D01*
X19502Y-23426D01*
X19978Y-23312D02*
X20017Y-23312D01*
X20055Y-23331D01*
X20074Y-23350D01*
X20093Y-23388D01*
X20112Y-23464D01*
X20112Y-23560D01*
X20093Y-23636D01*
X20074Y-23674D01*
X20055Y-23693D01*
X20017Y-23712D01*
X19978Y-23712D01*
X19940Y-23693D01*
X19921Y-23674D01*
X19902Y-23636D01*
X19883Y-23560D01*
X19883Y-23464D01*
X19902Y-23388D01*
X19921Y-23350D01*
X19940Y-23331D01*
X19978Y-23312D01*
X20359Y-23312D02*
X20398Y-23312D01*
X20436Y-23331D01*
X20455Y-23350D01*
X20474Y-23388D01*
X20493Y-23464D01*
X20493Y-23560D01*
X20474Y-23636D01*
X20455Y-23674D01*
X20436Y-23693D01*
X20398Y-23712D01*
X20359Y-23712D01*
X20321Y-23693D01*
X20302Y-23674D01*
X20283Y-23636D01*
X20264Y-23560D01*
X20264Y-23464D01*
X20283Y-23388D01*
X20302Y-23350D01*
X20321Y-23331D01*
X20359Y-23312D01*
X20664Y-23445D02*
X20664Y-23712D01*
X20664Y-23483D02*
X20683Y-23464D01*
X20721Y-23445D01*
X20779Y-23445D01*
X20817Y-23464D01*
X20836Y-23502D01*
X20836Y-23712D01*
X21160Y-23502D02*
X21026Y-23502D01*
X21026Y-23712D02*
X21026Y-23312D01*
X21217Y-23312D01*
G54D22*
X41521Y-22522D02*
X41221Y-22522D01*
X41221Y-22450D01*
X41236Y-22407D01*
X41264Y-22379D01*
X41293Y-22364D01*
X41350Y-22350D01*
X41393Y-22350D01*
X41450Y-22364D01*
X41479Y-22379D01*
X41507Y-22407D01*
X41521Y-22450D01*
X41521Y-22522D01*
X41521Y-22064D02*
X41521Y-22236D01*
X41521Y-22150D02*
X41221Y-22150D01*
X41264Y-22179D01*
X41293Y-22207D01*
X41307Y-22236D01*
X43621Y-23343D02*
X43621Y-23486D01*
X43321Y-23486D01*
X43464Y-23243D02*
X43464Y-23143D01*
X43621Y-23100D02*
X43621Y-23243D01*
X43321Y-23243D01*
X43321Y-23100D01*
X43621Y-22972D02*
X43321Y-22972D01*
X43321Y-22900D01*
X43336Y-22857D01*
X43364Y-22829D01*
X43393Y-22814D01*
X43450Y-22800D01*
X43493Y-22800D01*
X43550Y-22814D01*
X43579Y-22829D01*
X43607Y-22857D01*
X43621Y-22900D01*
X43621Y-22972D01*
X43621Y-22500D02*
X43479Y-22600D01*
X43621Y-22672D02*
X43321Y-22672D01*
X43321Y-22557D01*
X43336Y-22529D01*
X43350Y-22514D01*
X43379Y-22500D01*
X43421Y-22500D01*
X43450Y-22514D01*
X43464Y-22529D01*
X43479Y-22557D01*
X43479Y-22672D01*
X32421Y-23222D02*
X32121Y-23222D01*
X32121Y-23150D01*
X32136Y-23107D01*
X32164Y-23079D01*
X32193Y-23064D01*
X32250Y-23050D01*
X32293Y-23050D01*
X32350Y-23064D01*
X32379Y-23079D01*
X32407Y-23107D01*
X32421Y-23150D01*
X32421Y-23222D01*
X32121Y-22950D02*
X32121Y-22764D01*
X32236Y-22864D01*
X32236Y-22822D01*
X32250Y-22793D01*
X32264Y-22779D01*
X32293Y-22764D01*
X32364Y-22764D01*
X32393Y-22779D01*
X32407Y-22793D01*
X32421Y-22822D01*
X32421Y-22907D01*
X32407Y-22936D01*
X32393Y-22950D01*
X32421Y-22443D02*
X32421Y-22586D01*
X32121Y-22586D01*
X32264Y-22343D02*
X32264Y-22243D01*
X32421Y-22200D02*
X32421Y-22343D01*
X32121Y-22343D01*
X32121Y-22200D01*
X32421Y-22072D02*
X32121Y-22072D01*
X32121Y-22000D01*
X32136Y-21957D01*
X32164Y-21929D01*
X32193Y-21914D01*
X32250Y-21900D01*
X32293Y-21900D01*
X32350Y-21914D01*
X32379Y-21929D01*
X32407Y-21957D01*
X32421Y-22000D01*
X32421Y-22072D01*
X32136Y-21614D02*
X32121Y-21643D01*
X32121Y-21686D01*
X32136Y-21729D01*
X32164Y-21757D01*
X32193Y-21772D01*
X32250Y-21786D01*
X32293Y-21786D01*
X32350Y-21772D01*
X32379Y-21757D01*
X32407Y-21729D01*
X32421Y-21686D01*
X32421Y-21657D01*
X32407Y-21614D01*
X32393Y-21600D01*
X32293Y-21600D01*
X32293Y-21657D01*
G54D16*
X49880Y-60034D02*
X49894Y-60048D01*
X49908Y-60091D01*
X49908Y-60120D01*
X49894Y-60163D01*
X49866Y-60191D01*
X49837Y-60206D01*
X49780Y-60220D01*
X49737Y-60220D01*
X49680Y-60206D01*
X49651Y-60191D01*
X49623Y-60163D01*
X49608Y-60120D01*
X49608Y-60091D01*
X49623Y-60048D01*
X49637Y-60034D01*
X49708Y-59777D02*
X49908Y-59777D01*
X49594Y-59848D02*
X49808Y-59920D01*
X49808Y-59734D01*
X46759Y-60490D02*
X46759Y-60632D01*
X46759Y-60561D02*
X46459Y-60561D01*
X46502Y-60585D01*
X46531Y-60609D01*
X46545Y-60632D01*
X46459Y-60335D02*
X46459Y-60311D01*
X46474Y-60287D01*
X46488Y-60275D01*
X46517Y-60263D01*
X46574Y-60252D01*
X46645Y-60252D01*
X46702Y-60263D01*
X46731Y-60275D01*
X46745Y-60287D01*
X46759Y-60311D01*
X46759Y-60335D01*
X46745Y-60359D01*
X46731Y-60371D01*
X46702Y-60382D01*
X46645Y-60394D01*
X46574Y-60394D01*
X46517Y-60382D01*
X46488Y-60371D01*
X46474Y-60359D01*
X46459Y-60335D01*
X46459Y-60097D02*
X46459Y-60073D01*
X46474Y-60049D01*
X46488Y-60037D01*
X46517Y-60025D01*
X46574Y-60014D01*
X46645Y-60014D01*
X46702Y-60025D01*
X46731Y-60037D01*
X46745Y-60049D01*
X46759Y-60073D01*
X46759Y-60097D01*
X46745Y-60121D01*
X46731Y-60133D01*
X46702Y-60144D01*
X46645Y-60156D01*
X46574Y-60156D01*
X46517Y-60144D01*
X46488Y-60133D01*
X46474Y-60121D01*
X46459Y-60097D01*
X46459Y-59859D02*
X46459Y-59835D01*
X46474Y-59811D01*
X46488Y-59799D01*
X46517Y-59787D01*
X46574Y-59776D01*
X46645Y-59776D01*
X46702Y-59787D01*
X46731Y-59799D01*
X46745Y-59811D01*
X46759Y-59835D01*
X46759Y-59859D01*
X46745Y-59883D01*
X46731Y-59895D01*
X46702Y-59906D01*
X46645Y-59918D01*
X46574Y-59918D01*
X46517Y-59906D01*
X46488Y-59895D01*
X46474Y-59883D01*
X46459Y-59859D01*
X46559Y-59561D02*
X46759Y-59561D01*
X46559Y-59668D02*
X46717Y-59668D01*
X46745Y-59657D01*
X46759Y-59633D01*
X46759Y-59597D01*
X46745Y-59573D01*
X46731Y-59561D01*
X46602Y-59359D02*
X46602Y-59442D01*
X46759Y-59442D02*
X46459Y-59442D01*
X46459Y-59323D01*
G54D17*
X49057Y-58364D02*
X49057Y-58135D01*
X49171Y-58249D02*
X48943Y-58249D01*
G54D23*
X18385Y-27822D02*
X18366Y-27841D01*
X18310Y-27859D01*
X18272Y-27859D01*
X18216Y-27841D01*
X18179Y-27803D01*
X18160Y-27766D01*
X18141Y-27691D01*
X18141Y-27634D01*
X18160Y-27559D01*
X18179Y-27522D01*
X18216Y-27484D01*
X18272Y-27465D01*
X18310Y-27465D01*
X18366Y-27484D01*
X18385Y-27503D01*
X18723Y-27465D02*
X18648Y-27465D01*
X18610Y-27484D01*
X18591Y-27503D01*
X18554Y-27559D01*
X18535Y-27634D01*
X18535Y-27784D01*
X18554Y-27822D01*
X18573Y-27841D01*
X18610Y-27859D01*
X18685Y-27859D01*
X18723Y-27841D01*
X18741Y-27822D01*
X18760Y-27784D01*
X18760Y-27691D01*
X18741Y-27653D01*
X18723Y-27634D01*
X18685Y-27616D01*
X18610Y-27616D01*
X18573Y-27634D01*
X18554Y-27653D01*
X18535Y-27691D01*
X19841Y-28009D02*
X19616Y-28009D01*
X19729Y-28009D02*
X19729Y-27615D01*
X19691Y-27672D01*
X19654Y-27709D01*
X19616Y-27728D01*
X20085Y-27615D02*
X20122Y-27615D01*
X20160Y-27634D01*
X20179Y-27653D01*
X20197Y-27691D01*
X20216Y-27766D01*
X20216Y-27859D01*
X20197Y-27934D01*
X20179Y-27972D01*
X20160Y-27991D01*
X20122Y-28009D01*
X20085Y-28009D01*
X20047Y-27991D01*
X20029Y-27972D01*
X20010Y-27934D01*
X19991Y-27859D01*
X19991Y-27766D01*
X20010Y-27691D01*
X20029Y-27653D01*
X20047Y-27634D01*
X20085Y-27615D01*
X20460Y-27615D02*
X20497Y-27615D01*
X20535Y-27634D01*
X20554Y-27653D01*
X20572Y-27691D01*
X20591Y-27766D01*
X20591Y-27859D01*
X20572Y-27934D01*
X20554Y-27972D01*
X20535Y-27991D01*
X20497Y-28009D01*
X20460Y-28009D01*
X20422Y-27991D01*
X20404Y-27972D01*
X20385Y-27934D01*
X20366Y-27859D01*
X20366Y-27766D01*
X20385Y-27691D01*
X20404Y-27653D01*
X20422Y-27634D01*
X20460Y-27615D01*
X20929Y-27747D02*
X20929Y-28009D01*
X20760Y-27747D02*
X20760Y-27953D01*
X20779Y-27991D01*
X20816Y-28009D01*
X20872Y-28009D01*
X20910Y-27991D01*
X20929Y-27972D01*
X21247Y-27803D02*
X21116Y-27803D01*
X21116Y-28009D02*
X21116Y-27615D01*
X21303Y-27615D01*
G54D17*
X17114Y-25507D02*
X17343Y-25507D01*
X17229Y-25621D02*
X17229Y-25393D01*
G54D21*
X16950Y-36638D02*
X16921Y-36676D01*
X16864Y-36714D01*
X16779Y-36771D01*
X16750Y-36810D01*
X16750Y-36848D01*
X16893Y-36829D02*
X16864Y-36867D01*
X16807Y-36905D01*
X16693Y-36924D01*
X16493Y-36924D01*
X16379Y-36905D01*
X16321Y-36867D01*
X16293Y-36829D01*
X16293Y-36752D01*
X16321Y-36714D01*
X16379Y-36676D01*
X16493Y-36657D01*
X16693Y-36657D01*
X16807Y-36676D01*
X16864Y-36714D01*
X16893Y-36752D01*
X16893Y-36829D01*
X16893Y-36276D02*
X16893Y-36505D01*
X16893Y-36391D02*
X16293Y-36391D01*
X16379Y-36429D01*
X16436Y-36467D01*
X16464Y-36505D01*
X17393Y-34981D02*
X17393Y-34752D01*
X17993Y-34867D02*
X17393Y-34867D01*
X17993Y-34619D02*
X17393Y-34619D01*
X17993Y-34429D02*
X17393Y-34429D01*
X17393Y-34276D01*
X17421Y-34238D01*
X17450Y-34219D01*
X17507Y-34200D01*
X17593Y-34200D01*
X17650Y-34219D01*
X17679Y-34238D01*
X17707Y-34276D01*
X17707Y-34429D01*
X17993Y-33819D02*
X17993Y-34048D01*
X17993Y-33934D02*
X17393Y-33934D01*
X17479Y-33972D01*
X17536Y-34010D01*
X17564Y-34048D01*
X17993Y-33438D02*
X17993Y-33667D01*
X17993Y-33553D02*
X17393Y-33553D01*
X17479Y-33591D01*
X17536Y-33629D01*
X17564Y-33667D01*
X17393Y-33076D02*
X17393Y-33267D01*
X17679Y-33286D01*
X17650Y-33267D01*
X17621Y-33229D01*
X17621Y-33133D01*
X17650Y-33095D01*
X17679Y-33076D01*
X17736Y-33057D01*
X17879Y-33057D01*
X17936Y-33076D01*
X17964Y-33095D01*
X17993Y-33133D01*
X17993Y-33229D01*
X17964Y-33267D01*
X17936Y-33286D01*
X16750Y-31338D02*
X16721Y-31376D01*
X16664Y-31414D01*
X16579Y-31471D01*
X16550Y-31510D01*
X16550Y-31548D01*
X16693Y-31529D02*
X16664Y-31567D01*
X16607Y-31605D01*
X16493Y-31624D01*
X16293Y-31624D01*
X16179Y-31605D01*
X16121Y-31567D01*
X16093Y-31529D01*
X16093Y-31452D01*
X16121Y-31414D01*
X16179Y-31376D01*
X16293Y-31357D01*
X16493Y-31357D01*
X16607Y-31376D01*
X16664Y-31414D01*
X16693Y-31452D01*
X16693Y-31529D01*
X16150Y-31205D02*
X16121Y-31186D01*
X16093Y-31148D01*
X16093Y-31052D01*
X16121Y-31014D01*
X16150Y-30995D01*
X16207Y-30976D01*
X16264Y-30976D01*
X16350Y-30995D01*
X16693Y-31224D01*
X16693Y-30976D01*
X17393Y-29731D02*
X17393Y-29502D01*
X17993Y-29617D02*
X17393Y-29617D01*
X17993Y-29369D02*
X17393Y-29369D01*
X17993Y-29179D02*
X17393Y-29179D01*
X17393Y-29026D01*
X17421Y-28988D01*
X17450Y-28969D01*
X17507Y-28950D01*
X17593Y-28950D01*
X17650Y-28969D01*
X17679Y-28988D01*
X17707Y-29026D01*
X17707Y-29179D01*
X17993Y-28569D02*
X17993Y-28798D01*
X17993Y-28684D02*
X17393Y-28684D01*
X17479Y-28722D01*
X17536Y-28760D01*
X17564Y-28798D01*
X17993Y-28188D02*
X17993Y-28417D01*
X17993Y-28303D02*
X17393Y-28303D01*
X17479Y-28341D01*
X17536Y-28379D01*
X17564Y-28417D01*
X17393Y-27826D02*
X17393Y-28017D01*
X17679Y-28036D01*
X17650Y-28017D01*
X17621Y-27979D01*
X17621Y-27883D01*
X17650Y-27845D01*
X17679Y-27826D01*
X17736Y-27807D01*
X17879Y-27807D01*
X17936Y-27826D01*
X17964Y-27845D01*
X17993Y-27883D01*
X17993Y-27979D01*
X17964Y-28017D01*
X17936Y-28036D01*
G54D20*
X45265Y-61819D02*
X45547Y-61819D01*
X45603Y-61837D01*
X45641Y-61875D01*
X45659Y-61931D01*
X45659Y-61969D01*
X45397Y-61462D02*
X45659Y-61462D01*
X45247Y-61556D02*
X45528Y-61650D01*
X45528Y-61406D01*
X45265Y-61181D02*
X45265Y-61144D01*
X45284Y-61106D01*
X45303Y-61087D01*
X45341Y-61069D01*
X45416Y-61050D01*
X45509Y-61050D01*
X45584Y-61069D01*
X45622Y-61087D01*
X45641Y-61106D01*
X45659Y-61144D01*
X45659Y-61181D01*
X45641Y-61219D01*
X45622Y-61237D01*
X45584Y-61256D01*
X45509Y-61275D01*
X45416Y-61275D01*
X45341Y-61256D01*
X45303Y-61237D01*
X45284Y-61219D01*
X45265Y-61181D01*
X24181Y-34565D02*
X24181Y-34847D01*
X24163Y-34903D01*
X24125Y-34941D01*
X24069Y-34959D01*
X24031Y-34959D01*
X24538Y-34697D02*
X24538Y-34959D01*
X24444Y-34547D02*
X24350Y-34828D01*
X24594Y-34828D01*
X24950Y-34959D02*
X24725Y-34959D01*
X24838Y-34959D02*
X24838Y-34565D01*
X24800Y-34622D01*
X24763Y-34659D01*
X24725Y-34678D01*
X24865Y-29919D02*
X25147Y-29919D01*
X25203Y-29937D01*
X25241Y-29975D01*
X25259Y-30031D01*
X25259Y-30069D01*
X24997Y-29562D02*
X25259Y-29562D01*
X24847Y-29656D02*
X25128Y-29750D01*
X25128Y-29506D01*
X24903Y-29375D02*
X24884Y-29356D01*
X24865Y-29319D01*
X24865Y-29225D01*
X24884Y-29187D01*
X24903Y-29169D01*
X24941Y-29150D01*
X24978Y-29150D01*
X25034Y-29169D01*
X25259Y-29394D01*
X25259Y-29150D01*
G54D11*
X20043Y-41293D02*
X20043Y-41779D01*
X20071Y-41836D01*
X20100Y-41864D01*
X20157Y-41893D01*
X20271Y-41893D01*
X20329Y-41864D01*
X20357Y-41836D01*
X20386Y-41779D01*
X20386Y-41293D01*
X20643Y-41350D02*
X20672Y-41321D01*
X20729Y-41293D01*
X20872Y-41293D01*
X20929Y-41321D01*
X20958Y-41350D01*
X20986Y-41407D01*
X20986Y-41464D01*
X20958Y-41550D01*
X20615Y-41893D01*
X20986Y-41893D01*
X16172Y-41864D02*
X16258Y-41893D01*
X16401Y-41893D01*
X16458Y-41864D01*
X16487Y-41836D01*
X16515Y-41779D01*
X16515Y-41721D01*
X16487Y-41664D01*
X16458Y-41636D01*
X16401Y-41607D01*
X16287Y-41579D01*
X16229Y-41550D01*
X16201Y-41521D01*
X16172Y-41464D01*
X16172Y-41407D01*
X16201Y-41350D01*
X16229Y-41321D01*
X16287Y-41293D01*
X16429Y-41293D01*
X16515Y-41321D01*
X16772Y-41893D02*
X16772Y-41293D01*
X16915Y-41293D01*
X17000Y-41321D01*
X17058Y-41379D01*
X17086Y-41436D01*
X17115Y-41550D01*
X17115Y-41636D01*
X17086Y-41750D01*
X17058Y-41807D01*
X17000Y-41864D01*
X16915Y-41893D01*
X16772Y-41893D01*
X17715Y-41836D02*
X17686Y-41864D01*
X17600Y-41893D01*
X17543Y-41893D01*
X17458Y-41864D01*
X17400Y-41807D01*
X17372Y-41750D01*
X17343Y-41636D01*
X17343Y-41550D01*
X17372Y-41436D01*
X17400Y-41379D01*
X17458Y-41321D01*
X17543Y-41293D01*
X17600Y-41293D01*
X17686Y-41321D01*
X17715Y-41350D01*
X17943Y-41721D02*
X18229Y-41721D01*
X17886Y-41893D02*
X18086Y-41293D01*
X18286Y-41893D01*
X18829Y-41893D02*
X18629Y-41607D01*
X18486Y-41893D02*
X18486Y-41293D01*
X18714Y-41293D01*
X18772Y-41321D01*
X18800Y-41350D01*
X18829Y-41407D01*
X18829Y-41493D01*
X18800Y-41550D01*
X18772Y-41579D01*
X18714Y-41607D01*
X18486Y-41607D01*
X19086Y-41893D02*
X19086Y-41293D01*
X19229Y-41293D01*
X19314Y-41321D01*
X19372Y-41379D01*
X19400Y-41436D01*
X19429Y-41550D01*
X19429Y-41636D01*
X19400Y-41750D01*
X19372Y-41807D01*
X19314Y-41864D01*
X19229Y-41893D01*
X19086Y-41893D01*
G54D22*
X32334Y-14502D02*
X32334Y-14860D01*
X32310Y-14931D01*
X32262Y-14979D01*
X32191Y-15002D01*
X32143Y-15002D01*
X32834Y-15002D02*
X32548Y-15002D01*
X32691Y-15002D02*
X32691Y-14502D01*
X32643Y-14574D01*
X32596Y-14621D01*
X32548Y-14645D01*
G54D19*
X32776Y-15562D02*
X32776Y-15886D01*
X32795Y-15924D01*
X32814Y-15943D01*
X32852Y-15962D01*
X32929Y-15962D01*
X32967Y-15943D01*
X32986Y-15924D01*
X33005Y-15886D01*
X33005Y-15562D01*
X33176Y-15943D02*
X33233Y-15962D01*
X33329Y-15962D01*
X33367Y-15943D01*
X33386Y-15924D01*
X33405Y-15886D01*
X33405Y-15848D01*
X33386Y-15810D01*
X33367Y-15790D01*
X33329Y-15771D01*
X33252Y-15752D01*
X33214Y-15733D01*
X33195Y-15714D01*
X33176Y-15676D01*
X33176Y-15638D01*
X33195Y-15600D01*
X33214Y-15581D01*
X33252Y-15562D01*
X33348Y-15562D01*
X33405Y-15581D01*
X33710Y-15752D02*
X33767Y-15771D01*
X33786Y-15790D01*
X33805Y-15829D01*
X33805Y-15886D01*
X33786Y-15924D01*
X33767Y-15943D01*
X33729Y-15962D01*
X33576Y-15962D01*
X33576Y-15562D01*
X33710Y-15562D01*
X33748Y-15581D01*
X33767Y-15600D01*
X33786Y-15638D01*
X33786Y-15676D01*
X33767Y-15714D01*
X33748Y-15733D01*
X33710Y-15752D01*
X33576Y-15752D01*
X33976Y-15810D02*
X34281Y-15810D01*
X34452Y-15848D02*
X34643Y-15848D01*
X34414Y-15962D02*
X34547Y-15562D01*
X34681Y-15962D01*
G54D22*
X53221Y-65422D02*
X52921Y-65422D01*
X52921Y-65350D01*
X52936Y-65307D01*
X52964Y-65279D01*
X52993Y-65264D01*
X53050Y-65250D01*
X53093Y-65250D01*
X53150Y-65264D01*
X53179Y-65279D01*
X53207Y-65307D01*
X53221Y-65350D01*
X53221Y-65422D01*
X52950Y-65136D02*
X52936Y-65122D01*
X52921Y-65093D01*
X52921Y-65022D01*
X52936Y-64993D01*
X52950Y-64979D01*
X52979Y-64964D01*
X53007Y-64964D01*
X53050Y-64979D01*
X53221Y-65150D01*
X53221Y-64964D01*
X51121Y-64821D02*
X51121Y-64964D01*
X50821Y-64964D01*
X50964Y-64721D02*
X50964Y-64621D01*
X51121Y-64578D02*
X51121Y-64721D01*
X50821Y-64721D01*
X50821Y-64578D01*
X51121Y-64450D02*
X50821Y-64450D01*
X50821Y-64378D01*
X50836Y-64335D01*
X50864Y-64307D01*
X50893Y-64292D01*
X50950Y-64278D01*
X50993Y-64278D01*
X51050Y-64292D01*
X51079Y-64307D01*
X51107Y-64335D01*
X51121Y-64378D01*
X51121Y-64450D01*
X50979Y-64092D02*
X51121Y-64092D01*
X50821Y-64192D02*
X50979Y-64092D01*
X50821Y-63992D01*
G54D21*
X19743Y-31621D02*
X19481Y-31788D01*
X19743Y-31907D02*
X19193Y-31907D01*
X19193Y-31716D01*
X19219Y-31669D01*
X19245Y-31645D01*
X19297Y-31621D01*
X19376Y-31621D01*
X19428Y-31645D01*
X19455Y-31669D01*
X19481Y-31716D01*
X19481Y-31907D01*
X19193Y-31455D02*
X19193Y-31145D01*
X19402Y-31312D01*
X19402Y-31240D01*
X19428Y-31193D01*
X19455Y-31169D01*
X19507Y-31145D01*
X19638Y-31145D01*
X19690Y-31169D01*
X19716Y-31193D01*
X19743Y-31240D01*
X19743Y-31383D01*
X19716Y-31431D01*
X19690Y-31455D01*
X19376Y-30717D02*
X19743Y-30717D01*
X19166Y-30836D02*
X19559Y-30955D01*
X19559Y-30645D01*
X18538Y-32221D02*
X18276Y-32388D01*
X18538Y-32507D02*
X17988Y-32507D01*
X17988Y-32316D01*
X18014Y-32269D01*
X18040Y-32245D01*
X18092Y-32221D01*
X18171Y-32221D01*
X18223Y-32245D01*
X18250Y-32269D01*
X18276Y-32316D01*
X18276Y-32507D01*
X17988Y-32055D02*
X17988Y-31745D01*
X18197Y-31912D01*
X18197Y-31840D01*
X18223Y-31793D01*
X18250Y-31769D01*
X18302Y-31745D01*
X18433Y-31745D01*
X18485Y-31769D01*
X18511Y-31793D01*
X18538Y-31840D01*
X18538Y-31983D01*
X18511Y-32031D01*
X18485Y-32055D01*
X17988Y-31579D02*
X17988Y-31269D01*
X18197Y-31436D01*
X18197Y-31364D01*
X18223Y-31317D01*
X18250Y-31293D01*
X18302Y-31269D01*
X18433Y-31269D01*
X18485Y-31293D01*
X18511Y-31317D01*
X18538Y-31364D01*
X18538Y-31507D01*
X18511Y-31555D01*
X18485Y-31579D01*
G54D24*
X22553Y-57593D02*
X22553Y-58081D01*
X22533Y-58178D01*
X22492Y-58243D01*
X22431Y-58276D01*
X22390Y-58276D01*
X22940Y-57821D02*
X22940Y-58276D01*
X22838Y-57560D02*
X22737Y-58048D01*
X23001Y-58048D01*
X23124Y-57593D02*
X23389Y-57593D01*
X23246Y-57853D01*
X23308Y-57853D01*
X23348Y-57886D01*
X23369Y-57918D01*
X23389Y-57983D01*
X23389Y-58146D01*
X23369Y-58211D01*
X23348Y-58243D01*
X23308Y-58276D01*
X23185Y-58276D01*
X23145Y-58243D01*
X23124Y-58211D01*
G54D11*
X51393Y-53242D02*
X50793Y-53242D01*
X50793Y-53014D01*
X50821Y-52956D01*
X50850Y-52928D01*
X50907Y-52899D01*
X50993Y-52899D01*
X51050Y-52928D01*
X51079Y-52956D01*
X51107Y-53014D01*
X51107Y-53242D01*
X51393Y-52328D02*
X51393Y-52671D01*
X51393Y-52499D02*
X50793Y-52499D01*
X50879Y-52556D01*
X50936Y-52614D01*
X50964Y-52671D01*
X48079Y-54686D02*
X48079Y-54886D01*
X48393Y-54886D02*
X47793Y-54886D01*
X47793Y-54600D01*
X48393Y-54086D02*
X48393Y-54372D01*
X47793Y-54372D01*
X48221Y-53915D02*
X48221Y-53629D01*
X48393Y-53972D02*
X47793Y-53772D01*
X48393Y-53572D01*
X47793Y-53458D02*
X47793Y-53115D01*
X48393Y-53286D02*
X47793Y-53286D01*
X48336Y-52572D02*
X48364Y-52601D01*
X48393Y-52687D01*
X48393Y-52744D01*
X48364Y-52829D01*
X48307Y-52887D01*
X48250Y-52915D01*
X48136Y-52944D01*
X48050Y-52944D01*
X47936Y-52915D01*
X47879Y-52887D01*
X47821Y-52829D01*
X47793Y-52744D01*
X47793Y-52687D01*
X47821Y-52601D01*
X47850Y-52572D01*
X47793Y-52201D02*
X47793Y-52087D01*
X47821Y-52029D01*
X47879Y-51972D01*
X47993Y-51944D01*
X48193Y-51944D01*
X48307Y-51972D01*
X48364Y-52029D01*
X48393Y-52087D01*
X48393Y-52201D01*
X48364Y-52258D01*
X48307Y-52315D01*
X48193Y-52344D01*
X47993Y-52344D01*
X47879Y-52315D01*
X47821Y-52258D01*
X47793Y-52201D01*
X48393Y-51686D02*
X47793Y-51686D01*
X48393Y-51343D01*
X47793Y-51343D01*
X48393Y-51057D02*
X47793Y-51057D01*
X48393Y-50714D01*
X47793Y-50714D01*
M02*
