M48
;DRILL file {Pcbnew (2012-02-06 BZR 3180)-stable} date Sun 03 Jun 2012 09:51:28 PM CEST
;FORMAT={-:-/ absolute / inch / decimal}
FMAT,2
INCH,TZ
T1C0.020
T2C0.025
T3C0.032
T4C0.032
T5C0.035
T6C0.035
T7C0.036
T8C0.039
T9C0.040
T10C0.045
T11C0.059
T12C0.063
T13C0.091
T14C0.128
T15C0.132
%
G90
G05
M72
T1
X1.317Y1.553
X1.317Y1.647
X1.317Y6.353
X1.317Y6.447
X1.400Y1.506
X1.400Y1.695
X1.400Y6.306
X1.400Y6.495
X1.483Y1.553
X1.483Y1.647
X1.483Y6.353
X1.483Y6.447
X5.317Y1.553
X5.317Y1.647
X5.400Y1.506
X5.400Y1.695
X5.417Y6.353
X5.417Y6.447
X5.483Y1.553
X5.483Y1.647
X5.500Y6.306
X5.500Y6.495
X5.583Y6.353
X5.583Y6.447
T2
X1.670Y2.010
X1.676Y2.272
X1.798Y2.532
X1.828Y3.561
X1.836Y3.195
X1.844Y2.858
X1.845Y2.458
X1.883Y2.638
X1.938Y4.200
X1.970Y2.380
X2.040Y3.571
X2.054Y3.171
X2.054Y3.336
X2.063Y4.651
X2.079Y3.916
X2.080Y2.000
X2.106Y2.865
X2.120Y2.623
X2.146Y3.986
X2.215Y4.055
X2.260Y3.930
X2.300Y5.435
X2.433Y3.708
X2.530Y4.695
X2.550Y4.985
X2.600Y2.160
X2.632Y6.192
X2.646Y4.782
X2.650Y2.775
X2.658Y4.508
X2.705Y4.430
X2.705Y4.782
X2.764Y4.929
X2.850Y4.850
X2.875Y6.100
X2.920Y5.175
X2.940Y5.295
X2.940Y5.445
X2.999Y4.606
X3.028Y3.577
X3.035Y5.345
X3.048Y4.498
X3.060Y2.860
X3.087Y4.694
X3.097Y4.606
X3.170Y3.818
X3.175Y6.100
X3.185Y4.694
X3.185Y5.116
X3.195Y4.093
X3.195Y4.285
X3.230Y5.220
X3.244Y4.694
X3.400Y2.610
X3.460Y2.250
X3.550Y2.330
X3.620Y2.690
X3.640Y4.650
X3.704Y4.253
X3.704Y4.782
X3.800Y5.675
X3.842Y4.900
X3.875Y2.710
X4.133Y1.883
X4.145Y4.880
X4.150Y5.610
X4.150Y6.100
X4.162Y4.366
X4.185Y5.116
X4.185Y5.253
X4.200Y6.195
X4.220Y5.340
X4.255Y5.590
X4.260Y5.855
X4.305Y4.970
X4.310Y5.685
X4.340Y5.280
X4.342Y3.175
X4.350Y4.293
X4.352Y2.199
X4.365Y5.060
X4.365Y5.725
X4.380Y5.545
X4.430Y2.341
X4.444Y5.058
X4.449Y3.321
X4.450Y5.535
X4.470Y5.400
X4.504Y2.117
X4.514Y4.110
X4.514Y3.097
X4.583Y2.055
X4.611Y5.201
X4.945Y5.685
X5.075Y4.250
X5.085Y4.150
X5.090Y4.345
X5.110Y5.330
T3
X1.700Y2.125
X1.700Y2.525
X2.140Y1.485
X2.140Y1.885
X2.225Y5.400
X2.225Y5.500
X2.225Y5.600
X2.225Y5.700
X2.250Y3.250
X2.250Y3.350
X2.250Y3.650
X2.250Y3.750
X2.385Y2.225
X2.625Y5.400
X2.625Y5.500
X2.625Y5.600
X2.625Y5.700
X2.650Y3.250
X2.650Y3.350
X2.650Y3.650
X2.650Y3.750
X2.785Y2.225
X2.800Y5.000
X2.800Y5.100
X2.800Y5.200
X2.800Y5.300
X2.800Y5.400
X2.800Y5.500
X2.800Y5.600
X2.800Y5.700
X2.890Y1.485
X2.890Y1.885
X3.100Y5.000
X3.100Y5.100
X3.100Y5.200
X3.100Y5.300
X3.100Y5.400
X3.100Y5.500
X3.100Y5.600
X3.100Y5.700
X3.300Y5.000
X3.300Y5.400
X3.400Y5.000
X3.400Y5.400
X3.400Y5.525
X3.400Y5.825
X3.500Y5.000
X3.500Y5.400
X3.500Y5.525
X3.500Y5.825
X3.600Y5.000
X3.600Y5.400
X3.600Y5.525
X3.600Y5.825
X3.700Y5.000
X3.700Y5.400
X3.700Y5.525
X3.700Y5.825
X3.800Y5.000
X3.800Y5.400
X3.800Y5.525
X3.800Y5.825
X3.900Y5.000
X3.900Y5.400
X3.900Y5.525
X3.900Y5.825
X4.000Y5.000
X4.000Y5.400
X4.000Y5.525
X4.000Y5.825
X4.050Y1.750
X4.050Y2.050
X4.100Y5.000
X4.100Y5.400
X4.100Y5.525
X4.100Y5.825
X4.150Y1.750
X4.150Y2.050
X4.250Y1.750
X4.250Y2.050
X4.250Y2.450
X4.250Y2.850
X4.250Y4.450
X4.250Y4.850
X4.350Y1.750
X4.350Y2.050
X4.350Y2.450
X4.350Y2.850
X4.350Y3.450
X4.350Y3.850
X4.350Y4.450
X4.350Y4.850
X4.450Y2.450
X4.450Y2.850
X4.450Y3.450
X4.450Y3.850
X4.450Y4.450
X4.450Y4.850
X4.475Y1.750
X4.550Y4.450
X4.550Y4.850
X4.875Y1.750
X5.200Y5.900
X5.200Y6.300
T4
X1.560Y2.080
X1.560Y2.280
X1.832Y2.990
X1.832Y3.390
X1.840Y2.120
X1.840Y2.260
X1.900Y2.550
X1.952Y2.930
X1.952Y3.330
X2.038Y2.550
X2.040Y2.120
X2.040Y2.260
X2.416Y5.777
X2.416Y5.877
X2.416Y5.977
X2.516Y5.877
X2.940Y2.040
X2.940Y2.240
X3.130Y2.160
X3.130Y2.260
X4.250Y2.250
X4.250Y2.350
X4.720Y1.950
X4.720Y2.050
X4.720Y2.150
X4.720Y2.250
X4.720Y2.350
X4.720Y2.450
X4.720Y2.550
X4.720Y2.650
X4.725Y2.950
X4.725Y3.050
X4.725Y3.150
X4.725Y3.250
X4.725Y3.350
X4.725Y3.450
X4.725Y3.550
X4.725Y3.650
X4.725Y3.950
X4.725Y4.050
X4.725Y4.150
X4.725Y4.250
X4.725Y4.350
X4.725Y4.450
X4.725Y4.550
X4.725Y4.650
X4.725Y4.950
X4.725Y5.050
X4.725Y5.150
X4.725Y5.250
X4.725Y5.350
X4.725Y5.450
X4.725Y5.550
X4.725Y5.650
X4.900Y5.900
X4.900Y6.097
X4.915Y5.030
X4.915Y5.130
X4.915Y5.230
X4.915Y5.330
X4.915Y5.430
X4.915Y5.530
X5.015Y5.080
X5.015Y5.180
X5.015Y5.280
X5.015Y5.380
X5.015Y5.480
X5.015Y5.580
X5.200Y6.400
X5.200Y6.500
X5.220Y1.950
X5.220Y2.050
X5.220Y2.150
X5.220Y2.250
X5.220Y2.350
X5.220Y2.450
X5.220Y2.550
X5.220Y2.650
X5.225Y2.950
X5.225Y3.050
X5.225Y3.150
X5.225Y3.250
X5.225Y3.350
X5.225Y3.450
X5.225Y3.550
X5.225Y3.650
X5.225Y3.950
X5.225Y4.050
X5.225Y4.150
X5.225Y4.250
X5.225Y4.350
X5.225Y4.450
X5.225Y4.550
X5.225Y4.650
X5.225Y4.950
X5.225Y5.050
X5.225Y5.150
X5.225Y5.250
X5.225Y5.350
X5.225Y5.450
X5.225Y5.550
X5.225Y5.650
X5.350Y5.900
X5.350Y6.100
T6
X2.335Y1.995
X2.385Y1.895
X2.435Y1.995
X2.485Y1.895
X2.535Y1.995
X2.585Y1.895
X2.635Y1.995
X2.685Y1.895
T7
X3.223Y1.722
X3.321Y1.722
X3.400Y1.722
X3.498Y1.722
T8
X1.300Y2.055
X1.300Y2.155
X1.300Y2.255
X1.300Y2.355
X1.300Y2.850
X1.300Y2.950
X1.300Y3.050
X1.300Y3.150
X1.300Y3.625
X1.300Y3.725
X1.300Y3.825
X1.300Y3.925
X1.325Y5.625
X1.325Y5.725
X1.325Y5.825
X1.325Y5.925
X1.790Y1.540
X1.850Y6.500
X1.890Y1.540
X1.950Y6.500
X2.050Y6.500
X2.150Y6.500
X2.250Y2.550
X2.250Y2.650
X2.250Y2.750
X2.350Y3.480
X2.450Y3.480
X2.510Y2.860
X2.510Y2.960
X2.510Y3.060
X2.550Y3.480
X2.800Y2.850
X2.800Y2.950
X2.800Y3.050
X2.800Y3.150
X2.800Y3.250
X2.800Y3.350
X2.800Y3.450
X2.800Y3.550
X2.800Y3.650
X2.800Y3.750
X2.800Y3.850
X2.800Y3.950
X2.800Y4.050
X2.800Y4.150
X2.800Y4.250
X2.800Y4.350
X2.800Y4.450
X2.800Y4.550
X2.800Y4.650
X2.800Y4.750
X2.900Y2.850
X2.900Y2.950
X2.900Y3.050
X2.900Y3.150
X2.900Y3.250
X2.900Y3.350
X2.900Y3.450
X2.900Y3.550
X2.900Y3.650
X2.900Y3.750
X2.900Y3.850
X2.900Y3.950
X2.900Y4.050
X2.900Y4.150
X2.900Y4.250
X2.900Y4.350
X2.900Y4.450
X2.900Y4.550
X2.900Y4.650
X2.900Y4.750
X3.050Y6.500
X3.150Y6.500
X3.250Y6.500
X3.350Y6.500
X3.800Y2.850
X3.800Y2.950
X3.800Y3.050
X3.800Y3.150
X3.800Y3.250
X3.800Y3.350
X3.800Y3.450
X3.800Y3.550
X3.800Y3.650
X3.800Y3.750
X3.800Y3.850
X3.800Y3.950
X3.800Y4.050
X3.800Y4.150
X3.800Y4.250
X3.800Y4.350
X3.800Y4.450
X3.800Y4.550
X3.800Y4.650
X3.800Y4.750
X3.850Y6.500
X3.900Y2.850
X3.900Y2.950
X3.900Y3.050
X3.900Y3.150
X3.900Y3.250
X3.900Y3.350
X3.900Y3.450
X3.900Y3.550
X3.900Y3.650
X3.900Y3.750
X3.900Y3.850
X3.900Y3.950
X3.900Y4.050
X3.900Y4.150
X3.900Y4.250
X3.900Y4.350
X3.900Y4.450
X3.900Y4.550
X3.900Y4.650
X3.900Y4.750
X3.950Y6.500
X4.050Y6.500
X4.150Y6.500
X4.250Y1.500
X4.350Y1.500
X4.450Y1.500
X4.550Y1.500
X4.550Y6.100
X4.550Y6.200
X4.650Y6.500
X4.750Y6.500
X4.850Y6.500
X5.500Y2.100
X5.500Y2.200
X5.500Y2.300
X5.500Y2.400
X5.500Y2.500
X5.500Y3.100
X5.500Y3.200
X5.500Y3.300
X5.500Y3.400
X5.500Y3.500
X5.500Y4.100
X5.500Y4.200
X5.500Y4.300
X5.500Y4.400
X5.500Y4.500
X5.500Y5.100
X5.500Y5.200
X5.500Y5.300
X5.500Y5.400
X5.500Y5.500
T9
X2.250Y1.485
X2.349Y1.485
X2.671Y1.485
X2.770Y1.485
T10
X1.625Y2.775
X1.625Y2.875
X1.625Y2.975
X1.625Y3.300
X1.625Y3.400
X1.625Y3.500
X1.740Y1.860
X1.840Y1.860
X1.940Y1.860
T11
X1.400Y1.905
X1.400Y2.105
X1.400Y2.305
X1.400Y2.505
X1.400Y2.700
X1.400Y2.900
X1.400Y3.100
X1.400Y3.300
X1.400Y3.475
X1.400Y3.675
X1.400Y3.875
X1.400Y4.075
X1.425Y5.475
X1.425Y5.675
X1.425Y5.875
X1.425Y6.075
X1.700Y6.400
X1.740Y1.640
X1.900Y6.400
X1.940Y1.640
X2.100Y6.400
X2.300Y6.400
X2.900Y6.400
X3.100Y6.400
X3.300Y6.400
X3.500Y6.400
X3.700Y6.400
X3.900Y6.400
X4.100Y1.600
X4.100Y6.400
X4.300Y1.600
X4.300Y6.400
X4.500Y1.600
X4.550Y6.400
X4.700Y1.600
X4.750Y6.400
X4.950Y6.400
X5.400Y1.900
X5.400Y2.100
X5.400Y2.300
X5.400Y2.500
X5.400Y2.700
X5.400Y2.900
X5.400Y3.100
X5.400Y3.300
X5.400Y3.500
X5.400Y3.700
X5.400Y3.900
X5.400Y4.100
X5.400Y4.300
X5.400Y4.500
X5.400Y4.700
X5.400Y4.900
X5.400Y5.100
X5.400Y5.300
X5.400Y5.500
X5.400Y5.700
T12
X2.200Y1.765
X2.820Y1.765
T13
X3.102Y1.615
X3.619Y1.615
T14
X2.285Y1.645
X2.735Y1.645
T15
X1.400Y1.600
X1.400Y6.400
X5.400Y1.600
X5.500Y6.400
T5
X1.271Y5.276G85X1.252Y5.276
G05
X1.248Y4.208G85X1.295Y4.208
G05
X2.322Y5.196G85X2.322Y5.215
G05
X2.346Y4.544G85X2.327Y4.544
G05
X2.346Y4.846G85X2.327Y4.846
G05
X2.408Y4.267G85X2.408Y4.287
G05
T0
M30
