G04 (created by PCBNEW-RS274X (2012-02-06 BZR 3180)-stable) date Sun 03 Jun 2012 09:51:07 PM CEST*
G01*
G70*
G90*
%MOIN*%
G04 Gerber Fmt 3.4, Leading zero omitted, Abs format*
%FSLAX34Y34*%
G04 APERTURE LIST*
%ADD10C,0.006000*%
%ADD11R,0.057000X0.047200*%
%ADD12R,0.047200X0.057000*%
G04 APERTURE END LIST*
G54D10*
G54D11*
X36550Y-28900D03*
X36550Y-29500D03*
G54D12*
X52200Y-18400D03*
X52800Y-18400D03*
X52800Y-27500D03*
X52200Y-27500D03*
G54D11*
X55000Y-28450D03*
X55000Y-29050D03*
G54D12*
X52800Y-37500D03*
X52200Y-37500D03*
G54D11*
X55000Y-37850D03*
X55000Y-38450D03*
G54D12*
X52800Y-47500D03*
X52200Y-47500D03*
G54D11*
X55000Y-48200D03*
X55000Y-48800D03*
G54D12*
X52850Y-57500D03*
X52250Y-57500D03*
X50240Y-22750D03*
X49590Y-24300D03*
X49590Y-22750D03*
X50240Y-23550D03*
X49590Y-23550D03*
X50240Y-24300D03*
X49620Y-34210D03*
X50270Y-32660D03*
X50270Y-34210D03*
X49620Y-33410D03*
X50270Y-33410D03*
X49620Y-32660D03*
X49560Y-44250D03*
X50210Y-42700D03*
X50210Y-44250D03*
X49560Y-43450D03*
X50210Y-43450D03*
X49560Y-42700D03*
X44550Y-58050D03*
X45200Y-56500D03*
X45200Y-58050D03*
X44550Y-57250D03*
X45200Y-57250D03*
X44550Y-56500D03*
G54D11*
X45840Y-22635D03*
X44290Y-21985D03*
X45840Y-21985D03*
X45040Y-22635D03*
X45040Y-21985D03*
X44290Y-22635D03*
X45900Y-32400D03*
X44350Y-31750D03*
X45900Y-31750D03*
X45100Y-32400D03*
X45100Y-31750D03*
X44350Y-32400D03*
X45940Y-42695D03*
X44390Y-42045D03*
X45940Y-42045D03*
X45140Y-42695D03*
X45140Y-42045D03*
X44390Y-42695D03*
X45165Y-51995D03*
X43615Y-51345D03*
X45165Y-51345D03*
X44365Y-51995D03*
X44365Y-51345D03*
X43615Y-51995D03*
M02*
