<?xml version="1.0" encoding="UTF-8" standalone="no"?>
<!-- Created with Inkscape (http://www.inkscape.org/) -->

<svg
   xmlns:dc="http://purl.org/dc/elements/1.1/"
   xmlns:cc="http://creativecommons.org/ns#"
   xmlns:rdf="http://www.w3.org/1999/02/22-rdf-syntax-ns#"
   xmlns:svg="http://www.w3.org/2000/svg"
   xmlns="http://www.w3.org/2000/svg"
   xmlns:sodipodi="http://sodipodi.sourceforge.net/DTD/sodipodi-0.dtd"
   xmlns:inkscape="http://www.inkscape.org/namespaces/inkscape"
   width="520.76819"
   height="431.95319"
   id="svg6120"
   version="1.1"
   inkscape:version="0.48.4 r9939"
   sodipodi:docname="laoslaser-logo moeder bestand.svg"
   inkscape:export-filename="D:\laoslaser-logo.png"
   inkscape:export-xdpi="200"
   inkscape:export-ydpi="200">
  <defs
     id="defs6122">
    <inkscape:perspective
       sodipodi:type="inkscape:persp3d"
       inkscape:vp_x="0 : 526.18109 : 1"
       inkscape:vp_y="0 : 1000 : 0"
       inkscape:vp_z="744.09448 : 526.18109 : 1"
       inkscape:persp3d-origin="372.04724 : 350.78739 : 1"
       id="perspective6128" />
    <inkscape:perspective
       id="perspective6113"
       inkscape:persp3d-origin="0.5 : 0.33333333 : 1"
       inkscape:vp_z="1 : 0.5 : 1"
       inkscape:vp_y="0 : 1000 : 0"
       inkscape:vp_x="0 : 0.5 : 1"
       sodipodi:type="inkscape:persp3d" />
    <inkscape:perspective
       id="perspective6159"
       inkscape:persp3d-origin="0.5 : 0.33333333 : 1"
       inkscape:vp_z="1 : 0.5 : 1"
       inkscape:vp_y="0 : 1000 : 0"
       inkscape:vp_x="0 : 0.5 : 1"
       sodipodi:type="inkscape:persp3d" />
    <inkscape:perspective
       id="perspective6231"
       inkscape:persp3d-origin="0.5 : 0.33333333 : 1"
       inkscape:vp_z="1 : 0.5 : 1"
       inkscape:vp_y="0 : 1000 : 0"
       inkscape:vp_x="0 : 0.5 : 1"
       sodipodi:type="inkscape:persp3d" />
    <inkscape:perspective
       id="perspective6299"
       inkscape:persp3d-origin="0.5 : 0.33333333 : 1"
       inkscape:vp_z="1 : 0.5 : 1"
       inkscape:vp_y="0 : 1000 : 0"
       inkscape:vp_x="0 : 0.5 : 1"
       sodipodi:type="inkscape:persp3d" />
    <inkscape:perspective
       id="perspective6333"
       inkscape:persp3d-origin="0.5 : 0.33333333 : 1"
       inkscape:vp_z="1 : 0.5 : 1"
       inkscape:vp_y="0 : 1000 : 0"
       inkscape:vp_x="0 : 0.5 : 1"
       sodipodi:type="inkscape:persp3d" />
    <inkscape:perspective
       id="perspective6909"
       inkscape:persp3d-origin="0.5 : 0.33333333 : 1"
       inkscape:vp_z="1 : 0.5 : 1"
       inkscape:vp_y="0 : 1000 : 0"
       inkscape:vp_x="0 : 0.5 : 1"
       sodipodi:type="inkscape:persp3d" />
    <inkscape:perspective
       id="perspective2878"
       inkscape:persp3d-origin="0.5 : 0.33333333 : 1"
       inkscape:vp_z="1 : 0.5 : 1"
       inkscape:vp_y="0 : 1000 : 0"
       inkscape:vp_x="0 : 0.5 : 1"
       sodipodi:type="inkscape:persp3d" />
  </defs>
  <sodipodi:namedview
     id="base"
     pagecolor="#47b83d"
     bordercolor="#666666"
     borderopacity="1.0"
     inkscape:pageopacity="0"
     inkscape:pageshadow="2"
     inkscape:zoom="2.2501767"
     inkscape:cx="178.27197"
     inkscape:cy="229.94031"
     inkscape:document-units="px"
     inkscape:current-layer="layer1"
     showgrid="false"
     inkscape:window-width="1440"
     inkscape:window-height="852"
     inkscape:window-x="-3"
     inkscape:window-y="-3"
     inkscape:window-maximized="1"
     showguides="true"
     inkscape:guide-bbox="true"
     inkscape:snap-to-guides="false"
     units="cm"
     fit-margin-left="0.5"
     fit-margin-top="0.5"
     fit-margin-right="0.5"
     fit-margin-bottom="0.5" />
  <metadata
     id="metadata6125">
    <rdf:RDF>
      <cc:Work
         rdf:about="">
        <dc:format>image/svg+xml</dc:format>
        <dc:type
           rdf:resource="http://purl.org/dc/dcmitype/StillImage" />
        <dc:title></dc:title>
      </cc:Work>
    </rdf:RDF>
  </metadata>
  <g
     inkscape:groupmode="layer"
     id="layer2"
     inkscape:label="letters"
     style="display:none"
     transform="translate(-45.713715,-427.0348)">
    <path
       inkscape:connector-curvature="0"
       id="path3805-1"
       style="font-size:39.11067581px;font-style:normal;font-variant:normal;font-weight:normal;font-stretch:normal;line-height:125%;letter-spacing:0px;word-spacing:0px;fill:#ffffff;fill-opacity:1;stroke:#000000;stroke-width:0.99373817;font-family:Arial Black;-inkscape-font-specification:Arial Black"
       d="m 194.71044,629.84971 9.43874,0 0,19.09948 14.7311,0 0,6.23973 -24.16984,0 z" />
    <path
       inkscape:connector-curvature="0"
       id="path3807-7"
       style="font-size:39.11067581px;font-style:normal;font-variant:normal;font-weight:normal;font-stretch:normal;line-height:125%;letter-spacing:0px;word-spacing:0px;fill:#ffffff;fill-opacity:1;stroke:#000000;stroke-width:0.99373817;font-family:Arial Black;-inkscape-font-specification:Arial Black"
       d="m 240.79723,650.83519 -10.75141,0 -1.47936,4.18288 -9.64709,0 11.48067,-25.33921 10.29301,0 11.48067,25.33921 -9.87629,0 z m -1.97943,-5.47921 -3.37543,-9.10897 -3.35461,9.10897 z" />
    <path
       inkscape:connector-curvature="0"
       id="path3809-4"
       style="font-size:39.11067581px;font-style:normal;font-variant:normal;font-weight:normal;font-stretch:normal;line-height:125%;letter-spacing:0px;word-spacing:0px;fill:#ffffff;fill-opacity:1;stroke:#000000;stroke-width:0.99373817;font-family:Arial Black;-inkscape-font-specification:Arial Black"
       d="m 249.66119,642.36576 c 0,-4.13677 1.38907,-7.35747 4.16722,-9.66209 2.77814,-2.30459 6.64669,-3.4569 11.60568,-3.45692 5.08398,2e-5 9.00115,1.13216 11.75154,3.39642 2.75033,2.2643 4.12551,5.43602 4.12554,9.51516 -3e-5,2.96144 -0.60081,5.38993 -1.80232,7.28545 -1.20158,1.89555 -2.93791,3.3705 -5.20901,4.42486 -2.27116,1.05436 -5.10139,1.58154 -8.49069,1.58154 -3.44492,0 -6.29598,-0.45516 -8.55321,-1.36548 -2.25725,-0.91032 -4.08735,-2.3507 -5.4903,-4.32115 -1.40297,-1.97043 -2.10445,-4.43636 -2.10445,-7.39779 z m 9.43874,0.0346 c -10e-6,2.55813 0.57299,4.39605 1.71897,5.51378 1.14598,1.11775 2.70521,1.67661 4.6777,1.67661 2.02803,0 3.59768,-0.54733 4.70896,-1.64204 1.11122,-1.09468 1.66685,-3.05937 1.66688,-5.89405 -3e-5,-2.38525 -0.57997,-4.12811 -1.73981,-5.22858 -1.1599,-1.10043 -2.73302,-1.65066 -4.71938,-1.65068 -1.90303,2e-5 -3.43101,0.55888 -4.58393,1.6766 -1.15293,1.11776 -1.7294,2.96721 -1.72939,5.54836 z" />
    <path
       inkscape:connector-curvature="0"
       id="path3811-0"
       style="font-size:39.11067581px;font-style:normal;font-variant:normal;font-weight:normal;font-stretch:normal;line-height:125%;letter-spacing:0px;word-spacing:0px;fill:#ffffff;fill-opacity:1;stroke:#000000;stroke-width:0.99373817;font-family:Arial Black;-inkscape-font-specification:Arial Black"
       d="m 281.50359,646.29334 8.98034,-0.46668 c 0.19446,1.20993 0.59034,2.13177 1.18766,2.76553 0.97233,1.02556 2.3614,1.53833 4.16721,1.53833 1.34738,0 2.38571,-0.26214 3.11499,-0.78645 0.72924,-0.52429 1.09387,-1.13213 1.09389,-1.82352 -2e-5,-0.65681 -0.34729,-1.24449 -1.0418,-1.76303 -0.69456,-0.51853 -2.30588,-1.00826 -4.83397,-1.46919 -4.13944,-0.77203 -7.09121,-1.79758 -8.85532,-3.07665 -1.77802,-1.27904 -2.66702,-2.90957 -2.66702,-4.89154 0,-1.30208 0.45492,-2.53217 1.36476,-3.69027 0.90984,-1.15804 2.27807,-2.06836 4.10471,-2.73095 1.82662,-0.66256 4.33041,-0.99385 7.5114,-0.99387 3.90327,2e-5 6.87935,0.6021 8.92825,1.80624 2.04885,1.20418 3.26776,3.11988 3.65673,5.74712 l -8.897,0.43212 c -0.23616,-1.14077 -0.73275,-1.97042 -1.48978,-2.48898 -0.75706,-0.51852 -1.80233,-0.77779 -3.13583,-0.77781 -1.09737,2e-5 -1.92387,0.19303 -2.47949,0.57904 -0.55564,0.38603 -0.83345,0.85561 -0.83344,1.40869 -1e-5,0.40333 0.22919,0.7663 0.68759,1.08893 0.44449,0.33418 1.50018,0.6453 3.16708,0.93337 4.12552,0.73749 7.08077,1.4836 8.86575,2.23835 1.78492,0.75477 3.0837,1.69102 3.89634,2.80874 0.81258,1.11775 1.21888,2.36801 1.21891,3.75076 -3e-5,1.62475 -0.54177,3.12275 -1.62521,4.49399 -1.08351,1.37126 -2.59759,2.41121 -4.54227,3.11988 -1.94472,0.70867 -4.39642,1.06299 -7.35512,1.06299 -5.19514,0 -8.79283,-0.82965 -10.79308,-2.48897 -2.00027,-1.65932 -3.13236,-3.76805 -3.39628,-6.32617 z" />
  </g>
  <g
     inkscape:groupmode="layer"
     id="layer4"
     inkscape:label="Laseren"
     style="display:none">
    <path
       style="font-size:39.11067581px;font-style:normal;font-variant:normal;font-weight:normal;font-stretch:normal;line-height:125%;letter-spacing:0px;word-spacing:0px;fill:#ffffff;stroke:#ff0000;stroke-width:0.70999998;stroke-miterlimit:4;stroke-dasharray:none;display:inline;font-family:Arial Black;-inkscape-font-specification:Arial Black"
       d="m 331.45359,243.79717 -3.2156,10.63609 -62.0547,-17.94143 -2.6277,6.19226 111.6792,63.69297 -9.3994,13.85167 -107.1098,-66.27842 -3.951,4.93528 46.0074,47.98618 -7.1732,6.43113 -46.0868,-47.88632 -5.1149,4.35248 66.0428,112.79223 -13.8517,6.92584 -61.9345,-114.33092 -4.3557,1.78604 16.3252,65.30077 -10.6361,2.47353 -16.64608,-64.49905 -6.53,1.32447 2.64588,131.6909 -15.0884,0.24734 1.68784,-131.92201 -6.14014,-0.90564 -17.0673,65.30076 -8.9046,-3.95761 16.3484,-64.17662 -2.7441,-0.87681 -62.0852,113.53429 -15.8305,-7.91524 66.8106,-111.07623 -4.478,-4.68422 -45.2653,44.77059 -6.1838,-6.18378 42.4108,-46.1223 -3.3293,-4.33738 -104.382297,64.31136 -7.9152,-15.83049 105.510997,-59.94563 -1.7458,-4.14337 -58.499897,14.86608 -2.4735,-10.88347 58.318997,-13.74321 -0.1915,-7.28166 -123.923007,1.48412 0.24737,-16.32519 123.405887,2.69587 1.01185,-5.91144 -56.890797,-17.3146 2.7208,-9.89406 57.198897,17.0062 2.4128,-5.62803 -107.103097,-61.83785 7.4205,-14.09902 106.855797,65.79547 2.9926,-4.09743 -44.795,-47.10431 7.4206,-7.91525 46.12988,47.56019 4.57712,-3.03694 -66.2902,-111.555461 13.357,-7.91525 63.0349,114.271461 3.5026,-1.35684 -17.0672,-64.928461 11.3782,-1.97881 16.1582,64.782441 4.6193,-0.96579 -2.9682,-135.548551 17.8093,0 -3.98574,136.386201 5.6922,0.96624 15.36074,-66.609941 11.1308,2.47351 -17.26358,65.469141 4.89598,2.18017 60.8485,-116.130191 15.3358,7.91525 -66.44492,113.682481 4.1623,2.77005 45.46272,-48.67826 7.9152,7.42055 -45.62478,48.54548 3.10532,3.64565 108.80966,-67.0322 8.4099,12.86227 -111.0607,64.31136 2.46306,3.67572 61.84824,-16.0433 2.772,9.5136 -65.08386,17.02043 10.1359,0.0446 0,18.49943 15.36842,0 9.3275,-18.49943 11.11168,0 8.04414,15.99951 9.35885,-0.43749 c 0.20954,1.17185 0.63973,2.04236 1.28326,2.65617 1.04779,0.99328 2.56142,1.49997 4.50725,1.49996 1.45184,1e-5 2.56262,-0.24219 3.34919,-0.74998 0.78566,-0.50778 1.15806,-1.11158 1.15806,-1.7812 0,-0.63612 -0.34706,-1.21648 -1.09556,-1.71869 -0.7481,-0.50221 -2.50293,-0.9598 -5.22711,-1.40621 -4.46027,-0.74774 -7.64499,-1.72986 -9.54665,-2.96866 -1.91588,-1.23878 -2.84828,-2.83028 -2.84828,-4.74986 0,-1.26108 0.49149,-2.44076 1.47106,-3.56239 0.98038,-1.12158 2.44513,-2.01443 4.4134,-2.65617 1.96827,-0.64169 4.67913,-0.93745 8.10674,-0.93747 4.20587,2e-5 7.36945,0.55247 9.57801,1.7187 2.20765,1.16628 3.55592,3.01781 3.97509,5.56233 l -9.57791,0.43749 c -0.25451,-1.10485 -0.8119,-1.90397 -1.62761,-2.40618 -0.81572,-0.50221 -1.94363,-0.74996 -3.38044,-0.74998 -1.1825,2e-5 -2.06262,0.15738 -2.66048,0.53124 -0.59896,0.37388 -0.90776,0.83928 -0.90776,1.37495 0,0.39061 0.25721,0.74999 0.75121,1.06247 0.47897,0.32364 1.6154,0.62725 3.41179,0.90622 4.44515,0.71428 7.62316,1.42521 9.54655,2.15619 1.92329,0.73103 3.31864,1.63614 4.19425,2.71867 0.13301,0.16436 0.26292,0.36096 0.3756,0.53123 l 0,-13.03085 27.2313,0 15.30582,0 c 3.14345,2e-5 5.50636,0.19201 7.16783,0.59373 1.66137,0.40181 3.01905,1.16184 4.03779,2.24993 1.01774,1.08816 1.53367,2.40621 1.53367,3.96863 0,1.36155 -0.41106,2.54349 -1.18941,3.53114 -0.77836,0.98771 -1.83065,1.79237 -3.19264,2.40618 -0.8682,0.3906 -2.05651,0.71206 -3.56824,0.96872 1.21235,0.30134 2.07534,0.60489 2.62923,0.90622 0.3741,0.20088 0.94712,0.62277 1.65897,1.28121 0.71074,0.65847 1.16898,1.17409 1.40846,1.53121 l 3.50564,5.06234 0,-4.7811 7.85644,0 c -0.92048,-1.65366 -1.40857,-3.60552 -1.40857,-5.84357 0,-4.00651 1.48289,-7.14264 4.4759,-9.37472 2.99422,-2.23202 7.17735,-3.31238 12.52014,-3.3124 5.47821,2e-5 9.71302,1.08819 12.67669,3.28115 1.11129,0.82238 2.02906,1.74287 2.72308,2.81242 l 0,-5.28109 16.93354,0 c 3.14315,2e-5 5.56915,0.19201 7.23033,0.59373 1.66197,0.40181 2.9894,1.16184 4.00644,2.24993 0.4945,0.52827 0.8728,1.10991 1.12681,1.74995 1.47387,-1.84297 3.56904,-3.24088 6.29142,-4.21862 2.23019,-0.79236 5.21219,-1.18745 8.98315,-1.18747 3.63775,2e-5 6.33539,0.2277 8.13809,0.71873 1.8044,0.49107 3.31804,1.24888 4.50725,2.28118 1.19001,1.03234 2.09227,2.35266 2.69193,3.93738 l -9.82841,1.31246 c -0.40415,-0.92628 -1.06902,-1.66511 -2.03447,-2.15618 -0.96535,-0.49103 -2.19683,-0.7187 -3.69344,-0.71873 -2.23029,3e-5 -4.02858,0.59488 -5.35231,1.74994 -1.32493,1.1551 -1.97197,2.9687 -1.97197,5.46859 0,2.65616 0.66357,4.54899 2.00322,5.68733 1.33955,1.13834 3.20706,1.71869 5.60281,1.71869 1.13683,0 2.22158,-0.12944 3.25524,-0.37499 1.03266,-0.24551 2.23629,-0.6897 3.56814,-1.28121 l 0,-2.28118 -6.82338,0 0,-5.12484 15.74403,0 0,10.46843 c -3.00864,1.52897 -5.70047,2.57247 -8.01289,3.1249 -2.31252,0.55243 -5.05974,0.81248 -8.23194,0.81248 -3.90669,0 -7.0845,-0.47546 -9.54666,-1.46871 -2.46226,-0.99326 -4.37423,-2.47315 -5.72791,-4.43736 -1.35178,-1.95928 -2.00322,-4.21305 -2.00322,-6.74979 -0.46175,0.31594 -0.97317,0.62234 -1.53377,0.87497 -0.8681,0.3906 -2.05651,0.71206 -3.56824,0.96872 1.21235,0.30134 2.10709,0.60489 2.66048,0.90622 0.3743,0.20088 0.88542,0.62277 1.59637,1.28121 0.71094,0.65847 1.20033,1.17409 1.43981,1.53121 l 4.91421,7.09353 -11.48728,0 -5.44626,-7.49977 c -0.68851,-0.97094 -1.27665,-1.58476 -1.81542,-1.87494 -0.73348,-0.37944 -1.57603,-0.56249 -2.50403,-0.56249 l -0.90766,0 0,9.9372 -10.20401,0 0,-6.12481 c -0.0721,0.11232 -0.14193,0.20381 -0.21905,0.31249 -1.29478,1.83587 -3.15588,3.29121 -5.60271,4.31237 -2.44764,1.02115 -5.51898,1.49995 -9.17105,1.49995 -3.71198,0 -6.77009,-0.43081 -9.20231,-1.31246 -1.89484,-0.68687 -3.51455,-1.6899 -4.8516,-2.99991 l 0,4.31237 -8.35714,0 -11.51853,0 -5.44626,-7.49977 c -0.68851,-0.97094 -1.3071,-1.58476 -1.84677,-1.87494 -0.73338,-0.37944 -1.54468,-0.56249 -2.47268,-0.56249 l -0.90776,0 0,9.9372 -8.04413,0 -27.73211,0 0,-5.09359 c -0.22416,0.36068 -0.51122,0.71827 -0.81381,1.06246 -1.16748,1.32806 -2.78738,2.34482 -4.88285,3.03116 -2.09547,0.68637 -4.73171,0.99997 -7.91894,0.99997 -5.5983,0 -9.48916,-0.76785 -11.64373,-2.37493 -0.15154,-0.11294 -0.29507,-0.25776 -0.4383,-0.37499 l 1.40856,2.74992 -10.64211,0 -1.62762,-4.03113 -11.58113,0 -1.59637,4.03113 -6.85472,0 -26.02908,-0.13508 z"
       id="path3809-4-8-1"
       inkscape:connector-curvature="0" />
    <path
       inkscape:connector-curvature="0"
       id="path3805-1-1"
       style="font-size:39.11067581px;font-style:normal;font-variant:normal;font-weight:normal;font-stretch:normal;line-height:125%;letter-spacing:0px;word-spacing:0px;fill:#ffffff;fill-opacity:1;stroke:#000000;stroke-width:0.97692996;display:inline;font-family:Arial Black;-inkscape-font-specification:Arial Black"
       d="m 148.81927,203.13994 9.44012,0 0,18.45613 14.73326,0 0,6.02955 -24.17338,0 z" />
    <path
       inkscape:connector-curvature="0"
       id="path3807-7-7"
       style="font-size:39.11067581px;font-style:normal;font-variant:normal;font-weight:normal;font-stretch:normal;line-height:125%;letter-spacing:0px;word-spacing:0px;fill:#ffffff;fill-opacity:1;stroke:#000000;stroke-width:0.97692996;display:inline;font-family:Arial Black;-inkscape-font-specification:Arial Black"
       d="m 194.91282,223.41855 -10.75299,0 -1.47957,4.04198 -9.64851,0 11.48235,-24.48568 10.29453,0 11.48235,24.48568 -9.87774,0 z m -1.97972,-5.29465 -3.37593,-8.80215 -3.3551,8.80215 z" />
    <path
       inkscape:connector-curvature="0"
       id="path3809-4-4"
       style="font-size:39.11067581px;font-style:normal;font-variant:normal;font-weight:normal;font-stretch:normal;line-height:125%;letter-spacing:0px;word-spacing:0px;fill:#ffffff;fill-opacity:1;stroke:#000000;stroke-width:0.97692996;display:inline;font-family:Arial Black;-inkscape-font-specification:Arial Black"
       d="m 203.77808,215.2344 c 0,-3.99743 1.38928,-7.10964 4.16783,-9.33663 2.77855,-2.22696 6.64767,-3.34046 11.60739,-3.34048 5.08472,2e-5 9.00247,1.09402 11.75326,3.28202 2.75074,2.18802 4.12612,5.25291 4.12615,9.19465 -3e-5,2.86168 -0.6009,5.20837 -1.80259,7.04004 -1.20175,1.8317 -2.93834,3.25697 -5.20977,4.27582 -2.27149,1.01884 -5.10214,1.52826 -8.49194,1.52826 -3.44542,0 -6.2969,-0.43982 -8.55446,-1.31948 -2.25758,-0.87966 -4.08795,-2.27152 -5.49111,-4.1756 -1.40317,-1.90406 -2.10476,-4.28692 -2.10476,-7.1486 z m 9.44013,0.0334 c -1e-5,2.47197 0.57307,4.24798 1.71922,5.32806 1.14615,1.0801 2.70561,1.62013 4.67839,1.62013 2.02832,0 3.5982,-0.52889 4.70965,-1.58673 1.11138,-1.0578 1.66709,-2.95631 1.66712,-5.69551 -3e-5,-2.30491 -0.58005,-3.98906 -1.74006,-5.05246 -1.16007,-1.06336 -2.73342,-1.59506 -4.72008,-1.59508 -1.9033,2e-5 -3.43151,0.54005 -4.5846,1.62013 -1.1531,1.0801 -1.72965,2.86726 -1.72964,5.36146 z" />
    <path
       inkscape:connector-curvature="0"
       id="path3811-0-0"
       style="font-size:39.11067581px;font-style:normal;font-variant:normal;font-weight:normal;font-stretch:normal;line-height:125%;letter-spacing:0px;word-spacing:0px;fill:#ffffff;fill-opacity:1;stroke:#000000;stroke-width:0.97692996;display:inline;font-family:Arial Black;-inkscape-font-specification:Arial Black"
       d="m 235.62516,219.02968 8.98165,-0.45096 c 0.19449,1.16918 0.59043,2.05997 1.18784,2.67238 0.97247,0.99101 2.36174,1.48651 4.16782,1.48651 1.34757,0 2.38606,-0.25331 3.11544,-0.75996 0.72935,-0.50663 1.09403,-1.09399 1.09405,-1.76209 -2e-5,-0.63469 -0.34734,-1.20257 -1.04195,-1.70365 -0.69466,-0.50106 -2.30622,-0.9743 -4.83468,-1.4197 -4.14005,-0.74603 -7.09225,-1.73703 -8.85661,-2.97302 -1.77829,-1.23595 -2.66742,-2.81156 -2.66742,-4.72677 0,-1.25822 0.45499,-2.44688 1.36496,-3.56597 0.90998,-1.11903 2.27841,-1.99869 4.10531,-2.63896 1.82689,-0.64024 4.33105,-0.96037 7.51251,-0.96039 3.90384,2e-5 6.88036,0.58182 8.92956,1.7454 2.04915,1.16362 3.26824,3.01479 3.65726,5.55353 l -8.8983,0.41757 c -0.2362,-1.10235 -0.73286,-1.90405 -1.49,-2.40514 -0.75717,-0.50106 -1.8026,-0.75159 -3.13629,-0.75161 -1.09753,2e-5 -1.92415,0.18652 -2.47986,0.55953 -0.55572,0.37303 -0.83357,0.82679 -0.83356,1.36124 -1e-5,0.38975 0.22923,0.74049 0.68769,1.05225 0.44456,0.32293 1.5004,0.62357 3.16755,0.90193 4.12612,0.71265 7.08181,1.43363 8.86705,2.16296 1.78518,0.72934 3.08415,1.63406 3.89691,2.71413 0.8127,1.0801 1.21906,2.28824 1.21909,3.62442 -3e-5,1.57002 -0.54185,3.01756 -1.62545,4.34261 -1.08367,1.32507 -2.59797,2.32999 -4.54293,3.01479 -1.94501,0.6848 -4.39707,1.02718 -7.3562,1.02718 -5.19591,0 -8.79412,-0.8017 -10.79467,-2.40513 -2.00056,-1.60343 -3.13281,-3.64112 -3.39677,-6.11308 z" />
    <path
       inkscape:connector-curvature="0"
       id="path3805-1-1-9-7"
       style="font-size:39.11067581px;font-style:normal;font-variant:normal;font-weight:normal;font-stretch:normal;line-height:125%;letter-spacing:0px;word-spacing:0px;fill:#ffffff;fill-opacity:1;stroke:#000000;stroke-width:0.98315883;display:inline;font-family:Arial Black;-inkscape-font-specification:Arial Black"
       d="m 264.64863,227.51972 0,-24.79892"
       sodipodi:nodetypes="cc" />
    <path
       style="font-size:39.11067581px;font-style:normal;font-variant:normal;font-weight:normal;font-stretch:normal;line-height:125%;letter-spacing:0px;word-spacing:0px;fill:#ffffff;stroke:#000000;stroke-width:0.70999998;stroke-miterlimit:4;stroke-dasharray:none;display:inline;font-family:Arial Black;-inkscape-font-specification:Arial Black"
       d="m 304.76079,209.22351 3.625,8.8125 -7.2187,0 z"
       id="path3026"
       inkscape:connector-curvature="0" />
    <path
       style="font-size:39.11067581px;font-style:normal;font-variant:normal;font-weight:normal;font-stretch:normal;line-height:125%;letter-spacing:0px;word-spacing:0px;fill:#ffffff;stroke:#000000;stroke-width:0.70999998;stroke-miterlimit:4;stroke-dasharray:none;display:inline;font-family:Arial Black;-inkscape-font-specification:Arial Black"
       d="m 357.19839,208.09851 15.375,0 0,3.90625 -15.375,0 z"
       id="path3024"
       inkscape:connector-curvature="0" />
    <path
       style="font-size:39.11067581px;font-style:normal;font-variant:normal;font-weight:normal;font-stretch:normal;line-height:125%;letter-spacing:0px;word-spacing:0px;fill:#ffffff;stroke:#000000;stroke-width:0.70999998;stroke-miterlimit:4;stroke-dasharray:none;display:inline;font-family:Arial Black;-inkscape-font-specification:Arial Black"
       d="m 357.19839,217.00476 15.375,0 0,4.84375 -15.375,0 z"
       id="path3028"
       inkscape:connector-curvature="0" />
    <path
       style="font-size:39.11067581px;font-style:normal;font-variant:normal;font-weight:normal;font-stretch:normal;line-height:125%;letter-spacing:0px;word-spacing:0px;fill:#ffffff;stroke:#000000;stroke-width:0.70999998;stroke-miterlimit:4;stroke-dasharray:none;display:inline;font-family:Arial Black;-inkscape-font-specification:Arial Black"
       d="m 382.76079,207.81726 4.4688,0 c 1.8529,1e-5 3.1089,0.20093 3.7812,0.625 0.6731,0.42414 1.0313,1.05135 1.0313,1.84375 0,0.53571 -0.2303,0.99332 -0.6563,1.40625 -0.4257,0.41294 -0.9521,0.68083 -1.625,0.78125 -1.3297,0.22323 -2.2555,0.34377 -2.7187,0.34375 l -4.2813,0 z"
       id="path3020"
       inkscape:connector-curvature="0" />
    <path
       style="font-size:39.11067581px;font-style:normal;font-variant:normal;font-weight:normal;font-stretch:normal;line-height:125%;letter-spacing:0px;word-spacing:0px;fill:#ffffff;stroke:#000000;stroke-width:0.70999998;stroke-miterlimit:4;stroke-dasharray:none;display:inline;font-family:Arial Black;-inkscape-font-specification:Arial Black"
       d="m 426.88579,207.75476 c 2.1373,2e-5 3.8148,0.52794 5.0626,1.59375 1.2474,1.06586 1.8747,2.75228 1.875,5.0625 0,2.74552 -0.5858,4.65851 -1.7813,5.71875 -1.1955,1.06027 -2.8808,1.59376 -5.0625,1.59375 -2.122,1e-5 -3.8297,-0.54242 -5.0625,-1.625 -1.2329,-1.08256 -1.8438,-2.86608 -1.8437,-5.34375 0,-2.49999 0.6343,-4.29241 1.875,-5.375 1.24,-1.08256 2.8901,-1.62498 4.9374,-1.625 z"
       id="path3018"
       inkscape:connector-curvature="0" />
    <path
       style="font-size:39.11067581px;font-style:normal;font-variant:normal;font-weight:normal;font-stretch:normal;line-height:125%;letter-spacing:0px;word-spacing:0px;fill:#ffffff;stroke:#000000;stroke-width:0.70999998;stroke-miterlimit:4;stroke-dasharray:none;display:inline;font-family:Arial Black;-inkscape-font-specification:Arial Black"
       d="m 452.44839,207.81726 4.4687,0 c 1.853,1e-5 3.1087,0.20093 3.7813,0.625 0.6721,0.42414 0.9997,1.05135 1,1.84375 0,0.53571 -0.1993,0.99332 -0.625,1.40625 -0.4263,0.41294 -0.9839,0.68083 -1.6563,0.78125 -1.33,0.22323 -2.2242,0.34377 -2.6875,0.34375 l -4.2812,0 z"
       id="path3022"
       inkscape:connector-curvature="0" />
  </g>
  <g
     inkscape:groupmode="layer"
     id="layer3"
     inkscape:label="Vinyl"
     style="display:none">
    <path
       id="path3809-4-8-4"
       style="font-size:39.11067581px;font-style:normal;font-variant:normal;font-weight:normal;font-stretch:normal;line-height:125%;letter-spacing:0px;word-spacing:0px;fill:#ffffff;stroke:#000000;stroke-width:0.70999998;stroke-miterlimit:4;stroke-dasharray:none;display:inline;font-family:Arial Black;-inkscape-font-specification:Arial Black"
       d="m 195.12333,217.99302 -3.43058,-8.88295 -3.35614,8.88295 5.44243,0 2.14547,5.47828 -9.64703,0 -1.49182,4.18222 -9.94898,4e-5 -24.24957,1e-5 0,-25.33513 9.51824,0 0,19.0964 15.60151,0.0569 -0.009,4.30901 c 0.82339,-1.45235 1.54237,-2.95342 2.25388,-4.46101 l -3e-5,0 c 2.89432,-6.33379 5.78867,-12.66757 8.683,-19.00135 l 5.2205,0 5.15917,0 5.78868,12.66756 1.98858,3.80498 c -0.10835,-1.44059 0.1377,-2.30807 0.1377,-3.78785 0,-4.13413 1.43675,-7.3528 4.31029,-9.65595 1.43676,-1.15157 3.15549,-2.01525 5.15616,-2.59102 2.09028,-0.57771 3.8832,-0.78739 6.08243,-0.80673 l 0.0373,5.868 c -1.2604,0.0724 -2.89587,0.81545 -4.03466,1.67554 -1.19254,1.11703 -1.78877,2.96532 -1.78876,5.54485 -1e-5,2.55648 0.59266,4.39323 1.77798,5.51027 0.59266,0.55851 1.29218,0.9774 2.09856,1.25666 0.71155,0.24544 1.69316,0.38881 1.8685,0.41889 l 0.0158,5.80612 c -0.8908,0 -0.56448,0.021 -1.37849,-0.0358 -0.81402,-0.0569 -1.58965,-0.14215 -2.32689,-0.25586 -1.47448,-0.22744 -2.7954,-0.56859 -3.96275,-1.02347 -2.33474,-0.90975 -4.22767,-2.34921 -5.6788,-4.31839 -0.72557,-0.9846 -1.26975,-1.29916 -1.79535,-2.50613 l 3.28108,7.76346 -9.95947,0 -1.51284,-4.2569 z m 162.07506,-1.21031 15.375,0 0,4.84375 -15.375,0 z m -52.4376,-7.78125 3.625,8.8125 -7.2187,0 z m 52.4376,-1.125 15.375,0 0,3.90625 -15.375,0 z m 95.25,-0.28125 4.4687,0 c 1.853,1e-5 3.1087,0.20093 3.7813,0.625 0.6721,0.42414 0.9997,1.05135 1,1.84375 0,0.53571 -0.1993,0.99332 -0.625,1.40625 -0.4263,0.41294 -0.9839,0.68083 -1.6563,0.78125 -1.33,0.22323 -2.2242,0.34377 -2.6875,0.34375 l -4.2812,0 z m -69.6876,0 4.4688,0 c 1.8529,1e-5 3.1089,0.20093 3.7812,0.625 0.6731,0.42414 1.0313,1.05135 1.0313,1.84375 0,0.53571 -0.2303,0.99332 -0.6563,1.40625 -0.4257,0.41294 -0.9521,0.68083 -1.625,0.78125 -1.3297,0.22323 -2.2555,0.34377 -2.7187,0.34375 l -4.2813,0 z m 44.125,-0.0625 c 2.1373,2e-5 3.8148,0.52794 5.0626,1.59375 1.2474,1.06586 1.8747,2.75228 1.875,5.0625 0,2.74552 -0.5858,4.65851 -1.7813,5.71875 -1.1955,1.06027 -2.8808,1.59376 -5.0625,1.59375 -2.122,1e-5 -3.8297,-0.54242 -5.0625,-1.625 -1.2329,-1.08256 -1.8438,-2.86608 -1.8437,-5.34375 0,-2.49999 0.6343,-4.29241 1.875,-5.375 1.24,-1.08256 2.8901,-1.62498 4.9374,-1.625 z m -186.41913,17.89281 c 2.00025,1.65932 5.59794,2.48897 10.79308,2.48897 2.9587,0 5.4104,-0.35432 7.35512,-1.06299 1.94468,-0.70867 3.45876,-1.74862 4.54227,-3.11988 1.08344,-1.37124 1.62518,-2.86924 1.62521,-4.49399 -3e-5,-1.38275 -0.40633,-2.63301 -1.21891,-3.75076 -0.81264,-1.11772 -2.11142,-2.05397 -3.89634,-2.80874 -1.78498,-0.75475 -4.74023,-1.50086 -8.86575,-2.23835 -1.6669,-0.28807 -2.72259,-0.59919 -3.16708,-0.93337 -0.4584,-0.32263 -0.6876,-0.6856 -0.68759,-1.08893 -1e-5,-0.55308 0.2778,-1.02266 0.83344,-1.40869 0.55562,-0.38601 1.38212,-0.57902 2.47949,-0.57904 1.3335,2e-5 2.37877,0.25929 3.13583,0.77781 0.75703,0.51856 1.25362,1.34821 1.48978,2.48898 l 8.897,-0.43212 c -0.38897,-2.62724 -1.60788,-4.54294 -3.65673,-5.74712 -2.0489,-1.20414 -5.02498,-1.80622 -8.92825,-1.80624 -3.18099,2e-5 -5.68478,0.33131 -7.5114,0.99387 -1.82664,0.66259 -3.19487,1.57291 -4.10471,2.73095 -0.90984,1.1581 -1.36476,2.38819 -1.36476,3.69027 0,1.98197 0.889,3.6125 2.66702,4.89154 1.76411,1.27907 4.71588,2.30462 8.85532,3.07665 2.52809,0.46093 4.13941,0.95066 4.83397,1.46919 0.69451,0.51854 1.04178,1.10622 1.0418,1.76303 -2e-5,0.69139 -0.36465,1.29923 -1.09389,1.82352 -0.72928,0.52431 -1.76761,0.78645 -3.11499,0.78645 -1.80581,0 -3.19488,-0.51277 -4.16721,-1.53833 -0.59732,-0.63376 -0.9932,-1.5556 -1.18766,-2.76553 l -8.79257,-0.0376 c 0.30745,-1.81202 0.34354,-2.31944 0.34356,-3.79932 -3e-5,-4.07685 -1.41702,-7.24678 -4.25098,-9.50981 -1.41701,-1.1315 -3.13458,-1.98012 -5.1527,-2.54587 -1.96988,-0.54541 -3.9899,-0.8027 -6.13484,-0.7916 l -0.0214,5.86836 c 0.73701,0.14552 2.91179,0.59328 4.04157,1.64976 1.19509,1.09984 1.79267,2.84172 1.7927,5.22564 -3e-5,2.83307 -0.57254,4.79667 -1.71756,5.89072 -0.57253,0.54705 -1.26314,0.95734 -2.07184,1.23085 -0.8252,0.21433 -1.3268,0.36029 -2.01449,0.45979 l -0.0354,5.80653 c 0.87309,0 1.30174,-0.0329 2.10281,-0.0988 0.80109,-0.0659 1.56615,-0.16465 2.29523,-0.29636 1.45813,-0.26345 2.77226,-0.65861 3.94237,-1.1855 2.34015,-1.05374 4.04027,-2.43888 5.36738,-4.42236 0.53002,-0.91756 0.54238,-0.63878 1.18726,-2.29542 0.19482,2.55806 1.53457,3.98449 3.53484,5.64381 z m 90.98693,18.1496 -3.2156,10.63609 -62.0547,-17.94143 -2.6277,6.19226 111.6792,63.69297 -9.3994,13.85167 -107.1098,-66.27842 -3.951,4.93528 46.0074,47.98618 -7.1732,6.43113 -46.0868,-47.88632 -5.1149,4.35248 66.0428,112.79223 -13.8517,6.92584 -61.9345,-114.33092 -4.3557,1.78604 16.3252,65.30077 -10.6361,2.47353 -16.64608,-64.49905 -6.53,1.32447 2.64588,131.6909 -15.0884,0.24734 1.68784,-131.92201 -6.14014,-0.90564 -17.0673,65.30076 -8.9046,-3.95761 16.3484,-64.17662 -2.7441,-0.87681 -62.0852,113.53429 -15.8305,-7.91524 66.8106,-111.07623 -4.478,-4.68422 -45.2653,44.77059 -6.1838,-6.18378 42.4108,-46.1223 -3.3293,-4.33738 -104.382301,64.31136 -7.9152,-15.83049 105.511001,-59.94563 -1.7458,-4.14337 -58.499898,14.86608 -2.4735,-10.88347 58.318998,-13.74321 -0.1915,-7.28166 -123.923011,1.48412 0.24737,-16.32519 123.405891,2.69587 1.01185,-5.91144 -56.890798,-17.3146 2.7208,-9.89406 57.198898,17.0062 2.4128,-5.62803 -107.103101,-61.83785 7.4205,-14.09902 106.855801,65.79547 2.9926,-4.09743 -44.795,-47.10431 7.4206,-7.91525 46.12988,47.56019 4.57712,-3.03694 -66.2902,-111.555459 13.357,-7.91525 63.0349,114.271459 3.5026,-1.35684 -17.0672,-64.928459 11.3782,-1.97881 16.1582,64.782439 4.6193,-0.96579 -2.9682,-135.548549 17.8093,0 -3.98574,136.386199 5.6922,0.96624 15.36074,-66.609939 11.1308,2.47351 -17.26358,65.469139 4.89598,2.18017 60.8485,-116.130189 15.3358,7.91525 -66.44492,113.682479 4.1623,2.77005 45.46272,-48.67826 7.9152,7.42055 -45.62478,48.54548 3.10532,3.64565 108.80966,-67.0322 8.4099,12.86227 -111.0607,64.31136 2.46306,3.67572 61.84824,-16.0433 2.772,9.5136 -65.08386,17.02043 10.1359,0.0446 0,18.49943 15.36842,0 9.3275,-18.49943 11.11168,0 8.04414,15.99951 9.35885,-0.43749 c 0.20954,1.17185 0.63973,2.04236 1.28326,2.65617 1.04779,0.99328 2.56142,1.49997 4.50725,1.49996 1.45184,1e-5 2.56262,-0.24219 3.34919,-0.74998 0.78566,-0.50778 1.15806,-1.11158 1.15806,-1.7812 0,-0.63612 -0.34706,-1.21648 -1.09556,-1.71869 -0.7481,-0.50221 -2.50293,-0.9598 -5.22711,-1.40621 -4.46027,-0.74774 -7.64499,-1.72986 -9.54665,-2.96866 -1.91588,-1.23878 -2.84828,-2.83028 -2.84828,-4.74986 0,-1.26108 0.49149,-2.44076 1.47106,-3.56239 0.98038,-1.12158 2.44513,-2.01443 4.4134,-2.65617 1.96827,-0.64169 4.67913,-0.93745 8.10674,-0.93747 4.20587,2e-5 7.36945,0.55247 9.57801,1.7187 2.20765,1.16628 3.55592,3.01781 3.97509,5.56233 l -9.57791,0.43749 c -0.25451,-1.10485 -0.8119,-1.90397 -1.62761,-2.40618 -0.81572,-0.50221 -1.94363,-0.74996 -3.38044,-0.74998 -1.1825,2e-5 -2.06262,0.15738 -2.66048,0.53124 -0.59896,0.37388 -0.90776,0.83928 -0.90776,1.37495 0,0.39061 0.25721,0.74999 0.75121,1.06247 0.47897,0.32364 1.6154,0.62725 3.41179,0.90622 4.44515,0.71428 7.62316,1.42521 9.54655,2.15619 1.92329,0.73103 3.31864,1.63614 4.19425,2.71867 0.13301,0.16436 0.26292,0.36096 0.3756,0.53123 l 0,-13.03085 27.2313,0 15.30582,0 c 3.14345,2e-5 5.50636,0.19201 7.16783,0.59373 1.66137,0.40181 3.01905,1.16184 4.03779,2.24993 1.01774,1.08816 1.53367,2.40621 1.53367,3.96863 0,1.36155 -0.41106,2.54349 -1.18941,3.53114 -0.77836,0.98771 -1.83065,1.79237 -3.19264,2.40618 -0.8682,0.3906 -2.05651,0.71206 -3.56824,0.96872 1.21235,0.30134 2.07534,0.60489 2.62923,0.90622 0.3741,0.20088 0.94712,0.62277 1.65897,1.28121 0.71074,0.65847 1.16898,1.17409 1.40846,1.53121 l 3.50564,5.06234 0,-4.7811 7.85644,0 c -0.92048,-1.65366 -1.40857,-3.60552 -1.40857,-5.84357 0,-4.00651 1.48289,-7.14264 4.4759,-9.37472 2.99422,-2.23202 7.17735,-3.31238 12.52014,-3.3124 5.47821,2e-5 9.71302,1.08819 12.67669,3.28115 1.11129,0.82238 2.02906,1.74287 2.72308,2.81242 l 0,-5.28109 16.93354,0 c 3.14315,2e-5 5.56915,0.19201 7.23033,0.59373 1.66197,0.40181 2.9894,1.16184 4.00644,2.24993 0.4945,0.52827 0.8728,1.10991 1.12681,1.74995 1.47387,-1.84297 3.56904,-3.24088 6.29142,-4.21862 2.23019,-0.79236 5.21219,-1.18745 8.98315,-1.18747 3.63775,2e-5 6.33539,0.2277 8.13809,0.71873 1.8044,0.49107 3.31804,1.24888 4.50725,2.28118 1.19001,1.03234 2.09227,2.35266 2.69193,3.93738 l -9.82841,1.31246 c -0.40415,-0.92628 -1.06902,-1.66511 -2.03447,-2.15618 -0.96535,-0.49103 -2.19683,-0.7187 -3.69344,-0.71873 -2.23029,3e-5 -4.02858,0.59488 -5.35231,1.74994 -1.32493,1.1551 -1.97197,2.9687 -1.97197,5.46859 0,2.65616 0.66357,4.54899 2.00322,5.68733 1.33955,1.13834 3.20706,1.71869 5.60281,1.71869 1.13683,0 2.22158,-0.12944 3.25524,-0.37499 1.03266,-0.24551 2.23629,-0.6897 3.56814,-1.28121 l 0,-2.28118 -6.82338,0 0,-5.12484 15.74403,0 0,10.46843 c -3.00864,1.52897 -5.70047,2.57247 -8.01289,3.1249 -2.31252,0.55243 -5.05974,0.81248 -8.23194,0.81248 -3.90669,0 -7.0845,-0.47546 -9.54666,-1.46871 -2.46226,-0.99326 -4.37423,-2.47315 -5.72791,-4.43736 -1.35178,-1.95928 -2.00322,-4.21305 -2.00322,-6.74979 -0.46175,0.31594 -0.97317,0.62234 -1.53377,0.87497 -0.8681,0.3906 -2.05651,0.71206 -3.56824,0.96872 1.21235,0.30134 2.10709,0.60489 2.66048,0.90622 0.3743,0.20088 0.88542,0.62277 1.59637,1.28121 0.71094,0.65847 1.20033,1.17409 1.43981,1.53121 l 4.91421,7.09353 -11.48728,0 -5.44626,-7.49977 c -0.68851,-0.97094 -1.27665,-1.58476 -1.81542,-1.87494 -0.73348,-0.37944 -1.57603,-0.56249 -2.50403,-0.56249 l -0.90766,0 0,9.9372 -10.20401,0 0,-6.12481 c -0.0721,0.11232 -0.14193,0.20381 -0.21905,0.31249 -1.29478,1.83587 -3.15588,3.29121 -5.60271,4.31237 -2.44764,1.02115 -5.51898,1.49995 -9.17105,1.49995 -3.71198,0 -6.77009,-0.43081 -9.20231,-1.31246 -1.89484,-0.68687 -3.51455,-1.6899 -4.8516,-2.99991 l 0,4.31237 -8.35714,0 -11.51853,0 -5.44626,-7.49977 c -0.68851,-0.97094 -1.3071,-1.58476 -1.84677,-1.87494 -0.73338,-0.37944 -1.54468,-0.56249 -2.47268,-0.56249 l -0.90776,0 0,9.9372 -8.04413,0 -27.73211,0 0,-5.09359 c -0.22416,0.36068 -0.51122,0.71827 -0.81381,1.06246 -1.16748,1.32806 -2.78738,2.34482 -4.88285,3.03116 -2.09547,0.68637 -4.73171,0.99997 -7.91894,0.99997 -5.5983,0 -9.48916,-0.76785 -11.64373,-2.37493 -0.15154,-0.11294 -0.29507,-0.25776 -0.4383,-0.37499 l 1.40856,2.74992 -10.64211,0 -1.62762,-4.03113 -11.58113,0 -1.59637,4.03113 -6.85472,0 -26.02908,-0.13508 z"
       inkscape:connector-curvature="0"
       sodipodi:nodetypes="cccccccccccccccccccccssccccsscccccssccccccccccccccccccccsccccccccscscccccccccscccccsscccccccsccccccccsccccssccccccccccscccscscccccccccccccccccccccccccccccccccccccccccccccccccccccccccccccccccccccccccccccccccccccccccccccccccccccccccscccsccccccsccscccccccsccscccccccccscscccscccccccccsccscscccccccssscccccccccccsccccccssccccccscccccccscccccccccc" />
  </g>
  <g
     inkscape:label="Printen"
     inkscape:groupmode="layer"
     id="layer1"
     transform="translate(344.75585,-288.0638)"
     style="display:inline">
    <path
       style="font-size:39.11067580999999649px;font-style:normal;font-variant:normal;font-weight:normal;font-stretch:normal;line-height:125%;letter-spacing:0px;word-spacing:0px;fill:#ffff00;stroke:#000000;stroke-width:2;stroke-miterlimit:4;stroke-dasharray:none;display:inline;font-family:Arial Black;-inkscape-font-specification:Arial Black"
       d="M 197.78125,18.46875 200.75,154 196.15625,154.96875 180,90.1875 l -11.40625,2 17.09375,64.90625 -3.5,1.375 -63.0625,-114.28125 -13.34375,7.90625 66.28125,111.5625 -4.5625,3.03125 -46.125,-47.5625 -7.4375,7.9375 44.8125,47.09375 -3,4.09375 -106.84375,-65.78125 -7.4375,14.09375 107.09375,61.84375 -2.40625,5.625 -57.1875,-17 -2.71875,9.875 56.875,17.3125 -1,5.90625 -123.40625,-2.6875 -0.25,16.34375 123.90625,-1.5 0.21875,7.28125 -58.34375,13.75 2.5,10.875 58.5,-14.875 1.71875,4.15625 -105.5,59.9375 7.90625,15.84375 104.40625,-64.3125 3.3125,4.34375 -42.40625,46.125 6.1875,6.15625 45.25,-44.75 4.5,4.6875 -66.8125,111.0625 15.8125,7.90625 62.09375,-113.53125 2.75,0.875 L 168.125,342 l 8.90625,3.96875 17.0625,-65.3125 6.125,0.90625 -1.6875,131.9375 15.09375,-0.25 -2.65625,-131.6875 6.53125,-1.34375 16.65625,64.5 10.625,-2.46875 -16.3125,-65.3125 4.34375,-1.78125 L 294.75,389.5 l 13.875,-6.9375 -66.0625,-112.78125 5.125,-4.34375 46.09375,47.875 7.15625,-6.4375 -46,-47.96875 3.9375,-4.9375 L 366,320.25 l 9.40625,-13.875 -111.6875,-63.6875 2.625,-6.1875 62.0625,17.9375 3.21875,-10.625 -67.28125,-16.5625 26.03125,0.125 6.84375,0 1.59375,-4.03125 11.59375,0 1.625,4.03125 10.625,0 -1.40625,-2.75 c 0.14323,0.11723 0.28596,0.26206 0.4375,0.375 2.15457,1.60708 6.05795,2.375 11.65625,2.375 3.18723,0 5.81078,-0.31363 7.90625,-1 2.09547,-0.68634 3.70752,-1.70319 4.875,-3.03125 0.30259,-0.34419 0.58834,-0.70182 0.8125,-1.0625 l 0,5.09375 27.75,0 8.03125,0 0,-9.9375 0.90625,0 c 0.92799,0 1.73537,0.18306 2.46875,0.5625 0.53967,0.29018 1.18649,0.90406 1.875,1.875 l 5.4375,7.5 11.5,0 8.375,0 0,-4.3125 c 1.33705,1.31001 2.9489,2.31313 4.84375,3 2.43221,0.88165 5.50678,1.3125 9.21875,1.3125 3.65207,0 6.70861,-0.47885 9.15625,-1.5 2.44684,-1.02116 4.29897,-2.47663 5.59375,-4.3125 0.0771,-0.10868 0.14664,-0.20018 0.21875,-0.3125 l 0,6.125 10.21875,0 0,-9.9375 0.90625,0 c 0.928,0 1.76652,0.18306 2.5,0.5625 0.53877,0.29018 1.12399,0.90406 1.8125,1.875 l 5.4375,7.5 11.5,0 -4.90625,-7.09375 c -0.23948,-0.35712 -0.72656,-0.87278 -1.4375,-1.53125 -0.71095,-0.65844 -1.21945,-1.08037 -1.59375,-1.28125 -0.55339,-0.30133 -1.47515,-0.60491 -2.6875,-0.90625 1.51173,-0.25666 2.72565,-0.57815 3.59375,-0.96875 0.5606,-0.25263 1.0695,-0.55906 1.53125,-0.875 0,2.53674 0.64822,4.79072 2,6.75 1.35368,1.96421 3.25649,3.44424 5.71875,4.4375 2.46216,0.99325 5.65581,1.46875 9.5625,1.46875 3.1722,0 5.90623,-0.26007 8.21875,-0.8125 2.31242,-0.55243 4.99136,-1.59603 8,-3.125 l 0,-10.46875 -15.71875,0 0,5.125 6.8125,0 0,2.28125 c -1.33185,0.59151 -2.52984,1.03574 -3.5625,1.28125 -1.03366,0.24555 -2.11317,0.375 -3.25,0.375 -2.39575,0 -4.28545,-0.58041 -5.625,-1.71875 -1.33965,-1.13834 -2,-3.03134 -2,-5.6875 0,-2.49989 0.64382,-4.31365 1.96875,-5.46875 1.32373,-1.15506 3.14471,-1.74997 5.375,-1.75 1.49661,3e-5 2.72215,0.22772 3.6875,0.71875 0.96545,0.49107 1.6271,1.22997 2.03125,2.15625 l 9.8125,-1.3125 c -0.59966,-1.58472 -1.49749,-2.90516 -2.6875,-3.9375 -1.18921,-1.0323 -2.6956,-1.79018 -4.5,-2.28125 -1.8027,-0.49103 -4.48725,-0.71873 -8.125,-0.71875 -3.77096,2e-5 -6.76981,0.39514 -9,1.1875 -2.72238,0.97774 -4.80738,2.37578 -6.28125,4.21875 -0.25401,-0.64004 -0.6305,-1.22173 -1.125,-1.75 -1.01704,-1.08809 -2.33803,-1.84819 -4,-2.25 -1.66118,-0.40172 -4.10685,-0.59373 -7.25,-0.59375 l -16.9375,0 0,5.28125 c -0.69402,-1.06955 -1.60746,-1.99012 -2.71875,-2.8125 -2.96367,-2.19296 -7.17804,-3.28123 -12.65625,-3.28125 -5.34279,2e-5 -9.53703,1.08048 -12.53125,3.3125 -2.99301,2.23208 -4.46875,5.36849 -4.46875,9.375 0,2.23805 0.48577,4.19009 1.40625,5.84375 l -7.875,0 0,4.78125 -3.5,-5.0625 c -0.23949,-0.35712 -0.69551,-0.87278 -1.40625,-1.53125 -0.71184,-0.65844 -1.28215,-1.08037 -1.65625,-1.28125 -0.55389,-0.30133 -1.41265,-0.60491 -2.625,-0.90625 1.51173,-0.25666 2.6943,-0.57815 3.5625,-0.96875 1.36199,-0.61381 2.40915,-1.41854 3.1875,-2.40625 0.77835,-0.98765 1.1875,-2.1697 1.1875,-3.53125 0,-1.56242 -0.51351,-2.88059 -1.53125,-3.96875 -1.01874,-1.08809 -2.36988,-1.84819 -4.03125,-2.25 -1.66147,-0.40172 -4.01279,-0.59373 -7.15625,-0.59375 l -15.3125,0 -27.25,0 0,13.03125 c -0.11268,-0.17027 -0.24199,-0.36689 -0.375,-0.53125 -0.87561,-1.08253 -2.26421,-1.98772 -4.1875,-2.71875 -1.92339,-0.73098 -5.0861,-1.44197 -9.53125,-2.15625 -1.79639,-0.27897 -2.92728,-0.58261 -3.40625,-0.90625 -0.49399,-0.31248 -0.78125,-0.67189 -0.78125,-1.0625 0,-0.53567 0.33854,-1.00112 0.9375,-1.375 0.59786,-0.37386 1.47375,-0.53123 2.65625,-0.53125 1.43681,2e-5 2.55929,0.24779 3.375,0.75 0.81571,0.50221 1.37049,1.3014 1.625,2.40625 l 9.5625,-0.4375 c -0.41917,-2.54452 -1.7611,-4.39622 -3.96875,-5.5625 -2.20855,-1.16623 -5.35663,-1.71873 -9.5625,-1.71875 -3.42761,2e-5 -6.15673,0.29581 -8.125,0.9375 -1.96827,0.64174 -3.42587,1.53467 -4.40625,2.65625 -0.97958,1.12163 -1.46875,2.30142 -1.46875,3.5625 0,1.91958 0.92787,3.51122 2.84375,4.75 1.90166,1.2388 5.10223,2.22101 9.5625,2.96875 2.72418,0.44641 4.47065,0.90404 5.21875,1.40625 0.7485,0.50221 1.09375,1.08263 1.09375,1.71875 0,0.66962 -0.37059,1.27347 -1.15625,1.78125 -0.78657,0.50779 -1.89191,0.75001 -3.34375,0.75 -1.94583,1e-5 -3.48346,-0.50672 -4.53125,-1.5 -0.64353,-0.61381 -1.07171,-1.4844 -1.28125,-2.65625 l -9.34375,0.4375 -8.03125,-16 -11.125,0 -9.34375,18.5 -15.34375,0 0,-18.5 -10.15625,-0.0312 65.09375,-17.03125 -2.78125,-9.5 -61.84375,16.03125 -2.46875,-3.65625 111.0625,-64.3125 L 365,111.46875 256.1875,178.5 l -3.09375,-3.65625 45.625,-48.53125 -7.90625,-7.40625 -45.46875,48.65625 -4.15625,-2.75 66.4375,-113.6875 -15.34375,-7.9375 -60.84375,116.15625 -4.90625,-2.1875 17.28125,-65.46875 -11.125,-2.46875 -15.375,66.59375 -5.6875,-0.96875 3.96875,-136.375 -17.8125,0 z m 52.125,183.75 c 3.90384,2e-5 6.8883,0.58642 8.9375,1.75 2.04915,1.16362 3.26722,3.02376 3.65625,5.5625 l -8.90625,0.40625 c -0.23619,-1.10235 -0.71161,-1.90516 -1.46875,-2.40625 -0.75717,-0.50106 -1.82255,-0.74998 -3.15625,-0.75 -1.09753,2e-5 -1.91305,0.18949 -2.46875,0.5625 -0.55572,0.37303 -0.84376,0.84055 -0.84375,1.375 -1e-5,0.38975 0.22903,0.75074 0.6875,1.0625 0.44456,0.32293 1.52035,0.59664 3.1875,0.875 4.12613,0.71265 7.05851,1.45817 8.84375,2.1875 1.78518,0.72934 3.09349,1.60743 3.90625,2.6875 0.8127,1.0801 1.21872,2.28882 1.21875,3.625 -3e-5,1.57002 -0.5414,3.0187 -1.625,4.34375 -1.08367,1.32507 -2.58628,2.34645 -4.53125,3.03125 -1.94501,0.6848 -4.41587,1.03125 -7.375,1.03125 -5.1959,0 -8.7807,-0.80282 -10.78125,-2.40625 -2.00056,-1.60343 -3.14229,-3.65304 -3.40625,-6.125 l 9,-0.4375 c 0.19449,1.16918 0.59009,2.04384 1.1875,2.65625 0.97247,0.99101 2.35017,1.5 4.15625,1.5 1.34758,0 2.39561,-0.2746 3.125,-0.78125 0.72935,-0.50663 1.09373,-1.0819 1.09375,-1.75 -2e-5,-0.63469 -0.36789,-1.18642 -1.0625,-1.6875 -0.69466,-0.50106 -2.28404,-0.9921 -4.8125,-1.4375 -4.14005,-0.74603 -7.11064,-1.73276 -8.875,-2.96875 -1.77829,-1.23595 -2.65625,-2.80354 -2.65625,-4.71875 0,-1.25822 0.43378,-2.44341 1.34375,-3.5625 0.90998,-1.11903 2.2981,-2.01598 4.125,-2.65625 1.82689,-0.64024 4.31854,-0.96873 7.5,-0.96875 z m -30.1875,0.34375 c 5.08472,2e-5 8.99921,1.09325 11.75,3.28125 2.75074,2.18802 4.12497,5.24576 4.125,9.1875 -3e-5,2.86168 -0.61081,5.23083 -1.8125,7.0625 -1.20175,1.8317 -2.91607,3.23115 -5.1875,4.25 -2.27149,1.01884 -5.1102,1.53125 -8.5,1.53125 -3.44542,0 -6.30494,-0.43284 -8.5625,-1.3125 -2.25758,-0.87966 -4.09684,-2.28342 -5.5,-4.1875 -1.40317,-1.90406 -2.09375,-4.26332 -2.09375,-7.125 0,-3.99743 1.3777,-7.11676 4.15625,-9.34375 2.77855,-2.22696 6.66528,-3.34373 11.625,-3.34375 z m -35.03125,0.40625 10.28125,0 11.46875,24.5 -9.875,0 -1.5,-4.03125 -10.75,0 -1.46875,4.03125 -9.65625,0 11.5,-24.5 z m -35.71875,0.1875 9.4375,0 0,18.4375 14.75,0 0,6.03125 -24.1875,0 0,-24.46875 z m 278.0625,4.59375 c 2.1373,2e-5 3.8147,0.52794 5.0625,1.59375 1.2474,1.06586 1.8747,2.75228 1.875,5.0625 0,2.74552 -0.58575,4.65851 -1.78125,5.71875 -1.1955,1.06027 -2.8808,1.59376 -5.0625,1.59375 -2.122,1e-5 -3.8297,-0.54242 -5.0625,-1.625 -1.2329,-1.08256 -1.84385,-2.86608 -1.84375,-5.34375 0,-2.49999 0.6343,-4.29241 1.875,-5.375 1.24,-1.08256 2.8902,-1.62498 4.9375,-1.625 z m -44.125,0.0625 4.46875,0 c 1.8529,1e-5 3.10895,0.20093 3.78125,0.625 0.6731,0.42414 1.03125,1.05135 1.03125,1.84375 0,0.53571 -0.23025,0.99332 -0.65625,1.40625 -0.4257,0.41294 -0.9521,0.68083 -1.625,0.78125 -1.3297,0.22323 -2.25555,0.34377 -2.71875,0.34375 l -4.28125,0 0,-5 z m 69.6875,0 4.46875,0 c 1.853,1e-5 3.10865,0.20093 3.78125,0.625 0.6721,0.42414 0.9997,1.05135 1,1.84375 0,0.53571 -0.1993,0.99332 -0.625,1.40625 -0.4263,0.41294 -0.98385,0.68083 -1.65625,0.78125 -1.33,0.22323 -2.2242,0.34377 -2.6875,0.34375 l -4.28125,0 0,-5 z m -95.25,0.28125 15.375,0 0,3.90625 -15.375,0 0,-3.90625 z m -137.65625,0.1875 c -1.9033,2e-5 -3.44066,0.54492 -4.59375,1.625 -1.1531,1.0801 -1.71876,2.8808 -1.71875,5.375 -1e-5,2.47197 0.5726,4.23242 1.71875,5.3125 1.14615,1.0801 2.71472,1.625 4.6875,1.625 2.02832,0 3.6073,-0.53591 4.71875,-1.59375 1.11138,-1.0578 1.65622,-2.9483 1.65625,-5.6875 -3e-5,-2.30491 -0.58999,-3.9991 -1.75,-5.0625 -1.16007,-1.06336 -2.73209,-1.59373 -4.71875,-1.59375 z m 85.21875,0.9375 3.625,8.8125 -7.21875,0 3.59375,-8.8125 z m -115.1875,0.125 -3.34375,8.78125 6.71875,0 -3.375,-8.78125 z m 167.625,7.65625 15.375,0 0,4.84375 -15.375,0 0,-4.84375 z"
       id="path3809-4-8"
       inkscape:connector-curvature="0"
       transform="translate(-344.75585,288.0638)" />
    <path
       inkscape:connector-curvature="0"
       id="path3805-1-1-9"
       style="font-size:39.11067581px;font-style:normal;font-variant:normal;font-weight:normal;font-stretch:normal;line-height:125%;letter-spacing:0px;word-spacing:0px;fill:#ffffff;fill-opacity:1;stroke:#000000;stroke-width:1;stroke-miterlimit:4;stroke-dasharray:none;display:inline;font-family:Arial Black;-inkscape-font-specification:Arial Black"
       d="m -79.730204,515.27049 0,-24.48569"
       sodipodi:nodetypes="cc" />
  </g>
</svg>
