G04 (created by PCBNEW-RS274X (2012-02-06 BZR 3180)-stable) date Fri 05 Oct 2012 08:43:45 AM CEST*
G01*
G70*
G90*
%MOIN*%
G04 Gerber Fmt 3.4, Leading zero omitted, Abs format*
%FSLAX34Y34*%
G04 APERTURE LIST*
%ADD10C,0.006000*%
%ADD11C,0.007900*%
%ADD12C,0.003900*%
%ADD13C,0.015000*%
%ADD14R,0.057000X0.047200*%
%ADD15R,0.047200X0.057000*%
G04 APERTURE END LIST*
G54D10*
G54D11*
X31650Y-23009D02*
X31950Y-23009D01*
X31800Y-23159D02*
X31800Y-22859D01*
X41750Y-23809D02*
X42050Y-23809D01*
X41900Y-23959D02*
X41900Y-23659D01*
G54D12*
X51150Y-63809D02*
X51450Y-63809D01*
X51300Y-63959D02*
X51300Y-63659D01*
G54D11*
X20581Y-35759D02*
X20394Y-35759D01*
X20394Y-35365D01*
X20882Y-35759D02*
X20882Y-35553D01*
X20863Y-35516D01*
X20825Y-35497D01*
X20750Y-35497D01*
X20713Y-35516D01*
X20882Y-35741D02*
X20844Y-35759D01*
X20750Y-35759D01*
X20713Y-35741D01*
X20694Y-35703D01*
X20694Y-35666D01*
X20713Y-35628D01*
X20750Y-35609D01*
X20844Y-35609D01*
X20882Y-35591D01*
X21050Y-35741D02*
X21088Y-35759D01*
X21163Y-35759D01*
X21200Y-35741D01*
X21219Y-35703D01*
X21219Y-35684D01*
X21200Y-35647D01*
X21163Y-35628D01*
X21106Y-35628D01*
X21069Y-35609D01*
X21050Y-35572D01*
X21050Y-35553D01*
X21069Y-35516D01*
X21106Y-35497D01*
X21163Y-35497D01*
X21200Y-35516D01*
X21538Y-35741D02*
X21500Y-35759D01*
X21425Y-35759D01*
X21388Y-35741D01*
X21369Y-35703D01*
X21369Y-35553D01*
X21388Y-35516D01*
X21425Y-35497D01*
X21500Y-35497D01*
X21538Y-35516D01*
X21557Y-35553D01*
X21557Y-35591D01*
X21369Y-35628D01*
X21726Y-35759D02*
X21726Y-35497D01*
X21726Y-35572D02*
X21745Y-35534D01*
X21763Y-35516D01*
X21801Y-35497D01*
X21838Y-35497D01*
X21970Y-35722D02*
X21989Y-35741D01*
X21970Y-35759D01*
X21951Y-35741D01*
X21970Y-35722D01*
X21970Y-35759D01*
X21970Y-35516D02*
X21989Y-35534D01*
X21970Y-35553D01*
X21951Y-35534D01*
X21970Y-35516D01*
X21970Y-35553D01*
X22533Y-35365D02*
X22608Y-35365D01*
X22645Y-35384D01*
X22683Y-35422D01*
X22702Y-35497D01*
X22702Y-35628D01*
X22683Y-35703D01*
X22645Y-35741D01*
X22608Y-35759D01*
X22533Y-35759D01*
X22495Y-35741D01*
X22458Y-35703D01*
X22439Y-35628D01*
X22439Y-35497D01*
X22458Y-35422D01*
X22495Y-35384D01*
X22533Y-35365D01*
X22871Y-35497D02*
X22871Y-35759D01*
X22871Y-35534D02*
X22890Y-35516D01*
X22927Y-35497D01*
X22983Y-35497D01*
X23021Y-35516D01*
X23040Y-35553D01*
X23040Y-35759D01*
X25027Y-35553D02*
X25158Y-35553D01*
X25214Y-35759D02*
X25027Y-35759D01*
X25027Y-35365D01*
X25214Y-35365D01*
X25383Y-35497D02*
X25383Y-35759D01*
X25383Y-35534D02*
X25402Y-35516D01*
X25439Y-35497D01*
X25495Y-35497D01*
X25533Y-35516D01*
X25552Y-35553D01*
X25552Y-35759D01*
X25908Y-35759D02*
X25908Y-35553D01*
X25889Y-35516D01*
X25851Y-35497D01*
X25776Y-35497D01*
X25739Y-35516D01*
X25908Y-35741D02*
X25870Y-35759D01*
X25776Y-35759D01*
X25739Y-35741D01*
X25720Y-35703D01*
X25720Y-35666D01*
X25739Y-35628D01*
X25776Y-35609D01*
X25870Y-35609D01*
X25908Y-35591D01*
X26095Y-35759D02*
X26095Y-35365D01*
X26095Y-35516D02*
X26132Y-35497D01*
X26207Y-35497D01*
X26245Y-35516D01*
X26264Y-35534D01*
X26282Y-35572D01*
X26282Y-35684D01*
X26264Y-35722D01*
X26245Y-35741D01*
X26207Y-35759D01*
X26132Y-35759D01*
X26095Y-35741D01*
X26507Y-35759D02*
X26470Y-35741D01*
X26451Y-35703D01*
X26451Y-35365D01*
X26807Y-35741D02*
X26769Y-35759D01*
X26694Y-35759D01*
X26657Y-35741D01*
X26638Y-35703D01*
X26638Y-35553D01*
X26657Y-35516D01*
X26694Y-35497D01*
X26769Y-35497D01*
X26807Y-35516D01*
X26826Y-35553D01*
X26826Y-35591D01*
X26638Y-35628D01*
G54D13*
X49600Y-49700D02*
X49400Y-49500D01*
X49900Y-49500D02*
X49700Y-49700D01*
X49700Y-49700D02*
X49900Y-49500D01*
X49600Y-49700D02*
X49700Y-49700D01*
X49600Y-49000D02*
X49600Y-49700D01*
G54D14*
X36550Y-28900D03*
X36550Y-29500D03*
G54D15*
X52200Y-18400D03*
X52800Y-18400D03*
X52800Y-27500D03*
X52200Y-27500D03*
G54D14*
X55000Y-28450D03*
X55000Y-29050D03*
G54D15*
X52800Y-37500D03*
X52200Y-37500D03*
G54D14*
X55000Y-37850D03*
X55000Y-38450D03*
G54D15*
X52800Y-47500D03*
X52200Y-47500D03*
G54D14*
X55000Y-48200D03*
X55000Y-48800D03*
G54D15*
X52850Y-57500D03*
X52250Y-57500D03*
X50240Y-22750D03*
X49590Y-24300D03*
X49590Y-22750D03*
X50240Y-23550D03*
X49590Y-23550D03*
X50240Y-24300D03*
X49620Y-34210D03*
X50270Y-32660D03*
X50270Y-34210D03*
X49620Y-33410D03*
X50270Y-33410D03*
X49620Y-32660D03*
X49560Y-44250D03*
X50210Y-42700D03*
X50210Y-44250D03*
X49560Y-43450D03*
X50210Y-43450D03*
X49560Y-42700D03*
X44550Y-58050D03*
X45200Y-56500D03*
X45200Y-58050D03*
X44550Y-57250D03*
X45200Y-57250D03*
X44550Y-56500D03*
G54D14*
X45840Y-22635D03*
X44290Y-21985D03*
X45840Y-21985D03*
X45040Y-22635D03*
X45040Y-21985D03*
X44290Y-22635D03*
X45900Y-32400D03*
X44350Y-31750D03*
X45900Y-31750D03*
X45100Y-32400D03*
X45100Y-31750D03*
X44350Y-32400D03*
X45940Y-42695D03*
X44390Y-42045D03*
X45940Y-42045D03*
X45140Y-42695D03*
X45140Y-42045D03*
X44390Y-42695D03*
X45165Y-51995D03*
X43615Y-51345D03*
X45165Y-51345D03*
X44365Y-51995D03*
X44365Y-51345D03*
X43615Y-51995D03*
M02*
