M48
;DRILL file {Pcbnew (2012-01-19 BZR 3256)-stable} date Fri 03 Jan 2014 04:25:22 PM CET
;FORMAT={-:-/ absolute / inch / decimal}
FMAT,2
INCH,TZ
T1C0.020
T2C0.032
T3C0.032
T4C0.035
T5C0.035
T6C0.036
T7C0.039
T8C0.040
T9C0.045
T10C0.059
T11C0.063
T12C0.091
T13C0.128
T14C0.132
%
G90
G05
M72
T1
X1.965Y-2.755
X2.100Y-4.250
X2.125Y-3.050
X2.125Y-3.250
X2.150Y-3.375
X2.160Y-2.755
X2.235Y-5.090
X2.245Y-3.780
X2.250Y-3.250
X2.260Y-2.755
X2.300Y-3.950
X2.300Y-4.025
X2.300Y-4.570
X2.300Y-5.090
X2.350Y-4.050
X2.390Y-4.445
X2.400Y-3.850
X2.435Y-5.038
X2.450Y-2.950
X2.450Y-3.175
X2.450Y-3.375
X2.500Y-4.150
X2.500Y-4.800
X2.500Y-4.950
X2.505Y-4.670
X2.550Y-3.050
X2.550Y-3.650
X2.550Y-3.725
X2.550Y-4.730
X2.600Y-3.250
X2.650Y-2.810
X2.650Y-4.250
X2.700Y-3.350
X2.700Y-4.445
X2.700Y-4.730
X2.748Y-5.038
X2.750Y-4.950
X2.750Y-5.090
X2.985Y-4.850
X3.035Y-4.350
X3.035Y-4.850
X3.085Y-4.850
X3.135Y-4.450
X3.135Y-4.850
X3.185Y-3.900
X3.250Y-4.750
X3.700Y-4.890
X3.800Y-4.950
X3.800Y-5.100
X3.825Y-5.525
X3.900Y-2.505
X3.950Y-5.350
X3.950Y-5.475
X3.995Y-2.505
X4.055Y-5.525
X4.090Y-5.350
X4.180Y-5.350
X4.180Y-6.020
X4.255Y-2.950
X4.280Y-5.350
X4.280Y-5.980
X4.375Y-4.000
X4.500Y-5.370
X4.650Y-2.550
X4.857Y-4.055
X4.865Y-2.550
X4.875Y-3.350
X4.902Y-2.700
X4.902Y-3.700
X4.928Y-4.158
X5.010Y-4.600
X5.070Y-4.700
T2
X2.300Y-5.175
X2.300Y-5.275
X2.300Y-5.375
X2.300Y-5.475
X2.300Y-5.575
X2.300Y-5.675
X2.300Y-5.775
X2.300Y-5.875
X2.600Y-5.175
X2.600Y-5.275
X2.600Y-5.375
X2.600Y-5.475
X2.600Y-5.575
X2.600Y-5.675
X2.600Y-5.775
X2.600Y-5.875
X3.275Y-5.175
X3.275Y-5.275
X3.275Y-5.375
X3.275Y-5.475
X3.275Y-5.575
X3.275Y-5.675
X3.275Y-5.775
X3.275Y-5.875
X3.575Y-5.175
X3.575Y-5.275
X3.575Y-5.375
X3.575Y-5.475
X3.575Y-5.575
X3.575Y-5.675
X3.575Y-5.775
X3.575Y-5.875
X4.025Y-2.350
X4.025Y-2.650
X4.125Y-2.350
X4.125Y-2.650
X4.225Y-2.350
X4.225Y-2.650
X4.325Y-2.350
X4.325Y-2.650
T3
X1.725Y-2.975
X1.725Y-3.175
X1.725Y-3.725
X1.725Y-3.825
X1.725Y-3.925
X1.725Y-4.025
X1.825Y-3.610
X1.975Y-4.350
X1.975Y-4.750
X1.975Y-4.850
X1.975Y-5.250
X2.025Y-3.610
X2.125Y-2.975
X2.125Y-3.175
X2.125Y-3.725
X2.125Y-3.825
X2.125Y-3.925
X2.125Y-4.025
X2.750Y-5.175
X2.750Y-5.275
X2.750Y-5.375
X2.750Y-5.475
X2.750Y-5.575
X2.750Y-5.675
X2.750Y-5.775
X2.750Y-5.875
X3.150Y-5.175
X3.150Y-5.275
X3.150Y-5.375
X3.150Y-5.475
X3.150Y-5.575
X3.150Y-5.675
X3.150Y-5.775
X3.150Y-5.875
X3.510Y-1.525
X3.510Y-1.925
X3.510Y-2.055
X3.510Y-2.255
X3.800Y-5.825
X3.800Y-6.225
X4.000Y-5.825
X4.000Y-6.225
X4.025Y-2.215
X4.030Y-5.100
X4.030Y-5.210
X4.055Y-2.785
X4.250Y-4.380
X4.250Y-4.480
X4.250Y-4.580
X4.250Y-4.680
X4.250Y-4.780
X4.250Y-4.880
X4.255Y-2.785
X4.350Y-4.430
X4.350Y-4.530
X4.350Y-4.630
X4.350Y-4.730
X4.350Y-4.830
X4.350Y-4.930
X4.370Y-1.525
X4.370Y-1.925
X4.400Y-5.425
X4.400Y-5.525
X4.400Y-5.625
X4.425Y-2.215
X4.430Y-5.100
X4.430Y-5.210
X4.475Y-2.375
X4.475Y-2.775
X4.475Y-2.925
X4.475Y-3.025
X4.500Y-5.525
X4.500Y-5.825
X4.500Y-6.225
X4.520Y-5.070
X4.520Y-5.270
X4.620Y-5.070
X4.620Y-5.270
X4.720Y-2.000
X4.720Y-2.100
X4.720Y-2.200
X4.720Y-2.300
X4.720Y-2.400
X4.720Y-2.500
X4.720Y-2.600
X4.720Y-2.700
X4.720Y-3.000
X4.720Y-3.100
X4.720Y-3.200
X4.720Y-3.300
X4.720Y-3.400
X4.720Y-3.500
X4.720Y-3.600
X4.720Y-3.700
X4.720Y-4.000
X4.720Y-4.100
X4.720Y-4.200
X4.720Y-4.300
X4.720Y-4.400
X4.720Y-4.500
X4.720Y-4.600
X4.720Y-4.700
X4.900Y-5.525
X4.900Y-5.725
X4.900Y-5.825
X4.900Y-6.225
X4.919Y-2.000
X4.919Y-3.000
X4.919Y-4.000
X5.020Y-4.930
X5.021Y-2.000
X5.021Y-3.000
X5.021Y-4.000
X5.023Y-5.200
X5.100Y-5.525
X5.100Y-5.725
X5.220Y-2.000
X5.220Y-2.100
X5.220Y-2.200
X5.220Y-2.300
X5.220Y-2.400
X5.220Y-2.500
X5.220Y-2.600
X5.220Y-2.700
X5.220Y-3.000
X5.220Y-3.100
X5.220Y-3.200
X5.220Y-3.300
X5.220Y-3.400
X5.220Y-3.500
X5.220Y-3.600
X5.220Y-3.700
X5.220Y-4.000
X5.220Y-4.100
X5.220Y-4.200
X5.220Y-4.300
X5.220Y-4.400
X5.220Y-4.500
X5.220Y-4.600
X5.220Y-4.700
X5.220Y-4.930
X5.220Y-5.200
X5.375Y-5.850
X5.375Y-5.988
T5
X3.770Y-2.035
X3.820Y-1.935
X3.870Y-2.035
X3.920Y-1.935
X3.970Y-2.035
X4.020Y-1.935
X4.070Y-2.035
X4.120Y-1.935
X4.675Y-1.738
X4.725Y-1.838
X4.775Y-1.738
X4.825Y-1.838
X4.875Y-1.738
X4.925Y-1.838
T6
X2.978Y-1.772
X3.076Y-1.772
X3.155Y-1.772
X3.252Y-1.772
T7
X1.325Y-2.925
X1.325Y-3.025
X1.325Y-3.125
X1.325Y-3.225
X1.325Y-3.780
X1.325Y-3.880
X1.325Y-3.980
X1.325Y-4.080
X1.325Y-4.625
X1.325Y-4.725
X1.325Y-4.825
X1.325Y-4.925
X1.425Y-5.400
X1.425Y-5.500
X1.425Y-5.600
X1.850Y-6.500
X1.950Y-6.500
X2.050Y-6.500
X2.130Y-4.475
X2.130Y-4.575
X2.130Y-4.675
X2.130Y-4.865
X2.130Y-4.965
X2.130Y-5.065
X2.150Y-6.500
X2.750Y-6.500
X2.800Y-2.850
X2.800Y-2.950
X2.800Y-3.050
X2.800Y-3.150
X2.800Y-3.250
X2.800Y-3.350
X2.800Y-3.450
X2.800Y-3.550
X2.800Y-3.650
X2.800Y-3.750
X2.800Y-3.850
X2.800Y-3.950
X2.800Y-4.050
X2.800Y-4.150
X2.800Y-4.250
X2.800Y-4.350
X2.800Y-4.450
X2.800Y-4.550
X2.800Y-4.650
X2.800Y-4.750
X2.850Y-6.500
X2.900Y-2.850
X2.900Y-2.950
X2.900Y-3.050
X2.900Y-3.150
X2.900Y-3.250
X2.900Y-3.350
X2.900Y-3.450
X2.900Y-3.550
X2.900Y-3.650
X2.900Y-3.750
X2.900Y-3.850
X2.900Y-3.950
X2.900Y-4.050
X2.900Y-4.150
X2.900Y-4.250
X2.900Y-4.350
X2.900Y-4.450
X2.900Y-4.550
X2.900Y-4.650
X2.900Y-4.750
X2.950Y-6.500
X3.050Y-6.500
X3.650Y-6.500
X3.750Y-6.500
X3.800Y-2.850
X3.800Y-2.950
X3.800Y-3.050
X3.800Y-3.150
X3.800Y-3.250
X3.800Y-3.350
X3.800Y-3.450
X3.800Y-3.550
X3.800Y-3.650
X3.800Y-3.750
X3.800Y-3.850
X3.800Y-3.950
X3.800Y-4.050
X3.800Y-4.150
X3.800Y-4.250
X3.800Y-4.350
X3.800Y-4.450
X3.800Y-4.550
X3.800Y-4.650
X3.800Y-4.750
X3.850Y-6.500
X3.900Y-2.850
X3.900Y-2.950
X3.900Y-3.050
X3.900Y-3.150
X3.900Y-3.250
X3.900Y-3.350
X3.900Y-3.450
X3.900Y-3.550
X3.900Y-3.650
X3.900Y-3.750
X3.900Y-3.850
X3.900Y-3.950
X3.900Y-4.050
X3.900Y-4.150
X3.900Y-4.250
X3.900Y-4.350
X3.900Y-4.450
X3.900Y-4.550
X3.900Y-4.650
X3.900Y-4.750
X3.950Y-6.500
X4.550Y-6.500
X4.650Y-6.500
X4.750Y-6.500
X4.850Y-6.500
X5.250Y-5.500
X5.250Y-5.600
X5.500Y-2.150
X5.500Y-2.250
X5.500Y-2.350
X5.500Y-2.450
X5.500Y-2.550
X5.500Y-3.150
X5.500Y-3.250
X5.500Y-3.350
X5.500Y-3.450
X5.500Y-3.550
X5.500Y-4.150
X5.500Y-4.250
X5.500Y-4.350
X5.500Y-4.450
X5.500Y-4.550
X5.500Y-5.300
X5.500Y-5.400
X5.500Y-5.500
T8
X3.685Y-1.525
X3.784Y-1.525
X4.106Y-1.525
X4.205Y-1.525
T9
X1.810Y-4.475
X1.810Y-4.575
X1.810Y-4.675
X1.810Y-4.925
X1.810Y-5.025
X1.810Y-5.125
X4.725Y-5.525
X4.725Y-5.625
X4.725Y-5.725
T10
X1.425Y-2.775
X1.425Y-2.975
X1.425Y-3.175
X1.425Y-3.375
X1.425Y-3.630
X1.425Y-3.830
X1.425Y-4.030
X1.425Y-4.230
X1.425Y-4.475
X1.425Y-4.675
X1.425Y-4.875
X1.425Y-5.075
X1.700Y-6.400
X1.900Y-6.400
X2.100Y-6.400
X2.300Y-6.400
X2.600Y-6.400
X2.800Y-6.400
X3.000Y-6.400
X3.200Y-6.400
X3.500Y-6.400
X3.700Y-6.400
X3.900Y-6.400
X4.100Y-6.400
X4.400Y-6.400
X4.600Y-6.400
X4.800Y-6.400
X5.000Y-6.400
X5.400Y-1.950
X5.400Y-2.150
X5.400Y-2.350
X5.400Y-2.550
X5.400Y-2.750
X5.400Y-2.950
X5.400Y-3.150
X5.400Y-3.350
X5.400Y-3.550
X5.400Y-3.750
X5.400Y-3.950
X5.400Y-4.150
X5.400Y-4.350
X5.400Y-4.550
X5.400Y-4.750
X5.400Y-5.200
X5.400Y-5.400
X5.400Y-5.600
T11
X3.635Y-1.805
X4.255Y-1.805
T12
X2.857Y-1.665
X3.373Y-1.665
T13
X3.720Y-1.685
X4.170Y-1.685
T14
X1.400Y-1.600
X1.400Y-6.400
X5.500Y-6.400
T4
X1.676Y-1.482G85X1.676Y-1.462
G05
X1.757Y-2.532G85X1.737Y-2.532
G05
X2.106Y-2.556G85X2.106Y-2.537
G05
X2.408Y-2.556G85X2.408Y-2.537
G05
X2.685Y-2.618G85X2.665Y-2.618
G05
X2.744Y-1.459G85X2.744Y-1.506
G05
T14
X5.398Y-1.600G85X5.502Y-1.600
G05
T0
M30
