G04 (created by PCBNEW-RS274X (2012-01-19 BZR 3256)-stable) date Sat 22 Feb 2014 21:00:15 CET*
G01*
G70*
G90*
%MOIN*%
G04 Gerber Fmt 3.4, Leading zero omitted, Abs format*
%FSLAX34Y34*%
G04 APERTURE LIST*
%ADD10C,0.006000*%
%ADD11R,0.055000X0.055000*%
%ADD12C,0.055000*%
%ADD13R,0.051200X0.078700*%
%ADD14O,0.051200X0.078700*%
%ADD15C,0.070000*%
%ADD16R,0.070000X0.070000*%
%ADD17R,0.078700X0.051200*%
%ADD18O,0.078700X0.051200*%
%ADD19O,0.106300X0.059100*%
%ADD20C,0.160000*%
%ADD21C,0.120000*%
%ADD22C,0.065000*%
%ADD23C,0.060000*%
%ADD24C,0.066000*%
%ADD25C,0.078700*%
%ADD26R,0.074800X0.074800*%
%ADD27O,0.059100X0.070900*%
%ADD28C,0.070900*%
%ADD29C,0.157500*%
%ADD30R,0.065000X0.065000*%
%ADD31R,0.070900X0.070900*%
%ADD32C,0.063000*%
%ADD33R,0.060000X0.060000*%
%ADD34O,0.350400X0.246100*%
%ADD35C,0.246100*%
%ADD36R,0.084600X0.084600*%
%ADD37C,0.084600*%
%ADD38R,0.086600X0.086600*%
%ADD39C,0.086600*%
%ADD40R,0.027600X0.068900*%
%ADD41O,0.070400X0.050900*%
%ADD42O,0.050900X0.070400*%
%ADD43O,0.050900X0.097800*%
%ADD44R,0.059100X0.066900*%
%ADD45R,0.031500X0.089700*%
%ADD46R,0.050800X0.051200*%
%ADD47R,0.050800X0.055100*%
%ADD48R,0.066900X0.059100*%
%ADD49R,0.063000X0.059100*%
%ADD50R,0.066900X0.066900*%
%ADD51C,0.066900*%
%ADD52C,0.039400*%
%ADD53C,0.024000*%
%ADD54C,0.016000*%
%ADD55C,0.012000*%
%ADD56C,0.060000*%
G04 APERTURE END LIST*
G54D10*
G54D11*
X52200Y-52000D03*
G54D12*
X50231Y-52000D03*
G54D13*
X40250Y-26500D03*
G54D14*
X41250Y-26500D03*
X42250Y-26500D03*
X43250Y-26500D03*
X43250Y-23500D03*
X42250Y-23500D03*
X41250Y-23500D03*
X40250Y-23500D03*
G54D15*
X47250Y-57250D03*
X47250Y-56250D03*
G54D16*
X47250Y-55250D03*
G54D17*
X26000Y-58750D03*
G54D18*
X26000Y-57750D03*
X26000Y-56750D03*
X26000Y-55750D03*
X26000Y-54750D03*
X26000Y-53750D03*
X26000Y-52750D03*
X26000Y-51750D03*
X23000Y-51750D03*
X23000Y-52750D03*
X23000Y-53750D03*
X23000Y-54750D03*
X23000Y-55750D03*
X23000Y-56750D03*
X23000Y-57750D03*
X23000Y-58750D03*
G54D17*
X35750Y-58750D03*
G54D18*
X35750Y-57750D03*
X35750Y-56750D03*
X35750Y-55750D03*
X35750Y-54750D03*
X35750Y-53750D03*
X35750Y-52750D03*
X35750Y-51750D03*
X32750Y-51750D03*
X32750Y-52750D03*
X32750Y-53750D03*
X32750Y-54750D03*
X32750Y-55750D03*
X32750Y-56750D03*
X32750Y-57750D03*
X32750Y-58750D03*
G54D19*
X39000Y-28500D03*
X39000Y-29500D03*
X39000Y-30500D03*
X39000Y-31500D03*
X39000Y-32500D03*
X39000Y-33500D03*
X39000Y-34500D03*
X39000Y-35500D03*
X39000Y-36500D03*
X39000Y-37500D03*
X39000Y-38500D03*
X39000Y-39500D03*
X39000Y-40500D03*
X39000Y-41500D03*
X39000Y-42500D03*
X39000Y-43500D03*
X39000Y-44500D03*
X39000Y-45500D03*
X39000Y-46500D03*
X39000Y-47500D03*
X28000Y-47500D03*
X28000Y-46500D03*
X28000Y-45500D03*
X28000Y-44500D03*
X28000Y-43500D03*
X28000Y-42500D03*
X28000Y-41500D03*
X28000Y-40500D03*
X28000Y-39500D03*
X28000Y-38500D03*
X28000Y-37500D03*
X28000Y-36500D03*
X28000Y-35500D03*
X28000Y-34500D03*
X28000Y-33500D03*
X28000Y-32500D03*
X28000Y-31500D03*
X28000Y-30500D03*
X28000Y-29500D03*
X28000Y-28500D03*
X29000Y-28500D03*
X29000Y-29500D03*
X29000Y-30500D03*
X29000Y-31500D03*
X29000Y-32500D03*
X29000Y-33500D03*
X29000Y-34500D03*
X29000Y-35500D03*
X29000Y-36500D03*
X29000Y-37500D03*
X29000Y-38500D03*
X29000Y-39500D03*
X29000Y-40500D03*
X29000Y-41500D03*
X29000Y-42500D03*
X29000Y-43500D03*
X29000Y-44500D03*
X29000Y-45500D03*
X29000Y-46500D03*
X29000Y-47500D03*
X38000Y-47500D03*
X38000Y-46500D03*
X38000Y-45500D03*
X38000Y-44500D03*
X38000Y-43500D03*
X38000Y-42500D03*
X38000Y-41500D03*
X38000Y-40500D03*
X38000Y-39500D03*
X38000Y-38500D03*
X38000Y-37500D03*
X38000Y-36500D03*
X38000Y-35500D03*
X38000Y-34500D03*
X38000Y-33500D03*
X38000Y-32500D03*
X38000Y-31500D03*
X38000Y-30500D03*
X38000Y-29500D03*
X38000Y-28500D03*
G54D20*
X37200Y-16850D03*
X41700Y-16850D03*
G54D11*
X41200Y-19350D03*
G54D12*
X40700Y-20350D03*
X40200Y-19350D03*
X39700Y-20350D03*
X39200Y-19350D03*
X38700Y-20350D03*
X38200Y-19350D03*
X37700Y-20350D03*
G54D21*
X42550Y-18050D03*
X36350Y-18050D03*
G54D22*
X42050Y-15250D03*
X41060Y-15250D03*
X37840Y-15250D03*
X36850Y-15250D03*
G54D23*
X50200Y-49300D03*
X52200Y-49300D03*
X20250Y-36100D03*
X18250Y-36100D03*
X35100Y-22550D03*
X35100Y-20550D03*
X51000Y-57250D03*
X49000Y-57250D03*
X51000Y-55250D03*
X49000Y-55250D03*
G54D24*
X44750Y-29250D03*
X44750Y-30250D03*
X45200Y-50500D03*
X46200Y-50500D03*
G54D11*
X53750Y-59850D03*
G54D12*
X53750Y-61228D03*
G54D25*
X18100Y-51250D03*
X18100Y-50250D03*
G54D26*
X18100Y-49250D03*
G54D25*
X18100Y-46750D03*
X18100Y-45750D03*
G54D26*
X18100Y-44750D03*
G54D27*
X30755Y-17720D03*
X31545Y-17720D03*
G54D28*
X29775Y-17720D03*
G54D29*
X28565Y-16650D03*
X33735Y-16650D03*
G54D28*
X32525Y-17720D03*
G54D24*
X45200Y-52700D03*
X46200Y-52700D03*
G54D30*
X50212Y-40000D03*
G54D22*
X49188Y-40000D03*
G54D30*
X50212Y-30000D03*
G54D22*
X49188Y-30000D03*
G54D30*
X50212Y-20000D03*
G54D22*
X49188Y-20000D03*
G54D31*
X14250Y-54000D03*
G54D28*
X14250Y-55000D03*
X14250Y-56000D03*
G54D31*
X21300Y-50650D03*
G54D28*
X21300Y-49650D03*
X21300Y-48650D03*
G54D31*
X21300Y-46750D03*
G54D28*
X21300Y-45750D03*
X21300Y-44750D03*
G54D32*
X47750Y-17375D03*
X48750Y-17375D03*
X46750Y-17375D03*
X49250Y-18375D03*
X48250Y-18375D03*
X47250Y-18375D03*
G54D23*
X45000Y-58250D03*
X45000Y-62250D03*
X27500Y-58750D03*
X31500Y-58750D03*
X27500Y-56750D03*
X31500Y-56750D03*
X40300Y-51000D03*
X44300Y-51000D03*
X49000Y-58250D03*
X49000Y-62250D03*
X27500Y-54750D03*
X31500Y-54750D03*
X27500Y-52750D03*
X31500Y-52750D03*
X27500Y-55750D03*
X31500Y-55750D03*
X27500Y-53750D03*
X31500Y-53750D03*
X27500Y-51750D03*
X31500Y-51750D03*
X19750Y-43500D03*
X19750Y-47500D03*
X19750Y-48500D03*
X19750Y-52500D03*
X21250Y-39250D03*
X17250Y-39250D03*
X17250Y-29750D03*
X21250Y-29750D03*
X44300Y-52100D03*
X40300Y-52100D03*
X44750Y-27750D03*
X44750Y-23750D03*
X35100Y-19250D03*
X35100Y-15250D03*
X43700Y-19250D03*
X43700Y-15250D03*
X44250Y-22150D03*
X40250Y-22150D03*
X27500Y-57750D03*
X31500Y-57750D03*
X40000Y-58250D03*
X40000Y-62250D03*
X38000Y-58250D03*
X38000Y-62250D03*
X21250Y-40250D03*
X17250Y-40250D03*
X21250Y-37250D03*
X17250Y-37250D03*
X17250Y-38250D03*
X21250Y-38250D03*
X17250Y-31750D03*
X21250Y-31750D03*
G54D33*
X43500Y-49300D03*
G54D23*
X42500Y-48800D03*
X43500Y-48300D03*
X42500Y-47800D03*
X43500Y-47300D03*
X42500Y-46800D03*
X43500Y-46300D03*
X42500Y-45800D03*
X43500Y-45300D03*
X42500Y-44800D03*
X43500Y-44300D03*
X42500Y-43800D03*
G54D34*
X54500Y-16000D03*
G54D35*
X55000Y-64000D03*
X14000Y-64000D03*
X14000Y-16000D03*
G54D36*
X23000Y-64000D03*
G54D37*
X21000Y-64000D03*
X19000Y-64000D03*
X17000Y-64000D03*
G54D28*
X21500Y-65000D03*
X20500Y-65000D03*
X19500Y-65000D03*
X18500Y-65000D03*
G54D36*
X14250Y-33300D03*
G54D37*
X14250Y-31300D03*
X14250Y-29300D03*
X14250Y-27300D03*
G54D28*
X13250Y-31800D03*
X13250Y-30800D03*
X13250Y-29800D03*
X13250Y-28800D03*
G54D36*
X32000Y-64000D03*
G54D37*
X30000Y-64000D03*
X28000Y-64000D03*
X26000Y-64000D03*
G54D28*
X30500Y-65000D03*
X29500Y-65000D03*
X28500Y-65000D03*
X27500Y-65000D03*
G54D36*
X50000Y-64000D03*
G54D37*
X48000Y-64000D03*
X46000Y-64000D03*
X44000Y-64000D03*
G54D28*
X48500Y-65000D03*
X47500Y-65000D03*
X46500Y-65000D03*
X45500Y-65000D03*
G54D36*
X41000Y-64000D03*
G54D37*
X39000Y-64000D03*
X37000Y-64000D03*
X35000Y-64000D03*
G54D28*
X39500Y-65000D03*
X38500Y-65000D03*
X37500Y-65000D03*
X36500Y-65000D03*
G54D36*
X14250Y-51300D03*
G54D37*
X14250Y-49300D03*
X14250Y-47300D03*
X14250Y-45300D03*
G54D28*
X13250Y-49800D03*
X13250Y-48800D03*
X13250Y-47800D03*
X13250Y-46800D03*
G54D36*
X14250Y-42300D03*
G54D37*
X14250Y-40300D03*
X14250Y-38300D03*
X14250Y-36300D03*
G54D28*
X13250Y-40800D03*
X13250Y-39800D03*
X13250Y-38800D03*
X13250Y-37800D03*
G54D31*
X52500Y-56000D03*
G54D28*
X52500Y-55000D03*
G54D38*
X54000Y-29500D03*
G54D39*
X54000Y-31500D03*
X54000Y-33500D03*
X54000Y-35500D03*
G54D31*
X55000Y-31500D03*
G54D28*
X55000Y-32500D03*
X55000Y-33500D03*
X55000Y-34500D03*
G54D39*
X54000Y-37500D03*
G54D28*
X55000Y-35500D03*
G54D38*
X54000Y-19500D03*
G54D39*
X54000Y-21500D03*
X54000Y-23500D03*
X54000Y-25500D03*
G54D31*
X55000Y-21500D03*
G54D28*
X55000Y-22500D03*
X55000Y-23500D03*
X55000Y-24500D03*
G54D39*
X54000Y-27500D03*
G54D28*
X55000Y-25500D03*
G54D38*
X54000Y-39500D03*
G54D39*
X54000Y-41500D03*
X54000Y-43500D03*
X54000Y-45500D03*
G54D31*
X55000Y-41500D03*
G54D28*
X55000Y-42500D03*
X55000Y-43500D03*
X55000Y-44500D03*
G54D39*
X54000Y-47500D03*
G54D28*
X55000Y-45500D03*
G54D23*
X40550Y-27850D03*
X42550Y-27850D03*
G54D40*
X24542Y-26601D03*
X23563Y-26601D03*
X22585Y-26601D03*
X21607Y-26601D03*
X20630Y-26601D03*
X19651Y-26601D03*
X18702Y-26601D03*
X18037Y-26601D03*
X25557Y-26601D03*
X17470Y-26601D03*
X16844Y-26601D03*
G54D41*
X26750Y-26182D03*
G54D42*
X24077Y-25465D03*
X21057Y-25465D03*
X16762Y-14717D03*
G54D41*
X17467Y-25323D03*
G54D43*
X27435Y-14820D03*
G54D44*
X19111Y-15868D03*
G54D45*
X22910Y-21797D03*
X22477Y-21797D03*
X22044Y-21797D03*
X21611Y-21797D03*
X21178Y-21797D03*
X20745Y-21797D03*
X20312Y-21797D03*
X19878Y-21797D03*
G54D46*
X19069Y-21064D03*
G54D47*
X19058Y-18151D03*
G54D44*
X24426Y-15868D03*
G54D48*
X24308Y-21714D03*
G54D49*
X19286Y-21753D03*
G54D36*
X54000Y-52000D03*
G54D37*
X54000Y-54000D03*
G54D28*
X55000Y-53000D03*
X55000Y-54000D03*
X55000Y-55000D03*
G54D37*
X54000Y-56000D03*
G54D31*
X44550Y-55600D03*
G54D28*
X44550Y-54600D03*
X44550Y-56600D03*
X43550Y-55600D03*
G54D50*
X47200Y-30000D03*
G54D51*
X47200Y-31000D03*
X47200Y-32000D03*
X47200Y-33000D03*
X47200Y-34000D03*
X47200Y-35000D03*
X47200Y-36000D03*
X47200Y-37000D03*
X52200Y-37000D03*
X52200Y-36000D03*
X52200Y-35000D03*
X52200Y-34000D03*
X52200Y-33000D03*
X52200Y-32000D03*
X52200Y-31000D03*
X52200Y-30000D03*
G54D50*
X47200Y-20000D03*
G54D51*
X47200Y-21000D03*
X47200Y-22000D03*
X47200Y-23000D03*
X47200Y-24000D03*
X47200Y-25000D03*
X47200Y-26000D03*
X47200Y-27000D03*
X52200Y-27000D03*
X52200Y-26000D03*
X52200Y-25000D03*
X52200Y-24000D03*
X52200Y-23000D03*
X52200Y-22000D03*
X52200Y-21000D03*
X52200Y-20000D03*
G54D50*
X47200Y-40000D03*
G54D51*
X47200Y-41000D03*
X47200Y-42000D03*
X47200Y-43000D03*
X47200Y-44000D03*
X47200Y-45000D03*
X47200Y-46000D03*
X47200Y-47000D03*
X52200Y-47000D03*
X52200Y-46000D03*
X52200Y-45000D03*
X52200Y-44000D03*
X52200Y-43000D03*
X52200Y-42000D03*
X52200Y-41000D03*
X52200Y-40000D03*
G54D52*
X21600Y-27550D03*
X21000Y-42500D03*
X50100Y-46000D03*
X39000Y-25050D03*
X26500Y-28100D03*
X48750Y-33500D03*
X49275Y-41575D03*
X26500Y-42500D03*
X39950Y-25050D03*
X46500Y-25500D03*
X48650Y-25500D03*
X48575Y-40550D03*
X22350Y-50900D03*
X38000Y-51000D03*
X24500Y-33300D03*
X21500Y-33300D03*
X27475Y-50375D03*
X24500Y-29500D03*
X24500Y-31750D03*
X24350Y-50375D03*
X42550Y-29500D03*
X43750Y-40000D03*
X27000Y-44450D03*
X27000Y-33500D03*
X23900Y-44450D03*
X25000Y-49500D03*
X38000Y-49500D03*
X27500Y-49500D03*
X25000Y-48000D03*
X26000Y-32500D03*
X25500Y-47300D03*
X27000Y-47300D03*
X37000Y-48900D03*
X22450Y-37800D03*
X22500Y-32500D03*
X21250Y-32500D03*
X25500Y-30500D03*
X25500Y-36500D03*
X21250Y-30500D03*
X38250Y-54750D03*
X40900Y-56200D03*
X40900Y-53200D03*
X42800Y-59800D03*
X42800Y-53200D03*
X30850Y-48500D03*
X32500Y-47500D03*
X41800Y-60200D03*
X41800Y-53200D03*
X31350Y-44500D03*
X31350Y-48500D03*
X29850Y-48500D03*
X30350Y-43500D03*
X30350Y-48500D03*
X22600Y-27550D03*
X19650Y-27550D03*
X49025Y-27000D03*
X49025Y-37000D03*
X50100Y-47000D03*
X25500Y-37250D03*
X25050Y-46700D03*
X23000Y-40250D03*
X23000Y-45700D03*
X23000Y-39500D03*
X25000Y-41500D03*
X24000Y-38500D03*
X23500Y-40500D03*
X23000Y-50900D03*
X27500Y-50900D03*
X31850Y-39000D03*
X43550Y-53750D03*
G54D53*
X48600Y-33500D02*
X48600Y-36000D01*
X52200Y-36000D02*
X48600Y-36000D01*
X29500Y-55750D02*
X29500Y-54750D01*
X48600Y-36000D02*
X48600Y-40550D01*
X37550Y-18650D02*
X37450Y-18650D01*
X37450Y-18650D02*
X36850Y-19250D01*
X38500Y-18650D02*
X37550Y-18650D01*
X36850Y-19250D02*
X35100Y-19250D01*
X39200Y-19350D02*
X38500Y-18650D01*
X31500Y-52750D02*
X29500Y-52750D01*
X43700Y-19250D02*
X42400Y-19250D01*
X42400Y-19250D02*
X41650Y-18500D01*
X41650Y-18500D02*
X40050Y-18500D01*
X21000Y-42500D02*
X14450Y-42500D01*
X52200Y-46000D02*
X50100Y-46000D01*
X29500Y-52750D02*
X28500Y-51750D01*
X28500Y-51750D02*
X27500Y-51750D01*
X29475Y-57750D02*
X30475Y-58750D01*
X30475Y-58750D02*
X31500Y-58750D01*
X21611Y-21797D02*
X21611Y-26597D01*
G54D54*
X21611Y-26597D02*
X21607Y-26601D01*
G54D53*
X26500Y-51300D02*
X26950Y-51750D01*
X26500Y-42500D02*
X26500Y-51300D01*
X26950Y-51750D02*
X27500Y-51750D01*
X32650Y-17000D02*
X29650Y-17000D01*
X29650Y-17000D02*
X28150Y-18500D01*
X34900Y-19250D02*
X32650Y-17000D01*
X28150Y-18500D02*
X28150Y-26450D01*
X28150Y-26450D02*
X27100Y-27500D01*
X48600Y-40550D02*
X48600Y-40900D01*
X48600Y-40900D02*
X48700Y-41000D01*
X26500Y-28100D02*
X26500Y-42500D01*
X27100Y-27500D02*
X26500Y-28100D01*
X35100Y-19250D02*
X34900Y-19250D01*
G54D54*
X29500Y-57750D02*
X29475Y-57750D01*
G54D53*
X29475Y-57750D02*
X27500Y-57750D01*
G54D54*
X21587Y-27537D02*
X21600Y-27550D01*
G54D53*
X44750Y-24700D02*
X44750Y-25050D01*
G54D54*
X14450Y-42500D02*
X14250Y-42300D01*
G54D53*
X40050Y-18500D02*
X39200Y-19350D01*
X29500Y-54750D02*
X29500Y-53750D01*
X46050Y-25050D02*
X44750Y-25050D01*
X52200Y-26000D02*
X50300Y-26000D01*
X48600Y-26000D02*
X48600Y-28300D01*
X48600Y-28300D02*
X48600Y-28450D01*
X48600Y-28450D02*
X48600Y-28550D01*
G54D54*
X29375Y-55750D02*
X29500Y-55750D01*
G54D53*
X29500Y-56750D02*
X29500Y-55750D01*
G54D55*
X48750Y-33500D02*
X48600Y-33500D01*
G54D53*
X48600Y-28550D02*
X48600Y-28600D01*
X48600Y-26000D02*
X48600Y-25550D01*
G54D54*
X21607Y-26601D02*
X21607Y-27543D01*
G54D53*
X48600Y-29150D02*
X48600Y-33500D01*
G54D54*
X21607Y-27543D02*
X21600Y-27550D01*
G54D53*
X29500Y-57750D02*
X29500Y-56750D01*
X39700Y-19850D02*
X39200Y-19350D01*
G54D55*
X48575Y-40550D02*
X48600Y-40550D01*
G54D53*
X49275Y-41575D02*
X49025Y-41325D01*
X44750Y-24700D02*
X44750Y-23750D01*
X40000Y-19850D02*
X39700Y-19850D01*
X13250Y-41300D02*
X14250Y-42300D01*
X50100Y-26000D02*
X48600Y-26000D01*
X48700Y-41000D02*
X49025Y-41325D01*
X27500Y-53750D02*
X29500Y-53750D01*
X31500Y-56750D02*
X29500Y-56750D01*
X48600Y-28600D02*
X48600Y-29150D01*
X50100Y-26000D02*
X50300Y-26000D01*
X39950Y-25050D02*
X44400Y-25050D01*
G54D54*
X48600Y-25550D02*
X48650Y-25500D01*
G54D53*
X39000Y-28500D02*
X39000Y-25050D01*
X13250Y-40800D02*
X13250Y-41300D01*
X27500Y-55750D02*
X29375Y-55750D01*
X40500Y-20350D02*
X40000Y-19850D01*
X46050Y-25050D02*
X46500Y-25500D01*
X29500Y-53750D02*
X29500Y-52750D01*
X44750Y-25050D02*
X44400Y-25050D01*
G54D54*
X38000Y-28500D02*
X39000Y-28500D01*
G54D53*
X35100Y-20550D02*
X35100Y-19250D01*
G54D54*
X40700Y-20350D02*
X40500Y-20350D01*
G54D53*
X31500Y-54750D02*
X29500Y-54750D01*
X14250Y-54000D02*
X18600Y-54000D01*
X19250Y-54000D02*
X18600Y-54000D01*
X22350Y-50900D02*
X19250Y-54000D01*
X24500Y-50225D02*
X24350Y-50375D01*
X24500Y-49900D02*
X24500Y-49875D01*
X42500Y-21600D02*
X40650Y-21600D01*
X47250Y-18375D02*
X45725Y-18375D01*
X39475Y-22175D02*
X39475Y-26925D01*
X40400Y-38000D02*
X42050Y-38000D01*
X42050Y-38000D02*
X42550Y-37500D01*
X42550Y-37500D02*
X42550Y-31150D01*
X37625Y-50625D02*
X37375Y-50375D01*
X37625Y-50625D02*
X38000Y-51000D01*
X39550Y-38000D02*
X40400Y-38000D01*
X24500Y-33300D02*
X24500Y-33750D01*
X24500Y-31750D02*
X24500Y-33300D01*
X42550Y-26800D02*
X42250Y-26500D01*
X40050Y-21600D02*
X39475Y-22175D01*
X24500Y-33750D02*
X24500Y-48100D01*
X24500Y-48100D02*
X24500Y-49950D01*
X38000Y-51000D02*
X38000Y-52000D01*
X33750Y-37450D02*
X34300Y-38000D01*
X42550Y-27250D02*
X42550Y-26800D01*
X33750Y-30250D02*
X33750Y-37450D01*
X42550Y-31150D02*
X42550Y-29500D01*
G54D54*
X38000Y-51925D02*
X38000Y-51925D01*
G54D53*
X38000Y-53200D02*
X38000Y-52100D01*
X14250Y-33300D02*
X21500Y-33300D01*
X42550Y-27850D02*
X42550Y-27250D01*
X24500Y-49950D02*
X24500Y-49900D01*
X37375Y-50375D02*
X27475Y-50375D01*
X13250Y-31800D02*
X13250Y-32300D01*
X13250Y-32300D02*
X14250Y-33300D01*
X42550Y-27250D02*
X39800Y-27250D01*
X39800Y-27250D02*
X39600Y-27050D01*
X43400Y-54600D02*
X44550Y-54600D01*
X47250Y-55250D02*
X46600Y-54600D01*
X46600Y-54600D02*
X43400Y-54600D01*
X43400Y-54600D02*
X39400Y-54600D01*
X39400Y-54600D02*
X38000Y-53200D01*
X38000Y-53200D02*
X38000Y-51000D01*
X38000Y-53200D02*
X39400Y-54600D01*
G54D54*
X39550Y-38000D02*
X37500Y-38000D01*
G54D53*
X38000Y-52000D02*
X38000Y-51925D01*
X34300Y-38000D02*
X37500Y-38000D01*
X33000Y-29500D02*
X33750Y-30250D01*
X29000Y-29500D02*
X33000Y-29500D01*
X38000Y-51925D02*
X38000Y-52100D01*
X24500Y-29500D02*
X24500Y-31750D01*
X42550Y-26800D02*
X42250Y-26500D01*
X24500Y-49875D02*
X24500Y-50225D01*
G54D56*
X49000Y-55250D02*
X47250Y-55250D01*
G54D53*
X42550Y-27550D02*
X42550Y-26800D01*
X39475Y-26925D02*
X39600Y-27050D01*
X42550Y-29500D02*
X42550Y-27550D01*
X45725Y-18375D02*
X42500Y-21600D01*
G54D54*
X40100Y-21600D02*
X40050Y-21600D01*
G54D53*
X40650Y-21600D02*
X40100Y-21600D01*
X39550Y-36000D02*
X39900Y-36000D01*
X39900Y-36000D02*
X40450Y-35450D01*
X40450Y-35450D02*
X40450Y-30200D01*
X40450Y-30200D02*
X39750Y-29500D01*
X39750Y-29500D02*
X39000Y-29500D01*
X37150Y-36000D02*
X37450Y-36000D01*
X32525Y-17720D02*
X32525Y-21125D01*
X35500Y-36000D02*
X37150Y-36000D01*
X35150Y-35650D02*
X35500Y-36000D01*
X35150Y-23750D02*
X35150Y-35650D01*
G54D55*
X39750Y-29500D02*
X39000Y-29500D01*
X40450Y-30200D02*
X39750Y-29500D01*
X40450Y-35450D02*
X40450Y-30200D01*
G54D53*
X32525Y-21125D02*
X35150Y-23750D01*
G54D55*
X37450Y-36000D02*
X39550Y-36000D01*
X39900Y-36000D02*
X40450Y-35450D01*
G54D54*
X41250Y-23150D02*
X40250Y-22150D01*
X40250Y-22150D02*
X43150Y-22150D01*
X47750Y-18750D02*
X47750Y-17375D01*
X47600Y-18900D02*
X47750Y-18750D01*
X46400Y-18900D02*
X47600Y-18900D01*
X43150Y-22150D02*
X46400Y-18900D01*
X41250Y-23500D02*
X41250Y-23150D01*
X48100Y-19200D02*
X48250Y-19050D01*
X42250Y-23500D02*
X42250Y-23050D01*
X44300Y-21600D02*
X46700Y-19200D01*
X43800Y-22600D02*
X44250Y-22150D01*
X48250Y-19050D02*
X48250Y-18375D01*
X46700Y-19200D02*
X47350Y-19200D01*
X42700Y-22600D02*
X43800Y-22600D01*
X44250Y-22150D02*
X44250Y-21650D01*
X47350Y-19200D02*
X48100Y-19200D01*
X42250Y-23050D02*
X42700Y-22600D01*
X44250Y-21650D02*
X44300Y-21600D01*
G54D55*
X38000Y-38500D02*
X39000Y-38500D01*
G54D54*
X43250Y-37950D02*
X42700Y-38500D01*
X43250Y-26500D02*
X43250Y-37950D01*
X42700Y-38500D02*
X39000Y-38500D01*
X43800Y-38700D02*
X43000Y-39500D01*
X40250Y-26500D02*
X41100Y-25650D01*
X43000Y-39500D02*
X39000Y-39500D01*
X39000Y-39500D02*
X38000Y-39500D01*
X43800Y-25950D02*
X43800Y-38700D01*
X41100Y-25650D02*
X43500Y-25650D01*
X43500Y-25650D02*
X43800Y-25950D01*
X48250Y-39750D02*
X48250Y-30000D01*
X48250Y-30000D02*
X48250Y-20000D01*
X32350Y-34500D02*
X33100Y-35250D01*
X48000Y-40000D02*
X48250Y-39750D01*
X37250Y-40000D02*
X33600Y-40000D01*
X33100Y-39500D02*
X33600Y-40000D01*
X33100Y-35250D02*
X33100Y-39500D01*
X47200Y-40000D02*
X48000Y-40000D01*
X48250Y-20000D02*
X47200Y-20000D01*
X43750Y-40000D02*
X37250Y-40000D01*
X28000Y-34500D02*
X29000Y-34500D01*
X32350Y-34500D02*
X29000Y-34500D01*
X47200Y-30000D02*
X48250Y-30000D01*
X26000Y-57750D02*
X24500Y-57750D01*
X27000Y-33500D02*
X27000Y-44450D01*
X23900Y-44750D02*
X23900Y-44450D01*
X23900Y-55500D02*
X23900Y-44750D01*
X24500Y-57750D02*
X23900Y-57150D01*
X23900Y-57150D02*
X23900Y-55500D01*
X25000Y-51050D02*
X24650Y-51400D01*
X24650Y-55150D02*
X25250Y-55750D01*
X24650Y-51400D02*
X24650Y-55150D01*
X25250Y-55750D02*
X26000Y-55750D01*
X25000Y-49500D02*
X25000Y-48650D01*
X38000Y-49500D02*
X27500Y-49500D01*
X25000Y-48000D02*
X25000Y-48650D01*
X25000Y-51050D02*
X25000Y-51050D01*
X26000Y-55750D02*
X25250Y-55750D01*
X25000Y-49950D02*
X25000Y-49500D01*
X25000Y-50550D02*
X25000Y-49950D01*
X25000Y-50550D02*
X25000Y-51050D01*
X39000Y-47500D02*
X38000Y-47500D01*
X26000Y-51750D02*
X26000Y-32500D01*
X27500Y-48900D02*
X37000Y-48900D01*
X25500Y-48050D02*
X25500Y-47300D01*
X25400Y-53750D02*
X25250Y-53600D01*
X25400Y-53750D02*
X26000Y-53750D01*
X26000Y-53750D02*
X25400Y-53750D01*
X25250Y-51600D02*
X25250Y-53600D01*
X25500Y-50700D02*
X25500Y-51350D01*
X25500Y-51350D02*
X25250Y-51600D01*
X25500Y-49600D02*
X25500Y-48050D01*
X25500Y-50700D02*
X25500Y-49600D01*
X27000Y-47300D02*
X27000Y-48400D01*
X27000Y-48400D02*
X27500Y-48900D01*
G54D55*
X38200Y-21300D02*
X35650Y-23850D01*
X38200Y-20100D02*
X38200Y-21300D01*
X38500Y-19800D02*
X38200Y-20100D01*
X39150Y-19800D02*
X38500Y-19800D01*
G54D54*
X39000Y-35500D02*
X38000Y-35500D01*
G54D55*
X35650Y-23850D02*
X35650Y-35050D01*
X35650Y-35050D02*
X36100Y-35500D01*
X36100Y-35500D02*
X38000Y-35500D01*
X39700Y-20350D02*
X39150Y-19800D01*
X38450Y-20900D02*
X38500Y-20950D01*
X36500Y-34800D02*
X36550Y-34850D01*
X36500Y-34550D02*
X36500Y-34800D01*
X36450Y-34500D02*
X36500Y-34550D01*
X36250Y-34500D02*
X36450Y-34500D01*
X36200Y-34550D02*
X36250Y-34500D01*
X38850Y-21400D02*
X38850Y-21500D01*
X38850Y-21500D02*
X38800Y-21550D01*
X38800Y-21350D02*
X38850Y-21400D01*
X38800Y-21550D02*
X38300Y-21550D01*
X38300Y-21550D02*
X35900Y-23950D01*
X35900Y-23950D02*
X35900Y-34800D01*
X35900Y-34800D02*
X35950Y-34850D01*
X35950Y-34850D02*
X36150Y-34850D01*
X36150Y-34850D02*
X36200Y-34800D01*
X36200Y-34800D02*
X36200Y-34550D01*
X38450Y-21300D02*
X38500Y-21350D01*
X38500Y-21350D02*
X38800Y-21350D01*
X38450Y-21200D02*
X38450Y-21300D01*
X38500Y-21150D02*
X38450Y-21200D01*
X38900Y-21150D02*
X38500Y-21150D01*
X38950Y-21100D02*
X38900Y-21150D01*
X38950Y-21000D02*
X38950Y-21100D01*
X38900Y-20950D02*
X38950Y-21000D01*
X38500Y-20950D02*
X38900Y-20950D01*
X38450Y-20800D02*
X38450Y-20900D01*
X38500Y-20750D02*
X38450Y-20800D01*
X36900Y-34500D02*
X38000Y-34500D01*
X38700Y-20350D02*
X38700Y-20700D01*
X36800Y-34600D02*
X36900Y-34500D01*
X36800Y-34800D02*
X36800Y-34600D01*
X36750Y-34850D02*
X36800Y-34800D01*
X36550Y-34850D02*
X36750Y-34850D01*
G54D54*
X38000Y-34500D02*
X39000Y-34500D01*
G54D55*
X38700Y-20700D02*
X38650Y-20750D01*
X38650Y-20750D02*
X38500Y-20750D01*
G54D54*
X18000Y-32500D02*
X21250Y-32500D01*
X22450Y-32550D02*
X22500Y-32500D01*
X22450Y-32550D02*
X22450Y-37800D01*
X14250Y-31300D02*
X13750Y-30800D01*
X13750Y-30800D02*
X13250Y-30800D01*
X17250Y-31750D02*
X16800Y-31300D01*
X16800Y-31300D02*
X14250Y-31300D01*
X17250Y-31750D02*
X18000Y-32500D01*
X25500Y-36500D02*
X25500Y-30500D01*
X17550Y-30050D02*
X18000Y-30500D01*
X17500Y-30000D02*
X17550Y-30050D01*
X17250Y-29750D02*
X17500Y-30000D01*
X18000Y-30500D02*
X21250Y-30500D01*
X16800Y-29300D02*
X14250Y-29300D01*
X17500Y-30000D02*
X16800Y-29300D01*
X13750Y-29800D02*
X13250Y-29800D01*
X14250Y-29300D02*
X13750Y-29800D01*
G54D55*
X41650Y-20600D02*
X41300Y-20600D01*
X41700Y-20550D02*
X41650Y-20600D01*
X41700Y-20450D02*
X41700Y-20550D01*
X41650Y-20400D02*
X41700Y-20450D01*
X41250Y-20400D02*
X41650Y-20400D01*
G54D54*
X38000Y-33500D02*
X39000Y-33500D01*
G54D55*
X41250Y-20200D02*
X41200Y-20250D01*
X41200Y-20250D02*
X41200Y-20350D01*
X41700Y-20150D02*
X41650Y-20200D01*
X41650Y-20200D02*
X41250Y-20200D01*
X41200Y-20350D02*
X41250Y-20400D01*
X41700Y-20050D02*
X41700Y-20150D01*
X41650Y-20000D02*
X41700Y-20050D01*
X41300Y-20000D02*
X41650Y-20000D01*
X41200Y-19900D02*
X41300Y-20000D01*
X41300Y-20600D02*
X41250Y-20600D01*
X41200Y-20800D02*
X41250Y-20850D01*
X41200Y-20650D02*
X41200Y-20800D01*
X41250Y-20600D02*
X41200Y-20650D01*
X41200Y-19350D02*
X41200Y-19900D01*
X36950Y-33500D02*
X39000Y-33500D01*
X39700Y-21050D02*
X36550Y-24200D01*
X36550Y-24200D02*
X36550Y-33100D01*
X41700Y-21000D02*
X41650Y-21050D01*
X41650Y-21050D02*
X39700Y-21050D01*
X36550Y-33100D02*
X36950Y-33500D01*
X41700Y-20900D02*
X41700Y-21000D01*
X41650Y-20850D02*
X41700Y-20900D01*
X41250Y-20850D02*
X41650Y-20850D01*
X36900Y-33100D02*
X36800Y-33000D01*
X36800Y-33000D02*
X36800Y-24350D01*
X36800Y-24350D02*
X39850Y-21300D01*
X39850Y-21300D02*
X41750Y-21300D01*
X41750Y-21300D02*
X41950Y-21100D01*
X41950Y-21100D02*
X41950Y-19250D01*
X41950Y-19250D02*
X41550Y-18850D01*
X41550Y-18850D02*
X40700Y-18850D01*
X40700Y-18850D02*
X40200Y-19350D01*
X39000Y-32500D02*
X37350Y-32500D01*
G54D54*
X38000Y-32500D02*
X39000Y-32500D01*
G54D55*
X37150Y-33100D02*
X36900Y-33100D01*
X37250Y-33000D02*
X37150Y-33100D01*
X37250Y-32600D02*
X37250Y-33000D01*
X37350Y-32500D02*
X37250Y-32600D01*
G54D54*
X35750Y-54750D02*
X34850Y-54750D01*
X34850Y-53650D02*
X34850Y-54750D01*
X34850Y-54750D02*
X34850Y-56750D01*
X34850Y-56750D02*
X34850Y-57850D01*
X40900Y-53200D02*
X40900Y-53200D01*
X41000Y-64000D02*
X41000Y-59350D01*
X42800Y-47300D02*
X43000Y-47500D01*
X40900Y-48200D02*
X41800Y-47300D01*
X43000Y-47500D02*
X43000Y-47800D01*
X35750Y-58750D02*
X34850Y-57850D01*
X40900Y-53200D02*
X40900Y-48200D01*
X48500Y-65000D02*
X49000Y-65000D01*
X40900Y-56250D02*
X39150Y-56250D01*
X39150Y-56250D02*
X38250Y-55350D01*
X35750Y-52750D02*
X34850Y-53650D01*
X39500Y-65000D02*
X40000Y-65000D01*
X35750Y-58750D02*
X36350Y-59350D01*
X38250Y-55350D02*
X38250Y-54750D01*
X43900Y-56250D02*
X40900Y-56250D01*
X44550Y-55600D02*
X43900Y-56250D01*
X40900Y-56200D02*
X40900Y-56250D01*
X36350Y-59350D02*
X41000Y-59350D01*
X50000Y-60100D02*
X50000Y-64000D01*
X41000Y-59350D02*
X49250Y-59350D01*
X49250Y-59350D02*
X50000Y-60100D01*
X41800Y-47300D02*
X42800Y-47300D01*
X43000Y-47800D02*
X43500Y-48300D01*
X49000Y-65000D02*
X50000Y-64000D01*
X35750Y-56750D02*
X34850Y-56750D01*
X40000Y-65000D02*
X41000Y-64000D01*
X38000Y-45500D02*
X39000Y-45500D01*
X45500Y-42375D02*
X46000Y-42875D01*
X46000Y-45800D02*
X47200Y-47000D01*
X39000Y-45500D02*
X42125Y-42375D01*
X46000Y-42875D02*
X46000Y-45800D01*
X42125Y-42375D02*
X45500Y-42375D01*
X49000Y-60300D02*
X49000Y-62250D01*
X42800Y-59800D02*
X48500Y-59800D01*
X48500Y-59800D02*
X49000Y-60300D01*
X44200Y-47800D02*
X44200Y-49700D01*
X44200Y-49700D02*
X43900Y-50000D01*
X43700Y-47300D02*
X44200Y-47800D01*
X43500Y-47300D02*
X43700Y-47300D01*
X43100Y-50000D02*
X42800Y-50300D01*
X42800Y-50300D02*
X42800Y-50900D01*
X43900Y-50000D02*
X43100Y-50000D01*
X42800Y-50900D02*
X42800Y-53200D01*
X47500Y-64500D02*
X47500Y-65000D01*
X49000Y-62250D02*
X48000Y-63250D01*
X48000Y-63250D02*
X48000Y-64000D01*
X48000Y-64000D02*
X47500Y-64500D01*
X30550Y-35500D02*
X30200Y-35500D01*
X30850Y-35800D02*
X30550Y-35500D01*
X30850Y-48500D02*
X30850Y-35800D01*
X30200Y-35500D02*
X28000Y-35500D01*
X31500Y-53750D02*
X31750Y-53750D01*
X31750Y-53750D02*
X32750Y-54750D01*
X35000Y-47500D02*
X38000Y-44500D01*
X41500Y-42000D02*
X45875Y-42000D01*
X46375Y-42500D02*
X46375Y-45175D01*
X38000Y-44500D02*
X39000Y-44500D01*
X45875Y-42000D02*
X46375Y-42500D01*
X32500Y-47500D02*
X35000Y-47500D01*
X46375Y-45175D02*
X47200Y-46000D01*
X39000Y-44500D02*
X41500Y-42000D01*
G54D53*
X46550Y-48475D02*
X48200Y-48475D01*
X52200Y-44000D02*
X49750Y-44000D01*
X49000Y-44750D02*
X49000Y-47675D01*
X49750Y-44000D02*
X49725Y-44025D01*
X49725Y-44025D02*
X49000Y-44750D01*
X44875Y-45750D02*
X44875Y-46650D01*
X44875Y-46650D02*
X44875Y-46800D01*
X48200Y-48475D02*
X49000Y-47675D01*
X44875Y-46800D02*
X46550Y-48475D01*
X44650Y-45525D02*
X44875Y-45750D01*
X44425Y-45300D02*
X43500Y-45300D01*
X44650Y-45525D02*
X44425Y-45300D01*
X44375Y-46450D02*
X44375Y-46875D01*
X44375Y-46450D02*
X44375Y-46200D01*
G54D54*
X43200Y-45800D02*
X43400Y-45800D01*
G54D53*
X44375Y-46875D02*
X46375Y-48875D01*
X44100Y-45800D02*
X43800Y-45800D01*
X44375Y-46200D02*
X44375Y-46075D01*
G54D54*
X43000Y-45500D02*
X43000Y-45600D01*
G54D53*
X44375Y-46075D02*
X44100Y-45800D01*
X52200Y-45000D02*
X49875Y-45000D01*
G54D54*
X43000Y-45300D02*
X43000Y-45500D01*
X43400Y-45800D02*
X43800Y-45800D01*
X42500Y-44800D02*
X43000Y-45300D01*
X43000Y-45600D02*
X43200Y-45800D01*
G54D53*
X46375Y-48875D02*
X48400Y-48875D01*
X48400Y-48875D02*
X49500Y-47775D01*
X49875Y-45000D02*
X49500Y-45375D01*
X49500Y-45375D02*
X49500Y-47550D01*
X49500Y-47775D02*
X49500Y-47550D01*
G54D54*
X43000Y-44500D02*
X43000Y-44300D01*
X43000Y-44600D02*
X43200Y-44800D01*
X43800Y-44800D02*
X44800Y-44800D01*
X43200Y-44800D02*
X43800Y-44800D01*
G54D53*
X45250Y-46575D02*
X45250Y-45250D01*
X47975Y-48075D02*
X46750Y-48075D01*
X48500Y-47550D02*
X48500Y-43625D01*
X48500Y-47550D02*
X47975Y-48075D01*
X52200Y-43000D02*
X49125Y-43000D01*
G54D54*
X43000Y-44500D02*
X43000Y-44600D01*
G54D53*
X45125Y-45125D02*
X45250Y-45250D01*
X45000Y-45000D02*
X45125Y-45125D01*
G54D54*
X43000Y-44300D02*
X42500Y-43800D01*
G54D53*
X44900Y-44900D02*
X45000Y-45000D01*
X48500Y-43625D02*
X49125Y-43000D01*
X46750Y-48075D02*
X45250Y-46575D01*
X45250Y-45250D02*
X45125Y-45125D01*
X45000Y-45000D02*
X45250Y-45250D01*
X44900Y-44900D02*
X44800Y-44800D01*
X44800Y-44800D02*
X43800Y-44800D01*
X47700Y-47700D02*
X48000Y-47400D01*
X48000Y-47400D02*
X48000Y-42900D01*
X48000Y-42900D02*
X48900Y-42000D01*
X46900Y-47700D02*
X47700Y-47700D01*
X45600Y-46400D02*
X46900Y-47700D01*
X45600Y-44900D02*
X45600Y-46400D01*
X48900Y-42000D02*
X52200Y-42000D01*
X43500Y-44300D02*
X45000Y-44300D01*
X45000Y-44300D02*
X45600Y-44900D01*
G54D54*
X45750Y-38500D02*
X45750Y-38450D01*
X45750Y-38500D02*
X45750Y-40000D01*
X38000Y-43500D02*
X39000Y-43500D01*
X45750Y-40000D02*
X45750Y-40250D01*
X44375Y-41625D02*
X45750Y-40250D01*
X39000Y-43500D02*
X40875Y-41625D01*
X45750Y-38450D02*
X45750Y-38500D01*
X45750Y-38450D02*
X45750Y-38000D01*
X40875Y-41625D02*
X44375Y-41625D01*
X45750Y-38000D02*
X46750Y-37000D01*
X46750Y-37000D02*
X47200Y-37000D01*
X41800Y-48150D02*
X41800Y-53200D01*
X41800Y-60200D02*
X41850Y-60200D01*
X45000Y-62250D02*
X45000Y-60450D01*
X45000Y-60450D02*
X44750Y-60200D01*
X44750Y-60200D02*
X42500Y-60200D01*
X42500Y-60200D02*
X41850Y-60200D01*
X46500Y-64500D02*
X46000Y-64000D01*
X46500Y-65000D02*
X46500Y-64500D01*
X46000Y-63250D02*
X46000Y-64000D01*
X42150Y-47800D02*
X42500Y-47800D01*
X41800Y-48150D02*
X42150Y-47800D01*
X45000Y-62250D02*
X46000Y-63250D01*
X31750Y-51750D02*
X32750Y-52750D01*
X31500Y-51750D02*
X31750Y-51750D01*
X31350Y-48500D02*
X31350Y-44500D01*
X28000Y-44500D02*
X29000Y-44500D01*
X39000Y-42500D02*
X40250Y-41250D01*
X44250Y-41250D02*
X45250Y-40250D01*
X45250Y-37750D02*
X45250Y-40250D01*
X38000Y-42500D02*
X39000Y-42500D01*
X40250Y-41250D02*
X44250Y-41250D01*
X47000Y-36000D02*
X45250Y-37750D01*
X47200Y-36000D02*
X47000Y-36000D01*
X39000Y-63250D02*
X39000Y-64000D01*
X40000Y-62250D02*
X39000Y-63250D01*
X38500Y-65000D02*
X38500Y-64500D01*
X38500Y-64500D02*
X39000Y-64000D01*
X29550Y-42500D02*
X29000Y-42500D01*
X29850Y-48500D02*
X29850Y-48500D01*
X29850Y-48500D02*
X29850Y-42800D01*
X29000Y-42500D02*
X28000Y-42500D01*
X31750Y-57750D02*
X32750Y-58750D01*
X31500Y-57750D02*
X31750Y-57750D01*
X29850Y-42800D02*
X29550Y-42500D01*
X37000Y-63250D02*
X37000Y-64000D01*
X38000Y-62250D02*
X37000Y-63250D01*
X37500Y-65000D02*
X37500Y-64500D01*
X37500Y-64500D02*
X37000Y-64000D01*
X29000Y-43500D02*
X28000Y-43500D01*
X31750Y-55750D02*
X32750Y-56750D01*
X31500Y-55750D02*
X31750Y-55750D01*
X30350Y-48500D02*
X30350Y-43500D01*
X46250Y-36000D02*
X46250Y-27950D01*
X39875Y-40875D02*
X44125Y-40875D01*
X39250Y-41500D02*
X39875Y-40875D01*
X44750Y-37500D02*
X46250Y-36000D01*
X44125Y-40875D02*
X44750Y-40250D01*
X44750Y-40250D02*
X44750Y-37500D01*
X38000Y-41500D02*
X39000Y-41500D01*
X39000Y-41500D02*
X39250Y-41500D01*
X46250Y-27950D02*
X47200Y-27000D01*
X44250Y-37250D02*
X45750Y-35750D01*
X39000Y-40500D02*
X38000Y-40500D01*
X44250Y-40250D02*
X44250Y-37250D01*
X44250Y-40250D02*
X44000Y-40500D01*
X45750Y-27450D02*
X47200Y-26000D01*
X45750Y-35750D02*
X45750Y-27450D01*
X44000Y-40500D02*
X39000Y-40500D01*
X22585Y-26601D02*
X22585Y-27535D01*
X19651Y-27549D02*
X19650Y-27550D01*
X19651Y-26601D02*
X19651Y-27549D01*
X22044Y-21797D02*
X22044Y-22600D01*
X20745Y-23355D02*
X19651Y-24449D01*
X13250Y-37300D02*
X14250Y-36300D01*
G54D53*
X49350Y-37000D02*
X49025Y-37000D01*
X52200Y-47000D02*
X50100Y-47000D01*
G54D54*
X19651Y-24449D02*
X19651Y-26601D01*
X20745Y-21797D02*
X20745Y-23355D01*
G54D53*
X52200Y-27000D02*
X49450Y-27000D01*
G54D54*
X22585Y-27535D02*
X22600Y-27550D01*
X22044Y-22600D02*
X22044Y-23450D01*
X22044Y-23594D02*
X22585Y-24135D01*
X36000Y-65000D02*
X35000Y-64000D01*
G54D53*
X49450Y-27000D02*
X49025Y-27000D01*
G54D54*
X36500Y-65000D02*
X36000Y-65000D01*
X13250Y-37800D02*
X13250Y-37300D01*
X22585Y-24135D02*
X22585Y-26601D01*
X22044Y-23450D02*
X22044Y-23594D01*
G54D53*
X52200Y-37000D02*
X49350Y-37000D01*
G54D55*
X38000Y-36500D02*
X35500Y-36500D01*
X35100Y-37200D02*
X34850Y-37200D01*
X34850Y-37200D02*
X34750Y-37200D01*
X31300Y-20850D02*
X31300Y-17965D01*
X35300Y-36700D02*
X35300Y-37000D01*
G54D54*
X38000Y-36500D02*
X39000Y-36500D01*
G54D55*
X35500Y-36500D02*
X35300Y-36700D01*
X31300Y-17965D02*
X31545Y-17720D01*
X34550Y-24100D02*
X31300Y-20850D01*
X34750Y-37200D02*
X34550Y-37000D01*
X35300Y-37000D02*
X35100Y-37200D01*
X34550Y-37000D02*
X34550Y-24100D01*
G54D53*
X18100Y-50250D02*
X16000Y-50250D01*
X15200Y-50250D02*
X14250Y-49300D01*
X16000Y-50250D02*
X15200Y-50250D01*
X13750Y-48800D02*
X13250Y-48800D01*
X14250Y-49300D02*
X13750Y-48800D01*
G54D54*
X17250Y-38250D02*
X17250Y-39250D01*
X25500Y-46250D02*
X25500Y-46200D01*
X21250Y-37100D02*
X20250Y-36100D01*
X20250Y-38250D02*
X21250Y-37250D01*
X21250Y-37250D02*
X21250Y-37100D01*
X17250Y-38250D02*
X20250Y-38250D01*
X25500Y-37250D02*
X25500Y-46200D01*
X25050Y-46700D02*
X25500Y-46250D01*
X13250Y-49800D02*
X13250Y-50300D01*
X13250Y-50300D02*
X14250Y-51300D01*
X14250Y-55000D02*
X13650Y-55000D01*
X13150Y-52400D02*
X14250Y-51300D01*
X13150Y-54500D02*
X13150Y-52400D01*
X13650Y-55000D02*
X13150Y-54500D01*
G54D53*
X19750Y-49300D02*
X19750Y-48500D01*
X21300Y-49650D02*
X20100Y-49650D01*
X20100Y-49650D02*
X19750Y-49300D01*
X18100Y-51250D02*
X19350Y-51250D01*
X19350Y-51250D02*
X19750Y-51650D01*
X19750Y-51650D02*
X19750Y-52500D01*
G54D54*
X19750Y-45150D02*
X19750Y-43500D01*
X21300Y-45750D02*
X20350Y-45750D01*
X20350Y-45750D02*
X19750Y-45150D01*
G54D53*
X19000Y-46750D02*
X19750Y-47500D01*
X18100Y-46750D02*
X19000Y-46750D01*
G54D54*
X23000Y-45250D02*
X23000Y-45700D01*
X23000Y-40250D02*
X23000Y-45250D01*
X40000Y-58250D02*
X39400Y-58850D01*
X36850Y-58850D02*
X35750Y-57750D01*
X39000Y-58850D02*
X38250Y-58850D01*
X39400Y-58850D02*
X39000Y-58850D01*
X38250Y-58850D02*
X37650Y-58850D01*
X37650Y-58850D02*
X36850Y-58850D01*
X35750Y-55750D02*
X38000Y-58000D01*
X38000Y-58000D02*
X38000Y-58250D01*
X36650Y-55900D02*
X38400Y-57650D01*
X36500Y-55750D02*
X36500Y-54500D01*
X44500Y-59000D02*
X48250Y-59000D01*
X41900Y-57650D02*
X38400Y-57650D01*
X43150Y-57650D02*
X44500Y-59000D01*
X36500Y-54500D02*
X35750Y-53750D01*
X36650Y-55900D02*
X36500Y-55750D01*
X41900Y-57650D02*
X43150Y-57650D01*
X48250Y-59000D02*
X49000Y-58250D01*
X38550Y-57050D02*
X38850Y-57050D01*
X45000Y-58250D02*
X43800Y-57050D01*
X37000Y-55500D02*
X37000Y-54550D01*
X43800Y-57050D02*
X42500Y-57050D01*
X37000Y-53000D02*
X35750Y-51750D01*
X37400Y-55900D02*
X38550Y-57050D01*
X37400Y-55900D02*
X37000Y-55500D01*
X42500Y-57050D02*
X38850Y-57050D01*
X37000Y-54550D02*
X37000Y-53000D01*
X20000Y-54750D02*
X20000Y-61000D01*
X18000Y-65000D02*
X17000Y-64000D01*
X23000Y-51750D02*
X20000Y-54750D01*
X20000Y-61000D02*
X17000Y-64000D01*
X18500Y-65000D02*
X18000Y-65000D01*
X20750Y-59625D02*
X20750Y-63750D01*
X20750Y-56000D02*
X23000Y-53750D01*
X20500Y-65000D02*
X20500Y-64500D01*
X20750Y-59625D02*
X20750Y-56000D01*
X20500Y-64500D02*
X21000Y-64000D01*
X20750Y-63750D02*
X21000Y-64000D01*
X23000Y-55750D02*
X21500Y-57250D01*
X22750Y-60625D02*
X25375Y-60625D01*
X26000Y-61250D02*
X26000Y-64000D01*
X25375Y-60625D02*
X26000Y-61250D01*
X27500Y-65000D02*
X27000Y-65000D01*
X21500Y-57250D02*
X21500Y-59375D01*
X27000Y-65000D02*
X26000Y-64000D01*
X21500Y-59375D02*
X22750Y-60625D01*
X26000Y-56750D02*
X27500Y-56750D01*
X27500Y-54750D02*
X26000Y-54750D01*
X26000Y-52750D02*
X27500Y-52750D01*
X23000Y-39500D02*
X23000Y-28950D01*
X18700Y-24750D02*
X18700Y-26599D01*
X22700Y-28650D02*
X19050Y-28650D01*
X18702Y-26601D02*
X18702Y-28302D01*
X20312Y-21797D02*
X20312Y-23138D01*
X23000Y-28950D02*
X22700Y-28650D01*
X18702Y-28302D02*
X19050Y-28650D01*
X18700Y-26599D02*
X18702Y-26601D01*
X20312Y-23138D02*
X18700Y-24750D01*
X24550Y-27150D02*
X24600Y-27200D01*
X24600Y-27200D02*
X24900Y-27500D01*
X25000Y-27600D02*
X24900Y-27500D01*
X24542Y-27142D02*
X24542Y-26601D01*
X24550Y-27150D02*
X24542Y-27142D01*
X22910Y-23210D02*
X24750Y-25050D01*
X22910Y-21797D02*
X22910Y-23210D01*
X25000Y-41500D02*
X25000Y-27600D01*
X24750Y-25050D02*
X24750Y-25950D01*
X24542Y-26158D02*
X24542Y-26601D01*
X24750Y-25950D02*
X24542Y-26158D01*
X23563Y-27213D02*
X23563Y-26601D01*
X24000Y-27650D02*
X24000Y-38500D01*
X23600Y-27250D02*
X23563Y-27213D01*
X22477Y-23200D02*
X22477Y-23377D01*
X23563Y-24463D02*
X23563Y-26601D01*
X22477Y-21797D02*
X22477Y-23000D01*
X22477Y-23377D02*
X23563Y-24463D01*
X23600Y-27250D02*
X24000Y-27650D01*
X22477Y-23000D02*
X22477Y-23200D01*
X20630Y-26130D02*
X20630Y-26601D01*
X20630Y-28030D02*
X20950Y-28350D01*
X23500Y-28550D02*
X23500Y-40500D01*
X20350Y-24400D02*
X20350Y-25850D01*
X20350Y-25850D02*
X20630Y-26130D01*
X20630Y-26601D02*
X20630Y-28030D01*
X21178Y-23572D02*
X20350Y-24400D01*
X21178Y-21797D02*
X21178Y-23572D01*
X23300Y-28350D02*
X23500Y-28550D01*
X22800Y-28350D02*
X23300Y-28350D01*
X22800Y-28350D02*
X20950Y-28350D01*
X47200Y-35000D02*
X47200Y-34000D01*
G54D55*
X31000Y-17965D02*
X31000Y-20950D01*
X30755Y-17720D02*
X31000Y-17965D01*
X31000Y-20950D02*
X31000Y-21000D01*
X31000Y-21000D02*
X34250Y-24250D01*
G54D54*
X39000Y-37500D02*
X38000Y-37500D01*
G54D55*
X34250Y-24250D02*
X34250Y-37150D01*
X38000Y-37500D02*
X34600Y-37500D01*
X34250Y-37150D02*
X34600Y-37500D01*
G54D54*
X14250Y-40300D02*
X17200Y-40300D01*
X13750Y-39800D02*
X14250Y-40300D01*
X17200Y-40300D02*
X17250Y-40250D01*
X13250Y-39800D02*
X13750Y-39800D01*
X14250Y-38300D02*
X16200Y-38300D01*
X16200Y-38300D02*
X17250Y-37250D01*
X13250Y-38800D02*
X13750Y-38800D01*
X13750Y-38800D02*
X14250Y-38300D01*
X22000Y-65000D02*
X23000Y-64000D01*
X21250Y-56500D02*
X21125Y-56625D01*
X21500Y-65000D02*
X22000Y-65000D01*
X21125Y-56625D02*
X21125Y-59500D01*
X23000Y-54750D02*
X21125Y-56625D01*
X21125Y-59500D02*
X23000Y-61375D01*
X21125Y-56625D02*
X21250Y-56500D01*
X23000Y-61375D02*
X23000Y-64000D01*
X19000Y-64000D02*
X20375Y-62625D01*
X20375Y-55375D02*
X23000Y-52750D01*
X20375Y-62625D02*
X20375Y-55375D01*
X19500Y-64500D02*
X19000Y-64000D01*
X19500Y-65000D02*
X19500Y-64500D01*
X24000Y-59500D02*
X31375Y-59500D01*
X31375Y-59500D02*
X32000Y-60125D01*
X23250Y-58750D02*
X24000Y-59500D01*
X23000Y-58750D02*
X23250Y-58750D01*
X32000Y-60125D02*
X32000Y-64000D01*
X31000Y-65000D02*
X32000Y-64000D01*
X30500Y-65000D02*
X31000Y-65000D01*
X30000Y-60375D02*
X30000Y-64000D01*
X23000Y-57750D02*
X22750Y-57750D01*
X29500Y-59875D02*
X30000Y-60375D01*
X29500Y-64500D02*
X30000Y-64000D01*
X23000Y-59875D02*
X29500Y-59875D01*
X22750Y-57750D02*
X22250Y-58250D01*
X29500Y-65000D02*
X29500Y-64500D01*
X22250Y-58250D02*
X22250Y-59125D01*
X22250Y-59125D02*
X23000Y-59875D01*
X28000Y-60875D02*
X27375Y-60250D01*
X28000Y-64000D02*
X28000Y-60875D01*
X21875Y-59250D02*
X21875Y-57875D01*
X21875Y-57875D02*
X23000Y-56750D01*
X28500Y-64500D02*
X28000Y-64000D01*
X28500Y-65000D02*
X28500Y-64500D01*
X27375Y-60250D02*
X22875Y-60250D01*
X22875Y-60250D02*
X21875Y-59250D01*
X26000Y-58750D02*
X27500Y-58750D01*
X44750Y-29250D02*
X44750Y-27750D01*
X44750Y-28750D02*
X44750Y-27750D01*
X35650Y-15800D02*
X35100Y-15250D01*
X37290Y-15800D02*
X35650Y-15800D01*
X37840Y-15250D02*
X37290Y-15800D01*
X43700Y-15250D02*
X42050Y-15250D01*
X47200Y-25000D02*
X47200Y-24000D01*
X47200Y-45000D02*
X47200Y-44000D01*
G54D53*
X18100Y-45750D02*
X15800Y-45750D01*
X15800Y-45750D02*
X14250Y-47300D01*
X13750Y-47800D02*
X13250Y-47800D01*
X15800Y-45750D02*
X13750Y-47800D01*
G54D54*
X37500Y-55200D02*
X37500Y-52200D01*
X23000Y-50900D02*
X23025Y-50875D01*
G54D56*
X55000Y-55000D02*
X54000Y-56000D01*
X54000Y-56000D02*
X53750Y-56000D01*
X53750Y-56000D02*
X52500Y-56000D01*
G54D54*
X37500Y-55400D02*
X37500Y-55375D01*
X37500Y-51300D02*
X37500Y-55400D01*
X22850Y-51050D02*
X23000Y-50900D01*
X37100Y-50900D02*
X37500Y-51300D01*
X27500Y-50900D02*
X37100Y-50900D01*
X37500Y-52200D02*
X37500Y-52075D01*
X44550Y-56600D02*
X38700Y-56600D01*
G54D56*
X53750Y-59850D02*
X51600Y-59850D01*
X51600Y-59850D02*
X49000Y-57250D01*
X54000Y-56000D02*
X54000Y-59600D01*
X54000Y-59600D02*
X53750Y-59850D01*
G54D54*
X38700Y-56600D02*
X37500Y-55400D01*
X37500Y-55400D02*
X37500Y-55200D01*
X47250Y-57250D02*
X45200Y-57250D01*
X45200Y-57250D02*
X44550Y-56600D01*
X17900Y-56000D02*
X22850Y-51050D01*
X37500Y-51300D02*
X37500Y-52200D01*
X14250Y-56000D02*
X17900Y-56000D01*
X37500Y-55375D02*
X37500Y-55375D01*
X37500Y-52075D02*
X37500Y-52200D01*
G54D56*
X49000Y-57250D02*
X47250Y-57250D01*
G54D54*
X37500Y-55375D02*
X37500Y-55200D01*
X39500Y-48950D02*
X39500Y-52100D01*
X39050Y-48500D02*
X39500Y-48950D01*
X32325Y-48500D02*
X39050Y-48500D01*
X32325Y-48500D02*
X32000Y-48500D01*
X39500Y-53150D02*
X39500Y-53250D01*
X39500Y-52100D02*
X39500Y-53150D01*
X39500Y-53250D02*
X39700Y-53450D01*
G54D56*
X52200Y-20000D02*
X53100Y-20000D01*
G54D54*
X31850Y-39025D02*
X31850Y-39000D01*
G54D56*
X53050Y-39150D02*
X53050Y-39900D01*
X53050Y-20050D02*
X53050Y-30000D01*
G54D54*
X31850Y-39525D02*
X31850Y-39025D01*
G54D56*
X53050Y-30000D02*
X53050Y-39150D01*
G54D54*
X32000Y-48500D02*
X31850Y-48350D01*
G54D56*
X52200Y-49300D02*
X53050Y-48450D01*
G54D54*
X40300Y-52100D02*
X39500Y-52100D01*
G54D56*
X52500Y-52000D02*
X54000Y-52000D01*
X52200Y-20000D02*
X50212Y-20000D01*
X52200Y-40000D02*
X53050Y-40000D01*
X55000Y-53000D02*
X54000Y-52000D01*
G54D54*
X40000Y-53750D02*
X39700Y-53450D01*
X43600Y-53750D02*
X40000Y-53750D01*
X43550Y-53750D02*
X43600Y-53750D01*
G54D53*
X43600Y-53750D02*
X52500Y-53750D01*
G54D54*
X31850Y-48350D02*
X31850Y-39525D01*
G54D56*
X52200Y-30000D02*
X50212Y-30000D01*
X53050Y-39900D02*
X53050Y-40000D01*
X53100Y-20000D02*
X53050Y-20050D01*
X50212Y-40000D02*
X52200Y-40000D01*
X52500Y-55000D02*
X52500Y-53750D01*
X52500Y-53750D02*
X52500Y-53550D01*
X52500Y-53550D02*
X52500Y-52000D01*
X52500Y-52000D02*
X52200Y-52000D01*
X52200Y-30000D02*
X53050Y-30000D01*
X52200Y-52000D02*
X52200Y-49300D01*
X53050Y-48450D02*
X53050Y-39150D01*
M02*
