G04 (created by PCBNEW-RS274X (2012-01-19 BZR 3256)-stable) date Wed 19 Feb 2014 20:33:19 CET*
G01*
G70*
G90*
%MOIN*%
G04 Gerber Fmt 3.4, Leading zero omitted, Abs format*
%FSLAX34Y34*%
G04 APERTURE LIST*
%ADD10C,0.006000*%
%ADD11R,0.075000X0.075000*%
%ADD12C,0.075000*%
%ADD13R,0.071200X0.098700*%
%ADD14O,0.071200X0.098700*%
%ADD15C,0.090000*%
%ADD16R,0.090000X0.090000*%
%ADD17R,0.098700X0.071200*%
%ADD18O,0.098700X0.071200*%
%ADD19O,0.126300X0.079100*%
%ADD20C,0.180000*%
%ADD21C,0.140000*%
%ADD22C,0.085000*%
%ADD23C,0.080000*%
%ADD24C,0.086000*%
%ADD25C,0.098700*%
%ADD26R,0.094800X0.094800*%
%ADD27O,0.079100X0.090900*%
%ADD28C,0.090900*%
%ADD29C,0.177500*%
%ADD30R,0.085000X0.085000*%
%ADD31R,0.090900X0.090900*%
%ADD32C,0.083000*%
%ADD33C,0.148000*%
%ADD34R,0.080000X0.080000*%
%ADD35O,0.370400X0.266100*%
%ADD36C,0.266100*%
%ADD37R,0.086900X0.086900*%
%ADD38C,0.086900*%
%ADD39R,0.104600X0.104600*%
%ADD40C,0.104600*%
%ADD41R,0.106600X0.106600*%
%ADD42C,0.106600*%
%ADD43R,0.047600X0.088900*%
%ADD44O,0.090400X0.070900*%
%ADD45O,0.070900X0.090400*%
%ADD46O,0.070900X0.117800*%
%ADD47R,0.079100X0.086900*%
%ADD48R,0.051500X0.109700*%
%ADD49R,0.070800X0.071200*%
%ADD50R,0.070800X0.075100*%
%ADD51R,0.086900X0.079100*%
%ADD52R,0.083000X0.079100*%
G04 APERTURE END LIST*
G54D10*
G54D11*
X52200Y-52000D03*
G54D12*
X50231Y-52000D03*
G54D13*
X40250Y-26500D03*
G54D14*
X41250Y-26500D03*
X42250Y-26500D03*
X43250Y-26500D03*
X43250Y-23500D03*
X42250Y-23500D03*
X41250Y-23500D03*
X40250Y-23500D03*
G54D15*
X47250Y-57250D03*
X47250Y-56250D03*
G54D16*
X47250Y-55250D03*
G54D17*
X26000Y-58750D03*
G54D18*
X26000Y-57750D03*
X26000Y-56750D03*
X26000Y-55750D03*
X26000Y-54750D03*
X26000Y-53750D03*
X26000Y-52750D03*
X26000Y-51750D03*
X23000Y-51750D03*
X23000Y-52750D03*
X23000Y-53750D03*
X23000Y-54750D03*
X23000Y-55750D03*
X23000Y-56750D03*
X23000Y-57750D03*
X23000Y-58750D03*
G54D17*
X35750Y-58750D03*
G54D18*
X35750Y-57750D03*
X35750Y-56750D03*
X35750Y-55750D03*
X35750Y-54750D03*
X35750Y-53750D03*
X35750Y-52750D03*
X35750Y-51750D03*
X32750Y-51750D03*
X32750Y-52750D03*
X32750Y-53750D03*
X32750Y-54750D03*
X32750Y-55750D03*
X32750Y-56750D03*
X32750Y-57750D03*
X32750Y-58750D03*
G54D19*
X39000Y-28500D03*
X39000Y-29500D03*
X39000Y-30500D03*
X39000Y-31500D03*
X39000Y-32500D03*
X39000Y-33500D03*
X39000Y-34500D03*
X39000Y-35500D03*
X39000Y-36500D03*
X39000Y-37500D03*
X39000Y-38500D03*
X39000Y-39500D03*
X39000Y-40500D03*
X39000Y-41500D03*
X39000Y-42500D03*
X39000Y-43500D03*
X39000Y-44500D03*
X39000Y-45500D03*
X39000Y-46500D03*
X39000Y-47500D03*
X28000Y-47500D03*
X28000Y-46500D03*
X28000Y-45500D03*
X28000Y-44500D03*
X28000Y-43500D03*
X28000Y-42500D03*
X28000Y-41500D03*
X28000Y-40500D03*
X28000Y-39500D03*
X28000Y-38500D03*
X28000Y-37500D03*
X28000Y-36500D03*
X28000Y-35500D03*
X28000Y-34500D03*
X28000Y-33500D03*
X28000Y-32500D03*
X28000Y-31500D03*
X28000Y-30500D03*
X28000Y-29500D03*
X28000Y-28500D03*
X29000Y-28500D03*
X29000Y-29500D03*
X29000Y-30500D03*
X29000Y-31500D03*
X29000Y-32500D03*
X29000Y-33500D03*
X29000Y-34500D03*
X29000Y-35500D03*
X29000Y-36500D03*
X29000Y-37500D03*
X29000Y-38500D03*
X29000Y-39500D03*
X29000Y-40500D03*
X29000Y-41500D03*
X29000Y-42500D03*
X29000Y-43500D03*
X29000Y-44500D03*
X29000Y-45500D03*
X29000Y-46500D03*
X29000Y-47500D03*
X38000Y-47500D03*
X38000Y-46500D03*
X38000Y-45500D03*
X38000Y-44500D03*
X38000Y-43500D03*
X38000Y-42500D03*
X38000Y-41500D03*
X38000Y-40500D03*
X38000Y-39500D03*
X38000Y-38500D03*
X38000Y-37500D03*
X38000Y-36500D03*
X38000Y-35500D03*
X38000Y-34500D03*
X38000Y-33500D03*
X38000Y-32500D03*
X38000Y-31500D03*
X38000Y-30500D03*
X38000Y-29500D03*
X38000Y-28500D03*
G54D20*
X37200Y-16850D03*
X41700Y-16850D03*
G54D11*
X41200Y-19350D03*
G54D12*
X40700Y-20350D03*
X40200Y-19350D03*
X39700Y-20350D03*
X39200Y-19350D03*
X38700Y-20350D03*
X38200Y-19350D03*
X37700Y-20350D03*
G54D21*
X42550Y-18050D03*
X36350Y-18050D03*
G54D22*
X42050Y-15250D03*
X41060Y-15250D03*
X37840Y-15250D03*
X36850Y-15250D03*
G54D23*
X50200Y-49300D03*
X52200Y-49300D03*
X20250Y-36100D03*
X18250Y-36100D03*
X35100Y-22550D03*
X35100Y-20550D03*
X51000Y-57250D03*
X49000Y-57250D03*
X51000Y-55250D03*
X49000Y-55250D03*
G54D24*
X44750Y-29250D03*
X44750Y-30250D03*
X45200Y-50500D03*
X46200Y-50500D03*
G54D11*
X53750Y-59850D03*
G54D12*
X53750Y-61228D03*
G54D25*
X18100Y-51250D03*
X18100Y-50250D03*
G54D26*
X18100Y-49250D03*
G54D25*
X18100Y-46750D03*
X18100Y-45750D03*
G54D26*
X18100Y-44750D03*
G54D27*
X30755Y-17720D03*
X31545Y-17720D03*
G54D28*
X29775Y-17720D03*
G54D29*
X28565Y-16650D03*
X33735Y-16650D03*
G54D28*
X32525Y-17720D03*
G54D24*
X45200Y-52700D03*
X46200Y-52700D03*
G54D30*
X50212Y-40000D03*
G54D22*
X49188Y-40000D03*
G54D30*
X50212Y-30000D03*
G54D22*
X49188Y-30000D03*
G54D30*
X50212Y-20000D03*
G54D22*
X49188Y-20000D03*
G54D31*
X14250Y-54000D03*
G54D28*
X14250Y-55000D03*
X14250Y-56000D03*
G54D31*
X21300Y-50650D03*
G54D28*
X21300Y-49650D03*
X21300Y-48650D03*
G54D31*
X21300Y-46750D03*
G54D28*
X21300Y-45750D03*
X21300Y-44750D03*
G54D32*
X47750Y-17375D03*
X48750Y-17375D03*
X46750Y-17375D03*
X49250Y-18375D03*
X48250Y-18375D03*
X47250Y-18375D03*
G54D33*
X46000Y-14875D03*
X50000Y-14875D03*
G54D23*
X45000Y-58250D03*
X45000Y-62250D03*
X27500Y-58750D03*
X31500Y-58750D03*
X27500Y-56750D03*
X31500Y-56750D03*
X40300Y-51000D03*
X44300Y-51000D03*
X49000Y-58250D03*
X49000Y-62250D03*
X27500Y-54750D03*
X31500Y-54750D03*
X27500Y-52750D03*
X31500Y-52750D03*
X27500Y-55750D03*
X31500Y-55750D03*
X27500Y-53750D03*
X31500Y-53750D03*
X27500Y-51750D03*
X31500Y-51750D03*
X19750Y-43500D03*
X19750Y-47500D03*
X19750Y-48500D03*
X19750Y-52500D03*
X21250Y-39250D03*
X17250Y-39250D03*
X17250Y-29750D03*
X21250Y-29750D03*
X44300Y-52100D03*
X40300Y-52100D03*
X44750Y-27750D03*
X44750Y-23750D03*
X35100Y-19250D03*
X35100Y-15250D03*
X43700Y-19250D03*
X43700Y-15250D03*
X44250Y-22150D03*
X40250Y-22150D03*
X27500Y-57750D03*
X31500Y-57750D03*
X40000Y-58250D03*
X40000Y-62250D03*
X38000Y-58250D03*
X38000Y-62250D03*
X21250Y-40250D03*
X17250Y-40250D03*
X21250Y-37250D03*
X17250Y-37250D03*
X17250Y-38250D03*
X21250Y-38250D03*
X17250Y-31750D03*
X21250Y-31750D03*
G54D34*
X43500Y-49300D03*
G54D23*
X42500Y-48800D03*
X43500Y-48300D03*
X42500Y-47800D03*
X43500Y-47300D03*
X42500Y-46800D03*
X43500Y-46300D03*
X42500Y-45800D03*
X43500Y-45300D03*
X42500Y-44800D03*
X43500Y-44300D03*
X42500Y-43800D03*
G54D35*
X54500Y-16000D03*
G54D36*
X55000Y-64000D03*
X14000Y-64000D03*
X14000Y-16000D03*
G54D37*
X47200Y-40000D03*
G54D38*
X47200Y-41000D03*
X47200Y-42000D03*
X47200Y-43000D03*
X47200Y-44000D03*
X47200Y-45000D03*
X47200Y-46000D03*
X47200Y-47000D03*
X52200Y-47000D03*
X52200Y-46000D03*
X52200Y-45000D03*
X52200Y-44000D03*
X52200Y-43000D03*
X52200Y-42000D03*
X52200Y-41000D03*
X52200Y-40000D03*
G54D37*
X47200Y-30000D03*
G54D38*
X47200Y-31000D03*
X47200Y-32000D03*
X47200Y-33000D03*
X47200Y-34000D03*
X47200Y-35000D03*
X47200Y-36000D03*
X47200Y-37000D03*
X52200Y-37000D03*
X52200Y-36000D03*
X52200Y-35000D03*
X52200Y-34000D03*
X52200Y-33000D03*
X52200Y-32000D03*
X52200Y-31000D03*
X52200Y-30000D03*
G54D37*
X47200Y-20000D03*
G54D38*
X47200Y-21000D03*
X47200Y-22000D03*
X47200Y-23000D03*
X47200Y-24000D03*
X47200Y-25000D03*
X47200Y-26000D03*
X47200Y-27000D03*
X52200Y-27000D03*
X52200Y-26000D03*
X52200Y-25000D03*
X52200Y-24000D03*
X52200Y-23000D03*
X52200Y-22000D03*
X52200Y-21000D03*
X52200Y-20000D03*
G54D39*
X23000Y-64000D03*
G54D40*
X21000Y-64000D03*
X19000Y-64000D03*
X17000Y-64000D03*
G54D28*
X21500Y-65000D03*
X20500Y-65000D03*
X19500Y-65000D03*
X18500Y-65000D03*
G54D39*
X14250Y-33300D03*
G54D40*
X14250Y-31300D03*
X14250Y-29300D03*
X14250Y-27300D03*
G54D28*
X13250Y-31800D03*
X13250Y-30800D03*
X13250Y-29800D03*
X13250Y-28800D03*
G54D39*
X32000Y-64000D03*
G54D40*
X30000Y-64000D03*
X28000Y-64000D03*
X26000Y-64000D03*
G54D28*
X30500Y-65000D03*
X29500Y-65000D03*
X28500Y-65000D03*
X27500Y-65000D03*
G54D39*
X50000Y-64000D03*
G54D40*
X48000Y-64000D03*
X46000Y-64000D03*
X44000Y-64000D03*
G54D28*
X48500Y-65000D03*
X47500Y-65000D03*
X46500Y-65000D03*
X45500Y-65000D03*
G54D39*
X41000Y-64000D03*
G54D40*
X39000Y-64000D03*
X37000Y-64000D03*
X35000Y-64000D03*
G54D28*
X39500Y-65000D03*
X38500Y-65000D03*
X37500Y-65000D03*
X36500Y-65000D03*
G54D39*
X14250Y-51300D03*
G54D40*
X14250Y-49300D03*
X14250Y-47300D03*
X14250Y-45300D03*
G54D28*
X13250Y-49800D03*
X13250Y-48800D03*
X13250Y-47800D03*
X13250Y-46800D03*
G54D39*
X14250Y-42300D03*
G54D40*
X14250Y-40300D03*
X14250Y-38300D03*
X14250Y-36300D03*
G54D28*
X13250Y-40800D03*
X13250Y-39800D03*
X13250Y-38800D03*
X13250Y-37800D03*
G54D31*
X52500Y-56000D03*
G54D28*
X52500Y-55000D03*
G54D41*
X54000Y-29500D03*
G54D42*
X54000Y-31500D03*
X54000Y-33500D03*
X54000Y-35500D03*
G54D31*
X55000Y-31500D03*
G54D28*
X55000Y-32500D03*
X55000Y-33500D03*
X55000Y-34500D03*
G54D42*
X54000Y-37500D03*
G54D28*
X55000Y-35500D03*
G54D41*
X54000Y-19500D03*
G54D42*
X54000Y-21500D03*
X54000Y-23500D03*
X54000Y-25500D03*
G54D31*
X55000Y-21500D03*
G54D28*
X55000Y-22500D03*
X55000Y-23500D03*
X55000Y-24500D03*
G54D42*
X54000Y-27500D03*
G54D28*
X55000Y-25500D03*
G54D41*
X54000Y-39500D03*
G54D42*
X54000Y-41500D03*
X54000Y-43500D03*
X54000Y-45500D03*
G54D31*
X55000Y-41500D03*
G54D28*
X55000Y-42500D03*
X55000Y-43500D03*
X55000Y-44500D03*
G54D42*
X54000Y-47500D03*
G54D28*
X55000Y-45500D03*
G54D23*
X40550Y-27850D03*
X42550Y-27850D03*
G54D43*
X24542Y-26601D03*
X23563Y-26601D03*
X22585Y-26601D03*
X21607Y-26601D03*
X20630Y-26601D03*
X19651Y-26601D03*
X18702Y-26601D03*
X18037Y-26601D03*
X25557Y-26601D03*
X17470Y-26601D03*
X16844Y-26601D03*
G54D44*
X26750Y-26182D03*
G54D45*
X24077Y-25465D03*
X21057Y-25465D03*
X16762Y-14717D03*
G54D44*
X17467Y-25323D03*
G54D46*
X27435Y-14820D03*
G54D47*
X19111Y-15868D03*
G54D48*
X22910Y-21797D03*
X22477Y-21797D03*
X22044Y-21797D03*
X21611Y-21797D03*
X21178Y-21797D03*
X20745Y-21797D03*
X20312Y-21797D03*
X19878Y-21797D03*
G54D49*
X19069Y-21064D03*
G54D50*
X19058Y-18151D03*
G54D47*
X24426Y-15868D03*
G54D51*
X24308Y-21714D03*
G54D52*
X19286Y-21753D03*
G54D39*
X54000Y-52000D03*
G54D40*
X54000Y-54000D03*
G54D28*
X55000Y-53000D03*
X55000Y-54000D03*
X55000Y-55000D03*
G54D40*
X54000Y-56000D03*
G54D31*
X44550Y-55600D03*
G54D28*
X44550Y-54600D03*
X44550Y-56600D03*
X43550Y-55600D03*
M02*
