G04 (created by PCBNEW-RS274X (2012-02-06 BZR 3180)-stable) date Fri 05 Oct 2012 08:43:45 AM CEST*
G01*
G70*
G90*
%MOIN*%
G04 Gerber Fmt 3.4, Leading zero omitted, Abs format*
%FSLAX34Y34*%
G04 APERTURE LIST*
%ADD10C,0.006000*%
%ADD11C,0.015000*%
%ADD12C,0.003900*%
G04 APERTURE END LIST*
G54D10*
X36304Y-28807D02*
X36304Y-29593D01*
X36304Y-29593D02*
X36796Y-29593D01*
X36796Y-29593D02*
X36796Y-28807D01*
X36796Y-28807D02*
X36304Y-28807D01*
X52107Y-18646D02*
X52893Y-18646D01*
X52893Y-18646D02*
X52893Y-18154D01*
X52893Y-18154D02*
X52107Y-18154D01*
X52107Y-18154D02*
X52107Y-18646D01*
X52893Y-27254D02*
X52107Y-27254D01*
X52107Y-27254D02*
X52107Y-27746D01*
X52107Y-27746D02*
X52893Y-27746D01*
X52893Y-27746D02*
X52893Y-27254D01*
X54754Y-28357D02*
X54754Y-29143D01*
X54754Y-29143D02*
X55246Y-29143D01*
X55246Y-29143D02*
X55246Y-28357D01*
X55246Y-28357D02*
X54754Y-28357D01*
X52893Y-37254D02*
X52107Y-37254D01*
X52107Y-37254D02*
X52107Y-37746D01*
X52107Y-37746D02*
X52893Y-37746D01*
X52893Y-37746D02*
X52893Y-37254D01*
X54754Y-37757D02*
X54754Y-38543D01*
X54754Y-38543D02*
X55246Y-38543D01*
X55246Y-38543D02*
X55246Y-37757D01*
X55246Y-37757D02*
X54754Y-37757D01*
X52893Y-47254D02*
X52107Y-47254D01*
X52107Y-47254D02*
X52107Y-47746D01*
X52107Y-47746D02*
X52893Y-47746D01*
X52893Y-47746D02*
X52893Y-47254D01*
X54754Y-48107D02*
X54754Y-48893D01*
X54754Y-48893D02*
X55246Y-48893D01*
X55246Y-48893D02*
X55246Y-48107D01*
X55246Y-48107D02*
X54754Y-48107D01*
X52943Y-57254D02*
X52157Y-57254D01*
X52157Y-57254D02*
X52157Y-57746D01*
X52157Y-57746D02*
X52943Y-57746D01*
X52943Y-57746D02*
X52943Y-57254D01*
G54D11*
X50640Y-23900D02*
X50640Y-24700D01*
X50640Y-24700D02*
X49240Y-24700D01*
X49240Y-24700D02*
X49240Y-23900D01*
X50640Y-23000D02*
X50640Y-23200D01*
X49240Y-23100D02*
X49240Y-23900D01*
X49240Y-23900D02*
X50640Y-23900D01*
X50640Y-23900D02*
X50640Y-23200D01*
X49340Y-22300D02*
X49240Y-22300D01*
X49240Y-22300D02*
X49240Y-23100D01*
X49240Y-23100D02*
X50540Y-23100D01*
X50540Y-23100D02*
X50640Y-23100D01*
X50640Y-23100D02*
X50640Y-22300D01*
X50640Y-22300D02*
X50540Y-22300D01*
X50540Y-22300D02*
X49340Y-22300D01*
X49220Y-33060D02*
X49220Y-32260D01*
X49220Y-32260D02*
X50620Y-32260D01*
X50620Y-32260D02*
X50620Y-33060D01*
X49220Y-33960D02*
X49220Y-33760D01*
X50620Y-33860D02*
X50620Y-33060D01*
X50620Y-33060D02*
X49220Y-33060D01*
X49220Y-33060D02*
X49220Y-33760D01*
X50520Y-34660D02*
X50620Y-34660D01*
X50620Y-34660D02*
X50620Y-33860D01*
X50620Y-33860D02*
X49320Y-33860D01*
X49320Y-33860D02*
X49220Y-33860D01*
X49220Y-33860D02*
X49220Y-34660D01*
X49220Y-34660D02*
X49320Y-34660D01*
X49320Y-34660D02*
X50520Y-34660D01*
X49160Y-43100D02*
X49160Y-42300D01*
X49160Y-42300D02*
X50560Y-42300D01*
X50560Y-42300D02*
X50560Y-43100D01*
X49160Y-44000D02*
X49160Y-43800D01*
X50560Y-43900D02*
X50560Y-43100D01*
X50560Y-43100D02*
X49160Y-43100D01*
X49160Y-43100D02*
X49160Y-43800D01*
X50460Y-44700D02*
X50560Y-44700D01*
X50560Y-44700D02*
X50560Y-43900D01*
X50560Y-43900D02*
X49260Y-43900D01*
X49260Y-43900D02*
X49160Y-43900D01*
X49160Y-43900D02*
X49160Y-44700D01*
X49160Y-44700D02*
X49260Y-44700D01*
X49260Y-44700D02*
X50460Y-44700D01*
X44150Y-56900D02*
X44150Y-56100D01*
X44150Y-56100D02*
X45550Y-56100D01*
X45550Y-56100D02*
X45550Y-56900D01*
X44150Y-57800D02*
X44150Y-57600D01*
X45550Y-57700D02*
X45550Y-56900D01*
X45550Y-56900D02*
X44150Y-56900D01*
X44150Y-56900D02*
X44150Y-57600D01*
X45450Y-58500D02*
X45550Y-58500D01*
X45550Y-58500D02*
X45550Y-57700D01*
X45550Y-57700D02*
X44250Y-57700D01*
X44250Y-57700D02*
X44150Y-57700D01*
X44150Y-57700D02*
X44150Y-58500D01*
X44150Y-58500D02*
X44250Y-58500D01*
X44250Y-58500D02*
X45450Y-58500D01*
X44690Y-23035D02*
X43890Y-23035D01*
X43890Y-23035D02*
X43890Y-21635D01*
X43890Y-21635D02*
X44690Y-21635D01*
X45590Y-23035D02*
X45390Y-23035D01*
X45490Y-21635D02*
X44690Y-21635D01*
X44690Y-21635D02*
X44690Y-23035D01*
X44690Y-23035D02*
X45390Y-23035D01*
X46290Y-21735D02*
X46290Y-21635D01*
X46290Y-21635D02*
X45490Y-21635D01*
X45490Y-21635D02*
X45490Y-22935D01*
X45490Y-22935D02*
X45490Y-23035D01*
X45490Y-23035D02*
X46290Y-23035D01*
X46290Y-23035D02*
X46290Y-22935D01*
X46290Y-22935D02*
X46290Y-21735D01*
X44750Y-32800D02*
X43950Y-32800D01*
X43950Y-32800D02*
X43950Y-31400D01*
X43950Y-31400D02*
X44750Y-31400D01*
X45650Y-32800D02*
X45450Y-32800D01*
X45550Y-31400D02*
X44750Y-31400D01*
X44750Y-31400D02*
X44750Y-32800D01*
X44750Y-32800D02*
X45450Y-32800D01*
X46350Y-31500D02*
X46350Y-31400D01*
X46350Y-31400D02*
X45550Y-31400D01*
X45550Y-31400D02*
X45550Y-32700D01*
X45550Y-32700D02*
X45550Y-32800D01*
X45550Y-32800D02*
X46350Y-32800D01*
X46350Y-32800D02*
X46350Y-32700D01*
X46350Y-32700D02*
X46350Y-31500D01*
X44790Y-43095D02*
X43990Y-43095D01*
X43990Y-43095D02*
X43990Y-41695D01*
X43990Y-41695D02*
X44790Y-41695D01*
X45690Y-43095D02*
X45490Y-43095D01*
X45590Y-41695D02*
X44790Y-41695D01*
X44790Y-41695D02*
X44790Y-43095D01*
X44790Y-43095D02*
X45490Y-43095D01*
X46390Y-41795D02*
X46390Y-41695D01*
X46390Y-41695D02*
X45590Y-41695D01*
X45590Y-41695D02*
X45590Y-42995D01*
X45590Y-42995D02*
X45590Y-43095D01*
X45590Y-43095D02*
X46390Y-43095D01*
X46390Y-43095D02*
X46390Y-42995D01*
X46390Y-42995D02*
X46390Y-41795D01*
X44015Y-52395D02*
X43215Y-52395D01*
X43215Y-52395D02*
X43215Y-50995D01*
X43215Y-50995D02*
X44015Y-50995D01*
X44915Y-52395D02*
X44715Y-52395D01*
X44815Y-50995D02*
X44015Y-50995D01*
X44015Y-50995D02*
X44015Y-52395D01*
X44015Y-52395D02*
X44715Y-52395D01*
X45615Y-51095D02*
X45615Y-50995D01*
X45615Y-50995D02*
X44815Y-50995D01*
X44815Y-50995D02*
X44815Y-52295D01*
X44815Y-52295D02*
X44815Y-52395D01*
X44815Y-52395D02*
X45615Y-52395D01*
X45615Y-52395D02*
X45615Y-52295D01*
X45615Y-52295D02*
X45615Y-51095D01*
G54D12*
X37065Y-29069D02*
X37347Y-29069D01*
X37403Y-29051D01*
X37441Y-29013D01*
X37459Y-28957D01*
X37459Y-28919D01*
X37065Y-29219D02*
X37065Y-29463D01*
X37216Y-29332D01*
X37216Y-29388D01*
X37234Y-29426D01*
X37253Y-29444D01*
X37291Y-29463D01*
X37384Y-29463D01*
X37422Y-29444D01*
X37441Y-29426D01*
X37459Y-29388D01*
X37459Y-29276D01*
X37441Y-29238D01*
X37422Y-29219D01*
X52631Y-17415D02*
X52631Y-17697D01*
X52649Y-17753D01*
X52687Y-17791D01*
X52743Y-17809D01*
X52781Y-17809D01*
X52274Y-17415D02*
X52349Y-17415D01*
X52387Y-17434D01*
X52406Y-17453D01*
X52443Y-17509D01*
X52462Y-17584D01*
X52462Y-17734D01*
X52443Y-17772D01*
X52424Y-17791D01*
X52387Y-17809D01*
X52312Y-17809D01*
X52274Y-17791D01*
X52256Y-17772D01*
X52237Y-17734D01*
X52237Y-17641D01*
X52256Y-17603D01*
X52274Y-17584D01*
X52312Y-17566D01*
X52387Y-17566D01*
X52424Y-17584D01*
X52443Y-17603D01*
X52462Y-17641D01*
X52819Y-28015D02*
X52819Y-28297D01*
X52837Y-28353D01*
X52875Y-28391D01*
X52931Y-28409D01*
X52969Y-28409D01*
X52425Y-28409D02*
X52650Y-28409D01*
X52537Y-28409D02*
X52537Y-28015D01*
X52575Y-28072D01*
X52612Y-28109D01*
X52650Y-28128D01*
X52275Y-28053D02*
X52256Y-28034D01*
X52219Y-28015D01*
X52125Y-28015D01*
X52087Y-28034D01*
X52069Y-28053D01*
X52050Y-28091D01*
X52050Y-28128D01*
X52069Y-28184D01*
X52294Y-28409D01*
X52050Y-28409D01*
X55515Y-28431D02*
X55797Y-28431D01*
X55853Y-28413D01*
X55891Y-28375D01*
X55909Y-28319D01*
X55909Y-28281D01*
X55909Y-28825D02*
X55909Y-28600D01*
X55909Y-28713D02*
X55515Y-28713D01*
X55572Y-28675D01*
X55609Y-28638D01*
X55628Y-28600D01*
X55515Y-29181D02*
X55515Y-28994D01*
X55703Y-28975D01*
X55684Y-28994D01*
X55666Y-29031D01*
X55666Y-29125D01*
X55684Y-29163D01*
X55703Y-29181D01*
X55741Y-29200D01*
X55834Y-29200D01*
X55872Y-29181D01*
X55891Y-29163D01*
X55909Y-29125D01*
X55909Y-29031D01*
X55891Y-28994D01*
X55872Y-28975D01*
X52819Y-38015D02*
X52819Y-38297D01*
X52837Y-38353D01*
X52875Y-38391D01*
X52931Y-38409D01*
X52969Y-38409D01*
X52425Y-38409D02*
X52650Y-38409D01*
X52537Y-38409D02*
X52537Y-38015D01*
X52575Y-38072D01*
X52612Y-38109D01*
X52650Y-38128D01*
X52237Y-38409D02*
X52162Y-38409D01*
X52125Y-38391D01*
X52106Y-38372D01*
X52069Y-38316D01*
X52050Y-38241D01*
X52050Y-38091D01*
X52069Y-38053D01*
X52087Y-38034D01*
X52125Y-38015D01*
X52200Y-38015D01*
X52237Y-38034D01*
X52256Y-38053D01*
X52275Y-38091D01*
X52275Y-38184D01*
X52256Y-38222D01*
X52237Y-38241D01*
X52200Y-38259D01*
X52125Y-38259D01*
X52087Y-38241D01*
X52069Y-38222D01*
X52050Y-38184D01*
X55515Y-37831D02*
X55797Y-37831D01*
X55853Y-37813D01*
X55891Y-37775D01*
X55909Y-37719D01*
X55909Y-37681D01*
X55553Y-38000D02*
X55534Y-38019D01*
X55515Y-38056D01*
X55515Y-38150D01*
X55534Y-38188D01*
X55553Y-38206D01*
X55591Y-38225D01*
X55628Y-38225D01*
X55684Y-38206D01*
X55909Y-37981D01*
X55909Y-38225D01*
X55909Y-38600D02*
X55909Y-38375D01*
X55909Y-38488D02*
X55515Y-38488D01*
X55572Y-38450D01*
X55609Y-38413D01*
X55628Y-38375D01*
X52819Y-48015D02*
X52819Y-48297D01*
X52837Y-48353D01*
X52875Y-48391D01*
X52931Y-48409D01*
X52969Y-48409D01*
X52650Y-48053D02*
X52631Y-48034D01*
X52594Y-48015D01*
X52500Y-48015D01*
X52462Y-48034D01*
X52444Y-48053D01*
X52425Y-48091D01*
X52425Y-48128D01*
X52444Y-48184D01*
X52669Y-48409D01*
X52425Y-48409D01*
X52069Y-48015D02*
X52256Y-48015D01*
X52275Y-48203D01*
X52256Y-48184D01*
X52219Y-48166D01*
X52125Y-48166D01*
X52087Y-48184D01*
X52069Y-48203D01*
X52050Y-48241D01*
X52050Y-48334D01*
X52069Y-48372D01*
X52087Y-48391D01*
X52125Y-48409D01*
X52219Y-48409D01*
X52256Y-48391D01*
X52275Y-48372D01*
X55515Y-48181D02*
X55797Y-48181D01*
X55853Y-48163D01*
X55891Y-48125D01*
X55909Y-48069D01*
X55909Y-48031D01*
X55515Y-48331D02*
X55515Y-48575D01*
X55666Y-48444D01*
X55666Y-48500D01*
X55684Y-48538D01*
X55703Y-48556D01*
X55741Y-48575D01*
X55834Y-48575D01*
X55872Y-48556D01*
X55891Y-48538D01*
X55909Y-48500D01*
X55909Y-48388D01*
X55891Y-48350D01*
X55872Y-48331D01*
X55515Y-48819D02*
X55515Y-48856D01*
X55534Y-48894D01*
X55553Y-48913D01*
X55591Y-48931D01*
X55666Y-48950D01*
X55759Y-48950D01*
X55834Y-48931D01*
X55872Y-48913D01*
X55891Y-48894D01*
X55909Y-48856D01*
X55909Y-48819D01*
X55891Y-48781D01*
X55872Y-48763D01*
X55834Y-48744D01*
X55759Y-48725D01*
X55666Y-48725D01*
X55591Y-48744D01*
X55553Y-48763D01*
X55534Y-48781D01*
X55515Y-48819D01*
X52869Y-58015D02*
X52869Y-58297D01*
X52887Y-58353D01*
X52925Y-58391D01*
X52981Y-58409D01*
X53019Y-58409D01*
X52719Y-58015D02*
X52475Y-58015D01*
X52606Y-58166D01*
X52550Y-58166D01*
X52512Y-58184D01*
X52494Y-58203D01*
X52475Y-58241D01*
X52475Y-58334D01*
X52494Y-58372D01*
X52512Y-58391D01*
X52550Y-58409D01*
X52662Y-58409D01*
X52700Y-58391D01*
X52719Y-58372D01*
X52119Y-58015D02*
X52306Y-58015D01*
X52325Y-58203D01*
X52306Y-58184D01*
X52269Y-58166D01*
X52175Y-58166D01*
X52137Y-58184D01*
X52119Y-58203D01*
X52100Y-58241D01*
X52100Y-58334D01*
X52119Y-58372D01*
X52137Y-58391D01*
X52175Y-58409D01*
X52269Y-58409D01*
X52306Y-58391D01*
X52325Y-58372D01*
X50259Y-25015D02*
X50259Y-25297D01*
X50277Y-25353D01*
X50315Y-25391D01*
X50371Y-25409D01*
X50409Y-25409D01*
X49865Y-25409D02*
X50090Y-25409D01*
X49977Y-25409D02*
X49977Y-25015D01*
X50015Y-25072D01*
X50052Y-25109D01*
X50090Y-25128D01*
X49734Y-25015D02*
X49490Y-25015D01*
X49621Y-25166D01*
X49565Y-25166D01*
X49527Y-25184D01*
X49509Y-25203D01*
X49490Y-25241D01*
X49490Y-25334D01*
X49509Y-25372D01*
X49527Y-25391D01*
X49565Y-25409D01*
X49677Y-25409D01*
X49715Y-25391D01*
X49734Y-25372D01*
X50239Y-31475D02*
X50239Y-31757D01*
X50257Y-31813D01*
X50295Y-31851D01*
X50351Y-31869D01*
X50389Y-31869D01*
X50070Y-31513D02*
X50051Y-31494D01*
X50014Y-31475D01*
X49920Y-31475D01*
X49882Y-31494D01*
X49864Y-31513D01*
X49845Y-31551D01*
X49845Y-31588D01*
X49864Y-31644D01*
X50089Y-31869D01*
X49845Y-31869D01*
X49601Y-31475D02*
X49564Y-31475D01*
X49526Y-31494D01*
X49507Y-31513D01*
X49489Y-31551D01*
X49470Y-31626D01*
X49470Y-31719D01*
X49489Y-31794D01*
X49507Y-31832D01*
X49526Y-31851D01*
X49564Y-31869D01*
X49601Y-31869D01*
X49639Y-31851D01*
X49657Y-31832D01*
X49676Y-31794D01*
X49695Y-31719D01*
X49695Y-31626D01*
X49676Y-31551D01*
X49657Y-31513D01*
X49639Y-31494D01*
X49601Y-31475D01*
X50179Y-41515D02*
X50179Y-41797D01*
X50197Y-41853D01*
X50235Y-41891D01*
X50291Y-41909D01*
X50329Y-41909D01*
X50010Y-41553D02*
X49991Y-41534D01*
X49954Y-41515D01*
X49860Y-41515D01*
X49822Y-41534D01*
X49804Y-41553D01*
X49785Y-41591D01*
X49785Y-41628D01*
X49804Y-41684D01*
X50029Y-41909D01*
X49785Y-41909D01*
X49447Y-41515D02*
X49522Y-41515D01*
X49560Y-41534D01*
X49579Y-41553D01*
X49616Y-41609D01*
X49635Y-41684D01*
X49635Y-41834D01*
X49616Y-41872D01*
X49597Y-41891D01*
X49560Y-41909D01*
X49485Y-41909D01*
X49447Y-41891D01*
X49429Y-41872D01*
X49410Y-41834D01*
X49410Y-41741D01*
X49429Y-41703D01*
X49447Y-41684D01*
X49485Y-41666D01*
X49560Y-41666D01*
X49597Y-41684D01*
X49616Y-41703D01*
X49635Y-41741D01*
X45169Y-55315D02*
X45169Y-55597D01*
X45187Y-55653D01*
X45225Y-55691D01*
X45281Y-55709D01*
X45319Y-55709D01*
X45019Y-55315D02*
X44775Y-55315D01*
X44906Y-55466D01*
X44850Y-55466D01*
X44812Y-55484D01*
X44794Y-55503D01*
X44775Y-55541D01*
X44775Y-55634D01*
X44794Y-55672D01*
X44812Y-55691D01*
X44850Y-55709D01*
X44962Y-55709D01*
X45000Y-55691D01*
X45019Y-55672D01*
X44437Y-55315D02*
X44512Y-55315D01*
X44550Y-55334D01*
X44569Y-55353D01*
X44606Y-55409D01*
X44625Y-55484D01*
X44625Y-55634D01*
X44606Y-55672D01*
X44587Y-55691D01*
X44550Y-55709D01*
X44475Y-55709D01*
X44437Y-55691D01*
X44419Y-55672D01*
X44400Y-55634D01*
X44400Y-55541D01*
X44419Y-55503D01*
X44437Y-55484D01*
X44475Y-55466D01*
X44550Y-55466D01*
X44587Y-55484D01*
X44606Y-55503D01*
X44625Y-55541D01*
X43105Y-22204D02*
X43387Y-22204D01*
X43443Y-22186D01*
X43481Y-22148D01*
X43499Y-22092D01*
X43499Y-22054D01*
X43105Y-22354D02*
X43105Y-22617D01*
X43499Y-22448D01*
X43165Y-31781D02*
X43447Y-31781D01*
X43503Y-31763D01*
X43541Y-31725D01*
X43559Y-31669D01*
X43559Y-31631D01*
X43559Y-32175D02*
X43559Y-31950D01*
X43559Y-32063D02*
X43165Y-32063D01*
X43222Y-32025D01*
X43259Y-31988D01*
X43278Y-31950D01*
X43165Y-32513D02*
X43165Y-32438D01*
X43184Y-32400D01*
X43203Y-32381D01*
X43259Y-32344D01*
X43334Y-32325D01*
X43484Y-32325D01*
X43522Y-32344D01*
X43541Y-32363D01*
X43559Y-32400D01*
X43559Y-32475D01*
X43541Y-32513D01*
X43522Y-32531D01*
X43484Y-32550D01*
X43391Y-32550D01*
X43353Y-32531D01*
X43334Y-32513D01*
X43316Y-32475D01*
X43316Y-32400D01*
X43334Y-32363D01*
X43353Y-32344D01*
X43391Y-32325D01*
X43205Y-42076D02*
X43487Y-42076D01*
X43543Y-42058D01*
X43581Y-42020D01*
X43599Y-41964D01*
X43599Y-41926D01*
X43243Y-42245D02*
X43224Y-42264D01*
X43205Y-42301D01*
X43205Y-42395D01*
X43224Y-42433D01*
X43243Y-42451D01*
X43281Y-42470D01*
X43318Y-42470D01*
X43374Y-42451D01*
X43599Y-42226D01*
X43599Y-42470D01*
X43243Y-42620D02*
X43224Y-42639D01*
X43205Y-42676D01*
X43205Y-42770D01*
X43224Y-42808D01*
X43243Y-42826D01*
X43281Y-42845D01*
X43318Y-42845D01*
X43374Y-42826D01*
X43599Y-42601D01*
X43599Y-42845D01*
X42430Y-51376D02*
X42712Y-51376D01*
X42768Y-51358D01*
X42806Y-51320D01*
X42824Y-51264D01*
X42824Y-51226D01*
X42430Y-51526D02*
X42430Y-51770D01*
X42581Y-51639D01*
X42581Y-51695D01*
X42599Y-51733D01*
X42618Y-51751D01*
X42656Y-51770D01*
X42749Y-51770D01*
X42787Y-51751D01*
X42806Y-51733D01*
X42824Y-51695D01*
X42824Y-51583D01*
X42806Y-51545D01*
X42787Y-51526D01*
X42824Y-52145D02*
X42824Y-51920D01*
X42824Y-52033D02*
X42430Y-52033D01*
X42487Y-51995D01*
X42524Y-51958D01*
X42543Y-51920D01*
M02*
