M48
;DRILL file {Pcbnew (2013-jul-07)-stable} date wo 25 feb 2015 16:48:08 CET
;FORMAT={-:-/ absolute / inch / decimal}
FMAT,2
INCH,TZ
T1C0.025
T2C0.032
T3C0.039
T4C0.059
T5C0.132
%
G90
G05
M72
T1
X1.4Y-3.4
X1.56Y-2.84
T2
X1.3Y-1.2
X1.3Y-1.3
X1.3Y-1.4
X1.3Y-1.5
X1.3Y-1.6
X1.3Y-1.7
X1.3Y-1.8
X1.3Y-1.9
X1.3Y-2.4
X1.3Y-2.5
X1.3Y-2.6
X1.3Y-2.7
X1.3Y-2.8
X1.3Y-2.9
X1.3Y-3.
X1.3Y-3.1
X1.3Y-3.6
X1.3Y-3.7
X1.3Y-3.8
X1.3Y-3.9
X1.3Y-4.
X1.3Y-4.1
X1.3Y-4.2
X1.3Y-4.3
X1.3Y-4.8
X1.3Y-4.9
X1.3Y-5.
X1.3Y-5.1
X1.3Y-5.2
X1.3Y-5.3
X1.3Y-5.4
X1.3Y-5.5
X1.5Y-1.3
X1.5Y-2.5
X1.5Y-3.7
X1.5Y-4.9
X1.6378Y-1.3
X1.6378Y-2.5
X1.6378Y-3.7
X1.6378Y-4.9
X1.8Y-1.2
X1.8Y-1.3
X1.8Y-1.4
X1.8Y-1.5
X1.8Y-1.6
X1.8Y-1.7
X1.8Y-1.8
X1.8Y-1.9
X1.8Y-2.4
X1.8Y-2.5
X1.8Y-2.6
X1.8Y-2.7
X1.8Y-2.8
X1.8Y-2.9
X1.8Y-3.
X1.8Y-3.1
X1.8Y-3.6
X1.8Y-3.7
X1.8Y-3.8
X1.8Y-3.9
X1.8Y-4.
X1.8Y-4.1
X1.8Y-4.2
X1.8Y-4.3
X1.8Y-4.8
X1.8Y-4.9
X1.8Y-5.
X1.8Y-5.1
X1.8Y-5.2
X1.8Y-5.3
X1.8Y-5.4
X1.8Y-5.5
T3
X0.7Y-3.25
X0.7Y-3.35
X0.7Y-4.35
X0.7Y-4.45
X0.7Y-4.55
X0.7Y-4.65
X2.4Y-1.45
X2.4Y-1.55
X2.4Y-1.65
X2.4Y-1.75
X2.4Y-2.65
X2.4Y-2.75
X2.4Y-2.85
X2.4Y-2.95
X2.4Y-3.85
X2.4Y-3.95
X2.4Y-4.05
X2.4Y-4.15
X2.4Y-5.05
X2.4Y-5.15
X2.4Y-5.25
X2.4Y-5.35
T4
X0.8Y-3.2
X0.8Y-3.4
X0.8Y-4.2
X0.8Y-4.4
X0.8Y-4.6
X0.8Y-4.8
X2.3Y-1.3
X2.3Y-1.5
X2.3Y-1.7
X2.3Y-1.9
X2.3Y-2.5
X2.3Y-2.7
X2.3Y-2.9
X2.3Y-3.1
X2.3Y-3.7
X2.3Y-3.9
X2.3Y-4.1
X2.3Y-4.3
X2.3Y-4.9
X2.3Y-5.1
X2.3Y-5.3
X2.3Y-5.5
T5
X0.8Y-1.
X0.8Y-5.8
X2.3Y-1.
X2.3Y-5.8
T0
M30
