G04 (created by PCBNEW (2013-jul-07)-stable) date wo 25 feb 2015 16:47:35 CET*
%MOIN*%
G04 Gerber Fmt 3.4, Leading zero omitted, Abs format*
%FSLAX34Y34*%
G01*
G70*
G90*
G04 APERTURE LIST*
%ADD10C,0.00393701*%
%ADD11C,0.011811*%
%ADD12C,0.00590551*%
G04 APERTURE END LIST*
G54D10*
G54D11*
X13334Y-61376D02*
X13334Y-61770D01*
X13194Y-61151D02*
X13053Y-61573D01*
X13419Y-61573D01*
X13728Y-61433D02*
X13672Y-61404D01*
X13643Y-61376D01*
X13615Y-61320D01*
X13615Y-61292D01*
X13643Y-61236D01*
X13672Y-61208D01*
X13728Y-61179D01*
X13840Y-61179D01*
X13897Y-61208D01*
X13925Y-61236D01*
X13953Y-61292D01*
X13953Y-61320D01*
X13925Y-61376D01*
X13897Y-61404D01*
X13840Y-61433D01*
X13728Y-61433D01*
X13672Y-61461D01*
X13643Y-61489D01*
X13615Y-61545D01*
X13615Y-61658D01*
X13643Y-61714D01*
X13672Y-61742D01*
X13728Y-61770D01*
X13840Y-61770D01*
X13897Y-61742D01*
X13925Y-61714D01*
X13953Y-61658D01*
X13953Y-61545D01*
X13925Y-61489D01*
X13897Y-61461D01*
X13840Y-61433D01*
X14234Y-61742D02*
X14234Y-61770D01*
X14206Y-61826D01*
X14178Y-61854D01*
X14459Y-61236D02*
X14487Y-61208D01*
X14543Y-61179D01*
X14684Y-61179D01*
X14740Y-61208D01*
X14768Y-61236D01*
X14796Y-61292D01*
X14796Y-61348D01*
X14768Y-61433D01*
X14431Y-61770D01*
X14796Y-61770D01*
X15303Y-61179D02*
X15190Y-61179D01*
X15134Y-61208D01*
X15106Y-61236D01*
X15050Y-61320D01*
X15021Y-61433D01*
X15021Y-61658D01*
X15050Y-61714D01*
X15078Y-61742D01*
X15134Y-61770D01*
X15246Y-61770D01*
X15303Y-61742D01*
X15331Y-61714D01*
X15359Y-61658D01*
X15359Y-61517D01*
X15331Y-61461D01*
X15303Y-61433D01*
X15246Y-61404D01*
X15134Y-61404D01*
X15078Y-61433D01*
X15050Y-61461D01*
X15021Y-61517D01*
X15724Y-61179D02*
X15781Y-61179D01*
X15837Y-61208D01*
X15865Y-61236D01*
X15893Y-61292D01*
X15921Y-61404D01*
X15921Y-61545D01*
X15893Y-61658D01*
X15865Y-61714D01*
X15837Y-61742D01*
X15781Y-61770D01*
X15724Y-61770D01*
X15668Y-61742D01*
X15640Y-61714D01*
X15612Y-61658D01*
X15584Y-61545D01*
X15584Y-61404D01*
X15612Y-61292D01*
X15640Y-61236D01*
X15668Y-61208D01*
X15724Y-61179D01*
X16624Y-61770D02*
X16624Y-61376D01*
X16624Y-61433D02*
X16652Y-61404D01*
X16709Y-61376D01*
X16793Y-61376D01*
X16849Y-61404D01*
X16877Y-61461D01*
X16877Y-61770D01*
X16877Y-61461D02*
X16906Y-61404D01*
X16962Y-61376D01*
X17046Y-61376D01*
X17102Y-61404D01*
X17131Y-61461D01*
X17131Y-61770D01*
X17412Y-61770D02*
X17412Y-61376D01*
X17412Y-61433D02*
X17440Y-61404D01*
X17496Y-61376D01*
X17580Y-61376D01*
X17637Y-61404D01*
X17665Y-61461D01*
X17665Y-61770D01*
X17665Y-61461D02*
X17693Y-61404D01*
X17749Y-61376D01*
X17834Y-61376D01*
X17890Y-61404D01*
X17918Y-61461D01*
X17918Y-61770D01*
X6000Y-60999D02*
X25000Y-60999D01*
X6000Y-60000D02*
X6000Y-62062D01*
X25000Y-60000D02*
X25000Y-62062D01*
X25000Y-60999D02*
X24556Y-61230D01*
X25000Y-60999D02*
X24556Y-60769D01*
X6000Y-60999D02*
X6443Y-61230D01*
X6000Y-60999D02*
X6443Y-60769D01*
X27292Y-31609D02*
X27292Y-31272D01*
X27292Y-31440D02*
X27883Y-31440D01*
X27798Y-31384D01*
X27742Y-31328D01*
X27714Y-31272D01*
X27883Y-31806D02*
X27883Y-32172D01*
X27658Y-31975D01*
X27658Y-32059D01*
X27629Y-32115D01*
X27601Y-32143D01*
X27545Y-32172D01*
X27404Y-32172D01*
X27348Y-32143D01*
X27320Y-32115D01*
X27292Y-32059D01*
X27292Y-31890D01*
X27320Y-31834D01*
X27348Y-31806D01*
X27826Y-32397D02*
X27854Y-32425D01*
X27883Y-32481D01*
X27883Y-32622D01*
X27854Y-32678D01*
X27826Y-32706D01*
X27770Y-32734D01*
X27714Y-32734D01*
X27629Y-32706D01*
X27292Y-32368D01*
X27292Y-32734D01*
X27320Y-33015D02*
X27292Y-33015D01*
X27236Y-32987D01*
X27208Y-32959D01*
X27883Y-33381D02*
X27883Y-33437D01*
X27854Y-33493D01*
X27826Y-33521D01*
X27770Y-33550D01*
X27658Y-33578D01*
X27517Y-33578D01*
X27404Y-33550D01*
X27348Y-33521D01*
X27320Y-33493D01*
X27292Y-33437D01*
X27292Y-33381D01*
X27320Y-33325D01*
X27348Y-33296D01*
X27404Y-33268D01*
X27517Y-33240D01*
X27658Y-33240D01*
X27770Y-33268D01*
X27826Y-33296D01*
X27854Y-33325D01*
X27883Y-33381D01*
X27629Y-33915D02*
X27658Y-33859D01*
X27686Y-33831D01*
X27742Y-33803D01*
X27770Y-33803D01*
X27826Y-33831D01*
X27854Y-33859D01*
X27883Y-33915D01*
X27883Y-34028D01*
X27854Y-34084D01*
X27826Y-34112D01*
X27770Y-34140D01*
X27742Y-34140D01*
X27686Y-34112D01*
X27658Y-34084D01*
X27629Y-34028D01*
X27629Y-33915D01*
X27601Y-33859D01*
X27573Y-33831D01*
X27517Y-33803D01*
X27404Y-33803D01*
X27348Y-33831D01*
X27320Y-33859D01*
X27292Y-33915D01*
X27292Y-34028D01*
X27320Y-34084D01*
X27348Y-34112D01*
X27404Y-34140D01*
X27517Y-34140D01*
X27573Y-34112D01*
X27601Y-34084D01*
X27629Y-34028D01*
X27883Y-34506D02*
X27883Y-34562D01*
X27854Y-34618D01*
X27826Y-34646D01*
X27770Y-34674D01*
X27658Y-34703D01*
X27517Y-34703D01*
X27404Y-34674D01*
X27348Y-34646D01*
X27320Y-34618D01*
X27292Y-34562D01*
X27292Y-34506D01*
X27320Y-34449D01*
X27348Y-34421D01*
X27404Y-34393D01*
X27517Y-34365D01*
X27658Y-34365D01*
X27770Y-34393D01*
X27826Y-34421D01*
X27854Y-34449D01*
X27883Y-34506D01*
X27292Y-35406D02*
X27686Y-35406D01*
X27629Y-35406D02*
X27658Y-35434D01*
X27686Y-35490D01*
X27686Y-35574D01*
X27658Y-35631D01*
X27601Y-35659D01*
X27292Y-35659D01*
X27601Y-35659D02*
X27658Y-35687D01*
X27686Y-35743D01*
X27686Y-35827D01*
X27658Y-35884D01*
X27601Y-35912D01*
X27292Y-35912D01*
X27292Y-36193D02*
X27686Y-36193D01*
X27629Y-36193D02*
X27658Y-36221D01*
X27686Y-36277D01*
X27686Y-36362D01*
X27658Y-36418D01*
X27601Y-36446D01*
X27292Y-36446D01*
X27601Y-36446D02*
X27658Y-36474D01*
X27686Y-36530D01*
X27686Y-36615D01*
X27658Y-36671D01*
X27601Y-36699D01*
X27292Y-36699D01*
X26999Y-8000D02*
X26999Y-60000D01*
X25000Y-8000D02*
X28062Y-8000D01*
X25000Y-60000D02*
X28062Y-60000D01*
X26999Y-60000D02*
X26769Y-59556D01*
X26999Y-60000D02*
X27230Y-59556D01*
X26999Y-8000D02*
X26769Y-8443D01*
X26999Y-8000D02*
X27230Y-8443D01*
G54D12*
X6000Y-60000D02*
X6000Y-8000D01*
X25000Y-60000D02*
X6000Y-60000D01*
X25000Y-8000D02*
X25000Y-60000D01*
X6000Y-8000D02*
X25000Y-8000D01*
M02*
