G04 (created by PCBNEW (2013-jul-07)-stable) date wo 25 feb 2015 16:47:35 CET*
%MOIN*%
G04 Gerber Fmt 3.4, Leading zero omitted, Abs format*
%FSLAX34Y34*%
G01*
G70*
G90*
G04 APERTURE LIST*
%ADD10C,0.00393701*%
%ADD11R,0.0669X0.0669*%
%ADD12C,0.0669*%
%ADD13C,0.2461*%
%ADD14R,0.0846X0.0846*%
%ADD15C,0.0846*%
%ADD16C,0.0709*%
%ADD17R,0.0866X0.0866*%
%ADD18R,0.0709X0.0709*%
%ADD19R,0.055X0.055*%
%ADD20C,0.055*%
%ADD21C,0.035*%
%ADD22C,0.0393701*%
%ADD23C,0.01*%
G04 APERTURE END LIST*
G54D10*
G54D11*
X13000Y-24000D03*
G54D12*
X13000Y-25000D03*
X13000Y-26000D03*
X13000Y-27000D03*
X13000Y-28000D03*
X13000Y-29000D03*
X13000Y-30000D03*
X13000Y-31000D03*
X18000Y-31000D03*
X18000Y-30000D03*
X18000Y-29000D03*
X18000Y-28000D03*
X18000Y-27000D03*
X18000Y-26000D03*
X18000Y-25000D03*
X18000Y-24000D03*
G54D11*
X13000Y-36000D03*
G54D12*
X13000Y-37000D03*
X13000Y-38000D03*
X13000Y-39000D03*
X13000Y-40000D03*
X13000Y-41000D03*
X13000Y-42000D03*
X13000Y-43000D03*
X18000Y-43000D03*
X18000Y-42000D03*
X18000Y-41000D03*
X18000Y-40000D03*
X18000Y-39000D03*
X18000Y-38000D03*
X18000Y-37000D03*
X18000Y-36000D03*
G54D11*
X13000Y-48000D03*
G54D12*
X13000Y-49000D03*
X13000Y-50000D03*
X13000Y-51000D03*
X13000Y-52000D03*
X13000Y-53000D03*
X13000Y-54000D03*
X13000Y-55000D03*
X18000Y-55000D03*
X18000Y-54000D03*
X18000Y-53000D03*
X18000Y-52000D03*
X18000Y-51000D03*
X18000Y-50000D03*
X18000Y-49000D03*
X18000Y-48000D03*
G54D11*
X13000Y-12000D03*
G54D12*
X13000Y-13000D03*
X13000Y-14000D03*
X13000Y-15000D03*
X13000Y-16000D03*
X13000Y-17000D03*
X13000Y-18000D03*
X13000Y-19000D03*
X18000Y-19000D03*
X18000Y-18000D03*
X18000Y-17000D03*
X18000Y-16000D03*
X18000Y-15000D03*
X18000Y-14000D03*
X18000Y-13000D03*
X18000Y-12000D03*
G54D13*
X23000Y-58000D03*
X8000Y-58000D03*
X23000Y-10000D03*
X8000Y-10000D03*
G54D14*
X8000Y-48000D03*
G54D15*
X8000Y-46000D03*
X8000Y-44000D03*
X8000Y-42000D03*
G54D16*
X7000Y-46500D03*
X7000Y-45500D03*
X7000Y-44500D03*
X7000Y-43500D03*
G54D14*
X23000Y-49000D03*
G54D15*
X23000Y-51000D03*
X23000Y-53000D03*
X23000Y-55000D03*
G54D16*
X24000Y-50500D03*
X24000Y-51500D03*
X24000Y-52500D03*
X24000Y-53500D03*
G54D14*
X23000Y-37000D03*
G54D15*
X23000Y-39000D03*
X23000Y-41000D03*
X23000Y-43000D03*
G54D16*
X24000Y-38500D03*
X24000Y-39500D03*
X24000Y-40500D03*
X24000Y-41500D03*
G54D14*
X23000Y-25000D03*
G54D15*
X23000Y-27000D03*
X23000Y-29000D03*
X23000Y-31000D03*
G54D16*
X24000Y-26500D03*
X24000Y-27500D03*
X24000Y-28500D03*
X24000Y-29500D03*
G54D14*
X23000Y-13000D03*
G54D15*
X23000Y-15000D03*
X23000Y-17000D03*
X23000Y-19000D03*
G54D16*
X24000Y-14500D03*
X24000Y-15500D03*
X24000Y-16500D03*
X24000Y-17500D03*
G54D17*
X8000Y-34000D03*
G54D15*
X8000Y-32000D03*
G54D18*
X7000Y-33500D03*
G54D16*
X7000Y-32500D03*
G54D19*
X15000Y-13000D03*
G54D20*
X16378Y-13000D03*
G54D19*
X15000Y-25000D03*
G54D20*
X16378Y-25000D03*
G54D19*
X15000Y-37000D03*
G54D20*
X16378Y-37000D03*
G54D19*
X15000Y-49000D03*
G54D20*
X16378Y-49000D03*
G54D21*
X14000Y-34000D03*
X15600Y-28400D03*
G54D22*
X14000Y-34000D02*
X15000Y-34000D01*
X15000Y-25000D02*
X15000Y-34000D01*
X15000Y-34000D02*
X15000Y-37000D01*
X18000Y-12000D02*
X16000Y-12000D01*
X16000Y-12000D02*
X15000Y-13000D01*
X18000Y-24000D02*
X16000Y-24000D01*
X16000Y-24000D02*
X15000Y-25000D01*
X18000Y-36000D02*
X16000Y-36000D01*
X16000Y-36000D02*
X15000Y-37000D01*
X15000Y-49000D02*
X15000Y-48800D01*
X15800Y-48000D02*
X18000Y-48000D01*
X15000Y-48800D02*
X15800Y-48000D01*
G54D23*
X13000Y-39000D02*
X13800Y-39000D01*
X16800Y-42000D02*
X18000Y-42000D01*
X16400Y-41600D02*
X16800Y-42000D01*
X13800Y-39000D02*
X16400Y-41600D01*
X18000Y-30000D02*
X17200Y-30000D01*
X17200Y-30000D02*
X15600Y-28400D01*
X13000Y-25000D02*
X13600Y-25000D01*
X17000Y-18000D02*
X18000Y-18000D01*
X16400Y-18600D02*
X17000Y-18000D01*
X16400Y-22200D02*
X16400Y-18600D01*
X13600Y-25000D02*
X16400Y-22200D01*
X13000Y-15000D02*
X15600Y-17600D01*
X17600Y-17600D02*
X18000Y-18000D01*
X15600Y-17600D02*
X17600Y-17600D01*
X7000Y-46500D02*
X7000Y-47000D01*
X7000Y-47000D02*
X8000Y-48000D01*
X18000Y-54000D02*
X17400Y-54000D01*
X14400Y-51000D02*
X13000Y-51000D01*
X17400Y-54000D02*
X14400Y-51000D01*
X13000Y-50000D02*
X13000Y-51000D01*
X13000Y-49000D02*
X13000Y-50000D01*
X13000Y-38000D02*
X13000Y-39000D01*
X13000Y-37000D02*
X13000Y-38000D01*
X13000Y-26000D02*
X13000Y-27000D01*
X13000Y-25000D02*
X13000Y-26000D01*
X13000Y-14000D02*
X13000Y-15000D01*
X13000Y-13000D02*
X13000Y-14000D01*
G54D22*
X23000Y-19000D02*
X22000Y-19000D01*
X20000Y-17000D02*
X18000Y-17000D01*
X22000Y-19000D02*
X20000Y-17000D01*
X24000Y-17500D02*
X24000Y-17800D01*
X23000Y-18800D02*
X23000Y-19000D01*
X24000Y-17800D02*
X23000Y-18800D01*
X24000Y-16500D02*
X23500Y-16500D01*
X23500Y-16500D02*
X23000Y-17000D01*
X18000Y-16000D02*
X20000Y-16000D01*
X22000Y-16000D02*
X23000Y-17000D01*
X20000Y-16000D02*
X22000Y-16000D01*
X23000Y-15000D02*
X23400Y-15400D01*
X23900Y-15400D02*
X24000Y-15500D01*
X23400Y-15400D02*
X23900Y-15400D01*
X18000Y-15000D02*
X23000Y-15000D01*
X23000Y-13000D02*
X24000Y-14000D01*
X24000Y-14000D02*
X24000Y-14500D01*
X18000Y-14000D02*
X20000Y-14000D01*
X21000Y-13000D02*
X23000Y-13000D01*
X20000Y-14000D02*
X21000Y-13000D01*
X23000Y-31000D02*
X23200Y-31000D01*
X24000Y-30200D02*
X24000Y-29500D01*
X23200Y-31000D02*
X24000Y-30200D01*
X18000Y-29000D02*
X20800Y-29000D01*
X22800Y-31000D02*
X23000Y-31000D01*
X20800Y-29000D02*
X22800Y-31000D01*
X24000Y-28500D02*
X23500Y-28500D01*
X23500Y-28500D02*
X23000Y-29000D01*
X18000Y-28000D02*
X22000Y-28000D01*
X22000Y-28000D02*
X23000Y-29000D01*
X23000Y-27000D02*
X23400Y-27400D01*
X23900Y-27400D02*
X24000Y-27500D01*
X23400Y-27400D02*
X23900Y-27400D01*
X18000Y-27000D02*
X23000Y-27000D01*
X24000Y-26500D02*
X24000Y-26000D01*
X24000Y-26000D02*
X23000Y-25000D01*
X18000Y-26000D02*
X22000Y-26000D01*
X22000Y-26000D02*
X23000Y-25000D01*
X23000Y-43000D02*
X23200Y-43000D01*
X24000Y-42200D02*
X24000Y-41500D01*
X23200Y-43000D02*
X24000Y-42200D01*
X18000Y-41000D02*
X20800Y-41000D01*
X22800Y-43000D02*
X23000Y-43000D01*
X20800Y-41000D02*
X22800Y-43000D01*
X23000Y-41000D02*
X23500Y-41000D01*
X23500Y-41000D02*
X24000Y-40500D01*
X18000Y-40000D02*
X22000Y-40000D01*
X22000Y-40000D02*
X23000Y-41000D01*
X23000Y-39000D02*
X23500Y-39000D01*
X23500Y-39000D02*
X24000Y-39500D01*
X18000Y-39000D02*
X23000Y-39000D01*
X23000Y-37000D02*
X23000Y-37200D01*
X24000Y-38200D02*
X24000Y-38500D01*
X23000Y-37200D02*
X24000Y-38200D01*
X18000Y-38000D02*
X20400Y-38000D01*
X21400Y-37000D02*
X23000Y-37000D01*
X20400Y-38000D02*
X21400Y-37000D01*
X23000Y-55000D02*
X21800Y-55000D01*
X19800Y-53000D02*
X18000Y-53000D01*
X21800Y-55000D02*
X19800Y-53000D01*
X24000Y-53500D02*
X24000Y-54000D01*
X24000Y-54000D02*
X23000Y-55000D01*
X18000Y-52000D02*
X21400Y-52000D01*
X22400Y-53000D02*
X23000Y-53000D01*
X21400Y-52000D02*
X22400Y-53000D01*
X24000Y-52500D02*
X23500Y-52500D01*
X23500Y-52500D02*
X23000Y-53000D01*
X23000Y-51000D02*
X23000Y-51200D01*
X23300Y-51500D02*
X24000Y-51500D01*
X23000Y-51200D02*
X23300Y-51500D01*
X18000Y-51000D02*
X23000Y-51000D01*
X23000Y-49000D02*
X24000Y-50000D01*
X24000Y-50000D02*
X24000Y-50500D01*
X23000Y-49000D02*
X20200Y-49000D01*
X19200Y-50000D02*
X18000Y-50000D01*
X20200Y-49000D02*
X19200Y-50000D01*
G54D23*
X13000Y-31000D02*
X12400Y-31000D01*
X11000Y-43000D02*
X13000Y-43000D01*
X10000Y-42000D02*
X11000Y-43000D01*
X10000Y-33400D02*
X10000Y-42000D01*
X12400Y-31000D02*
X10000Y-33400D01*
X8000Y-44000D02*
X11400Y-44000D01*
X11400Y-44000D02*
X12400Y-43000D01*
X12400Y-43000D02*
X13000Y-43000D01*
X7000Y-44500D02*
X7500Y-44500D01*
X7500Y-44500D02*
X8000Y-44000D01*
X13000Y-55000D02*
X11600Y-55000D01*
X13000Y-44800D02*
X13000Y-43000D01*
X10400Y-47400D02*
X13000Y-44800D01*
X10400Y-53800D02*
X10400Y-47400D01*
X11600Y-55000D02*
X10400Y-53800D01*
X13000Y-19000D02*
X13000Y-20800D01*
X13000Y-20800D02*
X10600Y-23200D01*
X10600Y-23200D02*
X10600Y-29800D01*
X10600Y-29800D02*
X11800Y-31000D01*
X11800Y-31000D02*
X13000Y-31000D01*
X13000Y-42000D02*
X11400Y-42000D01*
X11400Y-42000D02*
X11000Y-41600D01*
X11000Y-41600D02*
X11000Y-33800D01*
X11000Y-33800D02*
X12600Y-32200D01*
X12600Y-32200D02*
X13600Y-32200D01*
X13600Y-32200D02*
X14200Y-31600D01*
X14200Y-31600D02*
X14200Y-30600D01*
X14200Y-30600D02*
X13600Y-30000D01*
X13600Y-30000D02*
X13000Y-30000D01*
X7000Y-45500D02*
X7500Y-45500D01*
X7500Y-45500D02*
X8000Y-46000D01*
X13000Y-42000D02*
X13800Y-42000D01*
X14000Y-46200D02*
X13400Y-46800D01*
X13400Y-46800D02*
X12400Y-46800D01*
X12400Y-46800D02*
X11400Y-47800D01*
X11400Y-47800D02*
X11400Y-53600D01*
X11400Y-53600D02*
X11800Y-54000D01*
X11800Y-54000D02*
X13000Y-54000D01*
X14000Y-46000D02*
X14000Y-46200D01*
X13800Y-42000D02*
X14000Y-42200D01*
X14000Y-42200D02*
X14000Y-46000D01*
X13000Y-18000D02*
X13200Y-18000D01*
X13200Y-18000D02*
X13800Y-19000D01*
X13800Y-19000D02*
X13800Y-20800D01*
X13800Y-20800D02*
X11400Y-23600D01*
X11400Y-23600D02*
X11400Y-29400D01*
X11400Y-29400D02*
X12000Y-30000D01*
X12000Y-30000D02*
X13000Y-30000D01*
X13000Y-52000D02*
X13000Y-53000D01*
X13000Y-40000D02*
X13000Y-41000D01*
X13000Y-16000D02*
X13000Y-17000D01*
X13000Y-28000D02*
X13000Y-29000D01*
M02*
