G04 (created by PCBNEW-RS274X (2011-10-18 BZR 3179)-testing) date Mon 31 Oct 2011 11:48:22 PM CET*
G01*
G70*
G90*
%MOIN*%
G04 Gerber Fmt 3.4, Leading zero omitted, Abs format*
%FSLAX34Y34*%
G04 APERTURE LIST*
%ADD10C,0.006000*%
%ADD11C,0.015000*%
%ADD12C,0.003900*%
G04 APERTURE END LIST*
G54D10*
X36304Y-28807D02*
X36304Y-29593D01*
X36304Y-29593D02*
X36796Y-29593D01*
X36796Y-29593D02*
X36796Y-28807D01*
X36796Y-28807D02*
X36304Y-28807D01*
X52107Y-18646D02*
X52893Y-18646D01*
X52893Y-18646D02*
X52893Y-18154D01*
X52893Y-18154D02*
X52107Y-18154D01*
X52107Y-18154D02*
X52107Y-18646D01*
X52893Y-27254D02*
X52107Y-27254D01*
X52107Y-27254D02*
X52107Y-27746D01*
X52107Y-27746D02*
X52893Y-27746D01*
X52893Y-27746D02*
X52893Y-27254D01*
X54754Y-28357D02*
X54754Y-29143D01*
X54754Y-29143D02*
X55246Y-29143D01*
X55246Y-29143D02*
X55246Y-28357D01*
X55246Y-28357D02*
X54754Y-28357D01*
X52893Y-37254D02*
X52107Y-37254D01*
X52107Y-37254D02*
X52107Y-37746D01*
X52107Y-37746D02*
X52893Y-37746D01*
X52893Y-37746D02*
X52893Y-37254D01*
X54754Y-37757D02*
X54754Y-38543D01*
X54754Y-38543D02*
X55246Y-38543D01*
X55246Y-38543D02*
X55246Y-37757D01*
X55246Y-37757D02*
X54754Y-37757D01*
X52893Y-47254D02*
X52107Y-47254D01*
X52107Y-47254D02*
X52107Y-47746D01*
X52107Y-47746D02*
X52893Y-47746D01*
X52893Y-47746D02*
X52893Y-47254D01*
X54754Y-48107D02*
X54754Y-48893D01*
X54754Y-48893D02*
X55246Y-48893D01*
X55246Y-48893D02*
X55246Y-48107D01*
X55246Y-48107D02*
X54754Y-48107D01*
X52943Y-57254D02*
X52157Y-57254D01*
X52157Y-57254D02*
X52157Y-57746D01*
X52157Y-57746D02*
X52943Y-57746D01*
X52943Y-57746D02*
X52943Y-57254D01*
G54D11*
X50640Y-23900D02*
X50640Y-24700D01*
X50640Y-24700D02*
X49240Y-24700D01*
X49240Y-24700D02*
X49240Y-23900D01*
X50640Y-23000D02*
X50640Y-23200D01*
X49240Y-23100D02*
X49240Y-23900D01*
X49240Y-23900D02*
X50640Y-23900D01*
X50640Y-23900D02*
X50640Y-23200D01*
X49340Y-22300D02*
X49240Y-22300D01*
X49240Y-22300D02*
X49240Y-23100D01*
X49240Y-23100D02*
X50540Y-23100D01*
X50540Y-23100D02*
X50640Y-23100D01*
X50640Y-23100D02*
X50640Y-22300D01*
X50640Y-22300D02*
X50540Y-22300D01*
X50540Y-22300D02*
X49340Y-22300D01*
X49220Y-33060D02*
X49220Y-32260D01*
X49220Y-32260D02*
X50620Y-32260D01*
X50620Y-32260D02*
X50620Y-33060D01*
X49220Y-33960D02*
X49220Y-33760D01*
X50620Y-33860D02*
X50620Y-33060D01*
X50620Y-33060D02*
X49220Y-33060D01*
X49220Y-33060D02*
X49220Y-33760D01*
X50520Y-34660D02*
X50620Y-34660D01*
X50620Y-34660D02*
X50620Y-33860D01*
X50620Y-33860D02*
X49320Y-33860D01*
X49320Y-33860D02*
X49220Y-33860D01*
X49220Y-33860D02*
X49220Y-34660D01*
X49220Y-34660D02*
X49320Y-34660D01*
X49320Y-34660D02*
X50520Y-34660D01*
X49160Y-43100D02*
X49160Y-42300D01*
X49160Y-42300D02*
X50560Y-42300D01*
X50560Y-42300D02*
X50560Y-43100D01*
X49160Y-44000D02*
X49160Y-43800D01*
X50560Y-43900D02*
X50560Y-43100D01*
X50560Y-43100D02*
X49160Y-43100D01*
X49160Y-43100D02*
X49160Y-43800D01*
X50460Y-44700D02*
X50560Y-44700D01*
X50560Y-44700D02*
X50560Y-43900D01*
X50560Y-43900D02*
X49260Y-43900D01*
X49260Y-43900D02*
X49160Y-43900D01*
X49160Y-43900D02*
X49160Y-44700D01*
X49160Y-44700D02*
X49260Y-44700D01*
X49260Y-44700D02*
X50460Y-44700D01*
X48900Y-52300D02*
X48900Y-51500D01*
X48900Y-51500D02*
X50300Y-51500D01*
X50300Y-51500D02*
X50300Y-52300D01*
X48900Y-53200D02*
X48900Y-53000D01*
X50300Y-53100D02*
X50300Y-52300D01*
X50300Y-52300D02*
X48900Y-52300D01*
X48900Y-52300D02*
X48900Y-53000D01*
X50200Y-53900D02*
X50300Y-53900D01*
X50300Y-53900D02*
X50300Y-53100D01*
X50300Y-53100D02*
X49000Y-53100D01*
X49000Y-53100D02*
X48900Y-53100D01*
X48900Y-53100D02*
X48900Y-53900D01*
X48900Y-53900D02*
X49000Y-53900D01*
X49000Y-53900D02*
X50200Y-53900D01*
G54D12*
X37065Y-29069D02*
X37347Y-29069D01*
X37403Y-29051D01*
X37441Y-29013D01*
X37459Y-28957D01*
X37459Y-28919D01*
X37065Y-29219D02*
X37065Y-29463D01*
X37216Y-29332D01*
X37216Y-29388D01*
X37234Y-29426D01*
X37253Y-29444D01*
X37291Y-29463D01*
X37384Y-29463D01*
X37422Y-29444D01*
X37441Y-29426D01*
X37459Y-29388D01*
X37459Y-29276D01*
X37441Y-29238D01*
X37422Y-29219D01*
X52631Y-17415D02*
X52631Y-17697D01*
X52649Y-17753D01*
X52687Y-17791D01*
X52743Y-17809D01*
X52781Y-17809D01*
X52274Y-17415D02*
X52349Y-17415D01*
X52387Y-17434D01*
X52406Y-17453D01*
X52443Y-17509D01*
X52462Y-17584D01*
X52462Y-17734D01*
X52443Y-17772D01*
X52424Y-17791D01*
X52387Y-17809D01*
X52312Y-17809D01*
X52274Y-17791D01*
X52256Y-17772D01*
X52237Y-17734D01*
X52237Y-17641D01*
X52256Y-17603D01*
X52274Y-17584D01*
X52312Y-17566D01*
X52387Y-17566D01*
X52424Y-17584D01*
X52443Y-17603D01*
X52462Y-17641D01*
X52819Y-28015D02*
X52819Y-28297D01*
X52837Y-28353D01*
X52875Y-28391D01*
X52931Y-28409D01*
X52969Y-28409D01*
X52425Y-28409D02*
X52650Y-28409D01*
X52537Y-28409D02*
X52537Y-28015D01*
X52575Y-28072D01*
X52612Y-28109D01*
X52650Y-28128D01*
X52275Y-28053D02*
X52256Y-28034D01*
X52219Y-28015D01*
X52125Y-28015D01*
X52087Y-28034D01*
X52069Y-28053D01*
X52050Y-28091D01*
X52050Y-28128D01*
X52069Y-28184D01*
X52294Y-28409D01*
X52050Y-28409D01*
X55515Y-28431D02*
X55797Y-28431D01*
X55853Y-28413D01*
X55891Y-28375D01*
X55909Y-28319D01*
X55909Y-28281D01*
X55909Y-28825D02*
X55909Y-28600D01*
X55909Y-28713D02*
X55515Y-28713D01*
X55572Y-28675D01*
X55609Y-28638D01*
X55628Y-28600D01*
X55515Y-29181D02*
X55515Y-28994D01*
X55703Y-28975D01*
X55684Y-28994D01*
X55666Y-29031D01*
X55666Y-29125D01*
X55684Y-29163D01*
X55703Y-29181D01*
X55741Y-29200D01*
X55834Y-29200D01*
X55872Y-29181D01*
X55891Y-29163D01*
X55909Y-29125D01*
X55909Y-29031D01*
X55891Y-28994D01*
X55872Y-28975D01*
X52819Y-38015D02*
X52819Y-38297D01*
X52837Y-38353D01*
X52875Y-38391D01*
X52931Y-38409D01*
X52969Y-38409D01*
X52425Y-38409D02*
X52650Y-38409D01*
X52537Y-38409D02*
X52537Y-38015D01*
X52575Y-38072D01*
X52612Y-38109D01*
X52650Y-38128D01*
X52237Y-38409D02*
X52162Y-38409D01*
X52125Y-38391D01*
X52106Y-38372D01*
X52069Y-38316D01*
X52050Y-38241D01*
X52050Y-38091D01*
X52069Y-38053D01*
X52087Y-38034D01*
X52125Y-38015D01*
X52200Y-38015D01*
X52237Y-38034D01*
X52256Y-38053D01*
X52275Y-38091D01*
X52275Y-38184D01*
X52256Y-38222D01*
X52237Y-38241D01*
X52200Y-38259D01*
X52125Y-38259D01*
X52087Y-38241D01*
X52069Y-38222D01*
X52050Y-38184D01*
X55515Y-37831D02*
X55797Y-37831D01*
X55853Y-37813D01*
X55891Y-37775D01*
X55909Y-37719D01*
X55909Y-37681D01*
X55553Y-38000D02*
X55534Y-38019D01*
X55515Y-38056D01*
X55515Y-38150D01*
X55534Y-38188D01*
X55553Y-38206D01*
X55591Y-38225D01*
X55628Y-38225D01*
X55684Y-38206D01*
X55909Y-37981D01*
X55909Y-38225D01*
X55909Y-38600D02*
X55909Y-38375D01*
X55909Y-38488D02*
X55515Y-38488D01*
X55572Y-38450D01*
X55609Y-38413D01*
X55628Y-38375D01*
X52819Y-48015D02*
X52819Y-48297D01*
X52837Y-48353D01*
X52875Y-48391D01*
X52931Y-48409D01*
X52969Y-48409D01*
X52650Y-48053D02*
X52631Y-48034D01*
X52594Y-48015D01*
X52500Y-48015D01*
X52462Y-48034D01*
X52444Y-48053D01*
X52425Y-48091D01*
X52425Y-48128D01*
X52444Y-48184D01*
X52669Y-48409D01*
X52425Y-48409D01*
X52069Y-48015D02*
X52256Y-48015D01*
X52275Y-48203D01*
X52256Y-48184D01*
X52219Y-48166D01*
X52125Y-48166D01*
X52087Y-48184D01*
X52069Y-48203D01*
X52050Y-48241D01*
X52050Y-48334D01*
X52069Y-48372D01*
X52087Y-48391D01*
X52125Y-48409D01*
X52219Y-48409D01*
X52256Y-48391D01*
X52275Y-48372D01*
X55515Y-48181D02*
X55797Y-48181D01*
X55853Y-48163D01*
X55891Y-48125D01*
X55909Y-48069D01*
X55909Y-48031D01*
X55515Y-48331D02*
X55515Y-48575D01*
X55666Y-48444D01*
X55666Y-48500D01*
X55684Y-48538D01*
X55703Y-48556D01*
X55741Y-48575D01*
X55834Y-48575D01*
X55872Y-48556D01*
X55891Y-48538D01*
X55909Y-48500D01*
X55909Y-48388D01*
X55891Y-48350D01*
X55872Y-48331D01*
X55515Y-48819D02*
X55515Y-48856D01*
X55534Y-48894D01*
X55553Y-48913D01*
X55591Y-48931D01*
X55666Y-48950D01*
X55759Y-48950D01*
X55834Y-48931D01*
X55872Y-48913D01*
X55891Y-48894D01*
X55909Y-48856D01*
X55909Y-48819D01*
X55891Y-48781D01*
X55872Y-48763D01*
X55834Y-48744D01*
X55759Y-48725D01*
X55666Y-48725D01*
X55591Y-48744D01*
X55553Y-48763D01*
X55534Y-48781D01*
X55515Y-48819D01*
X52869Y-58015D02*
X52869Y-58297D01*
X52887Y-58353D01*
X52925Y-58391D01*
X52981Y-58409D01*
X53019Y-58409D01*
X52719Y-58015D02*
X52475Y-58015D01*
X52606Y-58166D01*
X52550Y-58166D01*
X52512Y-58184D01*
X52494Y-58203D01*
X52475Y-58241D01*
X52475Y-58334D01*
X52494Y-58372D01*
X52512Y-58391D01*
X52550Y-58409D01*
X52662Y-58409D01*
X52700Y-58391D01*
X52719Y-58372D01*
X52119Y-58015D02*
X52306Y-58015D01*
X52325Y-58203D01*
X52306Y-58184D01*
X52269Y-58166D01*
X52175Y-58166D01*
X52137Y-58184D01*
X52119Y-58203D01*
X52100Y-58241D01*
X52100Y-58334D01*
X52119Y-58372D01*
X52137Y-58391D01*
X52175Y-58409D01*
X52269Y-58409D01*
X52306Y-58391D01*
X52325Y-58372D01*
X50259Y-25015D02*
X50259Y-25297D01*
X50277Y-25353D01*
X50315Y-25391D01*
X50371Y-25409D01*
X50409Y-25409D01*
X49865Y-25409D02*
X50090Y-25409D01*
X49977Y-25409D02*
X49977Y-25015D01*
X50015Y-25072D01*
X50052Y-25109D01*
X50090Y-25128D01*
X49734Y-25015D02*
X49490Y-25015D01*
X49621Y-25166D01*
X49565Y-25166D01*
X49527Y-25184D01*
X49509Y-25203D01*
X49490Y-25241D01*
X49490Y-25334D01*
X49509Y-25372D01*
X49527Y-25391D01*
X49565Y-25409D01*
X49677Y-25409D01*
X49715Y-25391D01*
X49734Y-25372D01*
X50239Y-31475D02*
X50239Y-31757D01*
X50257Y-31813D01*
X50295Y-31851D01*
X50351Y-31869D01*
X50389Y-31869D01*
X50070Y-31513D02*
X50051Y-31494D01*
X50014Y-31475D01*
X49920Y-31475D01*
X49882Y-31494D01*
X49864Y-31513D01*
X49845Y-31551D01*
X49845Y-31588D01*
X49864Y-31644D01*
X50089Y-31869D01*
X49845Y-31869D01*
X49601Y-31475D02*
X49564Y-31475D01*
X49526Y-31494D01*
X49507Y-31513D01*
X49489Y-31551D01*
X49470Y-31626D01*
X49470Y-31719D01*
X49489Y-31794D01*
X49507Y-31832D01*
X49526Y-31851D01*
X49564Y-31869D01*
X49601Y-31869D01*
X49639Y-31851D01*
X49657Y-31832D01*
X49676Y-31794D01*
X49695Y-31719D01*
X49695Y-31626D01*
X49676Y-31551D01*
X49657Y-31513D01*
X49639Y-31494D01*
X49601Y-31475D01*
X50179Y-41515D02*
X50179Y-41797D01*
X50197Y-41853D01*
X50235Y-41891D01*
X50291Y-41909D01*
X50329Y-41909D01*
X50010Y-41553D02*
X49991Y-41534D01*
X49954Y-41515D01*
X49860Y-41515D01*
X49822Y-41534D01*
X49804Y-41553D01*
X49785Y-41591D01*
X49785Y-41628D01*
X49804Y-41684D01*
X50029Y-41909D01*
X49785Y-41909D01*
X49447Y-41515D02*
X49522Y-41515D01*
X49560Y-41534D01*
X49579Y-41553D01*
X49616Y-41609D01*
X49635Y-41684D01*
X49635Y-41834D01*
X49616Y-41872D01*
X49597Y-41891D01*
X49560Y-41909D01*
X49485Y-41909D01*
X49447Y-41891D01*
X49429Y-41872D01*
X49410Y-41834D01*
X49410Y-41741D01*
X49429Y-41703D01*
X49447Y-41684D01*
X49485Y-41666D01*
X49560Y-41666D01*
X49597Y-41684D01*
X49616Y-41703D01*
X49635Y-41741D01*
X49919Y-50715D02*
X49919Y-50997D01*
X49937Y-51053D01*
X49975Y-51091D01*
X50031Y-51109D01*
X50069Y-51109D01*
X49769Y-50715D02*
X49525Y-50715D01*
X49656Y-50866D01*
X49600Y-50866D01*
X49562Y-50884D01*
X49544Y-50903D01*
X49525Y-50941D01*
X49525Y-51034D01*
X49544Y-51072D01*
X49562Y-51091D01*
X49600Y-51109D01*
X49712Y-51109D01*
X49750Y-51091D01*
X49769Y-51072D01*
X49187Y-50715D02*
X49262Y-50715D01*
X49300Y-50734D01*
X49319Y-50753D01*
X49356Y-50809D01*
X49375Y-50884D01*
X49375Y-51034D01*
X49356Y-51072D01*
X49337Y-51091D01*
X49300Y-51109D01*
X49225Y-51109D01*
X49187Y-51091D01*
X49169Y-51072D01*
X49150Y-51034D01*
X49150Y-50941D01*
X49169Y-50903D01*
X49187Y-50884D01*
X49225Y-50866D01*
X49300Y-50866D01*
X49337Y-50884D01*
X49356Y-50903D01*
X49375Y-50941D01*
M02*
