G04 (created by PCBNEW-RS274X (2011-07-14 BZR 3049)-stable) date Fri 15 Jul 2011 10:43:33 AM CEST*
G01*
G70*
G90*
%MOIN*%
G04 Gerber Fmt 3.4, Leading zero omitted, Abs format*
%FSLAX34Y34*%
G04 APERTURE LIST*
%ADD10C,0.006000*%
%ADD11C,0.015000*%
%ADD12R,0.057000X0.047200*%
%ADD13R,0.047200X0.057000*%
G04 APERTURE END LIST*
G54D10*
G54D11*
X12008Y-66043D02*
X12008Y-13976D01*
X57087Y-66043D02*
X12008Y-66043D01*
X57087Y-13976D02*
X57087Y-66043D01*
X56988Y-13976D02*
X57087Y-13976D01*
X12008Y-13976D02*
X56988Y-13976D01*
G54D12*
X36550Y-28900D03*
X36550Y-29500D03*
G54D13*
X52200Y-18400D03*
X52800Y-18400D03*
X52800Y-27500D03*
X52200Y-27500D03*
X52200Y-28500D03*
X52800Y-28500D03*
X52800Y-37500D03*
X52200Y-37500D03*
X52200Y-38500D03*
X52800Y-38500D03*
X52800Y-47500D03*
X52200Y-47500D03*
X52200Y-48500D03*
X52800Y-48500D03*
X52850Y-57500D03*
X52250Y-57500D03*
X50240Y-22750D03*
X49590Y-24300D03*
X49590Y-22750D03*
X50240Y-23550D03*
X49590Y-23550D03*
X50240Y-24300D03*
X49620Y-34210D03*
X50270Y-32660D03*
X50270Y-34210D03*
X49620Y-33410D03*
X50270Y-33410D03*
X49620Y-32660D03*
X49560Y-44250D03*
X50210Y-42700D03*
X50210Y-44250D03*
X49560Y-43450D03*
X50210Y-43450D03*
X49560Y-42700D03*
X49300Y-53450D03*
X49950Y-51900D03*
X49950Y-53450D03*
X49300Y-52650D03*
X49950Y-52650D03*
X49300Y-51900D03*
M02*
