G04 (created by PCBNEW-RS274X (2011-07-09 BZR 3046)-testing) date Thu 14 Jul 2011 07:11:13 PM CEST*
G01*
G70*
G90*
%MOIN*%
G04 Gerber Fmt 3.4, Leading zero omitted, Abs format*
%FSLAX34Y34*%
G04 APERTURE LIST*
%ADD10C,0.006000*%
%ADD11C,0.012000*%
%ADD12C,0.015000*%
G04 APERTURE END LIST*
G54D10*
G54D11*
X64315Y-37573D02*
X64315Y-37230D01*
X64315Y-37402D02*
X65115Y-37402D01*
X65001Y-37345D01*
X64925Y-37287D01*
X64887Y-37230D01*
X65115Y-37773D02*
X65115Y-38144D01*
X64810Y-37944D01*
X64810Y-38030D01*
X64772Y-38087D01*
X64734Y-38116D01*
X64658Y-38144D01*
X64468Y-38144D01*
X64391Y-38116D01*
X64353Y-38087D01*
X64315Y-38030D01*
X64315Y-37858D01*
X64353Y-37801D01*
X64391Y-37773D01*
X65039Y-38372D02*
X65077Y-38401D01*
X65115Y-38458D01*
X65115Y-38601D01*
X65077Y-38658D01*
X65039Y-38687D01*
X64963Y-38715D01*
X64887Y-38715D01*
X64772Y-38687D01*
X64315Y-38344D01*
X64315Y-38715D01*
X64391Y-38972D02*
X64353Y-39000D01*
X64315Y-38972D01*
X64353Y-38943D01*
X64391Y-38972D01*
X64315Y-38972D01*
X65115Y-39372D02*
X65115Y-39429D01*
X65077Y-39486D01*
X65039Y-39515D01*
X64963Y-39544D01*
X64810Y-39572D01*
X64620Y-39572D01*
X64468Y-39544D01*
X64391Y-39515D01*
X64353Y-39486D01*
X64315Y-39429D01*
X64315Y-39372D01*
X64353Y-39315D01*
X64391Y-39286D01*
X64468Y-39258D01*
X64620Y-39229D01*
X64810Y-39229D01*
X64963Y-39258D01*
X65039Y-39286D01*
X65077Y-39315D01*
X65115Y-39372D01*
X64772Y-39915D02*
X64810Y-39857D01*
X64849Y-39829D01*
X64925Y-39800D01*
X64963Y-39800D01*
X65039Y-39829D01*
X65077Y-39857D01*
X65115Y-39915D01*
X65115Y-40029D01*
X65077Y-40086D01*
X65039Y-40115D01*
X64963Y-40143D01*
X64925Y-40143D01*
X64849Y-40115D01*
X64810Y-40086D01*
X64772Y-40029D01*
X64772Y-39915D01*
X64734Y-39857D01*
X64696Y-39829D01*
X64620Y-39800D01*
X64468Y-39800D01*
X64391Y-39829D01*
X64353Y-39857D01*
X64315Y-39915D01*
X64315Y-40029D01*
X64353Y-40086D01*
X64391Y-40115D01*
X64468Y-40143D01*
X64620Y-40143D01*
X64696Y-40115D01*
X64734Y-40086D01*
X64772Y-40029D01*
X65115Y-40514D02*
X65115Y-40571D01*
X65077Y-40628D01*
X65039Y-40657D01*
X64963Y-40686D01*
X64810Y-40714D01*
X64620Y-40714D01*
X64468Y-40686D01*
X64391Y-40657D01*
X64353Y-40628D01*
X64315Y-40571D01*
X64315Y-40514D01*
X64353Y-40457D01*
X64391Y-40428D01*
X64468Y-40400D01*
X64620Y-40371D01*
X64810Y-40371D01*
X64963Y-40400D01*
X65039Y-40428D01*
X65077Y-40457D01*
X65115Y-40514D01*
X64315Y-41428D02*
X64849Y-41428D01*
X64772Y-41428D02*
X64810Y-41456D01*
X64849Y-41514D01*
X64849Y-41599D01*
X64810Y-41656D01*
X64734Y-41685D01*
X64315Y-41685D01*
X64734Y-41685D02*
X64810Y-41714D01*
X64849Y-41771D01*
X64849Y-41856D01*
X64810Y-41914D01*
X64734Y-41942D01*
X64315Y-41942D01*
X64315Y-42228D02*
X64849Y-42228D01*
X64772Y-42228D02*
X64810Y-42256D01*
X64849Y-42314D01*
X64849Y-42399D01*
X64810Y-42456D01*
X64734Y-42485D01*
X64315Y-42485D01*
X64734Y-42485D02*
X64810Y-42514D01*
X64849Y-42571D01*
X64849Y-42656D01*
X64810Y-42714D01*
X64734Y-42742D01*
X64315Y-42742D01*
X63999Y-14000D02*
X63999Y-66000D01*
X57250Y-14000D02*
X65279Y-14000D01*
X57250Y-66000D02*
X65279Y-66000D01*
X63999Y-66000D02*
X63769Y-65557D01*
X63999Y-66000D02*
X64229Y-65557D01*
X63999Y-14000D02*
X63769Y-14443D01*
X63999Y-14000D02*
X64229Y-14443D01*
X32073Y-06684D02*
X31730Y-06684D01*
X31902Y-06684D02*
X31902Y-05884D01*
X31845Y-05998D01*
X31787Y-06074D01*
X31730Y-06112D01*
X32644Y-06684D02*
X32301Y-06684D01*
X32473Y-06684D02*
X32473Y-05884D01*
X32416Y-05998D01*
X32358Y-06074D01*
X32301Y-06112D01*
X33158Y-06150D02*
X33158Y-06684D01*
X33015Y-05846D02*
X32872Y-06417D01*
X33244Y-06417D01*
X33472Y-06608D02*
X33500Y-06646D01*
X33472Y-06684D01*
X33443Y-06646D01*
X33472Y-06608D01*
X33472Y-06684D01*
X33701Y-05884D02*
X34072Y-05884D01*
X33872Y-06189D01*
X33958Y-06189D01*
X34015Y-06227D01*
X34044Y-06265D01*
X34072Y-06341D01*
X34072Y-06531D01*
X34044Y-06608D01*
X34015Y-06646D01*
X33958Y-06684D01*
X33786Y-06684D01*
X33729Y-06646D01*
X33701Y-06608D01*
X34443Y-05884D02*
X34500Y-05884D01*
X34557Y-05922D01*
X34586Y-05960D01*
X34615Y-06036D01*
X34643Y-06189D01*
X34643Y-06379D01*
X34615Y-06531D01*
X34586Y-06608D01*
X34557Y-06646D01*
X34500Y-06684D01*
X34443Y-06684D01*
X34386Y-06646D01*
X34357Y-06608D01*
X34329Y-06531D01*
X34300Y-06379D01*
X34300Y-06189D01*
X34329Y-06036D01*
X34357Y-05960D01*
X34386Y-05922D01*
X34443Y-05884D01*
X35014Y-05884D02*
X35071Y-05884D01*
X35128Y-05922D01*
X35157Y-05960D01*
X35186Y-06036D01*
X35214Y-06189D01*
X35214Y-06379D01*
X35186Y-06531D01*
X35157Y-06608D01*
X35128Y-06646D01*
X35071Y-06684D01*
X35014Y-06684D01*
X34957Y-06646D01*
X34928Y-06608D01*
X34900Y-06531D01*
X34871Y-06379D01*
X34871Y-06189D01*
X34900Y-06036D01*
X34928Y-05960D01*
X34957Y-05922D01*
X35014Y-05884D01*
X35928Y-06684D02*
X35928Y-06150D01*
X35928Y-06227D02*
X35956Y-06189D01*
X36014Y-06150D01*
X36099Y-06150D01*
X36156Y-06189D01*
X36185Y-06265D01*
X36185Y-06684D01*
X36185Y-06265D02*
X36214Y-06189D01*
X36271Y-06150D01*
X36356Y-06150D01*
X36414Y-06189D01*
X36442Y-06265D01*
X36442Y-06684D01*
X36728Y-06684D02*
X36728Y-06150D01*
X36728Y-06227D02*
X36756Y-06189D01*
X36814Y-06150D01*
X36899Y-06150D01*
X36956Y-06189D01*
X36985Y-06265D01*
X36985Y-06684D01*
X36985Y-06265D02*
X37014Y-06189D01*
X37071Y-06150D01*
X37156Y-06150D01*
X37214Y-06189D01*
X37242Y-06265D01*
X37242Y-06684D01*
X57000Y-07000D02*
X12000Y-07000D01*
X57000Y-13750D02*
X57000Y-05720D01*
X12000Y-13750D02*
X12000Y-05720D01*
X12000Y-07000D02*
X12443Y-06770D01*
X12000Y-07000D02*
X12443Y-07230D01*
X57000Y-07000D02*
X56557Y-06770D01*
X57000Y-07000D02*
X56557Y-07230D01*
G54D12*
X12008Y-66043D02*
X12008Y-13976D01*
X57087Y-66043D02*
X12008Y-66043D01*
X57087Y-13976D02*
X57087Y-66043D01*
X56988Y-13976D02*
X57087Y-13976D01*
X12008Y-13976D02*
X56988Y-13976D01*
M02*
