G04 (created by PCBNEW-RS274X (2011-07-08 BZR 3044)-stable) date 12/15/2011 03:41:07 PM*
G01*
G70*
G90*
%MOIN*%
G04 Gerber Fmt 3.4, Leading zero omitted, Abs format*
%FSLAX34Y34*%
G04 APERTURE LIST*
%ADD10C,0.006000*%
%ADD11R,0.104600X0.104600*%
%ADD12C,0.104600*%
%ADD13C,0.090900*%
%ADD14R,0.071200X0.098700*%
%ADD15O,0.071200X0.098700*%
%ADD16C,0.266100*%
%ADD17C,0.071200*%
%ADD18C,0.090000*%
%ADD19R,0.090000X0.090000*%
%ADD20C,0.086900*%
%ADD21R,0.098700X0.071200*%
%ADD22O,0.098700X0.071200*%
%ADD23R,0.106600X0.106600*%
%ADD24R,0.090900X0.090900*%
%ADD25C,0.106600*%
%ADD26O,0.126300X0.079100*%
%ADD27C,0.180000*%
%ADD28R,0.075000X0.075000*%
%ADD29C,0.075000*%
%ADD30C,0.140000*%
%ADD31C,0.085000*%
%ADD32C,0.080000*%
%ADD33C,0.086000*%
%ADD34C,0.098700*%
%ADD35R,0.094800X0.094800*%
%ADD36R,0.088900X0.047600*%
%ADD37O,0.070900X0.090400*%
%ADD38O,0.090400X0.070900*%
%ADD39O,0.117800X0.070900*%
%ADD40O,0.079100X0.090900*%
%ADD41C,0.177500*%
G04 APERTURE END LIST*
G54D10*
G54D11*
X49500Y-64000D03*
G54D12*
X47500Y-64000D03*
G54D13*
X48500Y-65000D03*
X47500Y-65000D03*
X46500Y-65000D03*
G54D12*
X45500Y-64000D03*
G54D14*
X40500Y-20500D03*
G54D15*
X41500Y-20500D03*
X42500Y-20500D03*
X43500Y-20500D03*
X43500Y-17500D03*
X42500Y-17500D03*
X41500Y-17500D03*
X40500Y-17500D03*
G54D16*
X14000Y-16000D03*
X54000Y-16000D03*
X14000Y-64000D03*
X55000Y-64000D03*
G54D17*
X26250Y-57000D03*
X22250Y-57000D03*
X41000Y-54000D03*
X41000Y-50000D03*
X40000Y-54000D03*
X40000Y-50000D03*
X21950Y-22750D03*
X21950Y-18750D03*
X26250Y-56000D03*
X22250Y-56000D03*
X37000Y-54000D03*
X37000Y-50000D03*
X45500Y-44500D03*
X45500Y-48500D03*
X35000Y-54000D03*
X35000Y-50000D03*
X33000Y-54000D03*
X33000Y-50000D03*
X42500Y-48500D03*
X42500Y-44500D03*
X34000Y-54000D03*
X34000Y-50000D03*
X38000Y-54000D03*
X38000Y-50000D03*
X26500Y-33500D03*
X22500Y-33500D03*
X43500Y-48500D03*
X43500Y-44500D03*
X26500Y-32500D03*
X22500Y-32500D03*
X44500Y-44500D03*
X44500Y-48500D03*
X43500Y-38500D03*
X43500Y-34500D03*
X17000Y-25250D03*
X17000Y-21250D03*
X44500Y-34500D03*
X44500Y-38500D03*
X36000Y-50000D03*
X36000Y-54000D03*
X43500Y-28500D03*
X43500Y-24500D03*
X26500Y-37500D03*
X22500Y-37500D03*
X26500Y-36500D03*
X22500Y-36500D03*
X44500Y-24500D03*
X44500Y-28500D03*
X52000Y-63000D03*
X52000Y-59000D03*
X42500Y-24500D03*
X42500Y-28500D03*
X29000Y-20750D03*
X29000Y-16750D03*
X38000Y-20500D03*
X38000Y-16500D03*
X48750Y-17500D03*
X44750Y-17500D03*
X39000Y-54000D03*
X39000Y-50000D03*
X26250Y-54000D03*
X22250Y-54000D03*
X26250Y-55000D03*
X22250Y-55000D03*
G54D18*
X19400Y-18600D03*
X18400Y-18600D03*
G54D19*
X17400Y-18600D03*
G54D11*
X14000Y-25050D03*
G54D12*
X14000Y-23050D03*
X14000Y-21050D03*
X14000Y-19050D03*
G54D13*
X13000Y-23550D03*
X13000Y-22550D03*
X13000Y-21550D03*
X13000Y-20550D03*
G54D20*
X47250Y-29500D03*
X47250Y-30500D03*
X47250Y-31500D03*
X47250Y-32500D03*
X47250Y-33500D03*
X47250Y-34500D03*
X47250Y-35500D03*
X47250Y-36500D03*
X52250Y-36500D03*
X52250Y-35500D03*
X52250Y-34500D03*
X52250Y-33500D03*
X52250Y-32500D03*
X52250Y-31500D03*
X52250Y-30500D03*
X52250Y-29500D03*
X47250Y-39500D03*
X47250Y-40500D03*
X47250Y-41500D03*
X47250Y-42500D03*
X47250Y-43500D03*
X47250Y-44500D03*
X47250Y-45500D03*
X47250Y-46500D03*
X52250Y-46500D03*
X52250Y-45500D03*
X52250Y-44500D03*
X52250Y-43500D03*
X52250Y-42500D03*
X52250Y-41500D03*
X52250Y-40500D03*
X52250Y-39500D03*
G54D11*
X41000Y-16000D03*
G54D12*
X43000Y-16000D03*
X45000Y-16000D03*
X47000Y-16000D03*
G54D13*
X42500Y-15000D03*
X43500Y-15000D03*
X44500Y-15000D03*
X45500Y-15000D03*
G54D14*
X41000Y-55250D03*
G54D15*
X40000Y-55250D03*
X39000Y-55250D03*
X38000Y-55250D03*
X37000Y-55250D03*
X36000Y-55250D03*
X35000Y-55250D03*
X34000Y-55250D03*
X34000Y-58250D03*
X35000Y-58250D03*
X36000Y-58250D03*
X37000Y-58250D03*
X38000Y-58250D03*
X39000Y-58250D03*
X40000Y-58250D03*
X41000Y-58250D03*
G54D21*
X28000Y-50000D03*
G54D22*
X28000Y-51000D03*
X28000Y-52000D03*
X28000Y-53000D03*
X28000Y-54000D03*
X28000Y-55000D03*
X28000Y-56000D03*
X28000Y-57000D03*
X31000Y-57000D03*
X31000Y-56000D03*
X31000Y-55000D03*
X31000Y-54000D03*
X31000Y-53000D03*
X31000Y-52000D03*
X31000Y-51000D03*
X31000Y-50000D03*
G54D23*
X17400Y-16400D03*
G54D12*
X19400Y-16400D03*
G54D24*
X17900Y-15400D03*
G54D13*
X18900Y-15400D03*
G54D11*
X14000Y-33000D03*
G54D12*
X14000Y-31000D03*
X14000Y-29000D03*
X14000Y-27000D03*
G54D13*
X13000Y-31500D03*
X13000Y-30500D03*
X13000Y-29500D03*
X13000Y-28500D03*
G54D11*
X14250Y-60750D03*
G54D12*
X14250Y-58750D03*
X14250Y-56750D03*
X14250Y-54750D03*
G54D13*
X13250Y-59250D03*
X13250Y-58250D03*
X13250Y-57250D03*
X13250Y-56250D03*
G54D11*
X23000Y-64000D03*
G54D12*
X21000Y-64000D03*
X19000Y-64000D03*
X17000Y-64000D03*
G54D13*
X21500Y-65000D03*
X20500Y-65000D03*
X19500Y-65000D03*
X18500Y-65000D03*
G54D11*
X43000Y-64000D03*
G54D12*
X41000Y-64000D03*
X39000Y-64000D03*
X37000Y-64000D03*
G54D13*
X41500Y-65000D03*
X40500Y-65000D03*
X39500Y-65000D03*
X38500Y-65000D03*
G54D11*
X14000Y-40750D03*
G54D12*
X14000Y-38750D03*
X14000Y-36750D03*
X14000Y-34750D03*
G54D13*
X13000Y-39250D03*
X13000Y-38250D03*
X13000Y-37250D03*
X13000Y-36250D03*
G54D11*
X35000Y-64000D03*
G54D12*
X33000Y-64000D03*
X31000Y-64000D03*
X29000Y-64000D03*
G54D13*
X33500Y-65000D03*
X32500Y-65000D03*
X31500Y-65000D03*
X30500Y-65000D03*
G54D23*
X54000Y-49000D03*
G54D25*
X54000Y-51000D03*
X54000Y-53000D03*
X54000Y-55000D03*
G54D24*
X55000Y-51000D03*
G54D13*
X55000Y-52000D03*
X55000Y-53000D03*
X55000Y-54000D03*
G54D25*
X54000Y-57000D03*
G54D13*
X55000Y-55000D03*
G54D23*
X54000Y-39000D03*
G54D25*
X54000Y-41000D03*
X54000Y-43000D03*
X54000Y-45000D03*
G54D24*
X55000Y-41000D03*
G54D13*
X55000Y-42000D03*
X55000Y-43000D03*
X55000Y-44000D03*
G54D25*
X54000Y-47000D03*
G54D13*
X55000Y-45000D03*
G54D23*
X54000Y-19000D03*
G54D25*
X54000Y-21000D03*
X54000Y-23000D03*
X54000Y-25000D03*
G54D24*
X55000Y-21000D03*
G54D13*
X55000Y-22000D03*
X55000Y-23000D03*
X55000Y-24000D03*
G54D25*
X54000Y-27000D03*
G54D13*
X55000Y-25000D03*
G54D23*
X54000Y-29000D03*
G54D25*
X54000Y-31000D03*
X54000Y-33000D03*
X54000Y-35000D03*
G54D24*
X55000Y-31000D03*
G54D13*
X55000Y-32000D03*
X55000Y-33000D03*
X55000Y-34000D03*
G54D25*
X54000Y-37000D03*
G54D13*
X55000Y-35000D03*
G54D26*
X39000Y-28500D03*
X39000Y-29500D03*
X39000Y-30500D03*
X39000Y-31500D03*
X39000Y-32500D03*
X39000Y-33500D03*
X39000Y-34500D03*
X39000Y-35500D03*
X39000Y-36500D03*
X39000Y-37500D03*
X39000Y-38500D03*
X39000Y-39500D03*
X39000Y-40500D03*
X39000Y-41500D03*
X39000Y-42500D03*
X39000Y-43500D03*
X39000Y-44500D03*
X39000Y-45500D03*
X39000Y-46500D03*
X39000Y-47500D03*
X28000Y-47500D03*
X28000Y-46500D03*
X28000Y-45500D03*
X28000Y-44500D03*
X28000Y-43500D03*
X28000Y-42500D03*
X28000Y-41500D03*
X28000Y-40500D03*
X28000Y-39500D03*
X28000Y-38500D03*
X28000Y-37500D03*
X28000Y-36500D03*
X28000Y-35500D03*
X28000Y-34500D03*
X28000Y-33500D03*
X28000Y-32500D03*
X28000Y-31500D03*
X28000Y-30500D03*
X28000Y-29500D03*
X28000Y-28500D03*
X29000Y-28500D03*
X29000Y-29500D03*
X29000Y-30500D03*
X29000Y-31500D03*
X29000Y-32500D03*
X29000Y-33500D03*
X29000Y-34500D03*
X29000Y-35500D03*
X29000Y-36500D03*
X29000Y-37500D03*
X29000Y-38500D03*
X29000Y-39500D03*
X29000Y-40500D03*
X29000Y-41500D03*
X29000Y-42500D03*
X29000Y-43500D03*
X29000Y-44500D03*
X29000Y-45500D03*
X29000Y-46500D03*
X29000Y-47500D03*
X38000Y-47500D03*
X38000Y-46500D03*
X38000Y-45500D03*
X38000Y-44500D03*
X38000Y-43500D03*
X38000Y-42500D03*
X38000Y-41500D03*
X38000Y-40500D03*
X38000Y-39500D03*
X38000Y-38500D03*
X38000Y-37500D03*
X38000Y-36500D03*
X38000Y-35500D03*
X38000Y-34500D03*
X38000Y-33500D03*
X38000Y-32500D03*
X38000Y-31500D03*
X38000Y-30500D03*
X38000Y-29500D03*
X38000Y-28500D03*
G54D24*
X44660Y-50500D03*
G54D13*
X45660Y-50500D03*
X44660Y-51500D03*
X45660Y-51500D03*
X44660Y-52500D03*
X45660Y-52500D03*
G54D24*
X44500Y-21420D03*
G54D13*
X45500Y-21420D03*
X44500Y-22420D03*
X45500Y-22420D03*
X44500Y-23420D03*
X45500Y-23420D03*
G54D24*
X44500Y-41460D03*
G54D13*
X45500Y-41460D03*
X44500Y-42460D03*
X45500Y-42460D03*
X44500Y-43460D03*
X45500Y-43460D03*
G54D24*
X44540Y-31480D03*
G54D13*
X45540Y-31480D03*
X44540Y-32480D03*
X45540Y-32480D03*
X44540Y-33480D03*
X45540Y-33480D03*
G54D20*
X47200Y-19500D03*
X47200Y-20500D03*
X47200Y-21500D03*
X47200Y-22500D03*
X47200Y-23500D03*
X47200Y-24500D03*
X47200Y-25500D03*
X47200Y-26500D03*
X52200Y-26500D03*
X52200Y-25500D03*
X52200Y-24500D03*
X52200Y-23500D03*
X52200Y-22500D03*
X52200Y-21500D03*
X52200Y-20500D03*
X52200Y-19500D03*
X47250Y-49500D03*
X47250Y-50500D03*
X47250Y-51500D03*
X47250Y-52500D03*
X47250Y-53500D03*
X47250Y-54500D03*
X47250Y-55500D03*
X47250Y-56500D03*
X52250Y-56500D03*
X52250Y-55500D03*
X52250Y-54500D03*
X52250Y-53500D03*
X52250Y-52500D03*
X52250Y-51500D03*
X52250Y-50500D03*
X52250Y-49500D03*
G54D24*
X22500Y-27500D03*
G54D13*
X22500Y-26500D03*
X22500Y-25500D03*
G54D27*
X31250Y-16500D03*
X35750Y-16500D03*
G54D28*
X35250Y-19000D03*
G54D29*
X34750Y-20000D03*
X34250Y-19000D03*
X33750Y-20000D03*
X33250Y-19000D03*
X32750Y-20000D03*
X32250Y-19000D03*
X31750Y-20000D03*
G54D30*
X36600Y-17700D03*
X30400Y-17700D03*
G54D31*
X36100Y-14900D03*
X35110Y-14900D03*
X31890Y-14900D03*
X30900Y-14900D03*
G54D32*
X53500Y-59000D03*
X53500Y-61000D03*
X15600Y-22800D03*
X15600Y-20800D03*
X38000Y-21600D03*
X36000Y-21600D03*
X30000Y-21600D03*
X32000Y-21600D03*
X20400Y-21200D03*
X18400Y-21200D03*
X20400Y-22600D03*
X18400Y-22600D03*
G54D33*
X42500Y-23500D03*
X42500Y-22500D03*
X23250Y-18750D03*
X23250Y-19750D03*
G54D28*
X49000Y-59000D03*
G54D29*
X49000Y-60969D03*
G54D28*
X19000Y-25500D03*
G54D29*
X20378Y-25500D03*
G54D34*
X16250Y-33000D03*
X16250Y-34000D03*
G54D35*
X16250Y-35000D03*
G54D34*
X16250Y-27750D03*
X16250Y-28750D03*
G54D35*
X16250Y-29750D03*
G54D24*
X45500Y-61000D03*
G54D13*
X45500Y-62000D03*
G54D24*
X23500Y-34800D03*
G54D13*
X24500Y-34800D03*
X25500Y-34800D03*
G54D24*
X25100Y-30600D03*
G54D13*
X25100Y-29600D03*
X25100Y-28600D03*
G54D36*
X24500Y-44978D03*
X24500Y-45957D03*
X24500Y-46935D03*
X24500Y-47913D03*
X24500Y-48890D03*
X24500Y-49869D03*
X24500Y-50818D03*
X24500Y-51483D03*
X24500Y-43963D03*
X24500Y-52050D03*
X24500Y-52676D03*
G54D37*
X24081Y-42770D03*
G54D38*
X23364Y-45443D03*
X23364Y-48463D03*
X12616Y-52758D03*
G54D37*
X23222Y-52053D03*
G54D39*
X12719Y-42085D03*
G54D40*
X24105Y-17320D03*
X24895Y-17320D03*
G54D13*
X23125Y-17320D03*
G54D41*
X21915Y-16250D03*
X27085Y-16250D03*
G54D13*
X25875Y-17320D03*
G54D33*
X52000Y-64000D03*
X52000Y-65000D03*
M02*
