M48
;DRILL file {PCBnew (2011-07-14 BZR 3049)-stable} date Fri 15 Jul 2011 10:43:58 AM CEST
;FORMAT={-:-/ absolute / inch / decimal}
FMAT,2
INCH,TZ
T1C0.020
T2C0.025
T3C0.032
T4C0.032
T5C0.035
T6C0.035
T7C0.036
T8C0.039
T9C0.040
T10C0.043
T11C0.045
T12C0.063
T13C0.091
T14C0.128
T15C0.132
%
G90
G05
M72
T1
X1.317Y1.553
X1.317Y1.647
X1.317Y6.353
X1.317Y6.447
X1.400Y1.506
X1.400Y1.695
X1.400Y6.306
X1.400Y6.495
X1.483Y1.553
X1.483Y1.647
X1.483Y6.353
X1.483Y6.447
X5.317Y1.553
X5.317Y1.647
X5.400Y1.506
X5.400Y1.695
X5.417Y6.353
X5.417Y6.447
X5.483Y1.553
X5.483Y1.647
X5.500Y6.306
X5.500Y6.495
X5.583Y6.353
X5.583Y6.447
T2
X1.525Y3.575
X1.530Y3.800
X1.600Y2.550
X1.800Y2.875
X1.800Y3.175
X1.800Y3.325
X1.800Y3.575
X2.146Y3.986
X2.215Y4.055
X2.274Y3.927
X2.539Y4.990
X2.560Y1.920
X2.646Y4.782
X2.656Y4.577
X2.705Y4.430
X2.705Y4.782
X2.736Y4.833
X2.764Y4.929
X2.999Y4.606
X3.028Y3.577
X3.048Y4.498
X3.087Y4.694
X3.097Y4.606
X3.100Y2.820
X3.140Y4.100
X3.185Y4.694
X3.185Y5.116
X3.220Y2.280
X3.220Y2.620
X3.244Y4.694
X3.275Y3.450
X3.475Y3.250
X3.475Y3.450
X3.600Y3.250
X3.650Y4.750
X3.704Y4.253
X3.704Y4.782
X3.842Y4.900
X3.875Y2.710
X4.145Y4.880
X4.162Y4.366
X4.185Y5.116
X4.185Y5.253
T3
X1.700Y2.125
X1.700Y2.525
X2.195Y1.875
X2.195Y2.275
X2.225Y5.400
X2.225Y5.500
X2.225Y5.600
X2.225Y5.700
X2.250Y3.250
X2.250Y3.350
X2.250Y3.650
X2.250Y3.750
X2.625Y5.400
X2.625Y5.500
X2.625Y5.600
X2.625Y5.700
X2.650Y3.250
X2.650Y3.350
X2.650Y3.650
X2.650Y3.750
X2.800Y5.000
X2.800Y5.100
X2.800Y5.200
X2.800Y5.300
X2.800Y5.400
X2.800Y5.500
X2.800Y5.600
X2.800Y5.700
X2.900Y1.675
X2.900Y2.075
X3.100Y5.000
X3.100Y5.100
X3.100Y5.200
X3.100Y5.300
X3.100Y5.400
X3.100Y5.500
X3.100Y5.600
X3.100Y5.700
X3.300Y5.000
X3.300Y5.400
X3.400Y5.000
X3.400Y5.400
X3.400Y5.525
X3.400Y5.825
X3.500Y5.000
X3.500Y5.400
X3.500Y5.525
X3.500Y5.825
X3.600Y5.000
X3.600Y5.400
X3.600Y5.525
X3.600Y5.825
X3.700Y5.000
X3.700Y5.400
X3.700Y5.525
X3.700Y5.825
X3.800Y1.650
X3.800Y2.050
X3.800Y5.000
X3.800Y5.400
X3.800Y5.525
X3.800Y5.825
X3.900Y5.000
X3.900Y5.400
X3.900Y5.525
X3.900Y5.825
X4.000Y5.000
X4.000Y5.400
X4.000Y5.525
X4.000Y5.825
X4.050Y1.750
X4.050Y2.050
X4.100Y5.000
X4.100Y5.400
X4.100Y5.525
X4.100Y5.825
X4.150Y1.750
X4.150Y2.050
X4.250Y1.750
X4.250Y2.050
X4.250Y2.450
X4.250Y2.850
X4.250Y4.450
X4.250Y4.850
X4.350Y1.750
X4.350Y2.050
X4.350Y2.450
X4.350Y2.850
X4.350Y3.450
X4.350Y3.850
X4.350Y4.450
X4.350Y4.850
X4.450Y2.450
X4.450Y2.850
X4.450Y3.450
X4.450Y3.850
X4.450Y4.450
X4.450Y4.850
X4.475Y1.750
X4.550Y4.450
X4.550Y4.850
X4.875Y1.750
X5.200Y5.900
X5.200Y6.300
T4
X1.560Y2.080
X1.560Y2.280
X1.840Y2.120
X1.840Y2.260
X1.900Y2.550
X2.038Y2.550
X2.040Y2.120
X2.040Y2.260
X2.325Y1.875
X2.325Y1.975
X3.000Y2.160
X3.200Y2.160
X3.600Y2.160
X3.800Y2.160
X4.250Y2.250
X4.250Y2.350
X4.720Y1.950
X4.720Y2.050
X4.720Y2.150
X4.720Y2.250
X4.720Y2.350
X4.720Y2.450
X4.720Y2.550
X4.720Y2.650
X4.725Y2.950
X4.725Y3.050
X4.725Y3.150
X4.725Y3.250
X4.725Y3.350
X4.725Y3.450
X4.725Y3.550
X4.725Y3.650
X4.725Y3.950
X4.725Y4.050
X4.725Y4.150
X4.725Y4.250
X4.725Y4.350
X4.725Y4.450
X4.725Y4.550
X4.725Y4.650
X4.725Y4.950
X4.725Y5.050
X4.725Y5.150
X4.725Y5.250
X4.725Y5.350
X4.725Y5.450
X4.725Y5.550
X4.725Y5.650
X4.900Y5.903
X4.900Y6.100
X5.200Y6.400
X5.200Y6.500
X5.220Y1.950
X5.220Y2.050
X5.220Y2.150
X5.220Y2.250
X5.220Y2.350
X5.220Y2.450
X5.220Y2.550
X5.220Y2.650
X5.225Y2.950
X5.225Y3.050
X5.225Y3.150
X5.225Y3.250
X5.225Y3.350
X5.225Y3.450
X5.225Y3.550
X5.225Y3.650
X5.225Y3.950
X5.225Y4.050
X5.225Y4.150
X5.225Y4.250
X5.225Y4.350
X5.225Y4.450
X5.225Y4.550
X5.225Y4.650
X5.225Y4.950
X5.225Y5.050
X5.225Y5.150
X5.225Y5.250
X5.225Y5.350
X5.225Y5.450
X5.225Y5.550
X5.225Y5.650
X5.350Y5.900
X5.350Y6.100
T6
X3.175Y2.000
X3.225Y1.900
X3.275Y2.000
X3.325Y1.900
X3.375Y2.000
X3.425Y1.900
X3.475Y2.000
X3.525Y1.900
T7
X2.312Y1.732
X2.411Y1.732
X2.490Y1.732
X2.587Y1.732
T8
X1.300Y2.055
X1.300Y2.155
X1.300Y2.255
X1.300Y2.355
X1.300Y2.850
X1.300Y2.950
X1.300Y3.050
X1.300Y3.150
X1.300Y3.625
X1.300Y3.725
X1.300Y3.825
X1.300Y3.925
X1.325Y5.625
X1.325Y5.725
X1.325Y5.825
X1.325Y5.925
X1.400Y1.905
X1.400Y2.105
X1.400Y2.700
X1.400Y2.900
X1.400Y3.475
X1.400Y3.675
X1.425Y5.475
X1.425Y5.675
X1.700Y6.400
X1.790Y1.540
X1.850Y6.500
X1.890Y1.540
X1.900Y6.400
X1.950Y6.500
X2.050Y6.500
X2.150Y6.500
X2.250Y2.550
X2.250Y2.650
X2.250Y2.750
X2.800Y2.850
X2.800Y2.950
X2.800Y3.050
X2.800Y3.150
X2.800Y3.250
X2.800Y3.350
X2.800Y3.450
X2.800Y3.550
X2.800Y3.650
X2.800Y3.750
X2.800Y3.850
X2.800Y3.950
X2.800Y4.050
X2.800Y4.150
X2.800Y4.250
X2.800Y4.350
X2.800Y4.450
X2.800Y4.550
X2.800Y4.650
X2.800Y4.750
X2.900Y2.850
X2.900Y2.950
X2.900Y3.050
X2.900Y3.150
X2.900Y3.250
X2.900Y3.350
X2.900Y3.450
X2.900Y3.550
X2.900Y3.650
X2.900Y3.750
X2.900Y3.850
X2.900Y3.950
X2.900Y4.050
X2.900Y4.150
X2.900Y4.250
X2.900Y4.350
X2.900Y4.450
X2.900Y4.550
X2.900Y4.650
X2.900Y4.750
X2.900Y6.400
X3.050Y6.500
X3.100Y6.400
X3.150Y6.500
X3.250Y6.500
X3.350Y6.500
X3.700Y6.400
X3.800Y2.850
X3.800Y2.950
X3.800Y3.050
X3.800Y3.150
X3.800Y3.250
X3.800Y3.350
X3.800Y3.450
X3.800Y3.550
X3.800Y3.650
X3.800Y3.750
X3.800Y3.850
X3.800Y3.950
X3.800Y4.050
X3.800Y4.150
X3.800Y4.250
X3.800Y4.350
X3.800Y4.450
X3.800Y4.550
X3.800Y4.650
X3.800Y4.750
X3.850Y6.500
X3.900Y2.850
X3.900Y2.950
X3.900Y3.050
X3.900Y3.150
X3.900Y3.250
X3.900Y3.350
X3.900Y3.450
X3.900Y3.550
X3.900Y3.650
X3.900Y3.750
X3.900Y3.850
X3.900Y3.950
X3.900Y4.050
X3.900Y4.150
X3.900Y4.250
X3.900Y4.350
X3.900Y4.450
X3.900Y4.550
X3.900Y4.650
X3.900Y4.750
X3.900Y6.400
X3.950Y6.500
X4.050Y6.500
X4.150Y6.500
X4.250Y1.500
X4.350Y1.500
X4.450Y1.500
X4.450Y2.142
X4.450Y2.242
X4.450Y2.342
X4.450Y4.146
X4.450Y4.246
X4.450Y4.346
X4.454Y3.148
X4.454Y3.248
X4.454Y3.348
X4.466Y5.050
X4.466Y5.150
X4.466Y5.250
X4.500Y1.600
X4.550Y1.500
X4.550Y2.142
X4.550Y2.242
X4.550Y2.342
X4.550Y4.146
X4.550Y4.246
X4.550Y4.346
X4.554Y3.148
X4.554Y3.248
X4.554Y3.348
X4.566Y5.050
X4.566Y5.150
X4.566Y5.250
X4.700Y1.600
X4.750Y6.500
X4.850Y6.500
X5.400Y2.300
X5.400Y2.500
X5.400Y3.300
X5.400Y3.500
X5.400Y4.300
X5.400Y4.500
X5.400Y5.300
X5.400Y5.500
X5.500Y2.100
X5.500Y2.200
X5.500Y2.300
X5.500Y2.400
X5.500Y2.500
X5.500Y3.100
X5.500Y3.200
X5.500Y3.300
X5.500Y3.400
X5.500Y3.500
X5.500Y4.100
X5.500Y4.200
X5.500Y4.300
X5.500Y4.400
X5.500Y4.500
X5.500Y5.100
X5.500Y5.200
X5.500Y5.300
X5.500Y5.400
X5.500Y5.500
T9
X3.090Y1.490
X3.189Y1.490
X3.511Y1.490
X3.610Y1.490
T10
X1.400Y2.305
X1.400Y2.505
X1.400Y3.100
X1.400Y3.300
X1.400Y3.875
X1.400Y4.075
X1.425Y5.875
X1.425Y6.075
X1.740Y1.640
X1.940Y1.640
X2.100Y6.400
X2.300Y6.400
X3.300Y6.400
X3.500Y6.400
X4.100Y1.600
X4.100Y6.400
X4.300Y1.600
X4.300Y6.400
X4.700Y6.400
X4.900Y6.400
X5.400Y1.900
X5.400Y2.100
X5.400Y2.700
X5.400Y2.900
X5.400Y3.100
X5.400Y3.700
X5.400Y3.900
X5.400Y4.100
X5.400Y4.700
X5.400Y4.900
X5.400Y5.100
X5.400Y5.700
T11
X1.625Y2.775
X1.625Y2.875
X1.625Y2.975
X1.625Y3.300
X1.625Y3.400
X1.625Y3.500
X1.740Y1.860
X1.840Y1.860
X1.940Y1.860
T12
X3.040Y1.770
X3.660Y1.770
T13
X2.192Y1.625
X2.709Y1.625
T14
X3.125Y1.650
X3.575Y1.650
T15
X1.400Y1.600
X1.400Y6.400
X5.400Y1.600
X5.500Y6.400
T5
X1.271Y5.276G85X1.252Y5.276
G05
X1.248Y4.208G85X1.295Y4.208
G05
X2.322Y5.196G85X2.322Y5.215
G05
X2.346Y4.544G85X2.327Y4.544
G05
X2.346Y4.846G85X2.327Y4.846
G05
X2.408Y4.267G85X2.408Y4.287
G05
T0
M30
