G04 (created by PCBNEW-RS274X (2011-07-09 BZR 3046)-testing) date Thu 14 Jul 2011 07:11:13 PM CEST*
G01*
G70*
G90*
%MOIN*%
G04 Gerber Fmt 3.4, Leading zero omitted, Abs format*
%FSLAX34Y34*%
G04 APERTURE LIST*
%ADD10C,0.006000*%
%ADD11C,0.015000*%
%ADD12C,0.066900*%
%ADD13R,0.078700X0.078700*%
%ADD14C,0.070900*%
%ADD15R,0.051200X0.078700*%
%ADD16O,0.051200X0.078700*%
%ADD17R,0.078700X0.051200*%
%ADD18O,0.078700X0.051200*%
%ADD19O,0.059100X0.070900*%
%ADD20C,0.157500*%
%ADD21R,0.070900X0.070900*%
%ADD22C,0.246100*%
%ADD23O,0.106300X0.059100*%
%ADD24C,0.051200*%
%ADD25C,0.160000*%
%ADD26R,0.055000X0.055000*%
%ADD27C,0.055000*%
%ADD28C,0.120000*%
%ADD29C,0.065000*%
%ADD30C,0.060000*%
%ADD31C,0.066000*%
%ADD32C,0.070000*%
%ADD33R,0.070000X0.070000*%
%ADD34C,0.078700*%
%ADD35R,0.074800X0.074800*%
%ADD36O,0.050000X0.027600*%
%ADD37O,0.050900X0.070400*%
%ADD38O,0.070400X0.050900*%
%ADD39O,0.097800X0.050900*%
%ADD40C,0.035000*%
%ADD41C,0.013800*%
%ADD42C,0.019700*%
%ADD43C,0.008000*%
%ADD44C,0.035000*%
G04 APERTURE END LIST*
G54D10*
G54D11*
X12008Y-66043D02*
X12008Y-13976D01*
X57087Y-66043D02*
X12008Y-66043D01*
X57087Y-13976D02*
X57087Y-66043D01*
X56988Y-13976D02*
X57087Y-13976D01*
X12008Y-13976D02*
X56988Y-13976D01*
G54D12*
X47250Y-39500D03*
X47250Y-40500D03*
X47250Y-41500D03*
X47250Y-42500D03*
X47250Y-43500D03*
X47250Y-44500D03*
X47250Y-45500D03*
X47250Y-46500D03*
X52250Y-46500D03*
X52250Y-45500D03*
X52250Y-44500D03*
X52250Y-43500D03*
X52250Y-42500D03*
X52250Y-41500D03*
X52250Y-40500D03*
X52250Y-39500D03*
G54D13*
X41000Y-16000D03*
G54D14*
X43000Y-16000D03*
X45000Y-16000D03*
X47000Y-16000D03*
X42500Y-15000D03*
X43500Y-15000D03*
X44500Y-15000D03*
X45500Y-15000D03*
G54D13*
X14000Y-25050D03*
G54D14*
X14000Y-23050D03*
X14000Y-21050D03*
X14000Y-19050D03*
X13000Y-23550D03*
X13000Y-22550D03*
X13000Y-21550D03*
X13000Y-20550D03*
G54D15*
X41000Y-55250D03*
G54D16*
X40000Y-55250D03*
X39000Y-55250D03*
X38000Y-55250D03*
X37000Y-55250D03*
X36000Y-55250D03*
X35000Y-55250D03*
X34000Y-55250D03*
X34000Y-58250D03*
X35000Y-58250D03*
X36000Y-58250D03*
X37000Y-58250D03*
X38000Y-58250D03*
X39000Y-58250D03*
X40000Y-58250D03*
X41000Y-58250D03*
G54D17*
X28000Y-50000D03*
G54D18*
X28000Y-51000D03*
X28000Y-52000D03*
X28000Y-53000D03*
X28000Y-54000D03*
X28000Y-55000D03*
X28000Y-56000D03*
X28000Y-57000D03*
X31000Y-57000D03*
X31000Y-56000D03*
X31000Y-55000D03*
X31000Y-54000D03*
X31000Y-53000D03*
X31000Y-52000D03*
X31000Y-51000D03*
X31000Y-50000D03*
G54D15*
X40500Y-20500D03*
G54D16*
X41500Y-20500D03*
X42500Y-20500D03*
X43500Y-20500D03*
X43500Y-17500D03*
X42500Y-17500D03*
X41500Y-17500D03*
X40500Y-17500D03*
G54D19*
X24105Y-17320D03*
X24895Y-17320D03*
G54D14*
X23125Y-17320D03*
G54D20*
X21915Y-16250D03*
X27085Y-16250D03*
G54D14*
X25875Y-17320D03*
G54D13*
X49000Y-64000D03*
G54D14*
X47000Y-64000D03*
G54D21*
X48500Y-65000D03*
G54D14*
X47500Y-65000D03*
G54D13*
X17400Y-16400D03*
G54D14*
X19400Y-16400D03*
G54D21*
X17900Y-15400D03*
G54D14*
X18900Y-15400D03*
G54D13*
X14000Y-33000D03*
G54D14*
X14000Y-31000D03*
X14000Y-29000D03*
X14000Y-27000D03*
X13000Y-31500D03*
X13000Y-30500D03*
X13000Y-29500D03*
X13000Y-28500D03*
G54D13*
X14250Y-60750D03*
G54D14*
X14250Y-58750D03*
X14250Y-56750D03*
X14250Y-54750D03*
X13250Y-59250D03*
X13250Y-58250D03*
X13250Y-57250D03*
X13250Y-56250D03*
G54D13*
X23000Y-64000D03*
G54D14*
X21000Y-64000D03*
X19000Y-64000D03*
X17000Y-64000D03*
X21500Y-65000D03*
X20500Y-65000D03*
X19500Y-65000D03*
X18500Y-65000D03*
G54D13*
X43000Y-64000D03*
G54D14*
X41000Y-64000D03*
X39000Y-64000D03*
X37000Y-64000D03*
X41500Y-65000D03*
X40500Y-65000D03*
X39500Y-65000D03*
X38500Y-65000D03*
G54D13*
X14000Y-40750D03*
G54D14*
X14000Y-38750D03*
X14000Y-36750D03*
X14000Y-34750D03*
X13000Y-39250D03*
X13000Y-38250D03*
X13000Y-37250D03*
X13000Y-36250D03*
G54D13*
X35000Y-64000D03*
G54D14*
X33000Y-64000D03*
X31000Y-64000D03*
X29000Y-64000D03*
X33500Y-65000D03*
X32500Y-65000D03*
X31500Y-65000D03*
X30500Y-65000D03*
G54D13*
X54000Y-49000D03*
G54D14*
X54000Y-51000D03*
X54000Y-53000D03*
X54000Y-55000D03*
G54D21*
X55000Y-51000D03*
G54D14*
X55000Y-52000D03*
X55000Y-53000D03*
X55000Y-54000D03*
X54000Y-57000D03*
X55000Y-55000D03*
G54D13*
X54000Y-39000D03*
G54D14*
X54000Y-41000D03*
X54000Y-43000D03*
X54000Y-45000D03*
G54D21*
X55000Y-41000D03*
G54D14*
X55000Y-42000D03*
X55000Y-43000D03*
X55000Y-44000D03*
X54000Y-47000D03*
X55000Y-45000D03*
G54D13*
X54000Y-19000D03*
G54D14*
X54000Y-21000D03*
X54000Y-23000D03*
X54000Y-25000D03*
G54D21*
X55000Y-21000D03*
G54D14*
X55000Y-22000D03*
X55000Y-23000D03*
X55000Y-24000D03*
X54000Y-27000D03*
X55000Y-25000D03*
G54D13*
X54000Y-29000D03*
G54D14*
X54000Y-31000D03*
X54000Y-33000D03*
X54000Y-35000D03*
G54D21*
X55000Y-31000D03*
G54D14*
X55000Y-32000D03*
X55000Y-33000D03*
X55000Y-34000D03*
X54000Y-37000D03*
X55000Y-35000D03*
G54D22*
X14000Y-16000D03*
X54000Y-16000D03*
X14000Y-64000D03*
X55000Y-64000D03*
G54D23*
X39000Y-28500D03*
X39000Y-29500D03*
X39000Y-30500D03*
X39000Y-31500D03*
X39000Y-32500D03*
X39000Y-33500D03*
X39000Y-34500D03*
X39000Y-35500D03*
X39000Y-36500D03*
X39000Y-37500D03*
X39000Y-38500D03*
X39000Y-39500D03*
X39000Y-40500D03*
X39000Y-41500D03*
X39000Y-42500D03*
X39000Y-43500D03*
X39000Y-44500D03*
X39000Y-45500D03*
X39000Y-46500D03*
X39000Y-47500D03*
X28000Y-47500D03*
X28000Y-46500D03*
X28000Y-45500D03*
X28000Y-44500D03*
X28000Y-43500D03*
X28000Y-42500D03*
X28000Y-41500D03*
X28000Y-40500D03*
X28000Y-39500D03*
X28000Y-38500D03*
X28000Y-37500D03*
X28000Y-36500D03*
X28000Y-35500D03*
X28000Y-34500D03*
X28000Y-33500D03*
X28000Y-32500D03*
X28000Y-31500D03*
X28000Y-30500D03*
X28000Y-29500D03*
X28000Y-28500D03*
X29000Y-28500D03*
X29000Y-29500D03*
X29000Y-30500D03*
X29000Y-31500D03*
X29000Y-32500D03*
X29000Y-33500D03*
X29000Y-34500D03*
X29000Y-35500D03*
X29000Y-36500D03*
X29000Y-37500D03*
X29000Y-38500D03*
X29000Y-39500D03*
X29000Y-40500D03*
X29000Y-41500D03*
X29000Y-42500D03*
X29000Y-43500D03*
X29000Y-44500D03*
X29000Y-45500D03*
X29000Y-46500D03*
X29000Y-47500D03*
X38000Y-47500D03*
X38000Y-46500D03*
X38000Y-45500D03*
X38000Y-44500D03*
X38000Y-43500D03*
X38000Y-42500D03*
X38000Y-41500D03*
X38000Y-40500D03*
X38000Y-39500D03*
X38000Y-38500D03*
X38000Y-37500D03*
X38000Y-36500D03*
X38000Y-35500D03*
X38000Y-34500D03*
X38000Y-33500D03*
X38000Y-32500D03*
X38000Y-31500D03*
X38000Y-30500D03*
X38000Y-29500D03*
X38000Y-28500D03*
G54D21*
X43750Y-51500D03*
G54D14*
X43750Y-50500D03*
X44750Y-51500D03*
X44750Y-50500D03*
X45750Y-51500D03*
X45750Y-50500D03*
G54D21*
X45500Y-23500D03*
G54D14*
X44500Y-23500D03*
X45500Y-22500D03*
X44500Y-22500D03*
X45500Y-21500D03*
X44500Y-21500D03*
G54D21*
X45500Y-43500D03*
G54D14*
X44500Y-43500D03*
X45500Y-42500D03*
X44500Y-42500D03*
X45500Y-41500D03*
X44500Y-41500D03*
G54D21*
X45500Y-33500D03*
G54D14*
X44500Y-33500D03*
X45500Y-32500D03*
X44500Y-32500D03*
X45500Y-31500D03*
X44500Y-31500D03*
G54D12*
X47200Y-19500D03*
X47200Y-20500D03*
X47200Y-21500D03*
X47200Y-22500D03*
X47200Y-23500D03*
X47200Y-24500D03*
X47200Y-25500D03*
X47200Y-26500D03*
X52200Y-26500D03*
X52200Y-25500D03*
X52200Y-24500D03*
X52200Y-23500D03*
X52200Y-22500D03*
X52200Y-21500D03*
X52200Y-20500D03*
X52200Y-19500D03*
X47250Y-29500D03*
X47250Y-30500D03*
X47250Y-31500D03*
X47250Y-32500D03*
X47250Y-33500D03*
X47250Y-34500D03*
X47250Y-35500D03*
X47250Y-36500D03*
X52250Y-36500D03*
X52250Y-35500D03*
X52250Y-34500D03*
X52250Y-33500D03*
X52250Y-32500D03*
X52250Y-31500D03*
X52250Y-30500D03*
X52250Y-29500D03*
X47250Y-49500D03*
X47250Y-50500D03*
X47250Y-51500D03*
X47250Y-52500D03*
X47250Y-53500D03*
X47250Y-54500D03*
X47250Y-55500D03*
X47250Y-56500D03*
X52250Y-56500D03*
X52250Y-55500D03*
X52250Y-54500D03*
X52250Y-53500D03*
X52250Y-52500D03*
X52250Y-51500D03*
X52250Y-50500D03*
X52250Y-49500D03*
G54D24*
X26250Y-57000D03*
X22250Y-57000D03*
X41000Y-54000D03*
X41000Y-50000D03*
X40000Y-54000D03*
X40000Y-50000D03*
X21950Y-22750D03*
X21950Y-18750D03*
X26250Y-56000D03*
X22250Y-56000D03*
X37000Y-54000D03*
X37000Y-50000D03*
X45500Y-44500D03*
X45500Y-48500D03*
X35000Y-54000D03*
X35000Y-50000D03*
X33000Y-54000D03*
X33000Y-50000D03*
X42500Y-48500D03*
X42500Y-44500D03*
X34000Y-54000D03*
X34000Y-50000D03*
X38000Y-54000D03*
X38000Y-50000D03*
X26500Y-33500D03*
X22500Y-33500D03*
X43500Y-48500D03*
X43500Y-44500D03*
X26500Y-32500D03*
X22500Y-32500D03*
X44500Y-44500D03*
X44500Y-48500D03*
X43500Y-38500D03*
X43500Y-34500D03*
X17000Y-25250D03*
X17000Y-21250D03*
X44500Y-34500D03*
X44500Y-38500D03*
X36000Y-50000D03*
X36000Y-54000D03*
X43500Y-28500D03*
X43500Y-24500D03*
X26500Y-37500D03*
X22500Y-37500D03*
X26500Y-36500D03*
X22500Y-36500D03*
X44500Y-24500D03*
X44500Y-28500D03*
X52000Y-63000D03*
X52000Y-59000D03*
X42500Y-24500D03*
X42500Y-28500D03*
X29000Y-20750D03*
X29000Y-16750D03*
X38000Y-20500D03*
X38000Y-16500D03*
X48750Y-17500D03*
X44750Y-17500D03*
X39000Y-54000D03*
X39000Y-50000D03*
X26250Y-54000D03*
X22250Y-54000D03*
X26250Y-55000D03*
X22250Y-55000D03*
G54D21*
X22500Y-27500D03*
G54D14*
X22500Y-26500D03*
X22500Y-25500D03*
G54D25*
X31250Y-16500D03*
X35750Y-16500D03*
G54D26*
X35250Y-19000D03*
G54D27*
X34750Y-20000D03*
X34250Y-19000D03*
X33750Y-20000D03*
X33250Y-19000D03*
X32750Y-20000D03*
X32250Y-19000D03*
X31750Y-20000D03*
G54D28*
X36600Y-17700D03*
X30400Y-17700D03*
G54D29*
X36100Y-14900D03*
X35110Y-14900D03*
X31890Y-14900D03*
X30900Y-14900D03*
G54D30*
X53500Y-59000D03*
X53500Y-61000D03*
X15600Y-22800D03*
X15600Y-20800D03*
X38000Y-21600D03*
X36000Y-21600D03*
X30000Y-21600D03*
X32000Y-21600D03*
X20400Y-21200D03*
X18400Y-21200D03*
X20400Y-22600D03*
X18400Y-22600D03*
G54D31*
X42500Y-23500D03*
X42500Y-22500D03*
X52000Y-64000D03*
X52000Y-65000D03*
X23250Y-18750D03*
X23250Y-19750D03*
G54D26*
X49000Y-61000D03*
G54D27*
X49000Y-59031D03*
G54D26*
X19000Y-25500D03*
G54D27*
X20378Y-25500D03*
G54D32*
X19400Y-18600D03*
X18400Y-18600D03*
G54D33*
X17400Y-18600D03*
G54D34*
X16250Y-33000D03*
X16250Y-34000D03*
G54D35*
X16250Y-35000D03*
G54D34*
X16250Y-27750D03*
X16250Y-28750D03*
G54D35*
X16250Y-29750D03*
G54D36*
X24750Y-44978D03*
X24750Y-45957D03*
X24750Y-46935D03*
X24750Y-47913D03*
X24750Y-48890D03*
X24750Y-49869D03*
X24750Y-50818D03*
X24750Y-51483D03*
X24750Y-43963D03*
X24750Y-52050D03*
X24750Y-52676D03*
G54D37*
X24081Y-42770D03*
G54D38*
X23364Y-45443D03*
X23364Y-48463D03*
X12616Y-52758D03*
G54D37*
X23222Y-52053D03*
G54D39*
X12719Y-42085D03*
G54D40*
X27362Y-48327D03*
X38750Y-27100D03*
X25600Y-19200D03*
X25394Y-49902D03*
X32438Y-46942D03*
X30478Y-44982D03*
X36500Y-47500D03*
X16000Y-25500D03*
X18000Y-28750D03*
X18000Y-31750D03*
X18000Y-33250D03*
X18000Y-35750D03*
X30870Y-46942D03*
X29988Y-46060D03*
X27636Y-49294D03*
X26460Y-47824D03*
X26558Y-45766D03*
X27048Y-47824D03*
X27048Y-44296D03*
X15250Y-35750D03*
X15300Y-38000D03*
X21457Y-39862D03*
X22736Y-39272D03*
X22146Y-40551D03*
X36000Y-32500D03*
X34750Y-32500D03*
X34750Y-34500D03*
X32750Y-34500D03*
X41750Y-43750D03*
X41454Y-48804D03*
X41846Y-51156D03*
X41846Y-52528D03*
X31400Y-41000D03*
X31000Y-28200D03*
X32200Y-26200D03*
X32200Y-22800D03*
X30282Y-35770D03*
X37044Y-42532D03*
X37044Y-47824D03*
X38416Y-49000D03*
X30968Y-46060D03*
X31850Y-46942D03*
X31850Y-51156D03*
G54D41*
X24750Y-47913D02*
X25669Y-47913D01*
X26083Y-48327D02*
X27362Y-48327D01*
X25669Y-47913D02*
X26083Y-48327D01*
X44500Y-48500D02*
X43500Y-47500D01*
X41000Y-48250D02*
X41000Y-50000D01*
X41750Y-47500D02*
X41000Y-48250D01*
X43500Y-47500D02*
X41750Y-47500D01*
X33250Y-19000D02*
X33250Y-18950D01*
X36000Y-18800D02*
X36000Y-21600D01*
X35400Y-18200D02*
X36000Y-18800D01*
X34000Y-18200D02*
X35400Y-18200D01*
X33250Y-18950D02*
X34000Y-18200D01*
X29000Y-20750D02*
X29450Y-20750D01*
X32650Y-18400D02*
X33250Y-19000D01*
X31800Y-18400D02*
X32650Y-18400D01*
X29450Y-20750D02*
X31800Y-18400D01*
X52250Y-35500D02*
X52200Y-35600D01*
X52200Y-35600D02*
X51600Y-35000D01*
X51600Y-35000D02*
X51600Y-26200D01*
X51600Y-26200D02*
X52200Y-25600D01*
X52200Y-25600D02*
X52200Y-25500D01*
X52250Y-45500D02*
X52200Y-45600D01*
X52200Y-45600D02*
X51600Y-46200D01*
X51600Y-46200D02*
X51600Y-54800D01*
X51600Y-54800D02*
X52200Y-55400D01*
X52200Y-55400D02*
X52200Y-55600D01*
X52200Y-55600D02*
X52250Y-55500D01*
X52250Y-35500D02*
X52200Y-35600D01*
X52200Y-35600D02*
X51600Y-36200D01*
X51600Y-36200D02*
X51600Y-44800D01*
X51600Y-44800D02*
X52200Y-45400D01*
X52200Y-45400D02*
X52200Y-45600D01*
X52200Y-45600D02*
X52250Y-45500D01*
X38000Y-20500D02*
X38000Y-20600D01*
X38000Y-20600D02*
X37400Y-21200D01*
X37400Y-21200D02*
X37400Y-21800D01*
X37400Y-21800D02*
X38000Y-22400D01*
X38000Y-22400D02*
X38000Y-28500D01*
X39000Y-54000D02*
X39000Y-53950D01*
X39000Y-53950D02*
X40000Y-52950D01*
X40000Y-52950D02*
X40000Y-50000D01*
X32000Y-21600D02*
X30800Y-21600D01*
X30800Y-21600D02*
X30200Y-21000D01*
X30200Y-21000D02*
X29200Y-21000D01*
X29200Y-21000D02*
X29000Y-20800D01*
X29000Y-20800D02*
X29000Y-20750D01*
X14000Y-25050D02*
X14000Y-25000D01*
X14000Y-25000D02*
X13000Y-24000D01*
X13000Y-24000D02*
X13000Y-23550D01*
X39000Y-28500D02*
X39000Y-28600D01*
X39000Y-28600D02*
X42600Y-28600D01*
X42600Y-28600D02*
X42500Y-28500D01*
G54D42*
X18400Y-22600D02*
X18171Y-22600D01*
X17400Y-19369D02*
X17400Y-18600D01*
X17717Y-19686D02*
X17400Y-19369D01*
X17717Y-22146D02*
X17717Y-19686D01*
X18171Y-22600D02*
X17717Y-22146D01*
X25875Y-17320D02*
X25875Y-15660D01*
X39272Y-14272D02*
X41000Y-16000D01*
X33760Y-14272D02*
X39272Y-14272D01*
X32972Y-15060D02*
X33760Y-14272D01*
X32972Y-16536D02*
X32972Y-15060D01*
X30512Y-18996D02*
X32972Y-16536D01*
X28838Y-18996D02*
X30512Y-18996D01*
X28346Y-18504D02*
X28838Y-18996D01*
X28346Y-15649D02*
X28346Y-18504D01*
X27756Y-15059D02*
X28346Y-15649D01*
X26476Y-15059D02*
X27756Y-15059D01*
X25875Y-15660D02*
X26476Y-15059D01*
X22500Y-37500D02*
X21850Y-37500D01*
X12550Y-39250D02*
X13000Y-39250D01*
X12250Y-38950D02*
X12550Y-39250D01*
X12250Y-35850D02*
X12250Y-38950D01*
X12600Y-35500D02*
X12250Y-35850D01*
X14350Y-35500D02*
X12600Y-35500D01*
X15200Y-36350D02*
X14350Y-35500D01*
X20700Y-36350D02*
X15200Y-36350D01*
X21850Y-37500D02*
X20700Y-36350D01*
X38750Y-27100D02*
X39350Y-26500D01*
X39350Y-26500D02*
X39350Y-16900D01*
X39350Y-16900D02*
X40250Y-16000D01*
X40250Y-16000D02*
X41000Y-16000D01*
X25600Y-19200D02*
X25800Y-19000D01*
X25800Y-19000D02*
X25800Y-17400D01*
X25800Y-17400D02*
X25875Y-17320D01*
X22500Y-27500D02*
X23600Y-28600D01*
X23600Y-28600D02*
X23600Y-33000D01*
X23600Y-33000D02*
X23000Y-33600D01*
X23000Y-33600D02*
X23000Y-33800D01*
X23000Y-33800D02*
X22600Y-34200D01*
X22600Y-34200D02*
X22600Y-36600D01*
X22600Y-36600D02*
X22500Y-36500D01*
X21950Y-22750D02*
X23296Y-24096D01*
X23296Y-24096D02*
X23296Y-26900D01*
X23296Y-26900D02*
X22600Y-27596D01*
X22600Y-27596D02*
X22600Y-27600D01*
X22600Y-27600D02*
X22500Y-27500D01*
X14000Y-40750D02*
X14000Y-40800D01*
X13000Y-39800D02*
X13000Y-39250D01*
X14000Y-40800D02*
X13000Y-39800D01*
X22500Y-37500D02*
X22600Y-37600D01*
X22600Y-37600D02*
X22600Y-36600D01*
X22600Y-36600D02*
X22500Y-36500D01*
G54D43*
X31000Y-51000D02*
X30968Y-50960D01*
X30968Y-50960D02*
X30380Y-51548D01*
X30380Y-51548D02*
X30380Y-52430D01*
X30380Y-52430D02*
X30968Y-53018D01*
X30968Y-53018D02*
X31000Y-53000D01*
X24750Y-49869D02*
X25361Y-49869D01*
X25361Y-49869D02*
X25394Y-49902D01*
X47250Y-34500D02*
X47250Y-33500D01*
X45500Y-33500D02*
X45600Y-33600D01*
X45600Y-33600D02*
X45600Y-32600D01*
X45600Y-32600D02*
X45500Y-32500D01*
X44500Y-33500D02*
X44500Y-34500D01*
X45500Y-33500D02*
X44500Y-33500D01*
X43500Y-34500D02*
X43500Y-35000D01*
X46500Y-32500D02*
X47250Y-32500D01*
X46250Y-32750D02*
X46500Y-32500D01*
X46250Y-34500D02*
X46250Y-32750D01*
X45500Y-35250D02*
X46250Y-34500D01*
X43750Y-35250D02*
X45500Y-35250D01*
X43500Y-35000D02*
X43750Y-35250D01*
X43500Y-34500D02*
X43500Y-33000D01*
X44000Y-32500D02*
X44500Y-32500D01*
X43500Y-33000D02*
X44000Y-32500D01*
G54D44*
X54000Y-29000D02*
X55000Y-30000D01*
X55000Y-30000D02*
X55000Y-31000D01*
X52250Y-31500D02*
X52750Y-31500D01*
X52750Y-31500D02*
X53000Y-31250D01*
X53000Y-31250D02*
X53000Y-30750D01*
X53000Y-30750D02*
X54000Y-29750D01*
X54000Y-29750D02*
X54000Y-29000D01*
G54D43*
X55000Y-31000D02*
X55000Y-30000D01*
X54000Y-29750D02*
X54000Y-29000D01*
X53000Y-30750D02*
X54000Y-29750D01*
X53000Y-31250D02*
X53000Y-30750D01*
X52750Y-31500D02*
X53000Y-31250D01*
X44500Y-31500D02*
X45500Y-30500D01*
X45500Y-30500D02*
X47250Y-30500D01*
X47250Y-35500D02*
X46000Y-35500D01*
X41000Y-42500D02*
X38000Y-42500D01*
X44000Y-39500D02*
X41000Y-42500D01*
X45000Y-39500D02*
X44000Y-39500D01*
X45500Y-39000D02*
X45000Y-39500D01*
X45500Y-36000D02*
X45500Y-39000D01*
X46000Y-35500D02*
X45500Y-36000D01*
X47250Y-36500D02*
X46500Y-36500D01*
X41000Y-43500D02*
X38000Y-43500D01*
X44500Y-40000D02*
X41000Y-43500D01*
X45500Y-40000D02*
X44500Y-40000D01*
X46000Y-39500D02*
X45500Y-40000D01*
X46000Y-37000D02*
X46000Y-39500D01*
X46500Y-36500D02*
X46000Y-37000D01*
G54D44*
X54000Y-35000D02*
X54000Y-34400D01*
X54400Y-34000D02*
X55000Y-34000D01*
X54000Y-34400D02*
X54400Y-34000D01*
X52250Y-34500D02*
X53500Y-34500D01*
X53500Y-34500D02*
X54000Y-35000D01*
G54D43*
X53500Y-34500D02*
X54000Y-35000D01*
G54D44*
X54000Y-33000D02*
X55000Y-33000D01*
X52250Y-33500D02*
X53500Y-33500D01*
X53500Y-33500D02*
X54000Y-33000D01*
G54D43*
X53500Y-33500D02*
X54000Y-33000D01*
G54D44*
X54000Y-31000D02*
X54000Y-32000D01*
X52250Y-32500D02*
X53100Y-32500D01*
X53100Y-32500D02*
X53600Y-32000D01*
X53600Y-32000D02*
X54000Y-32000D01*
X54000Y-32000D02*
X55000Y-32000D01*
G54D43*
X45500Y-31500D02*
X47250Y-31500D01*
X38000Y-44500D02*
X41500Y-44500D01*
X42500Y-45500D02*
X47250Y-45500D01*
X41500Y-44500D02*
X42500Y-45500D01*
G54D44*
X52250Y-43500D02*
X52900Y-43500D01*
X53400Y-43000D02*
X55000Y-43000D01*
X52900Y-43500D02*
X53400Y-43000D01*
G54D43*
X54000Y-43000D02*
X53500Y-43000D01*
X53000Y-43500D02*
X52250Y-43500D01*
X53500Y-43000D02*
X53000Y-43500D01*
X54000Y-43000D02*
X55000Y-43000D01*
G54D44*
X55000Y-41000D02*
X55000Y-40750D01*
X55000Y-40750D02*
X54000Y-39750D01*
X52250Y-41500D02*
X52750Y-41500D01*
X52750Y-41500D02*
X53000Y-41250D01*
X53000Y-41250D02*
X53000Y-40750D01*
X53000Y-40750D02*
X54000Y-39750D01*
X54000Y-39750D02*
X54000Y-39000D01*
G54D43*
X54000Y-39000D02*
X54000Y-39500D01*
X55000Y-40500D02*
X55000Y-41000D01*
X54000Y-39500D02*
X55000Y-40500D01*
X54000Y-39750D02*
X54000Y-39000D01*
X53000Y-40750D02*
X54000Y-39750D01*
X53000Y-41250D02*
X53000Y-40750D01*
X52750Y-41500D02*
X53000Y-41250D01*
X45500Y-43500D02*
X45500Y-42500D01*
X44500Y-43500D02*
X45500Y-43500D01*
X44500Y-44500D02*
X44500Y-43500D01*
X45500Y-41500D02*
X47250Y-41500D01*
X47250Y-44500D02*
X47250Y-43500D01*
X30434Y-36800D02*
X30434Y-36734D01*
X29200Y-35500D02*
X29000Y-35500D01*
X30434Y-36734D02*
X29200Y-35500D01*
X34000Y-50000D02*
X34006Y-49980D01*
X34006Y-49980D02*
X32438Y-48412D01*
X32438Y-48412D02*
X32438Y-46942D01*
X30478Y-44982D02*
X30434Y-44938D01*
X30434Y-44938D02*
X30434Y-36800D01*
X30434Y-36800D02*
X30434Y-36804D01*
X29008Y-35476D02*
X29000Y-35500D01*
X31000Y-54000D02*
X31335Y-54000D01*
X34000Y-51335D02*
X34000Y-50000D01*
X31335Y-54000D02*
X34000Y-51335D01*
X28000Y-35500D02*
X29000Y-35500D01*
X36500Y-42250D02*
X36500Y-47500D01*
X47250Y-29500D02*
X46000Y-29500D01*
X40750Y-42000D02*
X36750Y-42000D01*
X42750Y-40000D02*
X40750Y-42000D01*
X42750Y-32500D02*
X42750Y-40000D01*
X44250Y-31000D02*
X42750Y-32500D01*
X44500Y-31000D02*
X44250Y-31000D01*
X46000Y-29500D02*
X44500Y-31000D01*
X36750Y-42000D02*
X36500Y-42250D01*
X29000Y-47500D02*
X28000Y-47500D01*
X39000Y-38500D02*
X39500Y-38500D01*
X43500Y-19950D02*
X43500Y-20500D01*
X43050Y-19500D02*
X43500Y-19950D01*
X40300Y-19500D02*
X43050Y-19500D01*
X39850Y-19950D02*
X40300Y-19500D01*
X39850Y-27100D02*
X39850Y-19950D01*
X40532Y-27782D02*
X39850Y-27100D01*
X42600Y-27782D02*
X40532Y-27782D01*
X43000Y-28182D02*
X42600Y-27782D01*
X43000Y-29050D02*
X43000Y-28182D01*
X42700Y-29350D02*
X43000Y-29050D01*
X41850Y-29350D02*
X42700Y-29350D01*
X40050Y-31150D02*
X41850Y-29350D01*
X40050Y-37950D02*
X40050Y-31150D01*
X39500Y-38500D02*
X40050Y-37950D01*
X24105Y-17320D02*
X24105Y-19905D01*
X32900Y-37500D02*
X39000Y-37500D01*
X31600Y-36200D02*
X32900Y-37500D01*
X31600Y-27400D02*
X31600Y-36200D01*
X24105Y-19905D02*
X31600Y-27400D01*
G54D44*
X16250Y-28750D02*
X14250Y-28750D01*
X14250Y-28750D02*
X13500Y-29500D01*
X13500Y-29500D02*
X13000Y-29500D01*
G54D43*
X14000Y-29000D02*
X14250Y-28750D01*
X13000Y-29500D02*
X13500Y-29500D01*
X13500Y-29500D02*
X14000Y-29000D01*
X22500Y-33500D02*
X23250Y-32750D01*
X16500Y-28000D02*
X22000Y-28000D01*
X22000Y-28000D02*
X23250Y-29750D01*
X16500Y-28000D02*
X16250Y-27750D01*
X23250Y-32750D02*
X23250Y-29750D01*
X36000Y-50000D02*
X36000Y-48750D01*
X33750Y-46500D02*
X28000Y-46500D01*
X36000Y-48750D02*
X33750Y-46500D01*
X17000Y-21250D02*
X16250Y-22000D01*
X16250Y-22000D02*
X16250Y-23000D01*
X16250Y-23000D02*
X16000Y-23250D01*
X16000Y-23250D02*
X16000Y-25500D01*
X18000Y-28750D02*
X18000Y-31750D01*
X18000Y-33250D02*
X18000Y-35750D01*
X17000Y-21250D02*
X16050Y-21250D01*
X16050Y-21250D02*
X15600Y-20800D01*
X15600Y-20800D02*
X14250Y-20800D01*
X14250Y-20800D02*
X14000Y-21050D01*
X28000Y-46500D02*
X29000Y-46500D01*
X13000Y-21550D02*
X13500Y-21550D01*
X13500Y-21550D02*
X14000Y-21050D01*
X21950Y-18750D02*
X23250Y-18750D01*
X52000Y-63000D02*
X52000Y-64000D01*
X47200Y-23500D02*
X47200Y-24500D01*
X47200Y-25500D02*
X46750Y-25500D01*
X40500Y-40500D02*
X38000Y-40500D01*
X41500Y-39500D02*
X40500Y-40500D01*
X41500Y-32150D02*
X41500Y-39500D01*
X43650Y-30000D02*
X41500Y-32150D01*
X44250Y-30000D02*
X43650Y-30000D01*
X46250Y-28000D02*
X44250Y-30000D01*
X46250Y-26000D02*
X46250Y-28000D01*
X46750Y-25500D02*
X46250Y-26000D01*
G54D44*
X52200Y-23500D02*
X53500Y-23500D01*
X53500Y-23500D02*
X54000Y-23000D01*
X54000Y-23000D02*
X55000Y-23000D01*
G54D43*
X53500Y-23500D02*
X54000Y-23000D01*
G54D44*
X54000Y-19000D02*
X54000Y-19250D01*
X54000Y-19250D02*
X55000Y-20250D01*
X55000Y-20250D02*
X55000Y-21000D01*
X52200Y-21500D02*
X52250Y-21500D01*
X52250Y-21500D02*
X54000Y-19750D01*
X54000Y-19750D02*
X54000Y-19000D01*
G54D43*
X54000Y-19750D02*
X54000Y-19000D01*
X52250Y-21500D02*
X54000Y-19750D01*
X55000Y-20250D02*
X55000Y-21000D01*
X54000Y-19250D02*
X55000Y-20250D01*
X31000Y-50000D02*
X30968Y-49980D01*
X30968Y-49980D02*
X30870Y-49882D01*
X30870Y-49882D02*
X30870Y-46942D01*
X29988Y-46060D02*
X29694Y-45766D01*
X29694Y-45766D02*
X29694Y-43022D01*
X29694Y-43022D02*
X29498Y-43022D01*
X29498Y-43022D02*
X29008Y-42532D01*
X29008Y-42532D02*
X29000Y-42500D01*
X40500Y-20500D02*
X40400Y-20600D01*
X45200Y-28200D02*
X45200Y-28600D01*
X44400Y-27400D02*
X45200Y-28200D01*
X41200Y-27400D02*
X44400Y-27400D01*
X40400Y-26600D02*
X41200Y-27400D01*
X40400Y-20600D02*
X40400Y-26600D01*
X45200Y-28600D02*
X44200Y-29600D01*
X44200Y-29600D02*
X43200Y-29600D01*
X43200Y-29600D02*
X40600Y-32200D01*
X40600Y-32200D02*
X40600Y-38200D01*
X40600Y-38200D02*
X39200Y-39600D01*
X39200Y-39600D02*
X38100Y-39600D01*
X38100Y-39600D02*
X38000Y-39500D01*
X38000Y-39500D02*
X39000Y-39500D01*
X45500Y-21500D02*
X47200Y-21500D01*
X13250Y-58250D02*
X12974Y-58250D01*
X21295Y-54000D02*
X22250Y-54000D01*
X19783Y-55512D02*
X21295Y-54000D01*
X12598Y-55512D02*
X19783Y-55512D01*
X12402Y-55708D02*
X12598Y-55512D01*
X12402Y-57678D02*
X12402Y-55708D01*
X12974Y-58250D02*
X12402Y-57678D01*
X13250Y-58250D02*
X13750Y-58250D01*
X13750Y-58250D02*
X14250Y-58750D01*
X14250Y-56750D02*
X19431Y-56750D01*
X21181Y-55000D02*
X22250Y-55000D01*
X19431Y-56750D02*
X21181Y-55000D01*
X13250Y-57250D02*
X13750Y-57250D01*
X13750Y-57250D02*
X14250Y-56750D01*
X19000Y-64000D02*
X19000Y-60250D01*
X19000Y-60250D02*
X22250Y-57000D01*
X19000Y-64000D02*
X19000Y-64500D01*
X19000Y-64500D02*
X19500Y-65000D01*
X28000Y-51000D02*
X27000Y-51000D01*
X26250Y-51750D02*
X26250Y-54000D01*
X27000Y-51000D02*
X26250Y-51750D01*
X28000Y-53000D02*
X27250Y-53000D01*
X26750Y-55000D02*
X26250Y-55000D01*
X27000Y-54750D02*
X26750Y-55000D01*
X27000Y-53250D02*
X27000Y-54750D01*
X27250Y-53000D02*
X27000Y-53250D01*
X28000Y-55000D02*
X27750Y-55000D01*
X26750Y-56000D02*
X26250Y-56000D01*
X27750Y-55000D02*
X26750Y-56000D01*
X26250Y-57000D02*
X27000Y-57000D01*
X27000Y-57000D02*
X28000Y-57000D01*
X30968Y-55958D02*
X30870Y-55958D01*
X30870Y-55958D02*
X29008Y-54096D01*
X29008Y-54096D02*
X29008Y-50666D01*
X29008Y-50666D02*
X28910Y-50568D01*
X28910Y-50568D02*
X28910Y-50470D01*
X28910Y-50470D02*
X28616Y-50176D01*
X28616Y-50176D02*
X28616Y-49588D01*
X28616Y-49588D02*
X27930Y-49588D01*
X27930Y-49588D02*
X27636Y-49294D01*
X26460Y-47824D02*
X26558Y-47726D01*
X26558Y-47726D02*
X26558Y-45766D01*
X30968Y-55958D02*
X31000Y-56000D01*
X31000Y-56000D02*
X31304Y-56000D01*
X31304Y-56000D02*
X32283Y-55021D01*
X32283Y-55021D02*
X32283Y-53544D01*
X32283Y-53544D02*
X34941Y-50886D01*
X34941Y-50886D02*
X37114Y-50886D01*
X37114Y-50886D02*
X38000Y-50000D01*
X28000Y-44500D02*
X29000Y-44500D01*
X27048Y-47824D02*
X27048Y-44296D01*
X31000Y-52000D02*
X31662Y-52000D01*
X33000Y-50662D02*
X33000Y-50000D01*
X31662Y-52000D02*
X33000Y-50662D01*
X28000Y-43500D02*
X29000Y-43500D01*
X31000Y-64000D02*
X32500Y-62500D01*
X35000Y-60000D02*
X35000Y-58250D01*
X32500Y-62500D02*
X35000Y-60000D01*
X31000Y-64000D02*
X31000Y-64500D01*
X31000Y-64500D02*
X31500Y-65000D01*
X39000Y-64000D02*
X39000Y-58250D01*
X39000Y-64000D02*
X39000Y-64500D01*
X39000Y-64500D02*
X39500Y-65000D01*
X41000Y-64000D02*
X41000Y-64500D01*
X41000Y-64500D02*
X40500Y-65000D01*
X40000Y-58250D02*
X40000Y-63000D01*
X40000Y-63000D02*
X41000Y-64000D01*
X14000Y-33500D02*
X15250Y-34750D01*
X15250Y-34750D02*
X15250Y-35750D01*
X14000Y-33500D02*
X14000Y-33000D01*
X26900Y-50000D02*
X28000Y-50000D01*
X25600Y-51300D02*
X26900Y-50000D01*
X25600Y-53100D02*
X25600Y-51300D01*
X24900Y-53800D02*
X25600Y-53100D01*
X23500Y-53800D02*
X24900Y-53800D01*
X20200Y-50500D02*
X23500Y-53800D01*
X20200Y-42900D02*
X20200Y-50500D01*
X15300Y-38000D02*
X20200Y-42900D01*
X23000Y-64000D02*
X25075Y-64000D01*
X28343Y-56000D02*
X28000Y-56000D01*
X28839Y-56496D02*
X28343Y-56000D01*
X28839Y-60236D02*
X28839Y-56496D01*
X25075Y-64000D02*
X28839Y-60236D01*
X14250Y-60750D02*
X14588Y-60750D01*
X20752Y-65748D02*
X21500Y-65000D01*
X17126Y-65748D02*
X20752Y-65748D01*
X16142Y-64764D02*
X17126Y-65748D01*
X16142Y-62304D02*
X16142Y-64764D01*
X14588Y-60750D02*
X16142Y-62304D01*
X21500Y-65000D02*
X22000Y-65000D01*
X22000Y-65000D02*
X23000Y-64000D01*
X13250Y-59250D02*
X13250Y-59750D01*
X13250Y-59750D02*
X14250Y-60750D01*
X28000Y-50000D02*
X28750Y-50750D01*
X28750Y-50750D02*
X28750Y-51500D01*
X28750Y-51500D02*
X28250Y-52000D01*
X28250Y-52000D02*
X28000Y-52000D01*
X28000Y-52000D02*
X28500Y-52000D01*
X28750Y-53250D02*
X28000Y-54000D01*
X28750Y-52250D02*
X28750Y-53250D01*
X28500Y-52000D02*
X28750Y-52250D01*
X28000Y-54000D02*
X28250Y-54000D01*
X28250Y-54000D02*
X28750Y-54500D01*
X28750Y-54500D02*
X28750Y-55250D01*
X28750Y-55250D02*
X28000Y-56000D01*
X22500Y-26500D02*
X22250Y-26750D01*
X12350Y-30850D02*
X13000Y-31500D01*
X12350Y-26900D02*
X12350Y-30850D01*
X13000Y-26250D02*
X12350Y-26900D01*
X17250Y-26250D02*
X13000Y-26250D01*
X17750Y-26750D02*
X17250Y-26250D01*
X22250Y-26750D02*
X17750Y-26750D01*
X14000Y-33000D02*
X14000Y-32500D01*
X14000Y-32500D02*
X13000Y-31500D01*
X21000Y-64000D02*
X21000Y-60004D01*
X23031Y-56781D02*
X22250Y-56000D01*
X23031Y-57973D02*
X23031Y-56781D01*
X21000Y-60004D02*
X23031Y-57973D01*
X21000Y-64000D02*
X21000Y-64500D01*
X21000Y-64500D02*
X20500Y-65000D01*
X24750Y-50818D02*
X22964Y-50818D01*
X21457Y-49311D02*
X21457Y-39862D01*
X22964Y-50818D02*
X21457Y-49311D01*
X28000Y-39500D02*
X29000Y-39500D01*
X24750Y-45957D02*
X25598Y-45957D01*
X27102Y-41500D02*
X29000Y-41500D01*
X26476Y-42126D02*
X27102Y-41500D01*
X26476Y-45079D02*
X26476Y-42126D01*
X25598Y-45957D02*
X26476Y-45079D01*
X28000Y-41500D02*
X29000Y-41500D01*
X24750Y-46935D02*
X22919Y-46935D01*
X22736Y-46752D02*
X22736Y-39272D01*
X22919Y-46935D02*
X22736Y-46752D01*
X28000Y-38500D02*
X29000Y-38500D01*
X24750Y-48890D02*
X24239Y-48890D01*
X22146Y-48917D02*
X22146Y-40551D01*
X22540Y-49311D02*
X22146Y-48917D01*
X23818Y-49311D02*
X22540Y-49311D01*
X24239Y-48890D02*
X23818Y-49311D01*
X28000Y-40500D02*
X29000Y-40500D01*
G54D42*
X20400Y-21200D02*
X20000Y-20800D01*
X20000Y-20800D02*
X20000Y-18200D01*
X20000Y-18200D02*
X19400Y-17600D01*
X19400Y-17600D02*
X19400Y-16400D01*
X20400Y-22600D02*
X20400Y-25600D01*
X20400Y-25600D02*
X20378Y-25500D01*
X19400Y-16400D02*
X19000Y-16000D01*
X19000Y-16000D02*
X19000Y-15400D01*
X19000Y-15400D02*
X18900Y-15400D01*
X20400Y-22600D02*
X20400Y-21200D01*
G54D43*
X38000Y-32500D02*
X36000Y-32500D01*
X34500Y-32500D02*
X34750Y-32500D01*
X34250Y-32250D02*
X34250Y-19000D01*
X34250Y-32250D02*
X34500Y-32500D01*
X39000Y-32500D02*
X38000Y-32500D01*
X38000Y-34500D02*
X34750Y-34500D01*
X32750Y-34500D02*
X32750Y-20000D01*
X39000Y-34500D02*
X38000Y-34500D01*
X35500Y-33500D02*
X38000Y-33500D01*
X35250Y-33250D02*
X35250Y-19000D01*
X35250Y-33250D02*
X35500Y-33500D01*
X39000Y-33500D02*
X38000Y-33500D01*
X33750Y-35250D02*
X33750Y-20000D01*
X34000Y-35500D02*
X33750Y-35250D01*
X34000Y-35500D02*
X38000Y-35500D01*
X39000Y-35500D02*
X38000Y-35500D01*
X43750Y-51500D02*
X44750Y-51500D01*
X43750Y-50500D02*
X43750Y-51500D01*
X42500Y-48500D02*
X42500Y-50000D01*
X43000Y-50500D02*
X43750Y-50500D01*
X42500Y-50000D02*
X43000Y-50500D01*
X47250Y-52500D02*
X45750Y-52500D01*
X45250Y-51000D02*
X44750Y-50500D01*
X45250Y-52000D02*
X45250Y-51000D01*
X45750Y-52500D02*
X45250Y-52000D01*
X45500Y-48500D02*
X45500Y-48750D01*
X44750Y-49500D02*
X44750Y-50500D01*
X45500Y-48750D02*
X44750Y-49500D01*
X47250Y-39500D02*
X47750Y-40000D01*
X47750Y-40000D02*
X47750Y-41000D01*
X47750Y-41000D02*
X45000Y-41000D01*
X45000Y-41000D02*
X45000Y-42000D01*
X45000Y-42000D02*
X43500Y-42000D01*
X43500Y-42000D02*
X41750Y-43750D01*
X28000Y-34500D02*
X29000Y-34500D01*
X47200Y-19500D02*
X48100Y-19500D01*
X48100Y-19500D02*
X48600Y-20000D01*
X48600Y-20000D02*
X48600Y-40300D01*
X47250Y-49500D02*
X47250Y-49450D01*
X47250Y-49450D02*
X48600Y-48100D01*
X48600Y-48100D02*
X48600Y-40300D01*
X48000Y-39500D02*
X47250Y-39500D01*
X48600Y-40300D02*
X48600Y-40100D01*
X48600Y-40100D02*
X48000Y-39500D01*
G54D44*
X54000Y-49000D02*
X54000Y-49250D01*
X54000Y-49250D02*
X55000Y-50250D01*
X55000Y-50250D02*
X55000Y-51000D01*
X52250Y-51500D02*
X52900Y-51500D01*
X53200Y-49800D02*
X54000Y-49000D01*
X53200Y-51200D02*
X53200Y-49800D01*
X52900Y-51500D02*
X53200Y-51200D01*
G54D43*
X55000Y-50250D02*
X55000Y-51000D01*
X54000Y-49250D02*
X55000Y-50250D01*
X41454Y-48804D02*
X41454Y-48836D01*
X41454Y-48836D02*
X41552Y-48934D01*
X40000Y-55250D02*
X39984Y-55272D01*
X41552Y-50862D02*
X41552Y-48934D01*
X41846Y-51156D02*
X41552Y-50862D01*
X40768Y-53606D02*
X41846Y-52528D01*
X40670Y-53606D02*
X40768Y-53606D01*
X40572Y-53704D02*
X40670Y-53606D01*
X40572Y-54684D02*
X40572Y-53704D01*
X39984Y-55272D02*
X40572Y-54684D01*
X41552Y-48934D02*
X41552Y-48804D01*
X40000Y-55250D02*
X40000Y-55750D01*
X40750Y-56500D02*
X47250Y-56500D01*
X40000Y-55750D02*
X40750Y-56500D01*
X39000Y-46500D02*
X38000Y-46500D01*
G54D44*
X55000Y-54000D02*
X54400Y-54000D01*
X54000Y-54400D02*
X54000Y-55000D01*
X54400Y-54000D02*
X54000Y-54400D01*
X52250Y-54500D02*
X53500Y-54500D01*
X53500Y-54500D02*
X54000Y-55000D01*
X54000Y-52000D02*
X53600Y-52000D01*
X53100Y-52500D02*
X52250Y-52500D01*
X53600Y-52000D02*
X53100Y-52500D01*
X54000Y-52000D02*
X55000Y-52000D01*
X54000Y-51000D02*
X54000Y-52000D01*
G54D43*
X54250Y-52000D02*
X54000Y-52000D01*
X54000Y-51000D02*
X54000Y-51750D01*
X54250Y-52000D02*
X55000Y-52000D01*
X54000Y-51750D02*
X54250Y-52000D01*
X45750Y-51500D02*
X47250Y-51500D01*
X24895Y-17320D02*
X24895Y-19895D01*
X33300Y-36500D02*
X39000Y-36500D01*
X32000Y-35200D02*
X33300Y-36500D01*
X32000Y-27000D02*
X32000Y-35200D01*
X24895Y-19895D02*
X32000Y-27000D01*
X35000Y-64000D02*
X35000Y-63750D01*
X37000Y-61750D02*
X37000Y-58250D01*
X35000Y-63750D02*
X37000Y-61750D01*
X33500Y-65000D02*
X34000Y-65000D01*
X34000Y-65000D02*
X35000Y-64000D01*
X33000Y-64000D02*
X35000Y-62000D01*
X36000Y-61000D02*
X36000Y-58250D01*
X35000Y-62000D02*
X36000Y-61000D01*
X32500Y-65000D02*
X32500Y-64500D01*
X32500Y-64500D02*
X33000Y-64000D01*
X29000Y-64000D02*
X30000Y-64000D01*
X34000Y-60000D02*
X34000Y-58250D01*
X30000Y-64000D02*
X34000Y-60000D01*
X29000Y-64000D02*
X29500Y-64000D01*
X29500Y-64000D02*
X30500Y-65000D01*
X41500Y-65000D02*
X42000Y-65000D01*
X42000Y-65000D02*
X43000Y-64000D01*
X41000Y-58250D02*
X41000Y-62000D01*
X41000Y-62000D02*
X43000Y-64000D01*
X37000Y-64000D02*
X37500Y-64000D01*
X37500Y-64000D02*
X38500Y-65000D01*
X38000Y-58250D02*
X38000Y-63000D01*
X38000Y-63000D02*
X37000Y-64000D01*
X41000Y-54000D02*
X41000Y-55250D01*
X39000Y-55250D02*
X39000Y-55000D01*
X39000Y-55000D02*
X40000Y-54000D01*
X37000Y-55250D02*
X37000Y-54000D01*
X35000Y-54000D02*
X35000Y-55250D01*
X14000Y-38750D02*
X15500Y-37250D01*
X29250Y-36500D02*
X29000Y-36500D01*
X30000Y-37250D02*
X29250Y-36500D01*
X30000Y-37750D02*
X30000Y-37250D01*
X29750Y-38000D02*
X30000Y-37750D01*
X27250Y-38000D02*
X29750Y-38000D01*
X26500Y-38750D02*
X27250Y-38000D01*
X20500Y-38750D02*
X26500Y-38750D01*
X19000Y-37250D02*
X20500Y-38750D01*
X15500Y-37250D02*
X19000Y-37250D01*
X26500Y-36500D02*
X28000Y-36500D01*
X28000Y-36500D02*
X29000Y-36500D01*
X13000Y-38250D02*
X13500Y-38250D01*
X13500Y-38250D02*
X14000Y-38750D01*
X31890Y-14900D02*
X31890Y-14764D01*
X29728Y-14272D02*
X29000Y-15000D01*
X31398Y-14272D02*
X29728Y-14272D01*
X31890Y-14764D02*
X31398Y-14272D01*
X31400Y-41000D02*
X31000Y-40600D01*
X31000Y-40600D02*
X31000Y-28200D01*
X32200Y-26200D02*
X32200Y-22800D01*
X28406Y-14406D02*
X29000Y-15000D01*
X12950Y-22550D02*
X12400Y-22000D01*
X12400Y-22000D02*
X12400Y-18800D01*
X12400Y-18800D02*
X13200Y-18000D01*
X13200Y-18000D02*
X15200Y-18000D01*
X15200Y-18000D02*
X16000Y-17200D01*
X16000Y-17200D02*
X16000Y-15000D01*
X16000Y-15000D02*
X16594Y-14406D01*
X16594Y-14406D02*
X28406Y-14406D01*
X13000Y-22550D02*
X12950Y-22550D01*
X29000Y-15000D02*
X29000Y-16750D01*
X13000Y-22550D02*
X13500Y-22550D01*
X13500Y-22550D02*
X14000Y-23050D01*
X28000Y-45500D02*
X29000Y-45500D01*
X14000Y-36750D02*
X19250Y-36750D01*
X25750Y-38250D02*
X26500Y-37500D01*
X20750Y-38250D02*
X25750Y-38250D01*
X19250Y-36750D02*
X20750Y-38250D01*
X26500Y-37500D02*
X28000Y-37500D01*
X28000Y-37500D02*
X29000Y-37500D01*
X13000Y-37250D02*
X13500Y-37250D01*
X13500Y-37250D02*
X14000Y-36750D01*
X45000Y-16000D02*
X46500Y-17500D01*
X46500Y-17500D02*
X48750Y-17500D01*
X44500Y-15000D02*
X45000Y-15500D01*
X45000Y-15500D02*
X45000Y-16000D01*
X42500Y-17500D02*
X44000Y-16000D01*
X44000Y-15500D02*
X44500Y-15000D01*
X44000Y-16000D02*
X44000Y-15500D01*
X29000Y-33500D02*
X29008Y-33516D01*
X29008Y-33516D02*
X29204Y-33516D01*
X29204Y-33516D02*
X30282Y-34594D01*
X30282Y-34594D02*
X30282Y-35770D01*
X37044Y-42532D02*
X37044Y-47824D01*
X38416Y-49000D02*
X38416Y-50274D01*
X38416Y-50274D02*
X36456Y-52234D01*
X36456Y-52234D02*
X36456Y-54194D01*
X36456Y-54194D02*
X36358Y-54292D01*
X36358Y-54292D02*
X36358Y-54390D01*
X36358Y-54390D02*
X35966Y-54782D01*
X35966Y-54782D02*
X35966Y-55272D01*
X35966Y-55272D02*
X36000Y-55250D01*
X29000Y-33500D02*
X28000Y-33500D01*
X26500Y-33500D02*
X28000Y-33500D01*
X38000Y-55250D02*
X38000Y-55322D01*
X48130Y-56380D02*
X47250Y-55500D01*
X48130Y-56988D02*
X48130Y-56380D01*
X47835Y-57283D02*
X48130Y-56988D01*
X39961Y-57283D02*
X47835Y-57283D01*
X38000Y-55322D02*
X39961Y-57283D01*
X38000Y-47500D02*
X38024Y-47530D01*
X38024Y-47530D02*
X38318Y-47824D01*
X38318Y-47824D02*
X38318Y-48020D01*
X38318Y-48020D02*
X39495Y-49197D01*
X39495Y-49197D02*
X39495Y-50273D01*
X39495Y-50273D02*
X38416Y-51352D01*
X38416Y-51352D02*
X38416Y-54292D01*
X38416Y-54292D02*
X38024Y-54684D01*
X38024Y-54684D02*
X38024Y-55272D01*
X38024Y-55272D02*
X38000Y-55250D01*
G54D44*
X55000Y-53000D02*
X54000Y-53000D01*
X52250Y-53500D02*
X53100Y-53500D01*
X53100Y-53500D02*
X53600Y-53000D01*
X53600Y-53000D02*
X54000Y-53000D01*
G54D43*
X43500Y-24500D02*
X43500Y-24700D01*
X47100Y-22600D02*
X47200Y-22500D01*
X46600Y-22600D02*
X47100Y-22600D01*
X46400Y-22800D02*
X46600Y-22600D01*
X46400Y-24200D02*
X46400Y-22800D01*
X45400Y-25200D02*
X46400Y-24200D01*
X44000Y-25200D02*
X45400Y-25200D01*
X43500Y-24700D02*
X44000Y-25200D01*
X43500Y-24500D02*
X43500Y-23500D01*
X43500Y-23500D02*
X44500Y-22500D01*
X47200Y-26500D02*
X47200Y-27800D01*
X47200Y-27800D02*
X44500Y-30500D01*
X44500Y-30500D02*
X43750Y-30500D01*
X43750Y-30500D02*
X42250Y-32000D01*
X42250Y-32000D02*
X42250Y-39500D01*
X42250Y-39500D02*
X40250Y-41500D01*
X40250Y-41500D02*
X38000Y-41500D01*
X44500Y-21500D02*
X44500Y-21300D01*
X45300Y-20500D02*
X47200Y-20500D01*
X44500Y-21300D02*
X45300Y-20500D01*
G54D44*
X54000Y-25000D02*
X54000Y-24500D01*
X54000Y-24500D02*
X54500Y-24000D01*
X54500Y-24000D02*
X55000Y-24000D01*
X52200Y-24500D02*
X53300Y-24500D01*
X53800Y-25000D02*
X54000Y-25000D01*
X53300Y-24500D02*
X53800Y-25000D01*
G54D43*
X54000Y-24500D02*
X54500Y-24000D01*
X54500Y-24000D02*
X55000Y-24000D01*
G54D44*
X54000Y-21000D02*
X54000Y-22000D01*
X52200Y-22500D02*
X52750Y-22500D01*
X52750Y-22500D02*
X53250Y-22000D01*
X53250Y-22000D02*
X54000Y-22000D01*
X54000Y-22000D02*
X55000Y-22000D01*
G54D43*
X53250Y-22000D02*
X55000Y-22000D01*
X52750Y-22500D02*
X53250Y-22000D01*
G54D44*
X13500Y-30500D02*
X14000Y-31000D01*
X13000Y-30500D02*
X13500Y-30500D01*
X14000Y-31000D02*
X13600Y-30600D01*
X16250Y-34000D02*
X15250Y-34000D01*
X15250Y-34000D02*
X15000Y-33750D01*
X15000Y-33750D02*
X15000Y-32000D01*
X15000Y-32000D02*
X14000Y-31000D01*
G54D43*
X15000Y-32000D02*
X15000Y-33750D01*
X41500Y-17500D02*
X42500Y-18500D01*
X43750Y-18500D02*
X44750Y-17500D01*
X42500Y-18500D02*
X43750Y-18500D01*
X41500Y-17500D02*
X43000Y-16000D01*
X43000Y-16000D02*
X43500Y-15500D01*
X43500Y-15500D02*
X43500Y-15000D01*
X29000Y-32500D02*
X29008Y-32536D01*
X29008Y-32536D02*
X29204Y-32536D01*
X29204Y-32536D02*
X30772Y-34104D01*
X30772Y-34104D02*
X30772Y-40768D01*
X30772Y-40768D02*
X30968Y-40964D01*
X30968Y-40964D02*
X30968Y-46060D01*
X31850Y-46942D02*
X31850Y-51156D01*
X28000Y-32500D02*
X26500Y-32500D01*
X16250Y-33000D02*
X16750Y-32500D01*
X16750Y-32500D02*
X22500Y-32500D01*
X38000Y-45500D02*
X39000Y-45500D01*
X39000Y-45500D02*
X41000Y-45500D01*
X41000Y-45500D02*
X42000Y-46500D01*
X42000Y-46500D02*
X47250Y-46500D01*
X44500Y-41500D02*
X44500Y-41000D01*
X45000Y-40500D02*
X47250Y-40500D01*
X44500Y-41000D02*
X45000Y-40500D01*
G54D44*
X54000Y-45000D02*
X54000Y-44500D01*
X54000Y-44500D02*
X54500Y-44000D01*
X54500Y-44000D02*
X55000Y-44000D01*
X52250Y-44500D02*
X53500Y-44500D01*
X53500Y-44500D02*
X54000Y-45000D01*
G54D43*
X55000Y-44000D02*
X54500Y-44000D01*
X54500Y-44000D02*
X54000Y-44500D01*
X53500Y-44500D02*
X54000Y-45000D01*
G54D44*
X54000Y-41000D02*
X54000Y-42000D01*
X52250Y-42500D02*
X52750Y-42500D01*
X52750Y-42500D02*
X53250Y-42000D01*
X53250Y-42000D02*
X54000Y-42000D01*
X54000Y-42000D02*
X55000Y-42000D01*
G54D43*
X53250Y-42000D02*
X55000Y-42000D01*
X52750Y-42500D02*
X53250Y-42000D01*
X43500Y-44500D02*
X44000Y-45000D01*
X47000Y-42500D02*
X47250Y-42500D01*
X46500Y-43000D02*
X47000Y-42500D01*
X46500Y-44500D02*
X46500Y-43000D01*
X46000Y-45000D02*
X46500Y-44500D01*
X44000Y-45000D02*
X46000Y-45000D01*
X43500Y-44500D02*
X43500Y-42750D01*
X43750Y-42500D02*
X44500Y-42500D01*
X43500Y-42750D02*
X43750Y-42500D01*
G54D42*
X17400Y-16400D02*
X19400Y-18400D01*
X19400Y-18400D02*
X19400Y-18600D01*
X19000Y-25500D02*
X19000Y-22400D01*
X19000Y-22400D02*
X18400Y-21800D01*
X18400Y-21800D02*
X18400Y-21200D01*
X18400Y-21200D02*
X19400Y-20200D01*
X19400Y-20200D02*
X19400Y-18600D01*
X17900Y-15400D02*
X18000Y-15400D01*
X18000Y-15400D02*
X17400Y-16000D01*
X17400Y-16000D02*
X17400Y-16400D01*
G54D44*
X49000Y-61000D02*
X53500Y-61000D01*
X52000Y-59000D02*
X52000Y-59500D01*
X52000Y-59500D02*
X53500Y-61000D01*
X56200Y-56500D02*
X56200Y-58800D01*
X54000Y-61000D02*
X49000Y-61000D01*
X56200Y-58800D02*
X54000Y-61000D01*
X49000Y-61000D02*
X49000Y-64000D01*
X48500Y-65000D02*
X48500Y-64500D01*
X48500Y-64500D02*
X49000Y-64000D01*
X52250Y-29500D02*
X52250Y-29150D01*
X53400Y-28000D02*
X56200Y-28000D01*
X52250Y-29150D02*
X53400Y-28000D01*
X52250Y-39500D02*
X52250Y-39150D01*
X53400Y-38000D02*
X56200Y-38000D01*
X52250Y-39150D02*
X53400Y-38000D01*
X52250Y-49500D02*
X52250Y-48950D01*
X53200Y-48000D02*
X56200Y-48000D01*
X52250Y-48950D02*
X53200Y-48000D01*
X56200Y-56600D02*
X56200Y-56500D01*
X56200Y-56500D02*
X56200Y-48000D01*
X52200Y-18800D02*
X52200Y-19500D01*
X56200Y-28000D02*
X56200Y-19200D01*
X56200Y-19200D02*
X55000Y-18000D01*
X55000Y-18000D02*
X53000Y-18000D01*
X53000Y-18000D02*
X52200Y-18800D01*
X56200Y-38000D02*
X56200Y-28000D01*
X56200Y-48000D02*
X56200Y-38000D01*
M02*
